<svg width="604" height="332" viewBox="0 0 604 332" fill="none" xmlns="http://www.w3.org/2000/svg">
<path d="M258.026 109.577C258.026 109.577 491.309 110.554 577.819 106.943C577.819 106.943 416.354 119.551 363.802 118.264C311.249 116.977 258.026 109.577 258.026 109.577Z" fill="#EBEBEB" fill-opacity="0.15"/>
<path opacity="0.3" d="M258.026 109.577C258.026 109.577 491.309 110.554 577.819 106.943C577.819 106.943 416.354 119.551 363.802 118.264C311.249 116.977 258.026 109.577 258.026 109.577Z" fill="#EBEBEB" fill-opacity="0.15"/>
<path d="M292.033 54.8866C292.033 54.8866 112.062 55.5408 45.6641 51.6555C45.6641 51.6555 160.871 62.2422 201.257 61.1218C241.643 60.0013 292.033 54.8866 292.033 54.8866Z" fill="#EBEBEB" fill-opacity="0.15"/>
<path opacity="0.3" d="M292.033 54.8866C292.033 54.8866 112.062 55.5408 45.6641 51.6555C45.6641 51.6555 160.871 62.2422 201.257 61.1218C241.643 60.0013 292.033 54.8866 292.033 54.8866Z" fill="#EBEBEB" fill-opacity="0.15"/>
<path d="M315.759 97.0914C315.759 97.0914 135.789 97.7443 69.3896 93.859C69.3896 93.859 184.596 104.446 224.982 103.325C265.369 102.206 315.759 97.0914 315.759 97.0914Z" fill="#EBEBEB" fill-opacity="0.15"/>
<path opacity="0.3" d="M315.759 97.0914C315.759 97.0914 135.789 97.7443 69.3896 93.859C69.3896 93.859 184.596 104.446 224.982 103.325C265.369 102.206 315.759 97.0914 315.759 97.0914Z" fill="#EBEBEB" fill-opacity="0.15"/>
<path d="M350.06 81.7797C350.06 81.7797 458.401 83.9979 498.585 82.1865C498.585 82.1865 435.179 89.5438 410.771 88.9034C386.361 88.2643 350.06 81.7797 350.06 81.7797Z" fill="#EBEBEB" fill-opacity="0.15"/>
<path opacity="0.3" d="M350.06 81.7797C350.06 81.7797 458.401 83.9979 498.585 82.1865C498.585 82.1865 435.179 89.5438 410.771 88.9034C386.361 88.2643 350.06 81.7797 350.06 81.7797Z" fill="#EBEBEB" fill-opacity="0.15"/>
<path d="M395.658 130.121C395.658 130.121 453.801 131.76 475.372 130.371C475.372 130.371 441.328 135.979 428.229 135.503C415.129 135.026 395.658 130.121 395.658 130.121Z" fill="#EBEBEB" fill-opacity="0.15"/>
<path opacity="0.3" d="M395.658 130.121C395.658 130.121 453.801 131.76 475.372 130.371C475.372 130.371 441.328 135.979 428.229 135.503C415.129 135.026 395.658 130.121 395.658 130.121Z" fill="#EBEBEB" fill-opacity="0.15"/>
<path d="M90.1914 0.549072C90.1914 0.549072 148.335 2.18818 169.906 0.798784C169.906 0.798784 135.862 6.40696 122.762 5.93046C109.663 5.45519 90.1914 0.549072 90.1914 0.549072Z" fill="#EBEBEB" fill-opacity="0.15"/>
<path opacity="0.3" d="M90.1914 0.549072C90.1914 0.549072 148.335 2.18818 169.906 0.798784C169.906 0.798784 135.862 6.40696 122.762 5.93046C109.663 5.45519 90.1914 0.549072 90.1914 0.549072Z" fill="#EBEBEB" fill-opacity="0.15"/>
<path d="M27.5244 66.2314C27.5244 66.2314 101.9 68.8254 129.497 66.5855C129.497 66.5855 98.2916 75.6133 81.5349 74.8579C64.7782 74.1026 27.5244 66.2314 27.5244 66.2314Z" fill="#EBEBEB" fill-opacity="0.15"/>
<path opacity="0.3" d="M27.5244 66.2314C27.5244 66.2314 101.9 68.8254 129.497 66.5855C129.497 66.5855 98.2916 75.6133 81.5349 74.8579C64.7782 74.1026 27.5244 66.2314 27.5244 66.2314Z" fill="#EBEBEB" fill-opacity="0.15"/>
<path d="M462.762 28.1041C462.762 28.1041 520.905 29.7432 542.476 28.3538C542.476 28.3538 508.432 33.962 495.333 33.4855C482.233 33.0102 462.762 28.1041 462.762 28.1041Z" fill="#EBEBEB" fill-opacity="0.15"/>
<path opacity="0.3" d="M462.762 28.1041C462.762 28.1041 520.905 29.7432 542.476 28.3538C542.476 28.3538 508.432 33.962 495.333 33.4855C482.233 33.0102 462.762 28.1041 462.762 28.1041Z" fill="#EBEBEB" fill-opacity="0.15"/>
<path d="M48.437 117.713C48.437 117.713 106.581 119.353 128.151 117.963C128.151 117.963 94.1078 123.571 81.008 123.094C67.9081 122.619 48.437 117.713 48.437 117.713Z" fill="#EBEBEB" fill-opacity="0.15"/>
<path opacity="0.3" d="M48.437 117.713C48.437 117.713 106.581 119.353 128.151 117.963C128.151 117.963 94.1078 123.571 81.008 123.094C67.9081 122.619 48.437 117.713 48.437 117.713Z" fill="#EBEBEB" fill-opacity="0.15"/>
<path d="M481.762 143.272C481.762 143.272 539.905 144.912 561.476 143.522C561.476 143.522 527.432 149.13 514.333 148.653C501.233 148.178 481.762 143.272 481.762 143.272Z" fill="#EBEBEB" fill-opacity="0.15"/>
<path opacity="0.3" d="M481.762 143.272C481.762 143.272 539.905 144.912 561.476 143.522C561.476 143.522 527.432 149.13 514.333 148.653C501.233 148.178 481.762 143.272 481.762 143.272Z" fill="#EBEBEB" fill-opacity="0.15"/>
<g opacity="0.3">
<path d="M202.229 207.167C202.229 207.167 347.162 211.58 346.767 218.855C346.542 223.008 231.638 225.04 231.583 231.624C231.551 235.407 355.431 237.043 355.396 241.201C355.374 243.8 303.102 246.824 303.079 249.509C303.045 253.581 379.901 255.624 380.383 257.704C380.865 259.784 287.517 260.136 287.464 266.372C287.419 271.741 370.63 269.986 370.608 272.584C370.586 275.183 336.791 277.373 336.769 279.972C336.747 282.571 412.283 283.227 414.757 285.829C417.231 288.432 316.558 289.291 316.532 292.408C316.506 295.527 391.876 296.182 391.856 298.607C391.835 301.031 359.192 304.666 359.192 304.666C359.192 304.666 405.643 301.403 405.671 298.112C405.698 294.82 382.406 294.431 381.912 293.911C381.417 293.39 451.998 289.705 452.044 284.162C452.09 278.619 387.706 277.637 387.714 276.597C387.723 275.558 447.804 273.76 447.844 269.083C447.883 264.405 374.169 264.794 374.178 263.754C374.187 262.715 469.893 258.855 469.915 256.256C469.955 251.453 393.425 250.276 393.445 247.851C393.482 243.52 498.781 246.579 498.844 239.13C498.881 234.625 415.633 233.425 415.735 228.835C415.869 222.772 557.134 222.853 557.192 215.922C557.235 210.726 496.945 207.694 496.945 207.694L213.455 207.185" fill="#210062"/>
<path d="M505.885 228.622C505.885 228.622 533.82 230.84 540.807 231.026C547.793 231.212 562.457 228.724 562.457 228.724L505.885 228.622Z" fill="#210062"/>
<path d="M1.01123 327.609C1.01123 327.609 28.9458 329.827 35.9326 330.013C42.9193 330.199 57.583 327.71 57.583 327.71L1.01123 327.609Z" fill="#210062"/>
<path d="M114.244 314.289C114.244 314.289 162.178 318.231 174.166 318.561C186.156 318.891 211.318 314.463 211.318 314.463L114.244 314.289Z" fill="#210062"/>
<path d="M191.381 296.726C191.381 296.726 250.898 302.002 265.784 302.442C280.671 302.882 311.919 296.943 311.919 296.943L191.381 296.726Z" fill="#210062"/>
<path d="M501.859 295.986C501.859 295.986 460.778 301.414 450.516 301.834C440.254 302.255 418.812 295.837 418.812 295.837L501.859 295.986Z" fill="#210062"/>
<path d="M430.065 211.366C430.065 211.366 457.987 215.049 464.973 215.351C471.959 215.654 486.637 211.468 486.637 211.468L430.065 211.366Z" fill="white" fill-opacity="0.15"/>
<path d="M233.919 212.981C233.919 212.981 192.912 217.172 182.665 217.494C172.42 217.816 151 212.832 151 212.832L233.919 212.981Z" fill="#210062"/>
<path d="M588.211 324.079C588.211 324.079 502.323 329.239 480.858 329.624C459.393 330.01 414.479 323.766 414.479 323.766L588.211 324.079Z" fill="#210062"/>
<path d="M231.141 311.469C231.141 311.469 245.752 313.748 250.878 313.844C256.003 313.94 272.64 311.544 272.64 311.544L231.141 311.469Z" fill="#210062"/>
<path d="M559.225 283.07C559.225 283.07 573.836 285.349 578.962 285.444C584.087 285.54 600.724 283.145 600.724 283.145L559.225 283.07Z" fill="#210062"/>
<path d="M324.578 300.46C324.578 300.46 332.1 302.726 334.742 302.817C337.384 302.908 345.97 300.498 345.97 300.498L324.578 300.46Z" fill="#210062"/>
<path d="M454.577 260.869C454.577 260.869 465.156 262.43 468.867 262.495C472.579 262.561 484.623 260.923 484.623 260.923L454.577 260.869Z" fill="#210062"/>
<path d="M344.506 227.157C344.506 227.157 332.944 229.304 330.055 229.472C327.168 229.64 305.896 227.088 305.896 227.088L344.506 227.157Z" fill="white" fill-opacity="0.15"/>
<path d="M414.235 222.181C414.235 222.181 406.407 224.334 404.453 224.505C402.5 224.675 388.116 222.134 388.116 222.134L414.235 222.181Z" fill="white" fill-opacity="0.15"/>
<path d="M353.616 215.548L347.824 216.64L346.478 222.922L345.239 216.636L339.464 215.519L345.235 214.079L346.602 208.144L347.871 214.083L353.616 215.548Z" fill="white" fill-opacity="0.15"/>
<path d="M436.881 242.361L431.088 243.452L429.743 249.734L428.503 243.448L422.73 242.332L428.501 240.892L429.867 234.958L431.135 240.897L436.881 242.361Z" fill="white" fill-opacity="0.15"/>
<path d="M406.711 228.259C405.944 228.258 405.932 229.487 406.701 229.488C407.468 229.49 407.479 228.261 406.711 228.259Z" fill="white" fill-opacity="0.15"/>
<path d="M356.026 225.155C355.258 225.153 355.247 226.382 356.015 226.384C356.782 226.385 356.794 225.156 356.026 225.155Z" fill="white" fill-opacity="0.15"/>
<path d="M336.157 263.884C335.39 263.882 335.379 265.111 336.147 265.113C336.913 265.114 336.926 263.885 336.157 263.884Z" fill="white" fill-opacity="0.15"/>
<path d="M412.963 286.228C412.195 286.226 412.184 287.455 412.952 287.457C413.718 287.457 413.731 286.229 412.963 286.228Z" fill="white" fill-opacity="0.15"/>
<path d="M273.336 234.677C272.569 234.675 272.557 235.904 273.326 235.905C274.093 235.907 274.104 234.678 273.336 234.677Z" fill="white" fill-opacity="0.15"/>
<path d="M543.686 212.647C542.919 212.646 542.907 213.875 543.675 213.876C544.442 213.877 544.454 212.648 543.686 212.647Z" fill="white" fill-opacity="0.15"/>
<path d="M211.078 213.741C210.311 213.74 210.299 214.969 211.067 214.97C211.835 214.971 211.846 213.742 211.078 213.741Z" fill="white" fill-opacity="0.15"/>
<path d="M319.159 217.259C317.688 217.257 317.666 219.612 319.139 219.615C320.609 219.618 320.632 217.262 319.159 217.259Z" fill="white" fill-opacity="0.15"/>
<path d="M305.563 267.069C304.092 267.066 304.07 269.421 305.543 269.424C307.014 269.428 307.036 267.071 305.563 267.069Z" fill="white" fill-opacity="0.15"/>
<path d="M515.005 214.289L511.322 214.982L510.466 218.978L509.677 214.98L506.006 214.27L509.675 213.355L510.544 209.58L511.351 213.358L515.005 214.289Z" fill="white" fill-opacity="0.15"/>
<path d="M267.864 234.668L264.179 235.362L263.325 239.358L262.536 235.359L258.863 234.649L262.534 233.734L263.404 229.96L264.209 233.737L267.864 234.668Z" fill="white" fill-opacity="0.15"/>
<path d="M474.218 238.279L472.158 238.666L471.681 240.9L471.24 238.665L469.188 238.269L471.239 237.756L471.725 235.647L472.176 237.758L474.218 238.279Z" fill="white" fill-opacity="0.15"/>
<path d="M462.068 221.089C460.597 221.086 460.575 223.442 462.048 223.444C463.519 223.448 463.54 221.092 462.068 221.089Z" fill="white" fill-opacity="0.15"/>
<path d="M367.502 267.181L365.444 267.569L364.965 269.803L364.525 267.567L362.472 267.171L364.523 266.659L365.009 264.549L365.46 266.66L367.502 267.181Z" fill="white" fill-opacity="0.15"/>
<path d="M221.702 214.807L219.642 215.196L219.165 217.429L218.724 215.194L216.672 214.797L218.723 214.284L219.209 212.176L219.659 214.286L221.702 214.807Z" fill="white" fill-opacity="0.15"/>
<path d="M372.91 222.107L370.851 222.496L370.373 224.729L369.933 222.494L367.88 222.097L369.931 221.586L370.417 219.476L370.867 221.587L372.91 222.107Z" fill="white" fill-opacity="0.15"/>
</g>
<path d="M602.154 207.839C409.632 208.25 193.676 207.868 1.16807 206.759C193.689 206.341 409.646 206.736 602.154 207.839Z" fill="#263238" fill-opacity="0.15"/>
<path d="M14.8596 181.022L54.4418 181.093L49.9843 160.016C46.248 159.76 41.5635 158.767 37.3746 155.923L49.6206 158.297L44.1784 132.535C42.459 131.693 40.7526 130.611 39.1675 129.218L43.7936 130.739L43.0721 127.307C40.697 126.212 38.2667 124.68 36.1322 122.535L42.6158 125.165L35.409 91.0654L31.0134 110.319L34.8248 109.347C34.8248 109.347 33.2667 110.479 30.7006 111.686L24.396 139.272L28.8126 138.145C28.8126 138.145 26.9947 139.465 24.0543 140.783L19.6864 159.881L28.303 157.689C28.0808 157.85 24.4396 160.43 19.2278 161.888L18.4724 165.212L31.7114 161.839C31.7114 161.839 25.8072 166.132 18.0812 166.919L16.9944 171.683L21.4001 170.562C21.4001 170.562 19.5823 171.882 16.648 173.195L14.8596 181.022Z" fill="#263238" fill-opacity="0.15"/>
<path d="M22.3714 153.771C24.5527 154.637 32.6337 158.054 34.3769 159.05C34.3813 158.67 34.3869 158.289 34.3913 157.909C32.4456 156.719 30.4926 155.541 28.5396 154.362C26.4445 153.094 24.1934 151.964 22.243 150.472C22.1476 150.399 22.2021 150.196 22.3349 150.253C24.4904 151.186 26.4897 152.567 28.4976 153.791C30.4803 155 32.4412 156.245 34.3971 157.501C34.4299 154.591 34.4627 151.682 34.5063 148.772C31.3563 147.46 28.1967 145.709 25.3053 143.913C25.205 143.851 25.2738 143.659 25.3898 143.709C28.463 145.028 31.6554 146.58 34.5119 148.381C34.5342 146.869 34.5766 135.217 35.0652 120.465C33.1504 119.461 31.1781 118.575 29.2645 117.567C29.139 117.501 29.2298 117.274 29.3638 117.328C31.308 118.117 33.1778 119.051 35.0842 119.922C35.2223 115.902 35.4049 111.885 35.6762 107.872C35.6845 107.74 35.873 107.739 35.8767 107.873C36.0843 115.334 35.9405 129.772 35.7878 137.239C37.7932 135.604 39.9291 134.158 41.9701 132.571C42.0486 132.51 42.1243 132.647 42.0458 132.707C39.9129 134.365 37.9143 136.205 35.7755 137.858C35.7671 138.28 35.7588 138.702 35.7492 139.124C37.9175 138.11 40.1164 137.166 42.3082 136.206C42.4793 136.131 42.6296 136.384 42.4548 136.47C40.2223 137.566 37.9967 138.681 35.7371 139.715C35.6545 143.414 35.2161 156.761 35.0275 163.218C39.1223 161.099 43.2502 159.035 47.4003 157.038C47.5583 156.961 47.6932 157.191 47.5376 157.283C43.4851 159.656 39.288 161.808 35.0137 163.717C34.8583 169.083 34.6969 175.444 34.5847 180.811C34.5784 181.136 34.0874 181.137 34.0937 180.81C34.2231 173.965 34.2996 166.125 34.3762 159.28C32.2307 158.73 24.138 155.128 22.217 154.144C22.0186 154.043 22.162 153.688 22.3714 153.771Z" fill="#37474F" fill-opacity="0.15"/>
<g opacity="0.2">
<path d="M42.6181 125.165L39.8017 124.021L35.4102 91.0679L42.6181 125.165Z" fill="#FFC727" fill-opacity="0.15"/>
<path d="M43.7947 130.74L40.5538 129.675L40.0161 125.648C41.0276 126.292 42.0542 126.845 43.072 127.309L43.7947 130.74Z" fill="#FFC727" fill-opacity="0.15"/>
<path d="M49.6204 158.298L44.228 157.251L40.6509 130.406C41.7975 131.251 42.985 131.953 44.177 132.537L49.6204 158.298Z" fill="#FFC727" fill-opacity="0.15"/>
<path d="M54.4407 181.092L47.4033 181.079L44.478 159.113C46.4185 159.632 48.2963 159.898 49.9821 160.015L54.4407 181.092Z" fill="#FFC727" fill-opacity="0.15"/>
</g>
<path d="M116.844 150.391L156.425 150.462L151.968 129.385C148.232 129.128 143.547 128.135 139.358 125.292L151.604 127.667L146.162 101.905C144.443 101.063 142.736 99.9808 141.151 98.5882L145.777 100.109L145.056 96.6769C142.681 95.5824 140.25 94.0496 138.116 91.9047L144.599 94.5351L137.393 60.4354L132.997 79.6892L136.809 78.7171C136.809 78.7171 135.25 79.8492 132.684 81.0562L126.38 108.642L130.796 107.515C130.796 107.515 128.978 108.835 126.038 110.153L121.67 129.251L130.287 127.059C130.064 127.22 126.423 129.8 121.211 131.258L120.455 134.582L133.694 131.209C133.694 131.209 127.79 135.502 120.064 136.289L118.977 141.053L123.383 139.932C123.383 139.932 121.565 141.252 118.63 142.565L116.844 150.391Z" fill="#263238" fill-opacity="0.15"/>
<path d="M124.357 123.14C126.538 124.005 134.619 127.423 136.362 128.419C136.367 128.039 136.372 127.658 136.377 127.278C134.431 126.088 132.477 124.91 130.525 123.73C128.43 122.463 126.179 121.333 124.228 119.84C124.133 119.767 124.187 119.564 124.32 119.622C126.476 120.555 128.474 121.936 130.483 123.16C132.466 124.369 134.428 125.614 136.382 126.87C136.415 123.96 136.448 121.051 136.492 118.141C133.342 116.828 130.182 115.078 127.291 113.282C127.19 113.22 127.259 113.028 127.375 113.078C130.448 114.396 133.641 115.949 136.497 117.75C136.519 116.238 136.562 104.586 137.05 89.8336C135.136 88.8301 133.163 87.9442 131.25 86.9358C131.124 86.87 131.215 86.6425 131.349 86.6972C133.293 87.4853 135.163 88.4206 137.069 89.2903C137.208 85.2709 137.39 81.2528 137.66 77.241C137.67 77.1086 137.857 77.1077 137.861 77.2414C138.068 84.7031 137.926 99.1405 137.772 106.609C139.777 104.973 141.913 103.528 143.954 101.941C144.033 101.88 144.108 102.017 144.03 102.077C141.897 103.735 139.898 105.575 137.758 107.228C137.75 107.65 137.742 108.072 137.732 108.493C139.9 107.479 142.099 106.535 144.291 105.576C144.462 105.501 144.614 105.754 144.438 105.84C142.205 106.935 139.98 108.051 137.72 109.085C137.637 112.784 137.199 126.131 137.01 132.588C141.105 130.471 145.233 128.405 149.383 126.408C149.541 126.331 149.676 126.56 149.519 126.652C145.467 129.024 141.271 131.176 136.995 133.086C136.84 138.452 136.679 144.813 136.566 150.18C136.56 150.505 136.069 150.506 136.075 150.179C136.205 143.334 136.281 135.494 136.358 128.65C134.212 128.099 126.12 124.498 124.199 123.514C124.003 123.413 124.146 123.057 124.357 123.14Z" fill="#37474F" fill-opacity="0.15"/>
<g opacity="0.2">
<path d="M144.603 94.5339L141.787 93.3903L137.394 60.4366L144.603 94.5339Z" fill="#FFC727" fill-opacity="0.15"/>
<path d="M145.78 100.109L142.539 99.0437L142.001 95.0168C143.012 95.661 144.039 96.2136 145.057 96.6782L145.78 100.109Z" fill="#FFC727" fill-opacity="0.15"/>
<path d="M151.606 127.667L146.213 126.62L142.636 99.7765C143.783 100.621 144.97 101.323 146.162 101.907L151.606 127.667Z" fill="#FFC727" fill-opacity="0.15"/>
<path d="M156.426 150.461L149.388 150.448L146.463 128.482C148.403 129.001 150.281 129.267 151.967 129.384L156.426 150.461Z" fill="#FFC727" fill-opacity="0.15"/>
</g>
<path d="M549.36 176.029L588.942 176.1L584.485 155.023C580.749 154.766 576.064 153.773 571.875 150.93L584.121 153.305L578.679 127.543C576.96 126.701 575.254 125.619 573.668 124.226L578.294 125.747L577.573 122.315C575.197 121.22 572.767 119.688 570.633 117.543L577.116 120.173L569.91 86.0733L565.514 105.327L569.325 104.355C569.325 104.355 567.767 105.487 565.201 106.694L558.896 134.28L563.313 133.153C563.313 133.153 561.495 134.472 558.555 135.791L554.187 154.889L562.804 152.697C562.581 152.857 558.94 155.437 553.727 156.896L552.971 160.22L566.209 156.847C566.209 156.847 560.305 161.14 552.579 161.927L551.492 166.691L555.898 165.57C555.898 165.57 554.08 166.89 551.146 168.203L549.36 176.029Z" fill="#263238" fill-opacity="0.15"/>
<path d="M556.873 148.778C559.056 149.643 567.136 153.061 568.879 154.057C568.883 153.677 568.889 153.296 568.893 152.916C566.948 151.725 564.993 150.548 563.042 149.368C560.947 148.101 558.695 146.971 556.745 145.478C556.65 145.405 556.704 145.202 556.837 145.259C558.992 146.193 560.992 147.574 563 148.798C564.982 150.007 566.943 151.252 568.899 152.507C568.932 149.598 568.965 146.688 569.008 143.779C565.858 142.466 562.699 140.716 559.807 138.92C559.707 138.858 559.776 138.666 559.892 138.716C562.965 140.034 566.157 141.587 569.014 143.388C569.036 141.876 569.079 130.224 569.567 115.471C567.652 114.468 565.68 113.582 563.767 112.574C563.641 112.508 563.732 112.28 563.866 112.335C565.81 113.123 567.68 114.058 569.586 114.928C569.724 110.909 569.907 106.891 570.177 102.879C570.187 102.747 570.374 102.746 570.378 102.879C570.585 110.341 570.441 124.777 570.289 132.246C572.294 130.611 574.43 129.164 576.471 127.578C576.55 127.517 576.625 127.653 576.547 127.714C574.414 129.372 572.415 131.211 570.275 132.865C570.267 133.287 570.258 133.709 570.249 134.131C572.417 133.117 574.616 132.173 576.808 131.213C576.979 131.138 577.129 131.391 576.955 131.477C574.722 132.572 572.496 133.688 570.236 134.722C570.153 138.421 569.715 151.768 569.526 158.225C573.621 156.107 577.749 154.042 581.899 152.044C582.057 151.968 582.192 152.197 582.035 152.29C577.982 154.662 573.786 156.814 569.511 158.724C569.356 164.09 569.194 170.45 569.082 175.818C569.076 176.143 568.585 176.143 568.591 175.817C568.72 168.972 568.797 161.132 568.872 154.288C566.727 153.737 558.634 150.136 556.713 149.152C556.519 149.05 556.663 148.695 556.873 148.778Z" fill="#37474F" fill-opacity="0.15"/>
<g opacity="0.2">
<path d="M552.581 161.927C555.247 161.655 557.692 160.963 559.758 160.181L557.584 176.042L549.36 176.027L551.146 168.203C554.083 166.89 555.899 165.571 555.899 165.571L551.495 166.691L552.581 161.927Z" fill="#FFC727" fill-opacity="0.15"/>
<path d="M553.727 156.896C556.594 156.095 558.986 154.952 560.593 154.063L559.997 158.429L552.974 160.221L553.727 156.896Z" fill="#FFC727" fill-opacity="0.15"/>
<path d="M565.201 106.694C565.97 106.33 566.651 105.975 567.226 105.653L560.707 153.231L554.186 154.891L558.554 135.79C561.494 134.474 563.314 133.151 563.314 133.151L558.898 134.28L565.201 106.694Z" fill="#FFC727" fill-opacity="0.15"/>
<path d="M569.91 86.0745L567.336 104.864L565.515 105.327L569.91 86.0745Z" fill="#FFC727" fill-opacity="0.15"/>
</g>
<path d="M441.853 194.55L481.434 194.621L476.977 173.544C473.24 173.288 468.556 172.295 464.367 169.451L476.613 171.826L471.171 146.065C469.451 145.222 467.745 144.14 466.16 142.748L470.786 144.268L470.065 140.836C467.689 139.742 465.259 138.209 463.125 136.064L469.608 138.695L462.401 104.595L458.006 123.849L461.817 122.877C461.817 122.877 460.259 124.009 457.693 125.216L451.388 152.801L455.805 151.674C455.805 151.674 453.987 152.994 451.047 154.313L446.679 173.411L455.295 171.218C455.073 171.379 451.432 173.958 446.22 175.417L445.464 178.741L458.703 175.368C458.703 175.368 452.798 179.662 445.072 180.449L443.986 185.213L448.391 184.092C448.391 184.092 446.573 185.411 443.639 186.724L441.853 194.55Z" fill="#263238" fill-opacity="0.15"/>
<path d="M449.366 167.3C451.547 168.165 459.628 171.583 461.371 172.578C461.375 172.198 461.381 171.817 461.385 171.437C459.44 170.247 457.486 169.069 455.534 167.89C453.439 166.622 451.188 165.492 449.237 164C449.142 163.927 449.197 163.724 449.329 163.781C451.486 164.714 453.484 166.095 455.492 167.319C457.474 168.528 459.435 169.773 461.391 171.029C461.424 168.119 461.457 165.21 461.5 162.3C458.35 160.988 455.191 159.237 452.299 157.441C452.199 157.379 452.268 157.188 452.384 157.237C455.457 158.556 458.65 160.109 461.506 161.909C461.528 160.397 461.571 148.745 462.059 133.993C460.145 132.99 458.172 132.104 456.259 131.095C456.133 131.029 456.224 130.802 456.358 130.857C458.302 131.645 460.172 132.58 462.078 133.45C462.216 129.43 462.399 125.412 462.669 121.4C462.677 121.268 462.866 121.267 462.87 121.401C463.077 128.863 462.933 143.3 462.781 150.767C464.786 149.132 466.922 147.686 468.963 146.099C469.042 146.039 469.117 146.175 469.039 146.235C466.906 147.894 464.907 149.733 462.768 151.386C462.76 151.808 462.752 152.23 462.742 152.652C464.91 151.639 467.109 150.695 469.301 149.734C469.472 149.659 469.623 149.912 469.448 149.998C467.215 151.093 464.99 152.209 462.73 153.244C462.647 156.943 462.209 170.289 462.02 176.746C466.115 174.628 470.243 172.563 474.393 170.566C474.551 170.49 474.686 170.719 474.529 170.81C470.477 173.183 466.281 175.335 462.005 177.244C461.85 182.61 461.689 188.971 461.577 194.338C461.57 194.663 461.079 194.664 461.085 194.337C461.215 187.492 461.291 179.652 461.368 172.807C459.222 172.256 451.13 168.655 449.209 167.671C449.012 167.571 449.155 167.216 449.366 167.3Z" fill="#37474F" fill-opacity="0.15"/>
<g opacity="0.2">
<path d="M445.073 180.449C447.739 180.176 450.184 179.485 452.25 178.703L450.076 194.564L441.852 194.549L443.638 186.724C446.575 185.412 448.392 184.093 448.392 184.093L443.987 185.213L445.073 180.449Z" fill="#FFC727" fill-opacity="0.15"/>
<path d="M446.219 175.417C449.086 174.617 451.478 173.475 453.085 172.585L452.489 176.951L445.466 178.743L446.219 175.417Z" fill="#FFC727" fill-opacity="0.15"/>
<path d="M457.693 125.216C458.462 124.852 459.144 124.497 459.718 124.175L453.199 171.753L446.678 173.412L451.046 154.312C453.986 152.995 455.807 151.673 455.807 151.673L451.39 152.801L457.693 125.216Z" fill="#FFC727" fill-opacity="0.15"/>
<path d="M462.401 104.596L459.827 123.385L458.007 123.849L462.401 104.596Z" fill="#FFC727" fill-opacity="0.15"/>
</g>
<path d="M543.849 172.765L512.739 172.709L516.52 156.156C519.46 155.964 523.155 155.198 526.485 152.975L516.829 154.806L521.446 134.575C522.808 133.918 524.163 133.073 525.427 131.982L521.771 133.165L522.383 130.469C524.264 129.616 526.195 128.418 527.901 126.738L522.77 128.787L528.883 102.008L532.084 117.153L529.102 116.379C529.102 116.379 530.31 117.272 532.312 118.229L536.903 139.927L533.447 139.03C533.447 139.03 534.859 140.072 537.152 141.117L540.333 156.139L533.59 154.392C533.763 154.519 536.59 156.557 540.668 157.718L541.219 160.333L530.859 157.643C530.859 157.643 535.443 161.034 541.505 161.675L542.296 165.422L538.849 164.529C538.849 164.529 540.26 165.572 542.549 166.611L543.849 172.765Z" fill="#263238" fill-opacity="0.15"/>
<path d="M538.304 151.326C536.578 152 530.182 154.664 528.798 155.442C528.8 155.143 528.801 154.844 528.802 154.544C530.347 153.614 531.898 152.695 533.448 151.772C535.11 150.782 536.894 149.899 538.448 148.733C538.524 148.676 538.484 148.516 538.379 148.56C536.671 149.288 535.082 150.368 533.489 151.324C531.914 152.268 530.356 153.241 528.803 154.223C528.815 151.936 528.828 149.649 528.833 147.363C531.325 146.34 533.831 144.973 536.127 143.57C536.207 143.522 536.156 143.371 536.063 143.409C533.63 144.437 531.101 145.648 528.831 147.056C528.833 145.866 528.953 136.71 528.764 125.113C530.282 124.33 531.844 123.64 533.361 122.853C533.461 122.801 533.393 122.623 533.286 122.665C531.748 123.278 530.265 124.008 528.756 124.686C528.701 121.527 528.61 118.369 528.45 115.215C528.445 115.111 528.297 115.109 528.293 115.214C528.031 121.079 527.954 132.425 527.976 138.295C526.421 137.003 524.762 135.861 523.178 134.609C523.117 134.561 523.056 134.668 523.117 134.717C524.771 136.027 526.317 137.476 527.978 138.782C527.978 139.114 527.979 139.446 527.981 139.777C526.29 138.975 524.574 138.227 522.865 137.466C522.731 137.407 522.609 137.606 522.747 137.673C524.487 138.54 526.221 139.424 527.983 140.243C528 143.151 528.168 153.641 528.231 158.716C525.041 157.04 521.822 155.406 518.588 153.824C518.465 153.765 518.356 153.944 518.477 154.016C521.631 155.893 524.901 157.595 528.236 159.108C528.287 163.325 528.33 168.325 528.348 172.543C528.349 172.799 528.735 172.8 528.733 172.544C528.722 167.164 528.765 161.002 528.796 155.622C530.49 155.195 536.896 152.388 538.419 151.62C538.578 151.541 538.47 151.262 538.304 151.326Z" fill="#37474F" fill-opacity="0.15"/>
<g opacity="0.2">
<path d="M516.522 156.158C517.732 156.081 519.067 155.904 520.45 155.565L517.749 172.717L512.739 172.708L516.522 156.158Z" fill="#FFC727" fill-opacity="0.15"/>
<path d="M521.444 134.575C522.302 134.162 523.157 133.675 523.987 133.098L520.683 154.073L516.826 154.806L521.444 134.575Z" fill="#FFC727" fill-opacity="0.15"/>
<path d="M522.381 130.47C523.113 130.138 523.853 129.752 524.583 129.309L524.096 132.414L521.772 133.166L522.381 130.47Z" fill="#FFC727" fill-opacity="0.15"/>
<path d="M528.884 102.008L524.793 127.98L522.771 128.788L528.884 102.008Z" fill="#FFC727" fill-opacity="0.15"/>
</g>
<path d="M453.891 198.033L422.781 197.977L426.562 181.424C429.501 181.232 433.197 180.466 436.525 178.243L426.87 180.074L431.486 159.843C432.848 159.186 434.203 158.341 435.467 157.25L431.811 158.433L432.423 155.737C434.304 154.884 436.235 153.686 437.941 152.006L432.811 154.055L438.924 127.275L442.125 142.42L439.142 141.646C439.142 141.646 440.351 142.539 442.352 143.496L446.944 165.194L443.488 164.296C443.488 164.296 444.899 165.339 447.193 166.384L450.375 181.406L443.631 179.659C443.804 179.785 446.631 181.824 450.71 182.985L451.26 185.599L440.901 182.91C440.901 182.91 445.485 186.301 451.547 186.941L452.338 190.689L448.89 189.795C448.89 189.795 450.302 190.839 452.591 191.878L453.891 198.033Z" fill="#263238" fill-opacity="0.15"/>
<path d="M448.345 176.595C446.619 177.268 440.223 179.933 438.84 180.71C438.841 180.41 438.843 180.112 438.844 179.812C440.388 178.882 441.94 177.963 443.489 177.041C445.152 176.052 446.936 175.169 448.49 174.002C448.566 173.945 448.525 173.786 448.42 173.83C446.713 174.557 445.124 175.637 443.53 176.593C441.956 177.537 440.397 178.511 438.845 179.492C438.857 177.205 438.87 174.918 438.875 172.632C441.368 171.609 443.874 170.243 446.17 168.84C446.25 168.791 446.198 168.64 446.106 168.68C443.673 169.708 441.144 170.918 438.874 172.326C438.876 171.137 438.996 161.98 438.807 150.384C440.325 149.601 441.887 148.911 443.405 148.124C443.504 148.072 443.437 147.894 443.33 147.935C441.791 148.549 440.309 149.279 438.799 149.957C438.744 146.797 438.652 143.64 438.493 140.485C438.488 140.381 438.34 140.38 438.335 140.485C438.074 146.349 437.997 157.695 438.018 163.565C436.464 162.274 434.805 161.131 433.221 159.88C433.16 159.831 433.099 159.939 433.16 159.987C434.815 161.297 436.361 162.748 438.02 164.053C438.021 164.384 438.022 164.716 438.024 165.048C436.333 164.245 434.617 163.497 432.907 162.737C432.774 162.677 432.652 162.876 432.788 162.943C434.529 163.81 436.262 164.694 438.025 165.513C438.041 168.422 438.209 178.912 438.272 183.987C435.082 182.311 431.865 180.676 428.63 179.095C428.507 179.035 428.397 179.214 428.519 179.286C431.673 181.163 434.943 182.866 438.277 184.378C438.33 188.596 438.372 193.596 438.389 197.814C438.391 198.07 438.776 198.07 438.776 197.814C438.764 192.434 438.808 186.273 438.838 180.893C440.532 180.465 446.939 177.659 448.462 176.89C448.62 176.809 448.512 176.529 448.345 176.595Z" fill="#37474F" fill-opacity="0.15"/>
<g opacity="0.2">
<path d="M426.562 181.426C427.772 181.349 429.107 181.172 430.492 180.833L427.791 197.985L422.78 197.976L426.562 181.426Z" fill="#FFC727" fill-opacity="0.15"/>
<path d="M431.485 159.842C432.344 159.429 433.199 158.942 434.028 158.365L430.724 179.34L426.868 180.073L431.485 159.842Z" fill="#FFC727" fill-opacity="0.15"/>
<path d="M432.422 155.738C433.155 155.406 433.894 155.02 434.624 154.577L434.137 157.683L431.814 158.435L432.422 155.738Z" fill="#FFC727" fill-opacity="0.15"/>
<path d="M438.924 127.276L434.835 153.247L432.812 154.056L438.924 127.276Z" fill="#FFC727" fill-opacity="0.15"/>
</g>
<path d="M203.019 168.984L234.128 169.04L230.626 152.475C227.69 152.273 224.007 151.493 220.716 149.258L230.34 151.124L226.063 130.877C224.712 130.215 223.371 129.365 222.126 128.27L225.762 129.466L225.195 126.768C223.328 125.908 221.417 124.703 219.74 123.017L224.836 125.084L219.172 98.2829L215.717 113.416L218.713 112.652C218.713 112.652 217.488 113.542 215.471 114.49L210.516 136.171L213.987 135.286C213.987 135.286 212.559 136.324 210.248 137.36L206.815 152.37L213.587 150.647C213.412 150.775 210.551 152.801 206.454 153.948L205.859 156.56L216.264 153.908C216.264 153.908 211.623 157.282 205.55 157.901L204.697 161.645L208.159 160.764C208.159 160.764 206.73 161.8 204.424 162.832L203.019 168.984Z" fill="#263238" fill-opacity="0.15"/>
<path d="M208.924 147.566C210.639 148.246 216.99 150.933 218.36 151.715C218.364 151.416 218.368 151.117 218.371 150.818C216.843 149.882 215.306 148.957 213.773 148.03C212.127 147.035 210.357 146.145 208.823 144.973C208.748 144.916 208.792 144.756 208.896 144.801C210.591 145.534 212.16 146.62 213.739 147.582C215.298 148.532 216.84 149.511 218.375 150.497C218.402 148.21 218.427 145.923 218.462 143.638C215.985 142.606 213.502 141.23 211.23 139.819C211.152 139.771 211.206 139.62 211.298 139.66C213.713 140.696 216.221 141.916 218.468 143.332C218.486 142.143 218.518 132.986 218.903 121.39C217.398 120.602 215.848 119.906 214.343 119.114C214.245 119.062 214.315 118.884 214.421 118.926C215.949 119.545 217.42 120.28 218.918 120.964C219.026 117.804 219.17 114.647 219.383 111.493C219.39 111.389 219.537 111.388 219.54 111.493C219.703 117.359 219.59 128.705 219.47 134.574C221.047 133.289 222.725 132.152 224.33 130.905C224.391 130.857 224.45 130.964 224.389 131.013C222.713 132.317 221.141 133.76 219.46 135.061C219.454 135.392 219.447 135.724 219.44 136.056C221.144 135.259 222.873 134.517 224.595 133.763C224.73 133.704 224.848 133.903 224.71 133.97C222.955 134.83 221.206 135.709 219.43 136.521C219.365 139.429 219.021 149.918 218.873 154.993C222.091 153.328 225.335 151.706 228.597 150.136C228.721 150.077 228.828 150.256 228.705 150.328C225.52 152.192 222.221 153.884 218.861 155.384C218.74 159.602 218.612 164.601 218.524 168.819C218.519 169.075 218.133 169.074 218.138 168.818C218.24 163.439 218.299 157.277 218.36 151.897C216.673 151.463 210.314 148.634 208.804 147.86C208.646 147.78 208.759 147.501 208.924 147.566Z" fill="#37474F" fill-opacity="0.15"/>
<g opacity="0.2">
<path d="M230.626 152.476C229.418 152.395 228.085 152.213 226.707 151.869L229.12 169.03L234.131 169.039L230.626 152.476Z" fill="#FFC727" fill-opacity="0.15"/>
<path d="M226.065 130.876C225.213 130.46 224.366 129.969 223.546 129.39L226.499 150.376L230.343 151.124L226.065 130.876Z" fill="#FFC727" fill-opacity="0.15"/>
<path d="M225.197 126.768C224.469 126.433 223.737 126.044 223.014 125.598L223.449 128.705L225.76 129.466L225.197 126.768Z" fill="#FFC727" fill-opacity="0.15"/>
<path d="M219.172 98.2828L222.826 124.269L224.835 125.085L219.172 98.2828Z" fill="#FFC727" fill-opacity="0.15"/>
</g>
<path d="M145.926 156.084L177.036 156.14L173.532 139.573C170.596 139.371 166.914 138.591 163.623 136.356L173.247 138.222L168.97 117.975C167.619 117.313 166.278 116.463 165.033 115.368L168.669 116.564L168.102 113.866C166.235 113.006 164.324 111.801 162.647 110.115L167.742 112.183L162.078 85.3811L158.624 100.514L161.619 99.7499C161.619 99.7499 160.395 100.64 158.378 101.588L153.423 123.269L156.894 122.383C156.894 122.383 155.465 123.421 153.155 124.457L149.722 139.467L156.494 137.744C156.319 137.87 153.458 139.899 149.361 141.045L148.766 143.657L159.17 141.005C159.17 141.005 154.53 144.379 148.457 144.998L147.603 148.742L151.066 147.861C151.066 147.861 149.637 148.898 147.33 149.929L145.926 156.084Z" fill="#263238" fill-opacity="0.15"/>
<path d="M151.829 134.666C153.544 135.346 159.895 138.033 161.266 138.815C161.269 138.515 161.273 138.217 161.277 137.918C159.748 136.982 158.212 136.057 156.678 135.13C155.032 134.134 153.263 133.245 151.729 132.073C151.653 132.016 151.697 131.856 151.801 131.901C153.496 132.634 155.066 133.72 156.645 134.682C158.203 135.631 159.745 136.61 161.281 137.597C161.307 135.31 161.332 133.023 161.366 130.737C158.89 129.706 156.407 128.33 154.134 126.919C154.056 126.87 154.11 126.719 154.202 126.759C156.617 127.796 159.126 129.016 161.372 130.432C161.39 129.242 161.423 120.086 161.807 108.49C160.302 107.702 158.752 107.006 157.247 106.213C157.149 106.161 157.219 105.983 157.325 106.025C158.853 106.644 160.324 107.38 161.821 108.063C161.929 104.904 162.073 101.747 162.286 98.5928C162.293 98.4888 162.44 98.4878 162.443 98.593C162.606 104.458 162.493 115.804 162.373 121.674C163.95 120.388 165.628 119.252 167.233 118.006C167.294 117.958 167.353 118.065 167.292 118.113C165.616 119.417 164.044 120.861 162.363 122.161C162.357 122.493 162.35 122.825 162.343 123.156C164.047 122.36 165.776 121.618 167.498 120.864C167.633 120.805 167.751 121.004 167.613 121.071C165.857 121.931 164.109 122.808 162.333 123.62C162.268 126.529 161.924 137.018 161.776 142.093C164.994 140.428 168.238 138.805 171.5 137.236C171.624 137.176 171.731 137.356 171.608 137.428C168.423 139.293 165.124 140.984 161.764 142.484C161.642 146.701 161.515 151.701 161.427 155.919C161.421 156.175 161.036 156.174 161.041 155.918C161.143 150.538 161.202 144.376 161.262 138.997C159.575 138.563 153.215 135.734 151.706 134.96C151.551 134.879 151.664 134.601 151.829 134.666Z" fill="#37474F" fill-opacity="0.15"/>
<g opacity="0.2">
<path d="M173.531 139.576C172.323 139.494 170.991 139.312 169.612 138.968L172.025 156.129L177.036 156.138L173.531 139.576Z" fill="#FFC727" fill-opacity="0.15"/>
<path d="M168.97 117.975C168.119 117.559 167.272 117.069 166.452 116.489L169.404 137.475L173.248 138.224L168.97 117.975Z" fill="#FFC727" fill-opacity="0.15"/>
<path d="M168.102 113.867C167.375 113.532 166.642 113.143 165.919 112.698L166.354 115.805L168.665 116.565L168.102 113.867Z" fill="#FFC727" fill-opacity="0.15"/>
<path d="M162.077 85.3823L165.731 111.368L167.74 112.185L162.077 85.3823Z" fill="#FFC727" fill-opacity="0.15"/>
</g>
<path d="M83.858 181.145L41.235 181.068L43.4123 169.517C52.348 168.932 59.3645 162.703 59.3645 162.703L43.7828 167.563L49.786 135.702C53.7494 133.785 56.2882 131.527 56.2882 131.527L50.2097 133.42L51.1908 128.225C56.5171 126.273 60.1934 123.089 60.4148 122.891L51.6882 125.606L57.3722 95.4352C59.4566 94.1209 60.6794 93.0328 60.6794 93.0328L57.6474 93.979L63.5463 62.6664L71.2424 107.557L64.2568 104.091C66.555 106.913 69.1648 108.93 71.7219 110.369L71.7218 110.376L78.9706 152.647L67.2184 147.935C71.0674 152.077 75.5929 154.149 79.4044 155.173L80.1485 159.493L73.8139 157.996C75.9921 159.808 78.3035 161.049 80.5535 161.887L83.858 181.145Z" fill="#263238" fill-opacity="0.15"/>
<path d="M77.0568 142.621C74.4997 143.62 65.4018 147.385 63.3524 148.537C63.3549 148.094 63.3562 147.651 63.3587 147.208C65.6477 145.83 67.9461 144.466 70.2422 143.1C72.706 141.633 74.3395 141.111 76.641 139.382C76.7533 139.298 76.6929 139.061 76.5387 139.127C74.0097 140.205 72.6667 141.019 70.303 142.437C67.9694 143.836 65.6619 145.278 63.3603 146.733C63.3791 143.344 63.3967 139.956 63.4035 136.566C67.097 135.05 70.8116 133.026 74.2146 130.946C74.3328 130.873 74.2555 130.65 74.1193 130.708C70.5146 132.231 66.7659 134.025 63.4037 136.111C63.4065 134.348 63.4152 132.587 63.412 130.825C63.3944 121.752 63.4525 112.67 63.304 103.595C65.554 102.435 67.8687 101.412 70.1163 100.245C70.2634 100.169 70.1624 99.9035 70.0046 99.9664C67.7256 100.876 65.5291 101.957 63.2913 102.963C63.2093 98.281 63.0757 93.6014 62.8387 88.9266C62.8304 88.7719 62.6119 88.7703 62.6046 88.9262C62.2172 97.6158 62.1707 106.316 62.2035 115.015C59.9001 113.101 57.44 111.409 55.0953 109.553C55.0047 109.481 54.9145 109.641 55.0039 109.711C57.456 111.651 59.7478 113.801 62.207 115.737C62.2089 116.228 62.2108 116.719 62.2127 117.21C59.7064 116.02 57.1633 114.913 54.6312 113.786C54.4327 113.698 54.2525 113.992 54.4546 114.093C57.0334 115.378 59.6035 116.687 62.2165 117.9C62.2404 122.209 62.2752 126.517 62.2931 130.823C62.3249 138.346 62.4228 145.867 62.5158 153.389C57.7885 150.904 53.0199 148.484 48.2266 146.14C48.0437 146.05 47.8818 146.316 48.0633 146.424C52.7365 149.205 57.5811 151.728 62.5229 153.97C62.599 160.22 62.6048 174.571 62.6305 180.822C62.6321 181.2 63.2035 181.203 63.2019 180.823C63.1847 172.852 63.3062 156.778 63.3526 148.806C65.8622 148.173 74.9763 144.195 77.2333 143.056C77.4635 142.939 77.3037 142.525 77.0568 142.621Z" fill="#37474F" fill-opacity="0.15"/>
<g opacity="0.2">
<path d="M71.24 107.555L67.9928 105.943L63.5474 62.6664L71.24 107.555Z" fill="#FFC727" fill-opacity="0.15"/>
<path d="M78.9716 152.645L72.5272 150.062L68.2036 107.998C69.364 108.923 70.5507 109.707 71.7205 110.366L71.7205 110.374L78.9716 152.645Z" fill="#FFC727" fill-opacity="0.15"/>
<path d="M83.8578 181.145L75.7195 181.13L72.7656 152.399C75.0426 153.744 77.3307 154.614 79.4041 155.172L80.1495 159.488L73.8172 157.991C75.9942 159.803 78.3057 161.045 80.5568 161.882L83.8578 181.145Z" fill="#FFC727" fill-opacity="0.15"/>
</g>
<path d="M274.833 200.669L232.209 200.593L234.386 189.041C243.322 188.457 250.339 182.227 250.339 182.227L234.757 187.088L240.76 155.226C244.724 153.308 247.262 151.051 247.262 151.051L241.184 152.943L242.165 147.748C247.491 145.796 251.168 142.612 251.389 142.415L242.662 145.129L248.346 114.958C250.431 113.644 251.654 112.556 251.654 112.556L248.621 113.502L254.52 82.1897L262.217 127.081L255.231 123.614C257.529 126.436 260.139 128.453 262.696 129.892L262.696 129.9L269.945 172.17L258.193 167.457C262.042 171.599 266.567 173.671 270.379 174.695L271.123 179.015L264.788 177.518C266.966 179.33 269.278 180.571 271.528 181.409L274.833 200.669Z" fill="#263238" fill-opacity="0.15"/>
<path d="M268.031 162.146C265.473 163.145 256.376 166.909 254.327 168.062C254.329 167.618 254.331 167.175 254.333 166.732C256.622 165.354 258.92 163.991 261.217 162.625C263.68 161.158 265.314 160.636 267.615 158.906C267.728 158.822 267.667 158.586 267.513 158.651C264.984 159.728 263.641 160.544 261.277 161.96C258.944 163.36 256.636 164.801 254.335 166.256C254.353 162.867 254.371 159.479 254.378 156.089C258.071 154.574 261.786 152.549 265.189 150.469C265.307 150.396 265.23 150.173 265.094 150.231C261.489 151.754 257.74 153.548 254.378 155.634C254.381 153.872 254.39 152.11 254.385 150.348C254.368 141.275 254.426 132.193 254.277 123.119C256.527 121.958 258.842 120.935 261.089 119.768C261.237 119.692 261.136 119.427 260.978 119.49C258.699 120.399 256.502 121.48 254.264 122.486C254.182 117.804 254.049 113.125 253.812 108.45C253.804 108.295 253.585 108.294 253.578 108.45C253.19 117.139 253.144 125.839 253.177 134.538C250.873 132.625 248.413 130.932 246.068 129.076C245.978 129.004 245.888 129.164 245.977 129.235C248.429 131.175 250.721 133.325 253.18 135.26C253.182 135.751 253.184 136.242 253.186 136.734C250.68 135.544 248.138 134.436 245.604 133.309C245.406 133.221 245.226 133.515 245.428 133.615C248.007 134.9 250.577 136.209 253.19 137.422C253.214 141.731 253.248 146.039 253.266 150.345C253.298 157.868 253.396 165.389 253.489 172.911C248.762 170.428 243.993 168.006 239.2 165.662C239.017 165.572 238.855 165.838 239.036 165.946C243.71 168.727 248.555 171.25 253.497 173.492C253.573 179.742 253.579 194.093 253.605 200.344C253.606 200.723 254.178 200.725 254.176 200.345C254.159 192.374 254.28 176.3 254.327 168.328C256.837 167.695 265.951 163.717 268.208 162.578C268.438 162.463 268.278 162.05 268.031 162.146Z" fill="#37474F" fill-opacity="0.15"/>
<g opacity="0.2">
<path d="M262.216 127.08L258.968 125.467L254.523 82.1909L262.216 127.08Z" fill="#FFC727" fill-opacity="0.15"/>
<path d="M269.947 172.17L263.503 169.587L259.179 127.522C260.34 128.447 261.526 129.232 262.696 129.891L262.696 129.898L269.947 172.17Z" fill="#FFC727" fill-opacity="0.15"/>
<path d="M274.832 200.669L266.694 200.655L263.74 171.924C266.017 173.268 268.305 174.139 270.379 174.697L271.124 179.012L264.792 177.516C266.969 179.328 269.28 180.57 271.531 181.405L274.832 200.669Z" fill="#FFC727" fill-opacity="0.15"/>
</g>
</svg>
