<svg width="1111" height="991" viewBox="0 0 1111 991" fill="none" xmlns="http://www.w3.org/2000/svg">
<path d="M180.46 557.857C180.46 557.857 194.649 827.119 194.217 892.191C193.763 957.27 172.153 990.091 218.016 990.254C255.905 990.399 246.83 978.732 245.532 939.603C244.217 900.479 252.093 589.272 251.866 570.523C251.513 539.864 243.479 540.796 220.879 540.437C198.3 540.083 179.776 544.698 180.46 557.857Z" fill="#733A11"/>
<path d="M248.681 548.793C248.681 548.897 248.686 549.012 248.68 549.128C248.747 549.26 248.808 549.398 248.864 549.547C248.809 549.185 248.748 548.931 248.681 548.793Z" fill="#DCCEC3"/>
<path d="M245.762 808.66C236.046 809.057 225.332 809.302 213.544 809.342C209.503 809.356 204.944 809.401 199.901 809.47C200.265 818.098 201.48 824.009 203.833 825.988C218.861 838.55 247.608 984.128 206.624 984.27C205.215 984.275 203.717 984.107 202.129 983.744C204.194 985.937 215.144 989.822 225.15 990.115C228.65 989.948 231.616 989.621 234.131 989.111C239.542 987.462 243.243 983.601 242.592 976.075C240.866 956.036 245.261 849.604 245.762 808.66ZM226.789 631.035C224.805 631.042 222.85 631.049 220.928 631.067C220.794 632.029 220.627 633.072 220.453 634.202C228.936 635.008 238.473 635.775 248.619 636.379C248.649 634.622 248.69 632.883 248.72 631.137C241.265 631.059 233.883 631.01 226.789 631.035ZM248.68 549.132C248.447 555.106 234.254 562.914 215.678 563.497C214.918 563.522 214.168 563.531 213.436 563.533C211.446 563.54 209.497 563.484 207.615 563.358C214.973 566.373 228.122 572.641 229.037 579.1C230.296 588.128 233.583 589.107 219.721 591.655C218.644 591.837 217.741 592.18 216.995 592.632C218.911 592.752 220.815 592.884 222.708 593.021C230.996 593.183 238.969 593.259 246.554 593.232C247.484 593.229 248.414 593.214 249.333 593.211C249.596 570.193 249.547 553.489 248.87 549.557C248.809 549.402 248.747 549.264 248.68 549.132Z" fill="#632F0D"/>
<path d="M248.681 548.795C248.972 554.819 234.603 562.904 215.678 563.488C196.775 564.095 181.045 557.946 180.743 551.922C180.447 545.893 194.989 539.552 213.897 538.968C232.805 538.367 248.379 542.777 248.681 548.795Z" fill="#D07C2C"/>
<path d="M240.3 549.402C240.518 553.934 229.696 560.02 215.455 560.466C201.224 560.913 189.387 556.283 189.158 551.745C188.929 547.23 199.88 542.451 214.116 542.004C228.352 541.552 240.071 544.869 240.3 549.402Z" fill="#F19320"/>
<path d="M214.356 554.926C208.991 554.944 204.626 553.162 204.56 551.434C204.46 549.626 208.83 547.733 214.516 547.546C214.815 547.539 215.119 547.527 215.418 547.526C220.67 547.507 224.863 548.783 224.946 550.494C225.034 552.302 220.725 554.731 215.038 554.912C214.801 554.924 214.576 554.925 214.356 554.926ZM215.955 544.373C215.403 544.375 214.845 544.382 214.281 544.396C203.737 544.732 195.664 548.262 195.825 551.62C195.975 554.834 204.059 558.118 214.016 558.083C214.428 558.082 214.839 558.069 215.267 558.062C225.801 557.72 233.787 553.234 233.626 549.876C233.487 546.697 225.709 544.339 215.955 544.373Z" fill="#EB7713"/>
<path d="M215.417 547.527C215.119 547.528 214.814 547.541 214.516 547.547C208.829 547.734 204.466 549.622 204.56 551.436C204.631 553.169 208.991 554.946 214.356 554.927C214.576 554.926 214.801 554.925 215.038 554.913C220.724 554.738 225.028 552.309 224.945 550.495C224.857 548.785 220.664 547.509 215.417 547.527Z" fill="#E5600B"/>
<path d="M202.692 613.363C202.713 608.133 208.789 603.872 216.261 603.846C223.756 603.82 229.79 608.033 229.769 613.269C229.747 618.493 223.678 622.759 216.183 622.785C208.711 622.806 202.67 618.587 202.692 613.363Z" fill="#240500"/>
<path d="M204.937 613.085C204.958 607.866 211.045 603.606 218.517 603.58C226 603.554 232.046 607.767 232.025 612.991C232.003 618.21 225.922 622.482 218.439 622.508C210.967 622.534 204.915 618.304 204.937 613.085Z" fill="#391B00"/>
<path d="M207.264 613.078C207.281 608.74 212.317 605.209 218.51 605.187C224.72 605.166 229.726 608.662 229.708 613C229.69 617.326 224.649 620.857 218.445 620.879C212.252 620.9 207.246 617.404 207.264 613.078Z" fill="#462500"/>
<path d="M205.724 789.636C205.746 784.406 211.815 780.145 219.299 780.119C226.782 780.093 232.839 784.306 232.818 789.542C232.796 794.766 226.704 799.021 219.221 799.047C211.737 799.073 205.703 794.86 205.724 789.636Z" fill="#240500"/>
<path d="M207.98 789.346C208.001 784.122 214.071 779.862 221.565 779.836C229.038 779.81 235.084 784.028 235.062 789.252C235.04 794.483 228.96 798.743 221.487 798.769C213.993 798.795 207.958 794.582 207.98 789.346Z" fill="#391B00"/>
<path d="M210.301 789.34C210.319 785.008 215.354 781.477 221.559 781.455C227.752 781.434 232.758 784.93 232.74 789.262C232.722 793.588 227.681 797.119 221.494 797.141C215.29 797.168 210.283 793.666 210.301 789.34Z" fill="#462500"/>
<path d="M209.251 870.448C209.009 870.448 208.771 870.657 208.538 871.089C203.653 880.518 197.013 965.715 197.013 965.715C197.013 965.715 211.244 895.41 211.503 895.41C211.503 895.41 211.492 895.536 211.445 895.796C210.438 902.25 219.802 972.352 219.802 972.352C219.802 972.352 219.802 972.352 221.565 968.395C223.007 959.179 214.306 870.43 209.251 870.448Z" fill="#632F0D"/>
<path d="M192.448 814.295C192.448 814.295 245.863 815.717 245.82 825.994C245.8 830.867 247.397 809.779 247.397 809.779L193.97 809.964L192.448 814.295Z" fill="#4F2200"/>
<path d="M182.103 584.501C182.103 584.501 244.163 592.39 250.945 587.505C252.072 591.562 252.072 591.562 252.072 591.562C252.072 591.562 195.623 590.929 182.082 589.363C182.089 587.75 182.103 584.501 182.103 584.501Z" fill="#4F2200"/>
<path d="M248.501 632.129L248.481 636.997C248.481 636.997 194.323 631.499 190.929 633.141C196.579 632.31 234.971 632.176 248.501 632.129Z" fill="#4F2200"/>
<path d="M865.491 555.479C865.491 555.479 879.669 824.74 879.237 889.813C878.794 954.891 857.184 987.712 903.047 987.876C940.936 988.02 931.861 976.353 930.558 937.224C929.242 898.101 937.124 586.893 936.897 568.145C936.539 537.486 928.516 538.418 905.91 538.059C883.315 537.705 864.807 542.32 865.491 555.479Z" fill="#733A11"/>
<path d="M933.702 546.415C933.701 546.519 933.712 546.634 933.7 546.749C933.767 546.882 933.84 547.02 933.885 547.169C933.841 546.807 933.763 546.553 933.702 546.415Z" fill="#DCCEC3"/>
<path d="M930.782 806.282C921.065 806.678 910.357 806.923 898.569 806.964C894.523 806.978 889.964 807.022 884.92 807.092C885.285 815.719 886.5 821.63 888.859 823.609C903.875 836.172 932.639 981.749 891.655 981.891C890.235 981.896 888.736 981.729 887.143 981.365C889.208 983.559 900.163 987.443 910.159 987.737C913.664 987.569 916.641 987.242 919.145 986.732C924.567 985.083 928.257 981.223 927.612 973.697C925.903 953.658 930.286 847.226 930.782 806.282ZM911.808 628.656C909.836 628.663 907.875 628.67 905.947 628.688C905.808 629.65 905.635 630.694 905.472 631.823C913.967 632.629 923.492 633.396 933.633 634.001C933.674 632.244 933.704 630.504 933.745 628.759C926.296 628.681 918.908 628.632 911.808 628.656ZM933.7 546.753C933.489 552.727 919.279 560.535 900.704 561.118C899.948 561.144 899.205 561.152 898.466 561.155C896.466 561.161 894.528 561.105 892.64 560.979C899.993 563.995 913.153 570.262 914.062 576.722C915.326 585.749 918.608 586.728 904.746 589.276C903.675 589.459 902.772 589.802 902.02 590.253C903.936 590.373 905.834 590.505 907.738 590.643C916.027 590.804 923.995 590.88 931.58 590.854C932.504 590.85 933.445 590.836 934.358 590.832C934.622 567.814 934.572 551.11 933.89 547.179C933.84 547.023 933.761 546.885 933.7 546.753Z" fill="#632F0D"/>
<path d="M933.701 546.417C933.998 552.441 919.623 560.526 900.704 561.11C881.796 561.717 866.065 555.568 865.775 549.544C865.473 543.515 880.009 537.174 898.923 536.59C917.831 535.989 933.405 540.399 933.701 546.417Z" fill="#D07C2C"/>
<path d="M925.314 547.023C925.543 551.556 914.716 557.641 900.474 558.088C886.244 558.535 874.401 553.905 874.177 549.367C873.942 544.852 884.9 540.073 899.13 539.626C913.366 539.174 925.09 542.491 925.314 547.023Z" fill="#F19320"/>
<path d="M899.375 552.547C894.016 552.566 889.651 550.784 889.584 549.056C889.479 547.248 893.854 545.355 899.535 545.168C899.839 545.161 900.138 545.148 900.442 545.147C905.689 545.129 909.882 546.405 909.982 548.115C910.053 549.924 905.744 552.352 900.057 552.533C899.837 552.546 899.606 552.547 899.375 552.547ZM900.985 541.995C900.427 541.997 899.881 542.004 899.3 542.018C888.761 542.354 880.683 545.884 880.849 549.242C881.005 552.456 889.089 555.74 899.041 555.705C899.452 555.704 899.864 555.691 900.292 555.684C910.814 555.342 918.817 550.855 918.64 547.498C918.506 544.319 910.74 541.961 900.985 541.995Z" fill="#EB7713"/>
<path d="M900.437 545.149C900.133 545.15 899.834 545.162 899.53 545.169C893.849 545.356 889.48 547.243 889.579 549.057C889.651 550.791 894.011 552.567 899.37 552.549C899.601 552.548 899.832 552.547 900.052 552.535C905.738 552.359 910.042 549.931 909.976 548.117C909.876 546.406 905.684 545.13 900.437 545.149Z" fill="#E5600B"/>
<path d="M887.712 610.985C887.734 605.754 893.809 601.494 901.287 601.468C908.771 601.442 914.811 605.655 914.789 610.891C914.768 616.115 908.693 620.381 901.209 620.407C893.731 620.427 887.691 616.209 887.712 610.985Z" fill="#240500"/>
<path d="M889.961 610.707C889.983 605.488 896.07 601.228 903.547 601.202C911.025 601.176 917.066 605.388 917.044 610.613C917.022 615.832 910.947 620.104 903.469 620.129C895.992 620.155 889.94 615.926 889.961 610.707Z" fill="#391B00"/>
<path d="M892.289 610.7C892.307 606.362 897.343 602.831 903.541 602.809C909.757 602.788 914.746 606.284 914.729 610.622C914.711 614.948 909.687 618.479 903.477 618.5C897.272 618.522 892.272 615.026 892.289 610.7Z" fill="#462500"/>
<path d="M890.739 787.257C890.76 782.027 896.841 777.767 904.313 777.741C911.808 777.715 917.854 781.927 917.833 787.163C917.811 792.388 911.73 796.642 904.235 796.668C896.763 796.694 890.717 792.482 890.739 787.257Z" fill="#240500"/>
<path d="M893.011 786.968C893.032 781.744 899.096 777.483 906.585 777.457C914.063 777.431 920.115 781.65 920.093 786.874C920.072 792.104 913.985 796.365 906.507 796.391C899.018 796.417 892.989 792.204 893.011 786.968Z" fill="#391B00"/>
<path d="M895.337 786.961C895.355 782.63 900.385 779.098 906.578 779.077C912.782 779.055 917.789 782.552 917.771 786.883C917.753 791.21 912.712 794.741 906.513 794.762C900.315 794.79 895.319 791.287 895.337 786.961Z" fill="#462500"/>
<path d="M894.277 868.069C894.035 868.07 893.803 868.278 893.559 868.711C888.679 878.14 882.034 963.336 882.034 963.336C882.034 963.336 896.276 893.032 896.518 893.031C896.518 893.031 896.518 893.158 896.477 893.417C895.465 899.872 904.828 969.973 904.828 969.973C904.828 969.973 904.828 969.973 906.597 966.016C908.033 956.801 899.337 868.051 894.277 868.069Z" fill="#632F0D"/>
<path d="M877.468 811.917C877.468 811.917 930.882 813.338 930.84 823.615C930.82 828.488 932.434 807.4 932.434 807.4L878.99 807.585L877.468 811.917Z" fill="#4F2200"/>
<path d="M867.127 582.123C867.127 582.123 929.182 590.012 935.964 585.127C937.086 589.184 937.086 589.184 937.086 589.184C937.086 589.184 880.636 588.551 867.107 586.985C867.114 585.372 867.127 582.123 867.127 582.123Z" fill="#4F2200"/>
<path d="M933.533 629.751L933.513 634.618C933.513 634.618 879.349 629.121 875.955 630.763C881.599 629.931 919.986 629.798 933.533 629.751Z" fill="#4F2200"/>
<path d="M0.599609 34.259C0.599609 34.259 49.477 844.142 50.5364 867.616C51.7256 891.255 1069.22 878.17 1074.61 876.864C1079.87 875.544 1106.51 13.4247 1106.51 6.82419C1106.51 0.367344 107.991 10.9076 0.599609 34.259Z" fill="#201810" stroke="#4D3636" stroke-width="0.5269" stroke-miterlimit="10"/>
<path d="M0.599609 34.2567C10.2646 236.874 17.033 374.308 31.539 616.221C33.579 648.909 36.4757 698.272 40.1332 759.195C41.9366 789.667 43.9879 823.038 46.0224 858.907L46.3492 865.507C47.0086 867.498 45.0699 865.774 48.1751 871.848C50.7506 874.488 50.9647 873.688 52.5765 874.488C56.6679 875.801 60.41 876.458 64.2816 876.861C71.7938 878.045 79.5371 878.701 87.2522 879.495C102.936 880.548 118.941 881.348 135.155 881.998C265.861 886.731 419.948 886.622 567.291 886.485C714.531 886.355 855.195 884.898 959.059 883.729C985.033 883.332 1008.67 882.935 1029.5 882.805C1040.03 882.532 1049.7 882.402 1058.72 882.121C1063.23 882.121 1067.63 882.121 1071.59 881.991C1072.88 881.745 1073.42 881.991 1075.47 881.601C1081.9 873.551 1077.82 876.588 1079.34 873.948L1079.88 866.691C1082.24 830.152 1082.87 809.571 1082.99 809.571C1083.55 809.571 1096.09 480.867 1107.15 119.194L1109.31 51.0007L1110.27 16.8492L1110.6 8.12836C1105.87 -0.0452952 1104.59 0.618162 1103.28 1.26111C1102.53 1.8083 1101.9 2.20501 1100.8 1.26111L1086.64 0.748115C1049.28 -0.0453111 1012.22 -0.0452934 975.599 0.0983441C902.252 0.221462 831.278 1.01489 765.871 1.80831C635.295 3.38833 528.219 5.6318 474.737 6.80826C277.351 13.1557 164.905 13.2856 0.599609 34.2567C165.119 19.6262 277.47 22.923 474.833 16.8629C528.315 15.536 635.492 13.4156 766.074 11.8424C831.261 11.0421 902.354 10.2624 975.588 9.9888C1012.11 9.9888 1049.37 9.9888 1086.53 10.6523L1100.28 11.0421C1100.49 10.5291 1101.68 11.0421 1102.74 11.3226C1104.69 12.1092 1106.52 12.6358 1102.43 7.8821L1102.22 16.4525L1101.14 50.6245L1099.09 118.674C1087.95 480.36 1075.48 809.064 1074.95 809.064C1074.84 809.064 1074.21 829.646 1071.82 865.781L1071.29 872.634C1072.78 874.358 1067.33 873.421 1074.62 876.465C1073.55 870.658 1073.12 871.321 1072.58 871.978C1072.27 872.381 1071.95 872.641 1071.49 871.978C1067.43 872.258 1063.02 872.258 1058.63 872.381C1049.71 872.641 1039.93 872.641 1029.41 872.785C1008.58 873.188 984.937 873.435 959.076 873.701C855.212 875.022 714.548 876.342 567.212 876.608C419.971 876.608 265.883 876.752 135.498 871.985C119.178 871.328 103.285 870.541 87.8158 869.481C80.0951 868.715 72.5828 868.168 65.2791 867.101C61.5146 866.588 57.9641 865.924 54.7519 864.994C53.5628 863.934 53.4557 864.734 53.6698 865.521C53.9065 866.711 54.6448 867.628 54.5377 864.994L54.115 858.148C52.075 822.252 50.0292 788.894 48.1977 758.422C44.5402 697.479 41.6492 648.156 39.6035 615.441C25.0862 373.522 15.4324 236.327 0.599609 34.2567Z" fill="#482620"/>
<path d="M59.874 78.3267C68.1527 259.029 74.1545 381.696 87.2516 597.747C88.8803 627.029 91.5572 670.817 94.6568 725.174C96.3869 752.595 98.2128 782.417 100.044 814.332L100.36 820.276C100.895 822.232 99.0694 820.276 102.09 826.206C104.66 828.839 104.66 827.902 106.153 828.839C109.918 829.893 113.26 830.426 116.686 830.96C123.455 832.006 130.324 832.54 137.301 833.059C151.266 834.113 165.457 834.913 180.047 835.44C296.67 839.66 434.251 839.66 565.78 839.66C697.342 839.263 822.88 838.087 915.563 837.013C938.753 836.76 959.796 836.507 978.495 836.096C987.833 835.96 996.512 835.96 1004.57 835.693C1008.56 835.693 1012.41 835.57 1016.17 835.433C1017.01 835.303 1017.58 835.433 1019.5 835.18C1021.98 834.38 1023.79 827.519 1023.26 827.902L1023.79 821.459C1026.05 788.73 1026.6 770.413 1026.6 770.413C1027.14 770.276 1038.3 476.784 1048.17 154.03L1050.01 93.0871L1051.07 62.6154L1051.18 54.8317C1046.56 46.7811 1045.5 47.4446 1044.31 48.238C1043.67 48.6416 1043.02 49.0383 1041.94 48.1012L1029.38 47.5814C996.185 46.9248 963.031 47.1778 930.26 47.1778C864.865 47.1778 801.392 47.9644 743.08 48.6347C626.463 50.0711 530.884 52.0547 483.083 53.108C306.994 58.7988 206.472 59.0656 59.874 78.3267C206.793 65.3788 307.095 68.5593 483.309 63.019C531.098 61.9656 626.672 60.112 743.097 58.6551C801.527 57.8754 864.882 57.2051 930.277 57.2051C962.935 56.952 996.202 56.952 1029.4 57.6155L1041.64 58.0054C1041.84 57.4787 1042.72 57.8754 1043.79 58.2653C1045.62 58.7988 1047.23 59.5854 1043.04 54.7085L1042.93 62.2256L1041.95 92.8272L1040.14 153.504C1030.25 476.408 1019.08 769.879 1018.55 769.756C1018.55 769.756 1018.02 788.217 1015.76 820.413L1015.24 826.479C1015.24 828.333 1015.13 827.526 1015.44 826.479C1015.76 825.296 1016.61 823.976 1018.77 830.166C1017.7 824.106 1017.37 824.749 1016.93 825.426C1016.61 825.686 1016.41 826.22 1015.86 825.426C1012.31 825.686 1008.46 825.686 1004.49 825.686C996.411 825.939 987.732 826.076 978.506 826.22C959.808 826.48 938.652 826.739 915.467 827.006C822.779 828.326 697.235 829.243 565.678 829.646C434.256 829.646 296.681 829.646 180.374 825.426C165.783 824.893 151.587 824.113 137.837 823.169C130.972 822.656 124.204 821.993 117.672 821.069C114.336 820.666 111.118 820.009 108.306 819.216C108.199 819.359 108.098 819.216 107.889 819.086C107.669 818.566 107.348 818.32 107.044 820.666C106.711 821.466 106.063 821.986 105.314 822.239C111.766 821.596 107.14 821.466 108.65 821.192L108.419 819.605L108.098 813.545C106.294 781.624 104.564 751.809 102.947 724.641C99.6274 670.038 97.035 626.228 95.3387 596.96C82.2134 380.902 73.4107 258.489 59.874 78.3267Z" fill="#785B2B"/>
<path d="M1074.6 878.166L1074.05 877.913L1020.06 833.187C1019.51 832.804 1019.29 831.737 1019.63 831.224C1020.06 830.684 1020.69 830.431 1021.34 830.964L1075.35 875.676C1075.79 876.066 1075.89 876.86 1075.47 877.653L1074.6 878.166Z" fill="#673E0E"/>
<path d="M50.5368 869.079L49.6914 868.409C49.3702 867.875 49.4773 867.089 50.0127 866.576L102.418 823.163C102.948 822.787 103.697 823.04 104.035 823.567C104.244 824.1 104.142 825.14 103.692 825.55L51.1792 868.812L50.5368 869.079Z" fill="#673E0E"/>
<path d="M973.655 840.189C969.8 840.189 965.816 840.449 961.522 840.449C960.344 840.449 959.059 840.579 957.549 840.86C935.001 842.953 752.436 843.63 563.115 843.63C344.471 843.63 116.907 842.823 116.907 842.823C107.14 842.823 138.176 855.88 113.909 863.021C95.7566 868.411 107.569 869.081 125.293 869.081C131.182 869.081 137.742 869.081 143.969 869.081C161.163 869.081 566.986 871.851 817.313 871.851C935.446 871.851 1018.88 871.051 1010.51 869.464C957.115 857.74 989.987 842.173 973.655 840.189Z" fill="#A45727"/>
<path d="M969.58 840.055C967.439 840.055 964.734 840.192 961.516 840.452C965.816 840.452 969.794 840.192 973.649 840.192C972.584 840.055 971.169 840.055 969.58 840.055Z" fill="#9A5123"/>
<path d="M43.1311 89.5393C41.4066 89.5393 39.3609 94.4161 37.2138 106.81C36.1486 113.13 33.793 115.25 30.7611 115.25C27.87 115.25 24.4435 113 21.1073 110.77C17.9964 108.383 15.1111 106.023 13.3866 106.023C12.7216 106.023 12.0848 106.68 11.972 107.877C11.0253 117.35 53.7429 790.059 57.406 790.059C57.5131 790.059 57.5131 789.799 57.5131 789.006C58.0541 781.482 60.1957 778.719 63.0078 778.719C66.7498 778.719 71.6866 783.199 76.0936 787.699C80.495 792.173 84.4737 796.537 86.0855 796.537C86.6208 796.537 87.0435 795.736 86.7223 794.019C84.7837 779.512 46.0165 98.4927 46.0165 98.4927C45.4924 93.096 44.4048 89.5393 43.1311 89.5393Z" fill="#A45727"/>
<path d="M932.307 11.322C709.465 11.322 74.1611 32.9429 74.1611 32.9429C55.6934 32.9429 59.5594 38.7499 75.1361 43.5036C89.6252 47.9769 68.3734 64.078 72.0309 64.078C72.3521 64.078 72.6677 64.078 73.0904 63.8113C80.9238 61.431 254.793 51.9441 472.36 45.8702C525.638 44.5501 587.494 44.0235 649.982 44.0235C690.259 44.0235 730.632 44.2902 769.304 44.4202C846.083 43.5037 914.718 43.0933 965.726 43.0933C985.918 43.0933 1003.3 43.2301 1017.49 43.3805C1020.7 42.7102 1021.02 42.0536 1018.13 41.1302C986.02 31.6296 1061.42 26.0893 1006.43 13.6886C999.117 12.1086 972.382 11.322 932.307 11.322Z" fill="#A45727"/>
<path d="M1053.55 489.058C1048.61 489.058 1070.74 171.434 1070.74 171.434C1072.14 156.927 1072.88 150.846 1073.42 150.846C1074.4 150.846 1073.74 181.988 1073.1 212.993C1072.35 243.978 1071.68 275.106 1072.87 275.106C1073.62 275.106 1074.93 264.696 1077.18 237.631C1079.01 215.497 1080.07 206.509 1080.4 206.509C1081.59 206.509 1078.8 266.919 1075.88 327.472C1072.87 388.019 1069.88 448.422 1070.61 448.422C1070.73 448.422 1070.94 447.772 1071.05 446.575C1071.16 445.262 1071.27 444.455 1071.47 444.455C1073.62 444.455 1062.55 709.596 1055.36 751.668C1054.84 754.438 1054.4 755.752 1054.08 755.752C1051.72 755.752 1053.11 688.495 1054.5 621.485C1055.92 554.201 1057.2 487.197 1054.62 487.197C1054.4 487.197 1054.2 487.471 1054.07 488.128C1053.88 488.791 1053.68 489.058 1053.55 489.058ZM1095.24 39.2742C1092.66 39.2742 1088.88 48.3712 1086.11 66.1823C1081.17 97.3106 1057.01 85.4434 1058.81 128.302C1060.76 170.244 1029.29 802.064 1036.8 802.064C1037.01 802.064 1037.34 801.681 1037.44 801.004C1039.37 794.937 1041.95 792.564 1044.75 792.564C1049.59 792.564 1055.16 800.108 1060.09 807.482C1064.82 814.999 1069.01 822.242 1070.74 822.242C1071.07 822.242 1071.29 821.989 1071.48 821.195C1073.53 811.839 1098.76 54.3151 1098.76 54.3151C1098.76 44.1442 1097.27 39.2742 1095.24 39.2742Z" fill="#A45727"/>
<path d="M1073.42 150.857C1072.87 150.857 1072.14 156.938 1070.74 171.445C1070.74 171.445 1048.62 489.069 1053.55 489.069C1053.68 489.069 1053.88 488.802 1054.1 488.146C1054.22 487.489 1054.42 487.215 1054.64 487.215C1057.22 487.215 1055.94 554.219 1054.53 621.503C1053.13 688.513 1051.75 755.769 1054.1 755.769C1054.42 755.769 1054.86 754.463 1055.38 751.686C1062.57 709.614 1073.64 444.473 1071.49 444.473C1071.29 444.473 1071.17 445.273 1071.07 446.593C1070.96 447.79 1070.75 448.44 1070.63 448.44C1069.9 448.44 1072.89 388.037 1075.9 327.49C1078.83 266.937 1081.61 206.527 1080.43 206.527C1080.08 206.527 1079.03 215.508 1077.2 237.649C1074.95 264.707 1073.65 275.124 1072.89 275.124C1071.7 275.124 1072.37 243.996 1073.12 213.011C1073.74 181.999 1074.41 150.857 1073.42 150.857Z" fill="#B4602D"/>
<path d="M299.668 847.303C299.668 847.303 646.233 843.363 607.021 851.263C568.046 859.444 875.5 848.63 808.713 859.444C741.914 869.992 183.711 869.992 253.073 863.404C322.329 856.674 239.215 847.303 299.668 847.303Z" fill="#BB642F"/>
<path d="M23.0405 181.464C23.0405 181.464 41.8352 555.01 46.7719 513.738C51.7256 472.432 61.7062 787.703 70.4132 753.934C79.1088 720.439 52.9992 299.383 49.2572 362.166C45.4927 424.827 25.5145 98.8994 23.0405 181.464Z" fill="#BB642F"/>
<path d="M172.541 31.5018C172.541 31.5018 537.765 11.5772 502.864 23.8548C467.946 36.105 542.798 31.5018 608.847 31.5018C674.896 31.5018 569.02 34.525 421.988 45.3388C274.776 55.8859 167.581 51.4127 210.017 43.7588C252.442 36.105 20.5774 46.7889 172.541 31.5018Z" fill="#BB642F"/>
<path d="M1044.86 816.697C1048.39 816.697 1051.19 820.275 1051.19 824.611C1051.19 828.839 1048.39 832.416 1044.86 832.416C1041.21 832.416 1038.53 828.839 1038.53 824.611C1038.53 820.282 1041.2 816.697 1044.86 816.697Z" fill="#D1D3D4"/>
<path d="M1044.86 833.733C1040.68 833.733 1037.44 829.643 1037.44 824.622C1037.44 819.615 1040.68 815.381 1044.86 815.381C1048.94 815.381 1052.38 819.608 1052.38 824.622C1052.38 829.643 1048.93 833.733 1044.86 833.733ZM1044.86 818.028C1041.95 818.028 1039.59 821.065 1039.59 824.622C1039.59 828.063 1041.95 830.97 1044.86 830.97C1047.77 830.97 1050.02 828.063 1050.02 824.622C1050.02 821.065 1047.76 818.028 1044.86 818.028Z" fill="#BCBEC0"/>
<path d="M1045.4 825.149C1044.85 827.269 1043.25 828.582 1041.95 828.062C1040.57 827.529 1040.03 825.422 1040.57 823.308C1040.99 821.195 1042.5 819.882 1043.78 820.292C1045.29 820.668 1045.82 822.789 1045.4 825.149Z" fill="#F5F5F5"/>
<path d="M1022.63 850.742C1026.06 850.742 1028.86 854.169 1028.86 858.513C1028.86 862.877 1026.05 866.311 1022.63 866.311C1018.97 866.311 1016.18 862.877 1016.18 858.513C1016.19 854.169 1018.97 850.742 1022.63 850.742Z" fill="#D1D3D4"/>
<path d="M1022.63 867.616C1018.32 867.616 1015.12 863.676 1015.12 858.512C1015.12 853.388 1018.32 849.435 1022.63 849.435C1026.61 849.435 1030.03 853.388 1030.03 858.512C1030.03 863.676 1026.61 867.616 1022.63 867.616ZM1022.63 852.075C1019.63 852.075 1017.27 854.969 1017.27 858.505C1017.27 862.082 1019.63 864.976 1022.63 864.976C1025.41 864.976 1027.68 862.082 1027.68 858.505C1027.68 854.969 1025.41 852.075 1022.63 852.075Z" fill="#BCBEC0"/>
<path d="M1023.04 859.184C1022.63 861.284 1020.9 862.604 1019.63 862.214C1018.23 861.544 1017.59 859.444 1018.23 857.324C1018.66 855.217 1020.17 853.897 1021.44 854.293C1022.94 854.711 1023.49 857.077 1023.04 859.184Z" fill="#F5F5F5"/>
<path d="M102.733 853.387C102.733 857.737 99.8365 861.157 96.3931 861.157C92.8596 861.157 89.9404 857.737 89.9404 853.387C89.9404 849.036 92.8596 845.466 96.3931 845.466C99.8365 845.466 102.733 849.036 102.733 853.387Z" fill="#D1D3D4"/>
<path d="M96.3933 862.597C92.2004 862.597 88.8867 858.377 88.8867 853.377C88.8867 848.226 92.2004 844.129 96.3933 844.129C100.366 844.129 103.922 848.226 103.922 853.377C103.922 858.377 100.366 862.597 96.3933 862.597ZM96.3933 846.776C93.4966 846.776 91.0339 849.683 91.0339 853.384C91.0339 856.941 93.5023 859.711 96.3933 859.711C99.1773 859.711 101.544 856.941 101.544 853.384C101.544 849.683 99.1773 846.776 96.3933 846.776Z" fill="#BCBEC0"/>
<path d="M97.1593 853.777C96.4999 856.021 95.1136 857.327 93.7103 856.814C92.3014 856.281 91.5575 854.167 92.1943 852.081C92.7466 849.824 94.24 848.497 95.6377 848.886C96.9169 849.434 97.689 851.657 97.1593 853.777Z" fill="#F5F5F5"/>
<path d="M75.0287 825.932C75.0287 830.289 72.2447 833.73 68.6887 833.73C65.1326 833.73 62.3486 830.289 62.3486 825.932C62.3486 821.595 65.1326 818.025 68.6887 818.025C72.2391 818.025 75.0287 821.595 75.0287 825.932Z" fill="#D1D3D4"/>
<path d="M68.6882 835.186C64.4954 835.186 61.1816 830.966 61.1816 825.931C61.1816 820.787 64.4954 816.697 68.6882 816.697C72.774 816.697 76.2005 820.787 76.2005 825.931C76.2005 830.966 72.7684 835.186 68.6882 835.186ZM68.6882 819.344C65.7915 819.344 63.4302 822.238 63.4302 825.931C63.4302 829.509 65.7915 832.286 68.6882 832.286C71.5849 832.286 73.8392 829.515 73.8392 825.931C73.8392 822.238 71.5793 819.344 68.6882 819.344Z" fill="#BCBEC0"/>
<path d="M69.4329 825.934C69.0046 828.328 67.3815 829.641 66.1079 829.108C64.7046 828.581 64.0734 826.474 64.4905 824.107C65.0259 821.987 66.7447 820.667 67.9394 821.194C69.3314 821.727 69.9852 823.847 69.4329 825.934Z" fill="#F5F5F5"/>
</svg>
