<svg width="250" height="192" viewBox="0 0 250 192" fill="none" xmlns="http://www.w3.org/2000/svg">
<path d="M107.132 83.9925C91.1514 84.4092 78.6748 98.5098 76.4525 114.202C74.2645 129.645 81.5231 149.993 95.3801 158.987C100.594 162.557 106.716 164.793 112.12 164.951C112.938 164.974 113.737 164.959 114.526 164.925C123.408 167.583 135.893 164.241 142.34 158.545C144.047 157.036 145.496 155.269 146.729 153.331C146.945 153.164 147.15 152.974 147.34 152.75C147.562 152.487 147.637 152.147 147.607 151.827C152.391 143.196 153.276 131.634 152.419 122.576C150.099 98.0781 132.259 76.5523 107.132 83.9925ZM129.4 88.7105C129.344 88.7319 129.293 88.7554 129.237 88.7768C128.105 89.202 126.945 89.5823 125.87 90.1336C123.953 88.6806 121.872 87.4284 119.598 86.4498C122.917 86.5588 126.177 87.1443 129.4 88.7105ZM100.713 156.562C94.2326 152.002 88.692 145.397 85.7838 137.717C82.053 127.869 81.4654 121.606 82.1492 115.707C84.7603 93.2106 111.22 80.4797 127.188 99.3474C138.045 112.174 143.425 139.679 130.177 152.658C122.573 160.109 110.408 160.771 100.713 156.562ZM124.682 162.666C128.919 160.852 132.479 158.034 135.329 154.555C136.863 154.56 138.402 154.542 139.938 154.495C135.857 158.248 130.329 161.194 124.682 162.666ZM145.261 147.431C144.579 148.951 143.626 150.416 142.483 151.809C140.532 152.213 138.569 152.547 136.603 152.895C138.088 150.809 139.312 148.51 140.312 146.083C141.481 145.918 142.65 145.754 143.821 145.589C144.59 145.48 145.372 145.414 146.114 145.252C145.838 145.983 145.581 146.72 145.261 147.431ZM146.987 142.703C145.748 142.698 144.56 143.226 143.351 143.641L140.947 144.47C142.011 141.497 142.678 138.329 143.002 135.081C143.669 135.017 144.342 134.869 144.943 134.784C146.105 134.617 147.455 134.57 148.676 134.267C148.359 137.132 147.821 139.968 146.987 142.703ZM148.898 131.559C147.505 131.643 146.114 132.185 144.776 132.553C144.291 132.685 143.735 132.801 143.184 132.948C143.237 131.82 143.263 130.685 143.225 129.544C143.184 128.405 143.107 127.252 143.005 126.091C144.131 125.946 145.257 125.805 146.379 125.64C147.257 125.51 148.133 125.44 148.872 125.111C148.998 127.252 149.022 129.41 148.898 131.559ZM147.898 117.354C148.203 118.892 148.423 120.461 148.603 122.042C147.434 121.912 146.205 122.497 145.069 122.88C144.376 123.113 143.534 123.305 142.735 123.572C142.242 119.649 141.383 115.668 140.148 111.813C141.133 111.773 142.148 111.557 143.037 111.412C144.175 111.224 145.312 111.224 146.12 110.632C146.859 112.88 147.458 115.142 147.898 117.354ZM145.248 108.183C144.227 108.192 143.135 108.813 142.18 109.14C141.349 109.424 140.402 109.679 139.554 110.068C138.626 107.459 137.517 104.924 136.216 102.525C136.712 102.441 137.207 102.369 137.703 102.262C139.158 101.948 140.671 101.894 141.722 100.869C143.103 103.191 144.28 105.659 145.248 108.183ZM136.246 99.6807C135.842 99.8324 135.353 99.9991 134.857 100.191C132.874 96.9905 130.502 94.1038 127.742 91.6678C128.445 91.5589 129.143 91.4178 129.842 91.2896C130.81 91.1123 131.797 91.0204 132.686 90.6913C135.631 92.8046 138.141 95.5033 140.242 98.5525C138.9 98.5375 137.511 99.2064 136.246 99.6807Z" fill="#FFE01F"/>
<path d="M130.162 127.685C131.626 127.542 133.141 127.363 134.436 126.666C136.066 125.788 136.812 123.474 135.822 121.854C135.472 121.281 134.938 120.788 134.32 120.452C133.666 119.954 132.934 119.591 132.064 119.602C131.525 119.608 130.944 119.696 130.41 119.786C129.628 119.918 128.887 120.198 128.154 120.495C124.763 113.42 117.686 108.36 110.461 113.465C105.373 117.059 107.014 122.266 106.029 127.459C104.722 134.356 98.3306 130.504 97.3285 125.32C96.6511 121.824 98.7195 118.66 97.8627 115.286C97.5614 114.1 96.4246 113.493 95.2622 113.692C90.5293 114.504 89.1767 120.219 89.4801 124.743C88.698 124.824 87.9138 125.087 87.2728 125.474C85.7578 126.388 85.0698 128.168 85.7151 129.837C86.401 131.613 88.0271 132.194 89.8092 132.008C90.1938 131.967 90.5677 131.905 90.9417 131.829C90.9459 131.829 90.9523 131.826 90.9566 131.826C91.0912 131.799 91.2237 131.76 91.3583 131.728C91.431 131.709 91.5058 131.698 91.5763 131.675C93.7964 135.609 97.5934 138.668 102.239 138.931C108.025 139.256 112.042 135.168 112.809 129.675C113.115 127.48 112.085 122.025 113.809 120.281C120.551 113.472 121.581 131.549 121.613 133.482C121.675 137.143 126.579 138.929 128.602 135.579C129.957 133.339 130.408 130.555 130.162 127.685Z" fill="#FFE01F"/>
<path d="M63.6149 58.6207C70.6043 58.9711 79.4613 57.8963 85.9314 53.924C86.1793 53.9369 86.4378 53.8663 86.6323 53.6889C86.799 53.5351 86.9378 53.3706 87.0575 53.1996C88.5062 52.1847 89.8139 51.0116 90.9144 49.6483C95.0726 44.5008 97.2157 34.7892 94.8696 28.0541C94.8696 27.4473 94.8546 26.8318 94.8076 26.2036C94.4999 22.0561 92.5747 17.4279 89.6516 13.5411C82.2647 3.19693 66.3799 -1.68558 54.5849 0.521715C42.5997 2.76533 32.1872 12.836 32.4137 25.1331C27.5526 44.6953 44.7066 57.6741 63.6149 58.6207ZM52.9375 51.2103C52.7195 51.956 52.2793 52.8172 52.3071 53.6014C50.3349 52.9432 48.3989 52.1227 46.5656 51.1419C47.3199 50.3001 47.3071 49.1355 47.4994 48.0051C47.5656 47.6205 47.6041 47.238 47.6511 46.8534C49.54 47.7722 51.5251 48.5393 53.5614 49.1611C53.29 49.8235 53.1276 50.5607 52.9375 51.2103ZM63.5978 52.9603C63.3414 53.8471 62.9354 54.8129 63.0743 55.7061C61.8542 55.6227 60.6405 55.5074 59.4482 55.3258C57.7324 55.0608 55.9738 54.6804 54.2217 54.1868C54.649 53.5458 54.6106 52.6718 54.7153 51.7915C54.7965 51.1035 54.9289 50.315 54.9247 49.5564C57.929 50.3748 61.0187 50.8984 64.0487 51.1441C63.8713 51.7659 63.7517 52.4197 63.5978 52.9603ZM71.021 52.4069C70.7838 53.4475 70.4142 54.5351 70.3971 55.6078C68.7475 55.7745 67.0893 55.8321 65.4376 55.8086C65.6662 55.2296 65.6897 54.5544 65.7603 53.8749C65.85 53.0052 65.9184 52.1355 65.9932 51.2658C66.8885 51.3043 67.7795 51.3257 68.6556 51.3172C69.5338 51.3086 70.4056 51.2509 71.271 51.1719C71.177 51.5992 71.1086 52.0308 71.021 52.4069ZM79.4933 50.9326C79.2155 51.8749 78.8501 52.8065 78.895 53.7595C76.8202 54.4924 74.6599 55.0031 72.4676 55.3449C72.6599 54.3983 72.6492 53.3578 72.7368 52.4582C72.7817 51.9945 72.8714 51.4731 72.8992 50.9582C75.3864 50.5971 77.7967 49.9774 80.0446 49.0586L79.4933 50.9326ZM85.7434 49.9881C84.7113 50.9154 83.6173 51.6954 82.472 52.2723C81.9378 52.5415 81.378 52.7637 80.8267 53.0009C80.925 52.424 80.9506 51.8214 81.0062 51.2253C81.0938 50.3214 81.1792 49.4175 81.2668 48.5115C83.0981 47.659 84.8246 46.6419 86.3737 45.4282C86.1772 46.9538 85.987 48.4731 85.7434 49.9881ZM87.7199 47.941C87.7049 46.7594 87.6643 45.5756 87.6088 44.3961C90.1857 42.0863 92.2306 39.2551 93.4807 35.9366C92.5405 40.3256 90.4657 44.6739 87.7199 47.941ZM55.9354 4.84867C60.4461 4.12217 65.2752 4.54096 69.9184 5.86789C69.4419 6.17986 72.0958 6.84439 72.9761 6.88927C78.8779 9.14356 84.2434 12.8957 87.9699 17.7206C91.534 25.0262 91.4422 34.3981 85.9742 40.4986C76.4505 51.1227 55.1277 47.9261 44.8989 40.02C29.8539 28.3938 38.7364 7.62221 55.9354 4.84867ZM36.8454 41.9559C36.8304 42.0008 36.8155 42.0414 36.8005 42.0841C35.4864 39.661 34.9266 37.1738 34.7279 34.6268C35.5569 36.3405 36.5911 37.896 37.7728 39.3213C37.386 40.1674 37.1339 41.0713 36.8454 41.9559ZM38.7984 42.3341C38.8732 41.7935 38.9565 41.2508 39.0164 40.7081C40.9843 42.7466 43.2835 44.4709 45.8113 45.8854C45.6788 46.2722 45.5699 46.6547 45.4652 46.971C45.1425 47.9582 44.6767 49.05 44.7365 50.0799C42.322 48.5692 40.1617 46.7316 38.4373 44.5393C38.6595 43.8449 38.6958 43.0841 38.7984 42.3341Z" fill="#FFE01F"/>
<path d="M65.7855 22.7994C61.8282 23.7331 57.7705 22.6498 55.1807 26.684C51.5055 32.4106 55.6337 37.6777 61.1872 40.041C60.9842 40.6158 60.794 41.1927 60.7192 41.7996C60.668 42.2141 60.6209 42.6628 60.6359 43.0773C60.6573 43.7461 60.9607 44.2974 61.3667 44.7825C61.6445 45.2462 62.044 45.6394 62.4949 45.8894C63.7727 46.5945 65.527 45.9428 66.1445 44.6586C66.636 43.6394 66.7214 42.4684 66.7813 41.3402C68.995 41.432 71.1189 40.9898 72.7963 39.8701C75.3006 38.2013 73.76 34.4918 70.9459 34.5709C69.4587 34.6115 55.529 34.4384 60.5333 29.0238C61.8133 27.6391 66.042 28.2439 67.7172 27.9341C71.9138 27.1584 74.9181 23.9297 74.4715 19.4938C74.1126 15.9318 71.6318 13.1198 68.5313 11.5471C68.5462 11.4916 68.5527 11.4338 68.5655 11.3783C68.5847 11.2757 68.6104 11.171 68.6275 11.0663C68.6275 11.062 68.6296 11.0556 68.6296 11.0556C68.6745 10.7672 68.7108 10.4744 68.7279 10.1795C68.8112 8.80346 68.3069 7.57484 66.9202 7.10688C65.6146 6.66671 64.2706 7.25647 63.6188 8.45306C63.3432 8.95948 63.168 9.57058 63.1317 10.1732C59.6444 10.0941 55.2982 11.3292 54.8346 14.9937C54.7213 15.8955 55.2277 16.748 56.1487 16.9382C58.7705 17.483 61.1338 15.7843 63.8432 16.1839C67.8625 16.7779 71.042 21.5579 65.7855 22.7994Z" fill="#FFE01F"/>
<path d="M203.849 128.974C203.616 128.873 203.343 128.848 203.093 128.95C202.877 129.038 202.685 129.147 202.507 129.267C200.751 129.72 199.071 130.378 197.522 131.292C191.674 134.743 186.123 143.303 185.954 150.619C185.736 151.205 185.529 151.799 185.347 152.419C184.15 156.515 184.334 161.654 185.747 166.44C189.123 179.036 202.629 189.445 214.755 191.564C227.078 193.72 240.707 187.789 244.912 175.893C256.621 158.844 244.809 140.203 226.98 132.491C220.39 129.638 211.495 127.484 203.849 128.974ZM202.612 132.822C203.937 132.303 205.27 131.946 206.578 131.805C207.189 131.739 207.804 131.726 208.42 131.696C208.116 132.213 207.877 132.786 207.608 133.335C207.2 134.173 206.792 135.01 206.384 135.848C204.317 136.008 202.294 136.365 200.366 136.972C201.106 135.583 201.834 134.19 202.612 132.822ZM199.977 134.079C199.567 135.222 199.178 136.371 198.809 137.525C195.503 138.818 192.518 140.803 190.123 143.542C192.606 139.662 196.165 136.23 199.977 134.079ZM215.014 186.919C210.418 185.996 205.928 183.855 201.945 180.908C202.516 180.78 200.206 179.186 199.375 178.825C194.514 174.534 190.71 169.002 188.866 163.023C188.069 154.72 191.529 145.75 198.977 141.854C211.95 135.072 231.288 145.814 238.271 157.092C248.546 173.677 232.54 190.44 215.014 186.919ZM246.796 158.023C247.187 160.825 246.831 163.414 246.104 165.934C245.922 163.989 245.491 162.122 244.867 160.329C245.542 159.656 246.11 158.876 246.707 158.13C246.737 158.094 246.766 158.062 246.796 158.023ZM246.108 155.075C245.645 155.662 245.335 156.38 244.965 157.064C244.7 157.558 244.422 158.047 244.17 158.549C243.014 155.882 241.424 153.399 239.506 151.13C239.771 150.805 240.014 150.478 240.228 150.211C240.895 149.378 241.734 148.498 242.048 147.487C243.824 149.805 245.239 152.35 246.108 155.075ZM236.04 141.38C237.698 142.722 239.264 144.207 240.672 145.809C239.647 146.348 239.239 147.472 238.647 148.489C238.446 148.835 238.271 149.19 238.087 149.54C236.602 147.978 234.971 146.527 233.236 145.196C233.736 144.653 234.157 144.006 234.572 143.45C235.053 142.814 235.786 142.145 236.04 141.38ZM226.452 135.485C227.595 136.004 228.719 136.551 229.8 137.156C231.354 138.025 232.907 139.025 234.414 140.13C233.773 140.591 233.495 141.446 233.076 142.254C232.749 142.886 232.341 143.596 232.07 144.324C229.478 142.457 226.698 140.841 223.873 139.517C224.266 138.98 224.617 138.395 224.961 137.933C225.527 137.173 226.266 136.393 226.452 135.485ZM219.379 132.942C221.025 133.373 222.638 133.916 224.217 134.534C223.79 135.008 223.523 135.649 223.211 136.277C222.811 137.081 222.433 137.891 222.048 138.7C221.202 138.341 220.354 138.002 219.51 137.694C218.661 137.384 217.805 137.128 216.943 136.893C217.189 136.514 217.409 136.126 217.627 135.794C218.23 134.88 218.978 133.967 219.379 132.942ZM217.294 132.45C216.768 133.29 216.403 134.294 215.997 135.126C215.785 135.555 215.512 136.025 215.3 136.51C212.781 135.963 210.24 135.692 207.751 135.767L208.958 134.164C209.565 133.359 210.251 132.593 210.55 131.662C212.805 131.702 215.065 131.989 217.294 132.45Z" fill="#FFE01F"/>
<path d="M223.711 149.692C223.909 149.314 224.114 148.897 224.251 148.495C224.471 147.846 224.377 147.207 224.164 146.596C224.063 146.049 223.822 145.527 223.478 145.126C222.503 143.989 220.584 143.985 219.527 144.995C218.687 145.799 218.185 146.893 217.721 147.957C215.627 147.072 213.426 146.735 211.411 147.205C208.405 147.908 208.55 152.025 211.283 152.961C212.725 153.457 226.048 158.637 219.292 162.038C217.563 162.908 213.719 160.805 211.997 160.5C207.685 159.737 203.638 161.756 202.471 166.179C201.535 169.731 202.907 173.327 205.319 175.953C205.285 176 205.257 176.053 205.227 176.103C205.17 176.194 205.11 176.286 205.057 176.38C205.054 176.385 205.052 176.387 205.05 176.391C204.903 176.652 204.764 176.919 204.64 177.199C204.065 178.489 204.108 179.853 205.272 180.801C206.369 181.695 207.871 181.611 208.928 180.697C209.375 180.31 209.764 179.786 210.014 179.218C213.337 180.549 217.958 180.925 219.719 177.571C220.153 176.746 219.973 175.744 219.157 175.229C216.832 173.763 213.952 174.545 211.493 173.184C207.845 171.169 206.51 165.432 212.007 166.13C216.146 166.656 219.655 169.158 223.593 166.214C229.185 162.034 227.112 155.487 222.627 151.218C223.031 150.735 223.422 150.248 223.711 149.692Z" fill="#FFE01F"/>
<path d="M16.9925 130.141C11.4583 133.094 5.14624 138 2.00304 144.036C1.80646 144.141 1.63979 144.314 1.57355 144.541C1.51586 144.735 1.48594 144.925 1.47099 145.113C0.825679 146.56 0.359863 148.064 0.141912 149.622C-0.682884 155.496 2.14834 163.947 7.05438 168.043C7.3343 168.511 7.62918 168.975 7.95397 169.436C10.1014 172.483 13.7147 175.152 17.7532 176.793C28.1978 181.34 42.6595 177.774 50.7087 170.639C58.8862 163.391 62.2473 150.851 56.4075 141.502C51.1275 124.224 31.9628 122.154 16.9925 130.141ZM50.2536 135.271C48.8262 134.335 47.3134 133.615 45.7493 133.066C45.6552 132.237 45.433 131.425 45.2471 130.613C45.2386 130.573 45.23 130.534 45.2236 130.494C47.3497 131.75 48.9288 133.404 50.2536 135.271ZM42.8347 129.359C42.9843 129.996 43.3069 130.598 43.574 131.222C43.7663 131.673 43.9501 132.128 44.1552 132.573C41.7043 131.912 39.1424 131.647 36.5462 131.724C36.4692 131.365 36.3774 131.021 36.3111 130.731C36.1039 129.823 35.9586 128.769 35.4393 128.004C37.9906 128.053 40.4971 128.47 42.8347 129.359ZM33.5461 128.032C33.356 129.026 33.9008 129.917 34.2748 130.874C34.4008 131.199 34.5483 131.513 34.6893 131.829C32.8154 131.996 30.935 132.321 29.0824 132.78C28.9841 132.145 28.7704 131.504 28.6166 130.917C28.4392 130.244 28.3815 129.378 27.9991 128.788C29.8175 128.385 31.6829 128.124 33.5461 128.032ZM21.7148 130.754C23.155 130.167 24.6828 129.65 26.2576 129.22C26.2234 129.91 26.6572 130.564 26.982 131.291C27.2362 131.859 27.4991 132.524 27.8495 133.105C25.1636 133.861 22.5481 134.88 20.1037 136.09C19.952 135.53 19.7426 134.972 19.6144 134.485C19.4028 133.686 19.2703 132.756 18.7511 132.132C19.7276 131.635 20.7148 131.162 21.7148 130.754ZM16.8857 133.143C16.9776 133.695 17.2703 134.224 17.5289 134.778C17.8601 135.487 18.2084 136.188 18.5524 136.891C17.8451 137.274 17.1528 137.669 16.4818 138.079C15.8109 138.492 15.1677 138.936 14.5395 139.398C14.4156 139.024 14.2681 138.66 14.1613 138.331C13.8643 137.423 13.6463 136.417 13.1656 135.583C14.3557 134.695 15.6058 133.887 16.8857 133.143ZM11.6955 136.739C11.9839 137.556 12.4711 138.351 12.8173 139.083C12.9968 139.462 13.1677 139.904 13.3857 140.312C11.6399 141.735 10.0736 143.325 8.76808 145.066L8.33004 143.37C8.10995 142.517 7.96038 141.633 7.48601 140.921C8.74244 139.402 10.1655 138.013 11.6955 136.739ZM4.49025 161.342C3.18895 157.534 2.78083 153.235 3.38554 149.46C3.94324 150.361 4.51803 151.252 5.10351 152.133C4.18897 155.096 3.92187 158.216 4.49025 161.342ZM5.57573 150.769C5.02658 149.507 4.47102 148.25 3.96247 146.974C4.32786 145.786 4.80863 144.682 5.42402 143.712C5.71249 143.259 6.03728 142.829 6.35138 142.393C6.54156 142.883 6.80011 143.357 7.03088 143.84C7.38131 144.575 7.73174 145.31 8.08217 146.045C7.06507 147.545 6.20822 149.124 5.57573 150.769ZM47.6766 167.934C44.5441 170.573 38.3389 173.148 33.638 174.218C28.061 175.206 22.2105 174.795 17.1207 172.802C11.0138 168.83 6.76592 161.584 8.15696 154.374C10.5801 141.818 28.4435 134.449 39.9501 135.812C56.8733 137.816 59.6191 157.874 47.6766 167.934Z" fill="#FFE01F"/>
<path d="M41.9394 158.739C39.6723 159.529 38.6402 161.923 36.3731 162.865C33.0119 164.26 28.3645 162.053 31.8324 158.675C34.4436 156.132 38.0633 155.096 38.1936 150.803C38.3795 144.707 32.779 142.561 27.42 143.303C27.311 142.769 27.1914 142.237 26.9691 141.736C26.8174 141.395 26.6465 141.027 26.4456 140.715C26.1208 140.211 25.6337 139.927 25.0973 139.741C24.67 139.512 24.1828 139.392 23.7191 139.41C22.4114 139.457 21.3644 140.766 21.4798 142.038C21.5716 143.049 22.046 143.987 22.5204 144.884C20.7768 145.835 19.3473 147.153 18.5737 148.786C17.4178 151.224 20.3109 153.363 22.437 152.006C23.561 151.29 34.3496 145.004 32.997 151.472C32.6508 153.126 29.123 154.611 27.9756 155.621C25.108 158.151 24.2853 162.017 26.6743 165.222C28.5931 167.795 31.7961 168.812 34.903 168.591C34.9179 168.641 34.9393 168.688 34.9543 168.737C34.9863 168.827 35.0141 168.916 35.0504 169.006L35.0547 169.015C35.153 169.258 35.2598 169.498 35.3816 169.735C35.9521 170.831 36.9051 171.542 38.1872 171.262C39.3924 171 40.153 169.927 40.1039 168.707C40.0825 168.192 39.9351 167.641 39.6851 167.16C42.4031 165.613 45.1745 162.66 43.8411 159.63C43.5185 158.882 42.7364 158.461 41.9394 158.739Z" fill="#FFE01F"/>
<path d="M94.8819 56.8211C111.617 62.3382 128.897 66.2656 145.752 71.4388C162.385 76.5435 179.223 83.5201 196.364 86.5821C197.469 86.7787 198.144 85.2872 197.101 84.7081C182.4 76.5606 164.972 72.1503 148.891 67.6011C140.068 65.1054 131.207 62.7506 122.312 60.5241C118.205 59.4963 114.096 58.4792 109.963 57.5646C107.895 57.1095 96.1084 55.0304 95.3819 54.8146C94.0977 54.43 93.6276 56.4087 94.8819 56.8211Z" fill="#FFE01F"/>
<path d="M153.966 55.8826C160.671 58.5237 167.406 61.1027 174.18 63.5622C187.426 68.3699 201.704 74.4255 215.798 75.7824C216.832 75.8828 217.131 74.3251 216.279 73.8785C203.052 66.9725 187.287 63.637 173.133 58.8955C165.637 56.3848 158.195 53.7266 150.755 51.0556C145.312 49.1026 138.479 45.0235 132.688 45.4017C132.344 45.4231 131.957 45.6539 131.897 46.0257C131.857 46.2778 131.816 46.5278 131.778 46.7799C131.729 47.094 131.825 47.4316 132.13 47.5898C132.316 47.6838 148.007 53.5343 153.966 55.8826Z" fill="#FFE01F"/>
</svg>
