<svg width="1728" height="299" viewBox="0 0 1728 299" fill="none" xmlns="http://www.w3.org/2000/svg">
<path d="M908.104 194.329C907.537 195.32 907.381 196.53 907.679 197.635C908.169 199.457 909.853 200.817 911.703 200.786C915.804 200.724 919.843 200.142 923.903 199.639C927.462 199.192 931.032 198.86 934.606 198.585C943.449 197.926 952.306 197.49 961.169 197.256C969.43 197.033 977.691 196.945 985.948 196.737C994.992 196.504 1004.05 196.275 1013.1 196.078C1021.83 195.891 1030.58 195.964 1039.33 195.881C1047.93 195.793 1056.54 195.538 1065.14 195.668C1073.82 195.808 1082.52 195.938 1091.2 196.338C1099.82 196.742 1108.42 197.329 1117.04 197.734C1125.52 198.128 1134.01 198.315 1142.5 198.274C1151.47 198.232 1160.44 198.092 1169.41 197.931C1178.07 197.77 1186.73 197.89 1195.39 197.988C1203.88 198.092 1212.36 198.289 1220.84 198.595C1229.34 198.907 1237.8 199.691 1246.25 200.651C1250.1 201.185 1253.95 201.746 1257.76 202.551C1261.8 203.397 1265.7 204.59 1269.62 205.903C1270.62 206.246 1271.62 206.615 1272.65 206.895C1273.76 207.201 1275.22 207.668 1276.36 207.606C1277.14 207.59 1277.9 207.502 1278.66 207.352L1280.13 206.708C1283.12 205.416 1284.4 201.974 1285.32 199.032C1286.44 195.502 1287.59 191.978 1288.64 188.428C1289.86 184.348 1290.99 180.211 1291.83 176.028C1292.67 171.808 1293.36 167.578 1293.99 163.316C1294.58 159.19 1295.07 155.043 1295.74 150.922C1295.95 149.577 1296.17 148.238 1296.41 146.899C1297.32 148.825 1298.21 150.756 1299.16 152.65C1301.61 157.555 1304.12 162.418 1306.68 167.261C1311.51 176.401 1317.07 185.08 1322.38 193.929C1326.96 201.57 1331.64 209.179 1336.02 216.949C1338.29 220.982 1340.41 225.061 1342.42 229.24C1344.19 232.935 1345.84 236.693 1347.6 240.409C1349.58 244.588 1351.63 248.745 1353.66 252.898C1354.64 254.891 1355.63 256.879 1356.6 258.851C1356.86 259.386 1357.1 259.936 1357.37 260.444C1357.91 261.446 1358.49 262.661 1359.32 263.45C1360.2 264.29 1360.99 264.955 1362.16 265.339C1362.92 265.593 1363.69 265.718 1364.49 265.656C1367.23 265.448 1369.15 263.771 1370.7 261.586C1371.19 260.901 1371.65 260.216 1372.08 259.5C1373.08 257.823 1374.06 256.136 1375.02 254.434C1377.03 250.884 1379.07 247.344 1381.18 243.856C1383.34 240.285 1385.66 236.828 1387.82 233.252C1390.03 229.582 1392.11 225.83 1394.18 222.072C1396.31 218.205 1398.26 214.234 1400.25 210.284C1402.15 206.501 1404.09 202.727 1405.94 198.917C1407.73 195.227 1409.37 191.459 1410.99 187.69C1412.89 183.258 1414.82 178.83 1416.62 174.356C1419.75 166.597 1422.66 158.749 1425.81 151.005C1425.82 150.973 1425.83 150.947 1425.84 150.916C1425.85 150.901 1425.85 150.885 1425.86 150.875C1425.89 150.787 1425.93 150.703 1425.96 150.62C1429.14 143.12 1432.26 135.594 1435.48 128.125C1437.25 124.035 1439.07 119.961 1440.85 115.876C1442.59 111.89 1444.18 107.841 1445.72 103.777C1447.17 99.9777 1448.61 96.1524 1449.94 92.2908C1451.26 88.481 1452.46 84.6609 1453.61 80.794C1454.77 76.9168 1455.72 72.9773 1456.7 69.0481C1457.16 67.1848 1457.61 65.3057 1458.1 63.4372C1458.34 63.8836 1458.58 64.3351 1458.83 64.7763C1460.27 67.4026 1461.71 70.0342 1463.15 72.6606C1466.14 78.0949 1469.08 83.5708 1472.07 89.0156C1475.3 94.8859 1478.57 100.715 1481.87 106.533C1484.65 111.443 1487.45 116.348 1490.06 121.362C1498.13 136.84 1505.54 152.671 1513.58 168.164C1517.81 176.313 1522.2 184.363 1526.52 192.46C1530.62 200.173 1534.51 208.011 1538.45 215.812C1542.4 223.634 1545.98 231.643 1549.74 239.563C1553.38 247.214 1557.37 254.704 1561.34 262.183C1561.92 263.289 1562.51 264.384 1563.14 265.469C1563.64 266.325 1564.34 267.332 1564.97 268.043C1565.66 268.806 1566.46 269.403 1567.28 270C1568.17 270.649 1570.02 271.043 1571.09 271.043C1572.33 271.043 1573.83 270.597 1574.9 269.958C1576.02 269.278 1576.99 268.251 1577.84 267.254C1580.45 264.202 1582.77 260.854 1585.21 257.652C1590.55 250.619 1595.83 243.487 1600.88 236.221C1605.8 229.136 1609.93 221.506 1614.37 214.104C1618.72 206.848 1623.65 199.966 1627.78 192.564C1632.07 184.872 1635.61 176.765 1639.8 169.021C1641.8 165.341 1643.81 161.661 1645.9 158.043C1647.2 155.801 1648.51 153.569 1649.9 151.389C1651.32 153.527 1652.7 155.692 1654.1 157.835C1656.27 161.183 1658.47 164.505 1660.69 167.822C1670.48 182.5 1679.39 197.76 1688.6 212.822C1693.21 220.354 1697.76 227.906 1702.64 235.255C1707.75 242.968 1712.93 250.624 1718.17 258.244C1718.99 259.422 1719.91 260.325 1721.31 260.719C1722.66 261.104 1724.14 260.906 1725.35 260.18C1727.66 258.794 1728.89 255.207 1727.24 252.804C1723.73 247.707 1720.24 242.589 1716.82 237.441C1713.58 232.577 1710.3 227.734 1707.23 222.762C1701.18 212.952 1695.27 203.044 1689.35 193.14C1684.81 185.568 1680.23 178.026 1675.51 170.588C1670.81 163.212 1665.95 155.951 1661.17 148.633C1659.98 146.811 1658.81 144.968 1657.55 143.198C1656.54 141.771 1655.54 140.333 1654.35 139.051C1653.49 138.127 1652.37 137.774 1651.25 137.338C1650.08 136.887 1648.77 137.235 1647.6 137.504C1646.65 137.779 1645.84 138.267 1645.15 138.973C1644.46 139.451 1643.87 140.027 1643.36 140.686C1643.05 141.055 1642.75 141.423 1642.45 141.792C1641.65 142.767 1640.85 143.806 1640.13 144.844C1638.97 146.505 1637.83 148.176 1636.74 149.883C1634.41 153.548 1632.13 157.243 1629.96 161.012C1627.66 164.982 1625.55 169.072 1623.43 173.157C1621.59 176.708 1619.81 180.32 1617.79 183.772C1615.58 187.545 1613.29 191.246 1610.82 194.848C1608.41 198.383 1605.9 201.86 1603.59 205.462C1601.3 209.007 1599 212.558 1596.76 216.134C1594.46 219.809 1592.28 223.593 1589.82 227.153C1587.4 230.641 1584.93 234.103 1582.46 237.56C1578.89 242.548 1575.34 247.536 1571.75 252.513C1571.22 251.486 1570.7 250.458 1570.16 249.446C1568.65 246.596 1567.08 243.762 1565.58 240.897C1562.26 234.513 1559.06 228.067 1555.9 221.589C1552.79 215.21 1549.58 208.878 1546.31 202.576C1543.09 196.395 1539.93 190.182 1536.63 184.047C1532.27 175.924 1527.82 167.842 1523.51 159.688C1519.41 151.918 1515.46 144.049 1511.55 136.176C1507.8 128.634 1504.08 121.072 1500.08 113.675C1495.74 105.672 1491.12 97.8289 1486.59 89.9395C1482.12 82.1746 1477.79 74.3267 1473.29 66.5774C1471.21 62.9857 1469.08 59.399 1466.84 55.8955C1466.15 54.8159 1465.45 53.7415 1464.74 52.6775C1463.68 51.1203 1462.48 49.2467 1460.83 48.276C1459.68 47.5909 1458.71 47.1809 1457.37 47.0771C1457.15 47.0616 1456.91 47.0511 1456.68 47.0511C1455.75 47.0511 1454.76 47.212 1454.02 47.7829C1453.04 48.5252 1452.1 49.1429 1451.45 50.2484C1450.9 51.1723 1450.51 52.1377 1450.11 53.1498C1448.35 57.7381 1447.26 62.6171 1446.02 67.3767C1444.88 71.7211 1443.67 76.0292 1442.3 80.3009C1439.84 88.0191 1436.7 95.5088 1433.64 102.999C1431.29 108.516 1428.77 113.961 1426.36 119.457C1423.88 125.115 1421.48 130.814 1419.04 136.492C1416.34 142.716 1413.71 148.954 1411.21 155.25C1409.29 160.088 1407.44 164.962 1405.49 169.784C1402.26 177.439 1399.09 185.152 1395.49 192.632C1391.81 200.293 1388.08 207.954 1384.16 215.48C1382.32 219.009 1380.41 222.523 1378.4 225.949C1376.4 229.338 1374.31 232.665 1372.34 236.075C1370.31 239.584 1368.4 243.16 1366.42 246.695C1365.58 248.211 1364.77 249.762 1363.94 251.299C1363.91 251.237 1363.87 251.174 1363.84 251.112C1359.63 243.15 1355.56 235.131 1351.72 226.966C1349.94 223.172 1348.15 219.336 1346.11 215.677C1344.03 211.919 1341.93 208.187 1339.76 204.481C1335.21 196.711 1330.66 188.946 1326.04 181.228C1321.6 173.816 1317.27 166.368 1313.37 158.629C1311.47 154.856 1309.56 151.082 1307.72 147.278C1305.93 143.598 1304.24 139.866 1302.35 136.238C1302.08 135.724 1301.82 135.205 1301.53 134.707C1301 133.783 1300.41 132.662 1299.66 131.919C1298.82 131.079 1298.05 130.508 1296.92 130.098C1295.82 129.693 1294.83 129.662 1293.68 129.916C1289.92 130.746 1288.14 134.51 1287.07 137.951C1285.84 141.963 1284.97 146.022 1284.23 150.164C1282.71 158.64 1281.3 167.121 1279.09 175.446C1278.04 179.386 1276.73 183.253 1275.4 187.104C1274.73 189.066 1274.08 191.023 1273.5 193.016C1273.39 193.41 1273.29 193.805 1273.19 194.199C1270.23 193.379 1267.32 192.372 1264.35 191.63C1259.77 190.472 1255.08 189.756 1250.39 189.139C1241.04 187.903 1231.68 187.254 1222.28 186.896C1213.77 186.58 1205.25 186.642 1196.75 186.647C1188.2 186.663 1179.63 186.725 1171.08 186.902C1154.22 187.27 1137.33 188.059 1120.48 187.244C1111.65 186.824 1102.84 186.232 1094.01 185.9C1085.65 185.594 1077.28 185.49 1068.92 185.547C1064.46 185.573 1060.01 185.599 1055.57 185.77C1050.89 185.957 1046.22 186.164 1041.54 186.299C1032.65 186.554 1023.76 186.725 1014.86 186.969C997.505 187.415 980.169 188.448 962.822 189.092C954.035 189.419 945.264 189.912 936.497 190.431C932.427 190.67 928.367 190.96 924.297 191.261C922.214 191.407 920.131 191.5 918.054 191.604C915.556 191.723 913.109 191.988 910.637 192.351C909.585 192.507 908.584 193.473 908.104 194.329ZM1425.9 150.75C1425.95 150.61 1426.01 150.47 1426.07 150.335C1426.04 150.408 1426.01 150.48 1425.98 150.558C1425.95 150.62 1425.93 150.688 1425.9 150.75Z" fill="#D23069"/>
<path d="M1723.33 213.097C1722.44 213.626 1721.36 213.772 1720.37 213.497C1719.36 213.206 1718.66 212.557 1718.08 211.68C1709.27 198.455 1700.77 185.001 1692.33 171.537C1691.12 169.612 1691.94 166.923 1693.79 165.802C1694.43 165.418 1695.12 165.241 1695.79 165.241C1697.19 165.241 1698.56 166.015 1699.36 167.307C1707.78 180.797 1716.2 194.266 1724.71 207.699C1725.85 209.51 1725.07 212.054 1723.33 213.097Z" fill="#D23069"/>
<path d="M1653.42 202.265C1654.28 201.751 1655.18 201.518 1656.07 201.518C1657.93 201.518 1659.71 202.551 1660.81 204.258C1668.67 216.518 1676.54 228.762 1683.89 241.364C1685.32 243.819 1684.44 247.121 1682.05 248.553C1679.56 250.048 1676.56 249.077 1675.05 246.669C1667.29 234.337 1659.35 222.113 1651.49 209.848C1649.87 207.321 1650.99 203.729 1653.42 202.265Z" fill="#D23069"/>
<path d="M1559.36 169.244C1557.5 170.365 1555.05 169.69 1553.94 167.791C1548.65 158.588 1543.55 149.271 1538.42 139.975C1534.04 132.07 1529.71 124.134 1525.39 116.198C1515.66 98.3326 1506 80.4465 1496.35 62.5499C1495.07 60.1779 1495.78 57.1467 1498.09 55.766C1498.83 55.3197 1499.67 55.1069 1500.5 55.1069C1502.18 55.1069 1503.85 55.9633 1504.69 57.5412C1515.65 77.8668 1526.57 98.2081 1537.44 118.575C1541.12 125.484 1544.71 132.459 1548.32 139.415C1552.51 147.475 1556.72 155.547 1560.79 163.68C1561.77 165.663 1561.3 168.081 1559.36 169.244Z" fill="#D23069"/>
<path d="M1461.2 132.552C1461.91 132.116 1462.74 131.893 1463.57 131.893C1463.98 131.893 1464.4 131.945 1464.8 132.065C1466.05 132.418 1466.88 133.222 1467.6 134.27C1469.77 137.437 1471.96 140.572 1474.05 143.795C1475.91 146.66 1477.76 149.52 1479.61 152.39C1481.14 154.736 1482.66 157.082 1484.18 159.423C1485.02 160.731 1485.74 162.143 1486.52 163.508C1489.08 168.024 1491.75 172.503 1494.19 177.097C1496.64 181.7 1499.11 186.299 1501.54 190.919C1504.46 196.498 1507.43 202.062 1510.18 207.735C1510.72 208.841 1510.96 209.973 1510.62 211.192C1510.32 212.313 1509.59 213.289 1508.61 213.881C1506.62 215.08 1503.75 214.421 1502.63 212.262C1497.59 202.592 1492.28 193.057 1487.06 183.481C1484.69 179.116 1482.18 174.833 1479.71 170.531C1478.58 168.569 1477.46 166.612 1476.33 164.64C1475.3 162.859 1474.08 161.162 1472.95 159.433C1470.79 156.096 1468.63 152.764 1466.47 149.432C1464.21 145.949 1461.85 142.539 1459.51 139.118C1458.82 138.106 1458.73 136.57 1459.05 135.412C1459.37 134.219 1460.15 133.175 1461.2 132.552Z" fill="#D23069"/>
<path d="M1355.4 198.351C1354.2 199.068 1352.71 198.616 1352 197.433C1348.87 192.305 1345.67 187.223 1342.46 182.152C1339.41 177.341 1336.39 172.524 1333.28 167.759C1330.59 163.617 1327.89 159.475 1325.15 155.359C1324.35 154.15 1324.93 152.396 1326.09 151.705C1326.48 151.461 1326.94 151.337 1327.4 151.337C1327.63 151.337 1327.87 151.368 1328.09 151.43C1328.78 151.627 1329.26 152.074 1329.65 152.66C1331.9 156.065 1334.13 159.481 1336.35 162.917C1337.86 165.237 1339.38 167.531 1340.85 169.866C1344.14 175.14 1347.44 180.413 1350.71 185.702C1352.59 188.728 1354.46 191.786 1356.29 194.858C1357 196.047 1356.55 197.656 1355.4 198.351Z" fill="#D23069"/>
<path d="M1302.28 203.615C1302.78 203.308 1303.36 203.163 1303.95 203.163C1305.1 203.163 1306.26 203.749 1306.83 204.85C1311.78 214.224 1316.69 223.618 1321.55 233.044C1322.38 234.653 1321.97 236.683 1320.38 237.632C1318.88 238.53 1316.75 238.037 1315.91 236.423C1310.98 227.044 1306.05 217.665 1301.09 208.296C1300.22 206.661 1300.68 204.585 1302.28 203.615Z" fill="#D23069"/>
<path d="M1142.21 169.555C1132.83 169.98 1123.46 170.058 1114.08 169.82C1105.22 169.596 1096.38 169.134 1087.52 168.844C1078.95 168.553 1070.37 168.392 1061.8 168.055C1057.14 167.873 1052.48 167.603 1047.81 167.339C1046.05 167.235 1044.28 167.084 1042.52 166.944C1040.48 166.788 1038.44 166.669 1036.4 166.467C1033.03 166.114 1029.65 165.807 1026.27 165.361C1022.34 164.837 1018.42 164.287 1014.5 163.659C1007.69 162.574 1000.92 161.183 994.194 159.631C992 159.122 990.741 156.563 991.317 154.42C991.6 153.366 992.293 152.442 993.208 151.892C993.865 151.497 994.533 151.342 995.22 151.342C995.599 151.342 995.989 151.388 996.393 151.466C1004.64 153.029 1012.91 154.529 1021.22 155.79C1025.52 156.324 1029.81 156.833 1034.12 157.269C1038.31 157.7 1042.51 157.996 1046.71 158.333C1055.58 159.034 1064.47 159.366 1073.35 159.735C1081.81 160.077 1090.26 160.446 1098.71 160.97C1103.19 161.255 1107.67 161.593 1112.15 161.831C1116.59 162.07 1121.03 162.236 1125.47 162.371C1128.05 162.449 1130.64 162.371 1133.23 162.361C1136.22 162.361 1139.23 162.179 1142.22 162.044C1144.22 161.961 1145.88 163.819 1145.88 165.802C1145.87 167.915 1144.2 169.461 1142.21 169.555Z" fill="#D23069"/>
<path d="M1010.68 210.809C1010.75 210.809 1010.82 210.814 1010.89 210.819C1015.26 211.292 1019.62 211.847 1024 212.299C1028.17 212.724 1032.35 213.129 1036.53 213.508C1044.9 214.261 1053.29 214.759 1061.69 215.159C1077.71 215.922 1093.74 216.025 1109.77 216.674C1116.62 216.96 1123.48 217.24 1130.32 217.65C1137.36 218.07 1144.4 218.636 1151.42 219.181C1152.51 219.264 1153.44 219.565 1154.22 220.37C1154.97 221.133 1155.39 222.176 1155.39 223.245C1155.39 225.342 1153.58 227.481 1151.42 227.32C1143.04 226.66 1134.64 225.939 1126.23 225.513C1117.43 225.067 1108.62 224.709 1099.82 224.382C1083.91 223.801 1067.98 223.546 1052.1 222.295C1045.1 221.74 1038.11 221.096 1031.12 220.37C1024.38 219.669 1017.64 218.839 1010.89 218.195C1009.9 218.102 1009.07 217.863 1008.35 217.115C1007.67 216.43 1007.29 215.48 1007.29 214.505C1007.29 213.529 1007.68 212.589 1008.35 211.894C1008.91 211.318 1009.84 210.809 1010.68 210.809Z" fill="#D23069"/>
<path d="M874.498 189.471C874.554 189.274 874.599 189.071 874.65 188.869C874.766 187.826 874.892 186.777 875.145 185.755C875.368 184.831 875.626 183.923 875.904 183.009C876.571 180.824 877.537 178.722 878.482 176.64C880.014 173.261 881.708 169.955 883.275 166.592C886.389 159.896 889.458 153.195 892.3 146.38C895.889 137.069 899.524 127.799 903.549 118.679C907.927 108.776 912.219 98.8309 916.405 88.8342C916.931 87.5833 918.438 86.6075 919.667 86.2649C920.137 86.13 920.622 86.0625 921.107 86.0625C922.068 86.0625 923.024 86.3273 923.858 86.8307C925.076 87.5574 925.991 88.772 926.365 90.1682C926.79 91.7617 926.421 93.0385 925.814 94.4814C920.516 107.12 914.934 119.629 909.555 132.231C907.983 136.228 906.446 140.224 904.954 144.263C903.362 148.56 901.759 152.848 900 157.083C898.255 161.282 896.44 165.455 894.635 169.628C893.043 173.308 891.334 176.921 889.736 180.601C889.079 182.246 888.437 183.902 887.866 185.573C887.522 186.57 887.208 187.571 886.92 188.589C886.764 189.144 886.602 189.694 886.44 190.25C885.889 192.071 884.873 193.546 883.664 194.957C882.046 196.847 879.038 197.065 877.011 195.84C874.893 194.563 873.856 191.921 874.498 189.471Z" fill="#D23069"/>
<path d="M1548.46 266.766C1549.77 266.766 1550.71 267.322 1551.68 268.136C1552.44 268.759 1553.25 269.387 1553.91 270.124C1554.55 270.841 1555.16 271.572 1555.77 272.304C1556.85 273.623 1557.91 274.941 1558.99 276.26C1559.93 277.422 1560.88 278.595 1561.85 279.742C1563.92 282.187 1565.98 284.689 1568.37 286.817C1568.57 286.952 1568.77 287.076 1568.98 287.201C1569.58 286.858 1570.16 286.485 1570.73 286.08C1573.58 283.656 1576.09 280.848 1578.71 278.149C1580.75 276.041 1582.86 274.007 1585.08 272.092C1589.54 268.24 1594.44 265.069 1599.55 262.225C1600.33 261.783 1601.19 261.571 1602.02 261.571C1603.69 261.571 1605.32 262.417 1606.23 264.021C1607.54 266.325 1606.81 269.574 1604.48 270.877C1600.46 273.114 1596.57 275.548 1592.92 278.367C1589.06 281.528 1585.55 285.119 1582.04 288.69C1580.79 289.973 1579.49 291.208 1578.15 292.396C1577.03 293.388 1575.78 294.286 1574.52 295.075C1573.38 295.801 1572.11 296.351 1570.82 296.689C1569.29 297.099 1567.64 296.954 1566.13 296.518C1563.71 295.806 1561.76 293.922 1559.97 292.204C1558.72 291.005 1557.55 289.718 1556.41 288.415C1555.09 286.915 1553.8 285.41 1552.51 283.884C1549.75 280.625 1546.85 277.422 1544.53 273.804C1543.41 272.066 1543.85 269.569 1545.24 268.136C1546.1 267.259 1547.27 266.766 1548.46 266.766Z" fill="#D23069"/>
<path d="M1478.05 43.7811C1477.24 44.269 1476.26 44.3987 1475.36 44.1392C1474.4 43.8745 1473.86 43.2775 1473.28 42.4938C1465.42 31.869 1457.55 21.2443 1449.69 10.6248C1449.59 10.9258 1449.49 11.2217 1449.39 11.5227C1448.88 13.0435 1448.32 14.5487 1447.78 16.0591C1446.71 19.1007 1445.5 22.0955 1444.33 25.0956C1443.16 28.0645 1441.94 31.0179 1440.76 33.9816C1439.43 37.2671 1438.25 40.6252 1436.5 43.7032C1435.09 46.179 1431.89 47.0407 1429.48 45.5925C1428.32 44.9022 1427.47 43.7499 1427.11 42.4368C1426.73 40.9834 1427.02 39.6962 1427.64 38.3675C1428.94 35.5491 1430.53 32.9175 1431.98 30.177C1433.48 27.3379 1434.94 24.4779 1436.29 21.5609C1437.67 18.5972 1439.05 15.6387 1440.32 12.6231C1440.93 11.1335 1441.56 9.65407 1442.18 8.1748C1442.58 7.20938 1442.99 6.23883 1443.39 5.27341C1443.55 4.90489 1443.7 4.54676 1443.87 4.17824C1444.39 3.02078 1445.08 2.07095 1445.89 1.11592C1446.49 0.399642 1447.53 0 1448.53 0C1449.17 0 1449.81 0.166003 1450.29 0.524141C1450.71 0.840756 1451.14 1.15747 1451.54 1.50004C1451.89 1.88413 1452.2 2.28887 1452.51 2.71448C1452.83 3.18681 1453.16 3.65919 1453.5 4.13151C1453.94 4.76474 1454.39 5.39282 1454.84 6.01567C1455.97 7.58836 1457.13 9.15593 1458.28 10.7234C1460.19 13.2927 1462.1 15.8412 1464.02 18.3948C1469.13 25.2098 1474.22 32.0404 1479.3 38.8866C1479.83 39.6132 1479.86 40.8121 1479.64 41.6425C1479.41 42.5405 1478.82 43.3139 1478.05 43.7811Z" fill="#D23069"/>
<path d="M1674.88 139.005C1670.3 133.898 1665.74 128.775 1661.23 123.605C1659.1 121.165 1656.98 118.726 1654.87 116.281C1653.03 114.143 1651.25 111.854 1649.18 109.939C1646.06 112.555 1643.31 115.684 1640.62 118.747C1638.39 121.274 1636.23 123.859 1634.14 126.512C1632.09 129.304 1630.17 132.2 1627.94 134.842C1626.33 136.757 1623.2 136.529 1621.55 134.842C1620.71 133.97 1620.22 132.782 1620.22 131.557C1620.28 131.147 1620.33 130.737 1620.39 130.327C1620.59 129.538 1620.99 128.852 1621.55 128.271C1621.59 128.219 1621.63 128.167 1621.67 128.11C1621.49 128.339 1621.32 128.577 1621.15 128.811C1623.99 125.027 1626.97 121.357 1630.03 117.76C1632.83 114.459 1635.71 111.127 1638.83 108.148C1639.63 107.385 1640.44 106.648 1641.27 105.911C1643.37 104.027 1645.75 101.899 1648.66 101.649C1648.81 101.634 1648.95 101.629 1649.09 101.629C1651.3 101.629 1653.08 103.082 1654.63 104.592C1655.45 105.407 1656.24 106.243 1657.02 107.099C1660.12 110.515 1663.12 114.034 1666.17 117.501C1670.86 122.832 1675.57 128.141 1680.31 133.43C1681.73 135.003 1681.84 137.437 1680.31 139.005C1678.87 140.469 1676.29 140.583 1674.88 139.005Z" fill="#D23069"/>
<path d="M1316.93 135.663C1312.77 131.526 1308.61 127.394 1304.45 123.242C1302.78 121.581 1301.12 119.91 1299.44 118.259C1297.77 116.609 1296.1 114.932 1294.29 113.422L1294.24 113.385C1293.25 114.844 1292.29 116.328 1291.3 117.782C1290.16 119.432 1289.05 121.093 1288.01 122.806C1287 124.451 1286.09 126.138 1285.22 127.846C1284.83 128.624 1284.45 129.393 1284.04 130.156C1283.41 131.365 1282.56 132.439 1281.71 133.478C1280.5 134.952 1278.12 135.081 1276.59 134.152C1274.72 133.031 1273.75 130.166 1275.07 128.22C1276.25 126.491 1277.21 124.607 1278.26 122.801C1279.28 121.057 1280.38 119.36 1281.51 117.683C1282.74 115.851 1283.99 114.039 1285.22 112.212C1285.83 111.34 1286.42 110.468 1287.03 109.602C1287.79 108.522 1288.57 107.416 1289.57 106.56C1290.69 105.605 1291.95 105.029 1293.38 105.029C1293.57 105.029 1293.77 105.039 1293.97 105.06C1295.4 105.216 1296.6 105.735 1297.78 106.576C1298.7 107.235 1299.55 108.024 1300.4 108.787C1301.2 109.524 1302 110.25 1302.8 110.993C1304.32 112.41 1305.82 113.847 1307.29 115.311C1310.56 118.54 1313.82 121.773 1317.08 125.002C1318.82 126.72 1320.56 128.443 1322.29 130.166C1323.77 131.63 1323.72 134.178 1322.29 135.652C1320.8 137.178 1318.42 137.126 1316.93 135.663Z" fill="#D23069"/>
<path d="M1331.74 268.407C1330.64 270.348 1331.05 272.668 1332.49 274.287C1333.81 275.767 1335.08 277.308 1336.47 278.746C1337.65 279.976 1338.83 281.201 1340.03 282.415C1343.84 286.262 1347.71 289.999 1351.82 293.518C1354.36 295.703 1357.32 298.018 1360.66 298.656C1362.38 298.989 1364.21 298.776 1365.77 297.878C1366.79 297.286 1367.76 296.533 1368.63 295.729C1370.36 294.146 1372.03 292.511 1373.75 290.917C1377.66 287.279 1381.51 283.615 1385.12 279.68C1389.07 275.383 1392.91 270.981 1396.72 266.559C1397.58 265.567 1398.12 264.457 1398.12 263.092C1398.12 261.799 1397.61 260.548 1396.72 259.635C1395.83 258.711 1394.52 258.208 1393.24 258.208C1392.02 258.208 1390.81 258.659 1389.98 259.635C1385.16 265.24 1380.35 270.882 1375.27 276.239C1373.01 278.627 1370.62 280.889 1368.23 283.137C1366.2 285.047 1364.21 287.082 1362.07 288.883C1361.22 288.39 1360.41 287.829 1359.62 287.232C1355.95 284.227 1352.54 280.869 1349.26 277.427C1347.54 275.616 1345.82 273.789 1344.11 271.952C1342.29 269.984 1340.36 268.256 1338.2 266.673C1337.23 265.946 1335.69 265.868 1334.57 266.185C1333.39 266.517 1332.36 267.322 1331.74 268.407ZM1361.67 288.794C1361.78 288.841 1361.89 288.888 1362 288.935H1361.99C1361.88 288.898 1361.77 288.846 1361.67 288.794ZM1361.19 289.293C1361.31 289.277 1361.43 289.262 1361.55 289.246C1361.54 289.251 1361.53 289.256 1361.52 289.262C1361.41 289.277 1361.3 289.288 1361.19 289.293Z" fill="#D23069"/>
<path d="M940.86 135.641C938.939 139.03 936.765 142.259 934.798 145.622C932.836 148.97 931.128 152.468 929.49 155.977C927.285 160.674 925.147 165.418 922.775 170.033C921.744 172.062 919.039 172.659 917.174 171.538C916.259 170.988 915.571 170.074 915.298 169.031C914.974 167.842 915.242 166.861 915.707 165.787C917.381 161.91 919.494 158.24 921.532 154.55C923.382 151.202 925.268 147.88 927.285 144.646C929.338 141.366 931.507 138.184 933.554 134.914C935.673 131.535 937.629 128.058 939.551 124.559C942.559 119.063 945.597 113.587 948.636 108.111C949.217 107.063 950.319 106.481 951.432 106.481C951.983 106.481 952.539 106.621 953.034 106.923C954.561 107.836 955.062 109.876 954.192 111.443C949.723 119.494 945.405 127.632 940.86 135.641Z" fill="#D23069"/>
<path d="M817.368 192.362C814.891 192.003 812.449 191.739 809.951 191.614C807.873 191.51 805.79 191.417 803.707 191.271C799.637 190.97 795.578 190.68 791.508 190.441C782.736 189.927 773.964 189.429 765.177 189.102C747.826 188.458 730.494 187.425 713.138 186.979C704.245 186.74 695.357 186.569 686.459 186.309C681.782 186.169 677.105 185.967 672.429 185.78C667.985 185.609 663.536 185.583 659.082 185.557C650.719 185.5 642.347 185.598 633.985 185.91C625.157 186.247 616.345 186.834 607.523 187.254C590.662 188.069 573.775 187.28 556.919 186.912C548.365 186.73 539.8 186.673 531.251 186.657C522.747 186.647 514.228 186.59 505.724 186.906C496.316 187.264 486.957 187.918 477.609 189.149C472.923 189.766 468.226 190.483 463.645 191.64C460.677 192.382 457.765 193.389 454.813 194.209C454.712 193.815 454.611 193.42 454.499 193.026C453.923 191.033 453.266 189.071 452.598 187.114C451.274 183.263 449.964 179.396 448.913 175.456C446.703 167.131 445.288 158.645 443.771 150.174C443.033 146.032 442.163 141.973 440.93 137.961C439.863 134.52 438.078 130.751 434.322 129.926C433.179 129.666 432.178 129.703 431.076 130.108C429.948 130.518 429.175 131.094 428.336 131.93C427.582 132.672 426.991 133.793 426.47 134.717C426.187 135.215 425.919 135.734 425.651 136.248C423.76 139.876 422.066 143.608 420.282 147.288C418.436 151.087 416.53 154.861 414.629 158.639C410.726 166.378 406.404 173.821 401.96 181.238C397.339 188.957 392.788 196.721 388.243 204.491C386.074 208.197 383.976 211.929 381.888 215.687C379.856 219.352 378.061 223.187 376.276 226.976C372.439 235.141 368.374 243.16 364.158 251.122C364.127 251.184 364.092 251.247 364.061 251.309C363.232 249.773 362.423 248.226 361.579 246.705C359.602 243.17 357.686 239.594 355.659 236.085C353.692 232.681 351.599 229.348 349.597 225.959C347.59 222.533 345.689 219.019 343.843 215.49C339.915 207.959 336.189 200.298 332.508 192.642C328.909 185.168 325.739 177.449 322.513 169.794C320.562 164.972 318.711 160.103 316.79 155.26C314.287 148.959 311.653 142.72 308.964 136.502C306.511 130.829 304.12 125.125 301.638 119.467C299.226 113.971 296.708 108.531 294.362 103.009C291.304 95.5189 288.169 88.0291 285.697 80.3109C284.327 76.0392 283.118 71.7364 281.981 67.3869C280.737 62.6273 279.655 57.7483 277.886 53.16C277.491 52.1479 277.102 51.1823 276.551 50.2584C275.899 49.1529 274.958 48.5405 273.983 47.7931C273.244 47.2274 272.254 47.0612 271.323 47.0612C271.086 47.0612 270.853 47.0716 270.626 47.0871C269.281 47.1909 268.315 47.6011 267.167 48.2862C265.524 49.2516 264.326 51.1305 263.264 52.6876C262.546 53.7465 261.849 54.8261 261.156 55.9057C258.921 59.4092 256.798 62.9957 254.71 66.5874C250.21 74.3315 245.883 82.1847 241.413 89.9495C236.878 97.8389 232.257 105.676 227.924 113.685C223.915 121.082 220.204 128.644 216.453 136.186C212.535 144.06 208.591 151.928 204.491 159.698C200.178 167.852 195.729 175.934 191.371 184.057C188.07 190.192 184.91 196.405 181.689 202.587C178.423 208.888 175.213 215.22 172.104 221.599C168.944 228.077 165.743 234.523 162.417 240.907C160.915 243.778 159.348 246.607 157.841 249.456C157.305 250.468 156.785 251.496 156.254 252.524C152.664 247.551 149.1 242.558 145.535 237.57C143.068 234.108 140.601 230.651 138.184 227.163C135.722 223.603 133.538 219.819 131.238 216.144C128.993 212.568 126.703 209.012 124.412 205.473C122.092 201.87 119.594 198.393 117.172 194.858C114.705 191.256 112.41 187.555 110.201 183.782C108.183 180.335 106.409 176.718 104.568 173.167C102.45 169.088 100.342 164.992 98.0414 161.022C95.8674 157.254 93.5872 153.558 91.2565 149.894C90.1645 148.181 89.0219 146.515 87.8691 144.854C87.1462 143.81 86.3474 142.772 85.5435 141.802C85.2401 141.433 84.9418 141.065 84.6334 140.696C84.1228 140.037 83.5313 139.461 82.8487 138.983C82.1561 138.272 81.3371 137.79 80.3967 137.514C79.2338 137.25 77.9193 136.897 76.7464 137.348C75.6291 137.784 74.5016 138.137 73.6422 139.061C72.449 140.343 71.448 141.781 70.4419 143.208C69.183 144.983 68.0151 146.821 66.827 148.643C62.0493 155.961 57.1805 163.217 52.4888 170.598C47.7616 178.036 43.1861 185.578 38.6511 193.15C32.7308 203.054 26.8206 212.962 20.7688 222.772C17.6949 227.744 14.4187 232.587 11.183 237.451C7.75523 242.605 4.27177 247.722 0.763059 252.814C-0.895238 255.217 0.338378 258.804 2.64887 260.19C3.8572 260.916 5.33351 261.114 6.69351 260.73C8.09396 260.335 9.00907 259.437 9.82811 258.254C15.071 250.634 20.2481 242.973 25.3595 235.265C30.2383 227.911 34.7936 220.364 39.3994 212.833C48.6009 197.77 57.5243 182.51 67.3123 167.832C69.5318 164.51 71.7311 161.188 73.9 157.845C75.2954 155.696 76.6807 153.532 78.0963 151.399C79.4867 153.579 80.7961 155.811 82.0955 158.053C84.1936 161.671 86.1957 165.356 88.1978 169.031C92.389 176.775 95.9281 184.882 100.22 192.574C104.346 199.976 109.28 206.858 113.633 214.114C118.067 221.516 122.203 229.146 127.122 236.231C132.168 243.497 137.446 250.624 142.79 257.662C145.227 260.865 147.553 264.212 150.161 267.264C151.016 268.266 151.982 269.294 153.104 269.969C154.171 270.612 155.672 271.053 156.906 271.053C157.973 271.053 159.828 270.659 160.718 270.01C161.542 269.413 162.336 268.811 163.028 268.053C163.66 267.342 164.363 266.33 164.864 265.479C165.491 264.394 166.082 263.294 166.663 262.193C170.632 254.714 174.616 247.224 178.261 239.573C182.023 231.653 185.597 223.644 189.551 215.822C193.495 208.026 197.382 200.183 201.483 192.471C205.795 184.373 210.184 176.318 214.415 168.174C222.459 152.681 229.871 136.85 237.94 121.372C240.549 116.358 243.35 111.453 246.125 106.543C249.427 100.72 252.703 94.8909 255.928 89.0257C258.921 83.581 261.854 78.1051 264.852 72.6707C266.293 70.0444 267.734 67.4128 269.169 64.7864C269.417 64.3401 269.66 63.8937 269.903 63.4473C270.388 65.3159 270.843 67.1948 271.303 69.0581C272.279 72.9873 273.234 76.9268 274.387 80.804C275.54 84.6709 276.738 88.491 278.058 92.3008C279.382 96.1624 280.828 99.9878 282.279 103.787C283.821 107.851 285.414 111.9 287.148 115.886C288.932 119.971 290.748 124.045 292.517 128.135C295.738 135.604 298.862 143.13 302.037 150.631C302.073 150.714 302.108 150.802 302.143 150.885C302.148 150.901 302.153 150.916 302.158 150.927C302.169 150.952 302.184 150.984 302.194 151.015C305.344 158.764 308.246 166.612 311.375 174.366C313.175 178.84 315.101 183.268 317.012 187.701C318.63 191.474 320.263 195.242 322.058 198.927C323.919 202.737 325.845 206.511 327.751 210.294C329.738 214.239 331.684 218.215 333.823 222.082C335.891 225.84 337.964 229.587 340.178 233.262C342.337 236.838 344.662 240.295 346.821 243.866C348.929 247.354 350.972 250.894 352.984 254.444C353.94 256.146 354.921 257.833 355.917 259.51C356.351 260.226 356.806 260.916 357.302 261.596C358.854 263.776 360.77 265.458 363.51 265.666C364.309 265.723 365.078 265.603 365.836 265.349C367.014 264.965 367.803 264.295 368.677 263.46C369.501 262.671 370.093 261.456 370.629 260.454C370.902 259.946 371.145 259.396 371.402 258.861C372.378 256.883 373.359 254.901 374.335 252.908C376.372 248.755 378.415 244.598 380.397 240.42C382.156 236.708 383.809 232.951 385.584 229.25C387.586 225.071 389.709 220.992 391.979 216.959C396.358 209.189 401.039 201.58 405.62 193.939C410.929 185.085 416.49 176.411 421.318 167.271C423.876 162.428 426.389 157.565 428.841 152.66C429.787 150.766 430.681 148.835 431.597 146.909C431.834 148.248 432.052 149.587 432.269 150.932C432.936 155.048 433.427 159.2 434.018 163.326C434.635 167.588 435.328 171.818 436.167 176.038C437.001 180.221 438.144 184.358 439.362 188.438C440.414 191.988 441.567 195.512 442.679 199.042C443.599 201.985 444.878 205.426 447.866 206.718L449.342 207.362C450.101 207.517 450.869 207.601 451.648 207.616C452.785 207.673 454.246 207.211 455.354 206.905C456.38 206.625 457.381 206.256 458.387 205.914C462.3 204.595 466.208 203.407 470.243 202.561C474.055 201.761 477.902 201.196 481.75 200.661C490.203 199.696 498.662 198.912 507.16 198.606C515.639 198.299 524.117 198.102 532.606 197.998C541.267 197.895 549.932 197.775 558.593 197.941C567.562 198.102 576.526 198.237 585.495 198.284C593.988 198.33 602.477 198.138 610.956 197.744C619.576 197.339 628.181 196.753 636.801 196.348C645.476 195.948 654.177 195.818 662.863 195.678C671.468 195.554 680.073 195.808 688.673 195.891C697.419 195.974 706.161 195.901 714.902 196.088C723.957 196.285 733.007 196.514 742.052 196.747C750.308 196.96 758.569 197.043 766.83 197.266C775.693 197.5 784.546 197.936 793.393 198.595C796.973 198.87 800.537 199.202 804.096 199.649C808.156 200.152 812.191 200.734 816.296 200.796C818.146 200.832 819.83 199.472 820.32 197.645C820.619 196.54 820.462 195.336 819.896 194.339C819.38 193.472 818.379 192.507 817.368 192.362ZM301.982 150.553C301.951 150.48 301.921 150.402 301.89 150.33C301.946 150.47 302.002 150.61 302.062 150.745C302.037 150.688 302.007 150.62 301.982 150.553Z" fill="#D23069"/>
<path d="M4.6358 213.097C5.52056 213.626 6.60249 213.772 7.59342 213.497C8.60458 213.206 9.30225 212.557 9.88367 211.68C18.6959 198.455 27.1947 185.001 35.6378 171.537C36.8462 169.612 36.0271 166.923 34.1767 165.802C33.5346 165.418 32.8471 165.241 32.1746 165.241C30.7691 165.241 29.4041 166.015 28.6002 167.307C20.1874 180.797 11.7594 194.266 3.25555 207.699C2.118 209.51 2.89155 212.054 4.6358 213.097Z" fill="#D23069"/>
<path d="M74.5423 202.265C73.6879 201.751 72.7829 201.518 71.8981 201.518C70.0376 201.518 68.2529 202.551 67.1558 204.258C59.2941 216.518 51.4222 228.762 44.0762 241.364C42.6454 243.819 43.5301 247.121 45.9114 248.553C48.4039 250.048 51.4071 249.077 52.9137 246.669C60.6743 234.337 68.6119 222.113 76.4736 209.848C78.0965 207.321 76.9792 203.729 74.5423 202.265Z" fill="#D23069"/>
<path d="M168.6 169.244C170.465 170.365 172.917 169.69 174.02 167.791C179.313 158.588 184.404 149.271 189.541 139.975C193.919 132.07 198.252 124.134 202.575 116.198C212.302 98.3326 221.969 80.4465 231.61 62.5499C232.884 60.1779 232.186 57.1467 229.876 55.766C229.138 55.3197 228.298 55.1069 227.464 55.1069C225.786 55.1069 224.117 55.9633 223.273 57.5412C212.317 77.8668 201.397 98.2081 190.527 118.575C186.841 125.484 183.256 132.459 179.647 139.415C175.455 147.475 171.249 155.547 167.174 163.68C166.188 165.663 166.668 168.081 168.6 169.244Z" fill="#D23069"/>
<path d="M266.763 132.552C266.05 132.116 265.226 131.893 264.397 131.893C263.982 131.893 263.568 131.945 263.163 132.065C261.914 132.418 261.085 133.222 260.362 134.27C258.193 137.437 255.999 140.572 253.916 143.795C252.056 146.66 250.2 149.52 248.35 152.39C246.823 154.736 245.306 157.082 243.789 159.423C242.94 160.731 242.222 162.143 241.449 163.508C238.89 168.024 236.221 172.503 233.779 177.097C231.327 181.7 228.86 186.299 226.433 190.919C223.506 196.498 220.538 202.062 217.788 207.735C217.247 208.841 217.014 209.973 217.348 211.192C217.646 212.313 218.384 213.289 219.36 213.881C221.352 215.08 224.219 214.421 225.336 212.262C230.382 202.592 235.69 193.057 240.908 183.481C243.284 179.116 245.792 174.833 248.264 170.531C249.391 168.569 250.514 166.612 251.641 164.64C252.667 162.859 253.891 161.162 255.018 159.433C257.177 156.096 259.336 152.764 261.495 149.432C263.755 145.949 266.116 142.539 268.457 139.118C269.149 138.106 269.24 136.57 268.922 135.412C268.598 134.219 267.815 133.175 266.763 132.552Z" fill="#D23069"/>
<path d="M372.56 198.351C373.764 199.068 375.245 198.616 375.963 197.433C379.087 192.305 382.293 187.223 385.503 182.152C388.547 177.341 391.57 172.524 394.679 167.759C397.374 163.617 400.074 159.475 402.809 155.359C403.608 154.15 403.032 152.396 401.874 151.705C401.479 151.461 401.019 151.337 400.559 151.337C400.327 151.337 400.094 151.368 399.867 151.43C399.184 151.627 398.699 152.074 398.309 152.66C396.06 156.065 393.825 159.481 391.606 162.917C390.104 165.237 388.577 167.531 387.111 169.866C383.82 175.14 380.523 180.413 377.247 185.702C375.366 188.728 373.496 191.786 371.671 194.858C370.963 196.047 371.413 197.656 372.56 198.351Z" fill="#D23069"/>
<path d="M425.686 203.615C425.181 203.308 424.599 203.163 424.018 203.163C422.86 203.163 421.708 203.749 421.131 204.85C416.182 214.224 411.277 223.618 406.414 233.044C405.58 234.653 405.999 236.683 407.582 237.632C409.083 238.53 411.212 238.037 412.051 236.423C416.98 227.044 421.915 217.665 426.875 208.296C427.744 206.661 427.289 204.585 425.686 203.615Z" fill="#D23069"/>
<path d="M585.752 169.555C595.131 169.98 604.504 170.058 613.888 169.82C622.74 169.596 631.588 169.134 640.441 168.844C649.01 168.553 657.59 168.392 666.16 168.055C670.826 167.873 675.487 167.603 680.154 167.339C681.923 167.235 683.683 167.084 685.442 166.944C687.485 166.788 689.527 166.669 691.56 166.467C694.937 166.114 698.319 165.807 701.697 165.361C705.625 164.837 709.543 164.287 713.461 163.659C720.272 162.574 727.041 161.183 733.771 159.631C735.965 159.122 737.224 156.563 736.647 154.42C736.364 153.366 735.672 152.442 734.756 151.892C734.099 151.497 733.432 151.342 732.744 151.342C732.365 151.342 731.976 151.388 731.571 151.466C723.32 153.029 715.054 154.529 706.742 155.79C702.445 156.324 698.153 156.833 693.84 157.269C689.654 157.7 685.452 157.996 681.251 158.333C672.388 159.034 663.495 159.366 654.612 159.735C646.159 160.077 637.706 160.446 629.252 160.97C624.773 161.255 620.299 161.593 615.814 161.831C611.37 162.07 606.936 162.236 602.492 162.371C599.914 162.449 597.325 162.371 594.736 162.361C591.743 162.361 588.73 162.179 585.747 162.044C583.745 161.961 582.087 163.819 582.087 165.802C582.092 167.915 583.76 169.461 585.752 169.555Z" fill="#D23069"/>
<path d="M717.284 210.809C717.213 210.809 717.142 210.814 717.077 210.819C712.708 211.292 708.34 211.847 703.962 212.299C699.796 212.724 695.62 213.129 691.439 213.508C683.066 214.261 674.674 214.759 666.276 215.159C650.259 215.922 634.222 216.025 618.196 216.674C611.345 216.96 604.489 217.24 597.644 217.65C590.606 218.07 583.569 218.636 576.541 219.181C575.459 219.264 574.524 219.565 573.74 220.37C572.997 221.133 572.572 222.176 572.572 223.245C572.572 225.342 574.382 227.481 576.541 227.32C584.929 226.66 593.326 225.939 601.739 225.513C610.541 225.067 619.348 224.709 628.151 224.382C644.056 223.801 659.992 223.546 675.872 222.295C682.874 221.74 689.861 221.096 696.848 220.37C703.593 219.669 710.332 218.839 717.077 218.195C718.068 218.102 718.902 217.863 719.62 217.115C720.297 216.43 720.676 215.48 720.676 214.505C720.676 213.529 720.292 212.589 719.62 211.894C719.059 211.318 718.128 210.809 717.284 210.809Z" fill="#D23069"/>
<path d="M853.461 189.471C853.411 189.274 853.36 189.071 853.31 188.869C853.193 187.826 853.067 186.777 852.814 185.755C852.592 184.831 852.334 183.923 852.056 183.009C851.388 180.824 850.423 178.722 849.482 176.64C847.945 173.261 846.257 169.955 844.689 166.592C841.575 159.896 838.506 153.195 835.665 146.38C832.075 137.069 828.44 127.799 824.416 118.679C820.038 108.776 815.745 98.8309 811.559 88.8342C811.033 87.5833 809.527 86.6075 808.298 86.2649C807.828 86.13 807.342 86.0625 806.857 86.0625C805.897 86.0625 804.941 86.3273 804.102 86.8307C802.883 87.5574 801.968 88.772 801.594 90.1682C801.169 91.7617 801.538 93.0385 802.145 94.4814C807.444 107.12 813.025 119.629 818.405 132.231C819.977 136.228 821.514 140.224 823.005 144.263C824.598 148.56 826.201 152.848 827.96 157.083C829.699 161.282 831.519 165.455 833.319 169.628C834.912 173.308 836.62 176.921 838.218 180.601C838.875 182.246 839.517 183.902 840.089 185.573C840.433 186.57 840.746 187.571 841.034 188.589C841.191 189.144 841.353 189.694 841.514 190.25C842.066 192.071 843.082 193.546 844.29 194.957C845.908 196.847 848.916 197.065 850.943 195.84C853.072 194.563 854.108 191.921 853.461 189.471Z" fill="#D23069"/>
<path d="M179.5 266.766C178.191 266.766 177.255 267.322 176.279 268.136C175.521 268.759 174.712 269.387 174.055 270.124C173.413 270.841 172.806 271.572 172.194 272.304C171.118 273.623 170.051 274.941 168.974 276.26C168.033 277.422 167.088 278.595 166.112 279.742C164.044 282.187 161.987 284.689 159.59 286.817C159.393 286.952 159.191 287.076 158.989 287.201C158.382 286.858 157.806 286.485 157.234 286.08C154.383 283.656 151.87 280.848 149.256 278.149C147.214 276.041 145.1 274.007 142.886 272.092C138.427 268.24 133.523 265.069 128.411 262.225C127.628 261.783 126.778 261.571 125.939 261.571C124.271 261.571 122.648 262.417 121.733 264.021C120.423 266.325 121.151 269.574 123.487 270.877C127.506 273.114 131.389 275.548 135.045 278.367C138.902 281.528 142.416 285.119 145.92 288.69C147.178 289.973 148.473 291.208 149.812 292.396C150.93 293.388 152.189 294.286 153.443 295.075C154.585 295.801 155.854 296.351 157.143 296.689C158.675 297.099 160.328 296.954 161.83 296.518C164.257 295.806 166.208 293.922 167.998 292.204C169.247 291.005 170.415 289.718 171.557 288.415C172.872 286.915 174.166 285.41 175.45 283.884C178.221 280.625 181.113 277.422 183.438 273.804C184.556 272.066 184.116 269.569 182.721 268.136C181.866 267.259 180.698 266.766 179.5 266.766Z" fill="#D23069"/>
<path d="M249.917 43.7811C250.726 44.269 251.702 44.3987 252.602 44.1392C253.562 43.8745 254.108 43.2775 254.685 42.4938C262.547 31.869 270.413 21.2443 278.27 10.6248C278.371 10.9258 278.467 11.2217 278.568 11.5227C279.084 13.0435 279.635 14.5487 280.176 16.0591C281.253 19.1007 282.461 22.0955 283.629 25.0956C284.797 28.0645 286.021 31.0179 287.209 33.9816C288.533 37.2671 289.711 40.6252 291.461 43.7032C292.871 46.179 296.071 47.0407 298.488 45.5925C299.636 44.9022 300.495 43.7499 300.854 42.4368C301.238 40.9834 300.945 39.6962 300.328 38.3675C299.029 35.5491 297.436 32.9175 295.985 30.177C294.484 27.3379 293.028 24.4779 291.673 21.5609C290.298 18.5972 288.917 15.6387 287.648 12.6231C287.032 11.1335 286.405 9.65407 285.783 8.1748C285.384 7.20938 284.974 6.23883 284.575 5.27341C284.418 4.90489 284.261 4.54676 284.094 4.17824C283.579 3.02078 282.886 2.07095 282.077 1.11592C281.475 0.399642 280.434 0 279.433 0C278.786 0 278.159 0.166003 277.673 0.524141C277.249 0.840756 276.824 1.15747 276.414 1.50004C276.071 1.88413 275.757 2.28887 275.454 2.71448C275.13 3.18681 274.797 3.65919 274.463 4.13151C274.023 4.76474 273.573 5.39282 273.123 6.01567C271.991 7.58836 270.838 9.15593 269.68 10.7234C267.779 13.2927 265.863 15.8412 263.942 18.3948C258.831 25.2098 253.739 32.0404 248.668 38.8866C248.138 39.6132 248.102 40.8121 248.32 41.6425C248.557 42.5405 249.144 43.3139 249.917 43.7811Z" fill="#D23069"/>
<path d="M53.0855 139.005C57.661 133.898 62.2264 128.775 66.7361 123.605C68.8596 121.165 70.9881 118.726 73.0963 116.281C74.9316 114.143 76.7163 111.854 78.7891 109.939C81.9035 112.555 84.6538 115.684 87.3435 118.747C89.5731 121.274 91.737 123.859 93.82 126.512C95.8726 129.304 97.7938 132.2 100.023 134.842C101.631 136.757 104.766 136.529 106.419 134.842C107.258 133.97 107.744 132.782 107.744 131.557C107.683 131.147 107.637 130.737 107.577 130.327C107.369 129.538 106.975 128.852 106.419 128.271C106.379 128.219 106.338 128.167 106.298 128.11C106.475 128.339 106.646 128.577 106.818 128.811C103.982 125.027 100.999 121.357 97.9404 117.76C95.1344 114.459 92.2628 111.127 89.1383 108.148C88.3395 107.385 87.5305 106.648 86.7014 105.911C84.6032 104.027 82.2169 101.899 79.3048 101.649C79.1582 101.634 79.0166 101.629 78.8751 101.629C76.6657 101.629 74.886 103.082 73.339 104.592C72.5199 105.407 71.7312 106.243 70.9527 107.099C67.8535 110.515 64.8503 114.034 61.7966 117.501C57.1099 122.832 52.403 128.141 47.6556 133.43C46.24 135.003 46.1338 137.437 47.6556 139.005C49.0914 140.469 51.6699 140.583 53.0855 139.005Z" fill="#D23069"/>
<path d="M411.03 135.662C415.201 131.525 419.357 127.393 423.518 123.241C425.186 121.58 426.844 119.909 428.523 118.258C430.191 116.608 431.865 114.931 433.67 113.421L433.725 113.384C434.716 114.843 435.672 116.327 436.668 117.781C437.8 119.431 438.918 121.092 439.959 122.805C440.955 124.45 441.875 126.137 442.74 127.845C443.134 128.623 443.513 129.392 443.923 130.155C444.55 131.364 445.404 132.438 446.259 133.477C447.467 134.951 449.843 135.08 451.375 134.151C453.241 133.03 454.216 130.165 452.892 128.219C451.714 126.49 450.758 124.606 449.707 122.8C448.68 121.056 447.588 119.359 446.456 117.682C445.222 115.85 443.978 114.038 442.74 112.211C442.138 111.339 441.542 110.467 440.93 109.601C440.171 108.521 439.393 107.415 438.397 106.559C437.28 105.604 436.016 105.028 434.59 105.028C434.398 105.028 434.201 105.038 433.998 105.059C432.568 105.215 431.364 105.734 430.191 106.575C429.266 107.234 428.417 108.023 427.572 108.786C426.774 109.523 425.965 110.249 425.171 110.992C423.654 112.409 422.153 113.846 420.676 115.31C417.41 118.539 414.149 121.772 410.888 125.001C409.154 126.719 407.41 128.442 405.681 130.165C404.2 131.629 404.245 134.177 405.681 135.651C407.157 137.177 409.544 137.125 411.03 135.662Z" fill="#D23069"/>
<path d="M393.39 266.185C392.273 265.868 390.731 265.941 389.755 266.673C387.606 268.256 385.67 269.984 383.85 271.952C382.141 273.794 380.422 275.616 378.698 277.427C375.422 280.864 372.009 284.227 368.344 287.232C367.545 287.829 366.746 288.384 365.886 288.883C363.748 287.087 361.761 285.052 359.728 283.137C357.337 280.884 354.951 278.627 352.691 276.239C347.605 270.882 342.802 265.24 337.989 259.635C337.149 258.659 335.946 258.208 334.723 258.208C333.438 258.208 332.139 258.711 331.244 259.635C330.354 260.554 329.844 261.804 329.844 263.092C329.844 264.457 330.385 265.567 331.244 266.559C335.051 270.986 338.889 275.383 342.842 279.68C346.457 283.615 350.304 287.279 354.213 290.917C355.932 292.506 357.605 294.141 359.334 295.729C360.209 296.533 361.169 297.286 362.196 297.878C363.753 298.776 365.578 298.989 367.307 298.656C370.644 298.023 373.602 295.703 376.145 293.518C380.255 289.999 384.123 286.262 387.93 282.415C389.133 281.201 390.316 279.976 391.489 278.746C392.874 277.308 394.148 275.767 395.473 274.287C396.914 272.668 397.323 270.348 396.216 268.407C395.599 267.322 394.573 266.517 393.39 266.185ZM365.967 288.94C366.074 288.888 366.185 288.841 366.296 288.794C366.19 288.846 366.079 288.898 365.967 288.94ZM366.448 289.262C366.438 289.256 366.422 289.246 366.422 289.246C366.539 289.262 366.655 289.277 366.776 289.293C366.66 289.288 366.549 289.277 366.448 289.262Z" fill="#D23069"/>
<path d="M787.099 135.641C789.02 139.03 791.194 142.259 793.161 145.622C795.118 148.97 796.831 152.468 798.47 155.977C800.674 160.674 802.812 165.418 805.184 170.033C806.215 172.062 808.92 172.659 810.785 171.538C811.701 170.988 812.388 170.074 812.661 169.031C812.985 167.842 812.717 166.861 812.252 165.787C810.578 161.91 808.47 158.24 806.427 154.55C804.577 151.202 802.691 147.88 800.674 144.646C798.621 141.366 796.452 138.184 794.405 134.914C792.286 131.535 790.33 128.058 788.409 124.559C785.4 119.063 782.367 113.587 779.323 108.111C778.742 107.063 777.64 106.481 776.527 106.481C775.976 106.481 775.42 106.621 774.925 106.923C773.398 107.836 772.897 109.876 773.767 111.443C778.241 119.494 782.559 127.632 787.099 135.641Z" fill="#D23069"/>
</svg>
