<svg width="2097" height="1540" viewBox="0 0 2097 1540" fill="none" xmlns="http://www.w3.org/2000/svg">
<path d="M720.764 1221.21C720.764 1221.21 1138.09 1231.93 1137.13 1250.73C1136.58 1261.45 805.854 1267.24 805.854 1284.25C805.854 1294.02 1162.51 1297.67 1162.51 1308.41C1162.51 1315.12 1012.1 1323.18 1012.1 1330.11C1012.1 1340.63 1233.4 1345.55 1234.83 1350.92C1236.27 1356.29 967.56 1357.64 967.56 1373.74C967.56 1387.62 1207.06 1382.7 1207.06 1389.41C1207.06 1396.12 1109.82 1401.93 1109.82 1408.65C1109.82 1415.36 1327.28 1416.7 1334.47 1423.41C1341.65 1430.13 1051.86 1432.81 1051.86 1440.87C1051.86 1448.92 1268.85 1450.26 1268.85 1456.53C1268.85 1462.79 1174.97 1472.33 1174.97 1472.33C1174.97 1472.33 1308.61 1463.69 1308.61 1455.18C1308.61 1446.68 1241.55 1445.79 1240.11 1444.44C1238.67 1443.1 1441.77 1433.25 1441.77 1418.94C1441.77 1404.62 1256.4 1402.38 1256.4 1399.69C1256.4 1397.01 1429.31 1392.09 1429.31 1380C1429.31 1367.92 1217.12 1369.27 1217.12 1366.58C1217.12 1363.9 1492.54 1353.48 1492.54 1346.77C1492.54 1334.36 1272.2 1331.67 1272.2 1325.41C1272.2 1314.22 1575.4 1321.64 1575.4 1302.39C1575.4 1290.76 1335.73 1288.04 1335.91 1276.19C1336.15 1260.52 1742.81 1260.08 1742.81 1242.17C1742.81 1228.75 1569.18 1221.2 1569.18 1221.2H753.081" fill="#D66B33" fill-opacity="0.5"/>
<path d="M1595.42 1275.22C1595.42 1275.22 1675.89 1280.82 1696.01 1281.27C1716.12 1281.71 1758.28 1275.22 1758.28 1275.22H1595.42Z" fill="#D66B33" fill-opacity="0.5"/>
<path d="M144.416 1533.26C144.416 1533.26 224.885 1538.86 245.003 1539.31C265.12 1539.76 307.273 1533.26 307.273 1533.26H144.416Z" fill="#D66B33" fill-opacity="0.5"/>
<path d="M470.062 1498.33C470.062 1498.33 608.146 1508.29 642.664 1509.08C677.186 1509.88 749.513 1498.33 749.513 1498.33H470.062Z" fill="#D66B33" fill-opacity="0.5"/>
<path d="M691.693 1452.6C691.693 1452.6 863.152 1465.95 906.016 1467.02C948.881 1468.09 1038.69 1452.6 1038.69 1452.6H691.693Z" fill="#D66B33" fill-opacity="0.5"/>
<path d="M1585.46 1449.25C1585.46 1449.25 1467.33 1463.46 1437.79 1464.59C1408.26 1465.73 1346.38 1449.25 1346.38 1449.25H1585.46Z" fill="#D66B33" fill-opacity="0.5"/>
<path d="M1376.74 1231C1376.74 1231 1457.21 1240.38 1477.32 1241.13C1497.44 1241.88 1539.59 1231 1539.59 1231H1376.74Z" fill="white" fill-opacity="0.5"/>
<path d="M812.13 1236.08C812.13 1236.08 694.184 1247.09 664.694 1247.97C635.207 1248.85 573.424 1236.08 573.424 1236.08H812.13Z" fill="#D66B33" fill-opacity="0.5"/>
<path d="M1834.72 1521.42C1834.72 1521.42 1587.59 1535.14 1525.81 1536.24C1464.03 1537.34 1334.58 1521.42 1334.58 1521.42H1834.72Z" fill="#D66B33" fill-opacity="0.5"/>
<path d="M806.506 1490.5C806.506 1490.5 848.624 1496.32 863.381 1496.54C878.138 1496.77 925.973 1490.5 925.973 1490.5H806.506Z" fill="#D66B33" fill-opacity="0.5"/>
<path d="M1750.28 1415.62C1750.28 1415.62 1792.4 1421.43 1807.16 1421.66C1821.91 1421.88 1869.75 1415.62 1869.75 1415.62H1750.28Z" fill="#D66B33" fill-opacity="0.5"/>
<path d="M1075.22 1461.63C1075.22 1461.63 1096.93 1467.45 1104.54 1467.67C1112.14 1467.89 1136.8 1461.63 1136.8 1461.63H1075.22Z" fill="#D66B33" fill-opacity="0.5"/>
<path d="M1448.49 1358.75C1448.49 1358.75 1478.99 1362.74 1489.67 1362.89C1500.36 1363.04 1534.99 1358.75 1534.99 1358.75H1448.49Z" fill="#D66B33" fill-opacity="0.5"/>
<path d="M1130.82 1272.18C1130.82 1272.18 1097.59 1277.78 1089.28 1278.23C1080.97 1278.68 1019.67 1272.18 1019.67 1272.18H1130.82Z" fill="white" fill-opacity="0.5"/>
<path d="M1331.43 1259.01C1331.43 1259.01 1308.94 1264.6 1303.33 1265.05C1297.71 1265.5 1256.24 1259.01 1256.24 1259.01H1331.43Z" fill="white" fill-opacity="0.5"/>
<path d="M1156.76 1242.15L1140.12 1245L1136.39 1261.23L1132.67 1245L1116.02 1242.14L1132.6 1238.4L1136.39 1223.06L1140.19 1238.4L1156.76 1242.15Z" fill="white" fill-opacity="0.5"/>
<path d="M1397.11 1311.03L1380.46 1313.87L1376.74 1330.11L1373.02 1313.87L1356.37 1311.02L1372.95 1307.27L1376.74 1291.94L1380.53 1307.27L1397.11 1311.03Z" fill="white" fill-opacity="0.5"/>
<path d="M1309.92 1274.74C1307.71 1274.74 1307.7 1277.92 1309.92 1277.92C1312.12 1277.92 1312.13 1274.74 1309.92 1274.74Z" fill="white" fill-opacity="0.5"/>
<path d="M1163.93 1266.96C1161.72 1266.96 1161.72 1270.13 1163.93 1270.13C1166.14 1270.13 1166.14 1266.96 1163.93 1266.96Z" fill="white" fill-opacity="0.5"/>
<path d="M1107.67 1367.09C1105.46 1367.09 1105.46 1370.27 1107.67 1370.27C1109.88 1370.27 1109.88 1367.09 1107.67 1367.09Z" fill="white" fill-opacity="0.5"/>
<path d="M1329.31 1424.45C1327.1 1424.45 1327.1 1427.63 1329.31 1427.63C1331.52 1427.62 1331.52 1424.45 1329.31 1424.45Z" fill="white" fill-opacity="0.5"/>
<path d="M926.12 1291.94C923.912 1291.94 923.908 1295.11 926.12 1295.11C928.328 1295.11 928.332 1291.94 926.12 1291.94Z" fill="white" fill-opacity="0.5"/>
<path d="M1703.85 1233.78C1701.64 1233.78 1701.64 1236.95 1703.85 1236.95C1706.06 1236.95 1706.06 1233.78 1703.85 1233.78Z" fill="white" fill-opacity="0.5"/>
<path d="M746.392 1238.15C744.184 1238.15 744.18 1241.32 746.392 1241.32C748.6 1241.32 748.604 1238.15 746.392 1238.15Z" fill="white" fill-opacity="0.5"/>
<path d="M1057.61 1246.73C1053.38 1246.73 1053.37 1252.82 1057.61 1252.82C1061.84 1252.82 1061.85 1246.73 1057.61 1246.73Z" fill="white" fill-opacity="0.5"/>
<path d="M1019.67 1375.46C1015.44 1375.46 1015.43 1381.55 1019.67 1381.55C1023.91 1381.55 1023.91 1375.46 1019.67 1375.46Z" fill="white" fill-opacity="0.5"/>
<path d="M1621.33 1238.15L1610.74 1239.96L1608.37 1250.28L1606 1239.96L1595.42 1238.14L1605.96 1235.76L1608.37 1226.01L1610.78 1235.76L1621.33 1238.15Z" fill="white" fill-opacity="0.5"/>
<path d="M910.369 1291.94L899.779 1293.75L897.416 1304.08L895.048 1293.75L884.459 1291.93L895.003 1289.55L897.416 1279.8L899.824 1289.55L910.369 1291.94Z" fill="white" fill-opacity="0.5"/>
<path d="M1504.49 1300.31L1498.57 1301.32L1497.25 1307.09L1495.93 1301.32L1490.01 1300.31L1495.9 1298.97L1497.25 1293.52L1498.6 1298.97L1504.49 1300.31Z" fill="white" fill-opacity="0.5"/>
<path d="M1469.1 1255.96C1464.87 1255.96 1464.86 1262.05 1469.1 1262.05C1473.33 1262.05 1473.34 1255.96 1469.1 1255.96Z" fill="white" fill-opacity="0.5"/>
<path d="M1197.98 1375.46L1192.07 1376.47L1190.74 1382.25L1189.42 1376.47L1183.5 1375.46L1189.39 1374.13L1190.74 1368.68L1192.09 1374.13L1197.98 1375.46Z" fill="white" fill-opacity="0.5"/>
<path d="M777.003 1240.85L771.082 1241.86L769.761 1247.63L768.438 1241.86L762.521 1240.85L768.414 1239.51L769.761 1234.07L771.109 1239.51L777.003 1240.85Z" fill="white" fill-opacity="0.5"/>
<path d="M1212.46 1259.01L1206.55 1260.02L1205.22 1265.79L1203.9 1260.02L1197.98 1259L1203.88 1257.67L1205.22 1252.22L1206.57 1257.67L1212.46 1259.01Z" fill="white" fill-opacity="0.5"/>
<path d="M1871 1221.17H663.314C663.314 1221.17 732.406 1137.68 741.001 1133.94C749.596 1130.21 883.606 1048.41 892.249 1046.17C900.893 1043.92 983.529 863.972 992.739 861.175C1001.95 858.375 1087.3 798.651 1087.3 798.651C1087.3 798.651 1184.92 600.819 1187.38 591.487C1189.83 582.156 1222.38 492.57 1224.22 486.972C1226.06 481.375 1282.55 431.916 1286.23 430.049C1289.92 428.182 1313.97 480.441 1316.37 484.172C1318.77 487.906 1423.43 584.023 1428.51 587.754C1433.59 591.487 1523.23 812.631 1531.22 820.105C1539.2 827.579 1673.35 920.448 1679.49 925.116C1685.63 929.78 1739.35 1093.09 1744.88 1095.89C1750.41 1098.69 1825.32 1164.94 1831.45 1168.67C1837.59 1172.41 1871 1221.17 1871 1221.17Z" fill="#37474F" fill-opacity="0.5"/>
<path d="M1355.74 954.882C1356.85 957.743 1458.11 1035.54 1458.66 1037.72C1459.19 1039.89 1493.88 1106.21 1494.41 1111.44C1494.97 1116.6 1490.37 1145.51 1490.21 1147.69C1490.21 1149.89 1555.5 1213.2 1563.06 1220.5H1664.21L1628.27 1199.26L1601.87 1182.67L1532.88 1122.17L1585.47 1137.57L1548.21 1108.65L1507.49 1087.95L1470.55 1038.85L1459.47 1029.51L1472.63 1034.54L1495.76 1042.17L1520.51 1040.39L1495.17 1026.23L1480.88 1007.07L1429.36 963.539L1481.62 978.034L1554.52 1049.38L1510.24 984.536L1452.48 928.386L1368.4 892.578C1371.15 895.778 1354.63 951.973 1355.74 954.882Z" fill="#455A64" fill-opacity="0.5"/>
<path d="M1347.89 570.74L1315.15 537.937L1332.12 543.73L1374.29 580.689C1372.2 578.342 1306.06 504.111 1306.06 499.856C1306.06 495.553 1286.25 430.072 1286.25 430.072C1291.9 469.499 1297.98 553.385 1297.98 556.246L1327.73 565.191L1377.62 625.663L1366.23 598.703L1347.89 570.74Z" fill="#455A64" fill-opacity="0.5"/>
<path d="M1283.97 623.784C1301.49 672.939 1323.26 733.139 1323.26 734.852C1323.26 735.242 1322.13 735.978 1320.12 736.93L1349 753.209L1425.68 834.262L1372.49 736.54L1283.97 623.784Z" fill="#455A64" fill-opacity="0.5"/>
<path d="M1383.67 665.67L1426.05 708.102L1450.42 755.822L1383.67 665.67Z" fill="#455A64" fill-opacity="0.5"/>
<path d="M1483.1 874.196L1527.99 915.206L1582.57 946.26L1521.44 935.132L1483.1 874.196Z" fill="#455A64" fill-opacity="0.5"/>
<path d="M1456.32 825.275L1501.99 873.196L1476.68 857.81L1456.32 825.275Z" fill="#455A64" fill-opacity="0.5"/>
<path d="M1583.51 1058.05L1649.34 1115.84L1690.21 1173.01L1644.53 1127.46L1583.51 1058.05Z" fill="#455A64" fill-opacity="0.5"/>
<path d="M1594.45 1104.32L1630.22 1135.41L1644.53 1161.06L1594.45 1104.32Z" fill="#455A64" fill-opacity="0.5"/>
<g opacity="0.2">
<path d="M1490.21 1147.69C1490.37 1145.52 1494.97 1116.61 1494.41 1111.43C1493.88 1106.21 1459.19 1039.9 1458.67 1037.72C1458.1 1035.55 1356.85 957.753 1355.73 954.882C1354.64 951.97 1371.15 895.785 1368.41 892.569C1365.66 889.308 1258.32 766.941 1258.32 763.332C1258.32 759.678 1323.26 737.764 1323.26 734.848C1323.26 731.977 1261.63 563.518 1262.19 560.603C1262.72 557.687 1297.97 559.167 1297.97 556.255C1297.97 553.384 1291.91 469.502 1286.26 430.062C1282.55 431.932 1226.08 481.375 1224.23 486.982C1222.38 492.548 1189.84 582.172 1187.39 591.478C1184.94 600.829 1087.3 798.638 1087.3 798.638C1087.3 798.638 1001.97 858.388 992.733 861.169C983.53 863.954 900.883 1043.94 892.243 1046.15C883.603 1048.41 749.587 1130.21 741.016 1133.95C732.41 1137.69 663.301 1221.18 663.301 1221.18H1563.76C1563.75 1221.18 1490.21 1150.04 1490.21 1147.69Z" fill="#FFC727" fill-opacity="0.5"/>
<path opacity="0.7" d="M1490.21 1147.69C1490.37 1145.52 1494.97 1116.61 1494.41 1111.43C1493.88 1106.21 1459.19 1039.9 1458.67 1037.72C1458.1 1035.55 1356.85 957.753 1355.73 954.882C1354.64 951.97 1371.15 895.785 1368.41 892.569C1365.66 889.308 1258.32 766.941 1258.32 763.332C1258.32 759.678 1323.26 737.764 1323.26 734.848C1323.26 731.977 1261.63 563.518 1262.19 560.603C1262.72 557.687 1297.97 559.167 1297.97 556.255C1297.97 553.384 1291.91 469.502 1286.26 430.062C1282.55 431.932 1226.08 481.375 1224.23 486.982C1222.38 492.548 1189.84 582.172 1187.39 591.478C1184.94 600.829 1087.3 798.638 1087.3 798.638C1087.3 798.638 1001.97 858.388 992.733 861.169C983.53 863.954 900.883 1043.94 892.243 1046.15C883.603 1048.41 749.587 1130.21 741.016 1133.95C732.41 1137.69 663.301 1221.18 663.301 1221.18H1563.76C1563.75 1221.18 1490.21 1150.04 1490.21 1147.69Z" fill="white" fill-opacity="0.5"/>
</g>
<g opacity="0.4">
<path d="M663.297 1221.18C663.297 1221.18 736.861 1154.54 744.865 1148.43C813.93 1095.68 932.533 1040.53 933.632 1037.08C935.522 1031.15 1004.17 899.519 1003.53 895.958C1002.88 892.393 1088.83 819.917 1092.68 813.667C1096.53 807.414 1195.59 594.589 1195.59 594.589C1195.59 594.589 1107.48 834.152 1107.27 836.633C1107.05 839.117 1058.2 907.812 1058.2 907.812L1139.51 810.454L1182.94 701.598C1182.94 701.598 1150.27 819.792 1150.51 825.588C1150.74 831.381 1070.38 983.868 1070.38 983.868L1064.76 1021.5L1133.43 945.886L1200.57 825.588C1200.57 825.588 1149.26 956.647 1147.37 960.784C1145.48 964.92 1109.57 1075 1109.57 1075L1120.4 1131.38L1232.33 1050.17L1251.28 967.67L1274.4 857.141C1274.4 857.141 1262.62 975.946 1261.99 981.739C1261.36 987.532 1251.22 1068.37 1249.97 1071.69C1248.7 1075 1220.36 1129.22 1220.36 1129.22C1220.36 1129.22 1271.59 1078.31 1271.17 1075.82C1270.76 1073.34 1281.47 995.441 1281.47 995.441C1281.47 995.441 1282.1 1079.02 1282.1 1082.39C1282.1 1085.76 1261.94 1153.66 1261.94 1153.66L1322.41 1095.88L1341.31 1046.16C1341.31 1046.16 1331.87 1120.28 1330.6 1126.19C1329.34 1132.1 1360.84 1204.93 1360.84 1204.93L1386.36 1221.18H663.297Z" fill="#37474F" fill-opacity="0.5"/>
<path d="M1236.5 543.726L1219.64 712.569L1192.47 787.615L1236.5 543.726Z" fill="#37474F" fill-opacity="0.5"/>
<path d="M1300.63 842.758L1329.69 907.932V963.529L1300.63 842.758Z" fill="#37474F" fill-opacity="0.5"/>
<path d="M1248.99 802.849L1247.89 892.46L1200.57 1003.44L1234.68 889.612L1248.99 802.849Z" fill="#37474F" fill-opacity="0.5"/>
<path d="M1418.85 1140.84L1411.43 1076.87L1389.78 1019.39L1418.85 1140.84Z" fill="#37474F" fill-opacity="0.5"/>
</g>
<path d="M283.521 1221.18C283.521 1221.18 472.585 1085.66 483.208 1081.13C493.835 1076.59 638.864 1012.66 645.99 1008.88C653.113 1005.1 747.478 852.269 757.656 844.04C763.79 839.081 847.757 823.426 852.495 817.49C859.272 808.993 917.659 728.796 927.56 729.023C934.517 729.183 993.766 763.834 1018.67 783.319C1028.77 791.215 1047.65 854.004 1054.5 861.754C1087.15 898.681 1113.51 929.262 1114.54 930.716C1117.19 934.47 1169.09 968.603 1179.67 974.987C1190.25 981.374 1267.23 1091.3 1279.63 1099.57C1297.74 1111.65 1364.6 1147.3 1369.92 1151.58C1375.23 1155.86 1421.47 1221.13 1421.47 1221.13L283.521 1221.18Z" fill="#37474F" fill-opacity="0.5"/>
<path d="M1077.38 1155.47L1043.59 1142.86C1050.14 1147.99 1054.53 1151.6 1054.74 1152.33C1055.58 1155.3 1115.01 1192.99 1120.48 1194.25C1125.76 1195.44 1179.22 1219.6 1182.13 1220.91H1291.68L1257.83 1208.22L1225.62 1200.72L1161.07 1173.79L1097.49 1166.98L1077.38 1155.47Z" fill="#455A64" fill-opacity="0.5"/>
<path d="M1024.35 960.889L1065.15 979.031L1041.92 959.306L1017.48 944.016L981.41 924.889C996.419 941.893 1007.52 954.968 1006.51 955.409L1024.35 960.889Z" fill="#455A64" fill-opacity="0.5"/>
<path d="M981.041 1094.99L980.273 1094.18C980.329 1094.29 980.591 1094.58 981.041 1094.99Z" fill="#455A64" fill-opacity="0.5"/>
<path d="M1004.27 1052.42C1004.59 1054.23 979.352 1091.94 980.275 1094.18L1017.11 1094.91L1038.75 1098.98L1070.3 1118.14L1038.38 1090.15L1014.73 1072.5L1049.79 1085.96L1089.59 1103.78L1049.79 1076.15L1004.29 1052.43L1004.27 1052.42Z" fill="#455A64" fill-opacity="0.5"/>
<path d="M953.271 841.753L992.669 867.127L962.336 839.845L959.987 829.858L945.771 812.157C948.547 826.792 950.289 837.511 949.578 837.799C949.578 837.799 949.577 837.799 949.549 837.799L949.578 837.818L953.271 841.753Z" fill="#455A64" fill-opacity="0.5"/>
<path d="M951.947 776.796L982.36 797.908L954.27 770.684L927.582 729.038C929.749 735.998 935.296 760.754 940.318 784.894L948.032 786.051L964.309 793.455L947.213 779.574L941.427 768.641L951.947 776.796Z" fill="#455A64" fill-opacity="0.5"/>
<path d="M927.029 729.096L927.585 729.039V729.02H927.557L927.029 729.096Z" fill="#455A64" fill-opacity="0.5"/>
<path d="M960.537 1010.19L970.605 1014.95L995.785 1023.2L1031.67 1027.93L993.459 1017.09L959.266 996.249L951.548 983.196L965.051 991.546L996.39 1003.75L962.331 982.368L924.73 950.882V950.863C921.827 951.096 947.38 990.139 960.537 1010.19Z" fill="#455A64" fill-opacity="0.5"/>
<path d="M937.655 862.636L910.439 844.647C910.07 845.187 929.516 866.801 951.054 890.807L971.006 903.185L959.193 889.573L942.625 875.692L955.941 881.804L982.365 898.751L959.193 875.132L937.655 862.636Z" fill="#455A64" fill-opacity="0.5"/>
<path d="M1018.67 900.138L1066.74 920.697L1094.67 948.478L1018.67 900.138Z" fill="#455A64" fill-opacity="0.5"/>
<path d="M1042.31 1037.93L1065.95 1057.56L1097.47 1072.52L1060.44 1061.88L1042.31 1037.93Z" fill="#455A64" fill-opacity="0.5"/>
<path d="M1094.67 1131L1121.11 1150.87L1170.76 1167.94L1130.17 1147.39L1094.67 1131Z" fill="#455A64" fill-opacity="0.5"/>
<path d="M1210.55 1167.94L1244.14 1189.61L1268.58 1192.95L1210.55 1167.94Z" fill="#455A64" fill-opacity="0.5"/>
<path d="M1088.44 1019.66L1135.19 1032.9L1170.76 1070.85L1126.41 1040.14L1088.44 1019.66Z" fill="#455A64" fill-opacity="0.5"/>
<g opacity="0.2">
<path d="M956.26 896.629L981.416 924.896C973.699 916.12 964.924 906.306 956.26 896.629Z" fill="#FFC727" fill-opacity="0.5"/>
<path d="M926.741 729.135C926.478 729.212 926.212 729.327 925.922 729.484C926.24 729.33 926.53 729.215 926.82 729.135H926.741Z" fill="#FFC727" fill-opacity="0.5"/>
<path opacity="0.6" d="M956.26 896.629L981.416 924.896C973.699 916.12 964.924 906.306 956.26 896.629Z" fill="white" fill-opacity="0.5"/>
<path opacity="0.6" d="M926.741 729.135C926.478 729.212 926.212 729.327 925.922 729.484C926.24 729.33 926.53 729.215 926.82 729.135H926.741Z" fill="white" fill-opacity="0.5"/>
</g>
<g opacity="0.2">
<path d="M283.84 1220.97H1182.26C1182.26 1220.97 1125.93 1195.49 1120.48 1194.24C1115.01 1192.99 1055.59 1155.3 1054.75 1152.33C1053.88 1149.34 981.194 1096.44 980.275 1094.19C979.356 1091.93 1004.59 1054.23 1004.28 1052.42C1003.98 1050.64 969.309 1024.19 968.03 1021.73C966.752 1019.24 920.908 951.179 924.744 950.872C928.58 950.568 1003.54 956.719 1006.51 955.415C1009.47 954.111 909.61 845.836 910.453 844.656C911.297 843.457 947.45 838.704 949.572 837.809C951.694 836.913 932.136 743.677 927.585 729.035L926.741 729.144C914.877 732.612 859.115 809.206 852.493 817.502C847.762 823.439 763.798 839.081 757.664 844.052C747.489 852.278 653.12 1005.1 645.984 1008.88C638.875 1012.67 493.833 1076.6 483.22 1081.13C472.835 1085.55 292.304 1214.9 283.84 1220.97Z" fill="#FFC727" fill-opacity="0.5"/>
<path opacity="0.6" d="M283.84 1220.97H1182.26C1182.26 1220.97 1125.93 1195.49 1120.48 1194.24C1115.01 1192.99 1055.59 1155.3 1054.75 1152.33C1053.88 1149.34 981.194 1096.44 980.275 1094.19C979.356 1091.93 1004.59 1054.23 1004.28 1052.42C1003.98 1050.64 969.309 1024.19 968.03 1021.73C966.752 1019.24 920.908 951.179 924.744 950.872C928.58 950.568 1003.54 956.719 1006.51 955.415C1009.47 954.111 909.61 845.836 910.453 844.656C911.297 843.457 947.45 838.704 949.572 837.809C951.694 836.913 932.136 743.677 927.585 729.035L926.741 729.144C914.877 732.612 859.115 809.206 852.493 817.502C847.762 823.439 763.798 839.081 757.664 844.052C747.489 852.278 653.12 1005.1 645.984 1008.88C638.875 1012.67 493.833 1076.6 483.22 1081.13C472.835 1085.55 292.304 1214.9 283.84 1220.97Z" fill="white" fill-opacity="0.5"/>
</g>
<g opacity="0.4">
<path d="M283.84 1220.97C283.84 1220.97 489.358 1085.89 488.739 1083.87C488.117 1081.86 657.053 1015.88 660.768 1012.36C664.487 1008.83 767.14 867.128 767.14 867.128C767.14 867.128 694.274 1012.69 694.067 1014.09C693.859 1015.5 645.603 1071.78 645.603 1071.78L743.895 989.028L785.841 927.555C785.841 927.555 754.28 994.299 754.509 997.573C754.737 1000.84 677.105 1086.95 677.105 1086.95L671.672 1108.21L738.013 1065.51L802.872 997.573C802.872 997.573 753.306 1071.58 751.481 1073.92C749.656 1076.25 714.965 1138.41 714.965 1138.41L725.426 1170.25L833.554 1124.39L851.867 1077.8L874.2 1015.39C874.2 1015.39 862.823 1082.48 862.215 1085.75C861.606 1089.02 851.812 1134.67 850.596 1136.54C849.379 1138.41 821.99 1169.03 821.99 1169.03C821.99 1169.03 871.477 1140.28 871.079 1138.88C870.678 1137.48 881.026 1093.49 881.026 1093.49C881.026 1093.49 881.634 1140.68 881.634 1142.59C881.634 1144.49 862.159 1182.83 862.159 1182.83L920.583 1150.21L938.841 1122.13C938.841 1122.13 929.714 1163.99 928.494 1167.33C927.277 1170.66 957.707 1211.8 957.707 1211.8L982.355 1220.97H283.84Z" fill="#37474F" fill-opacity="0.5"/>
<path d="M853.723 850.158L817.494 930.806L781.773 963.557L853.723 850.158Z" fill="#37474F" fill-opacity="0.5"/>
<path d="M898.156 976.669L935.654 1035.65V1085.96L898.156 976.669Z" fill="#37474F" fill-opacity="0.5"/>
<path d="M849.658 984.731L848.593 1035.33L802.877 1098.01L835.827 1033.73L849.658 984.731Z" fill="#37474F" fill-opacity="0.5"/>
<path d="M1024.37 1180.7L1002.19 1147.69L968.436 1121.04L1024.37 1180.7Z" fill="#37474F" fill-opacity="0.5"/>
<path d="M902.372 787.67V825.598L880.959 858.855L902.372 787.67Z" fill="#37474F" fill-opacity="0.5"/>
</g>
<path d="M143 1170.26C143 1170.26 485.05 1035.33 609.836 1035.33C734.621 1035.33 1097.96 1220.96 1107.92 1220.96C1117.87 1220.96 1217.63 1220.96 1239.53 1220.96C1255.46 1220.96 1620.87 1081.95 1696.53 1081.95C1772.2 1081.95 1871 1130.36 1871 1130.36L2096.5 1221.17H0L143 1170.26Z" fill="#263238" fill-opacity="0.5"/>
<g opacity="0.2">
<path d="M1703.15 1082.07C1621.14 1086.47 1315.36 1220.96 1299.7 1220.96H1239.52C1255.45 1220.96 1620.87 1081.96 1696.53 1081.96C1698.72 1081.96 1700.93 1081.99 1703.15 1082.07Z" fill="#FFC727" fill-opacity="0.5"/>
<path d="M1063.85 1221.18C966.425 1169.09 704.385 1035.68 597.826 1035.68C602.018 1035.46 606.031 1035.32 609.832 1035.32C734.625 1035.32 1097.95 1220.96 1107.92 1220.96L1063.85 1221.18Z" fill="#FFC727" fill-opacity="0.5"/>
</g>
<path d="M180.746 1154.54H294.694L281.354 1100.12C270.592 1099.47 257.082 1096.93 244.955 1089.6L280.265 1095.68L263.977 1029.15C259.007 1026.99 254.068 1024.2 249.472 1020.61L262.826 1024.52L260.666 1015.65C253.802 1012.84 246.769 1008.89 240.573 1003.36L259.301 1010.12L237.732 922.072L225.543 971.828L236.491 969.3C236.491 969.3 232.033 972.231 224.675 975.361L207.191 1046.65L219.878 1043.72C219.878 1043.72 214.677 1047.13 206.244 1050.55L194.131 1099.91L218.883 1094.2C218.247 1094.62 207.827 1101.3 192.859 1105.09L190.765 1113.68L228.795 1104.91C228.795 1104.91 211.902 1116.03 189.68 1118.09L186.666 1130.41L199.322 1127.49C199.322 1127.49 194.121 1130.91 185.705 1134.31L180.746 1154.54Z" fill="#263238" fill-opacity="0.5"/>
<path d="M201.714 1084.11C208.014 1086.34 231.359 1095.13 236.402 1097.69C236.405 1096.71 236.412 1095.73 236.416 1094.75C230.786 1091.68 225.135 1088.65 219.485 1085.61C213.423 1082.34 206.915 1079.44 201.265 1075.59C200.988 1075.4 201.14 1074.88 201.524 1075.02C207.752 1077.42 213.54 1080.98 219.35 1084.13C225.087 1087.25 230.762 1090.46 236.422 1093.69C236.447 1086.17 236.471 1078.66 236.526 1071.14C227.427 1067.77 218.289 1063.26 209.922 1058.63C209.632 1058.47 209.825 1057.98 210.16 1058.11C219.039 1061.5 228.266 1065.49 236.533 1070.13C236.561 1066.23 236.402 1036.13 237.452 998.018C231.916 995.435 226.217 993.155 220.684 990.559C220.321 990.39 220.577 989.802 220.964 989.942C226.58 991.969 231.985 994.373 237.494 996.614C237.794 986.231 238.223 975.854 238.907 965.486C238.928 965.144 239.471 965.141 239.484 965.486C240.262 984.76 240.196 1022.05 239.937 1041.34C245.67 1037.11 251.784 1033.37 257.621 1029.26C257.846 1029.1 258.067 1029.45 257.842 1029.61C251.742 1033.9 246.033 1038.66 239.916 1042.94C239.903 1044.03 239.889 1045.12 239.872 1046.21C246.088 1043.59 252.396 1041.14 258.682 1038.65C259.173 1038.45 259.612 1039.1 259.111 1039.33C252.71 1042.17 246.33 1045.06 239.851 1047.74C239.702 1057.3 238.762 1091.78 238.375 1108.46C250.111 1102.96 261.945 1097.61 273.844 1092.43C274.296 1092.24 274.69 1092.83 274.244 1093.07C262.636 1099.21 250.605 1104.79 238.347 1109.74C238.029 1123.61 237.718 1140.04 237.525 1153.9C237.515 1154.74 236.101 1154.75 236.111 1153.9C236.319 1136.22 236.35 1115.97 236.405 1098.29C230.215 1096.87 206.832 1087.61 201.278 1085.07C200.705 1084.82 201.109 1083.9 201.714 1084.11Z" fill="#37474F" fill-opacity="0.5"/>
<g opacity="0.2">
<path d="M259.309 1010.12L251.173 1007.18L237.736 922.079L259.309 1010.12Z" fill="#FFC727" fill-opacity="0.5"/>
<path d="M262.83 1024.52L253.475 1021.78L251.83 1011.38C254.757 1013.04 257.726 1014.47 260.667 1015.66L262.83 1024.52Z" fill="#FFC727" fill-opacity="0.5"/>
<path d="M280.265 1095.68L264.716 1093L253.771 1023.67C257.092 1025.85 260.527 1027.65 263.973 1029.16L280.265 1095.68Z" fill="#FFC727" fill-opacity="0.5"/>
<path d="M294.69 1154.54H274.431L265.48 1097.81C271.079 1099.14 276.491 1099.82 281.346 1100.11L294.69 1154.54Z" fill="#FFC727" fill-opacity="0.5"/>
</g>
<path d="M473.594 1074.94H587.538L574.198 1020.52C563.436 1019.87 549.926 1017.33 537.799 1010L573.109 1016.08L556.821 949.559C551.851 947.392 546.913 944.604 542.316 941.014L555.67 944.921L553.51 936.059C546.647 933.243 539.614 929.294 533.417 923.764L552.145 930.528L530.576 842.477L518.387 892.233L529.336 889.704C529.336 889.704 524.877 892.636 517.519 895.766L500.036 967.053L512.723 964.121C512.723 964.121 507.521 967.539 499.089 970.959L486.975 1020.31L511.727 1014.61C511.091 1015.02 500.671 1021.71 485.704 1025.5L483.606 1034.09L521.636 1025.31C521.636 1025.31 504.743 1036.43 482.521 1038.5L479.507 1050.81L492.163 1047.9C492.163 1047.9 486.962 1051.31 478.546 1054.72L473.594 1074.94Z" fill="#263238" fill-opacity="0.5"/>
<path d="M494.561 1004.51C500.861 1006.74 524.206 1015.53 529.248 1018.09C529.252 1017.11 529.259 1016.13 529.262 1015.15C523.632 1012.08 517.978 1009.05 512.331 1006.01C506.269 1002.75 499.762 999.837 494.111 995.991C493.835 995.803 493.987 995.279 494.371 995.426C500.598 997.826 506.384 1001.38 512.197 1004.54C517.933 1007.65 523.612 1010.86 529.269 1014.09C529.293 1006.58 529.318 999.06 529.373 991.545C520.273 988.169 511.136 983.661 502.769 979.035C502.478 978.875 502.672 978.38 503.007 978.508C511.885 981.9 521.113 985.896 529.38 990.534C529.407 986.628 529.248 956.529 530.299 918.419C524.763 915.836 519.064 913.557 513.531 910.961C513.168 910.792 513.423 910.203 513.81 910.344C519.426 912.371 524.832 914.778 530.341 917.016C530.641 906.633 531.07 896.252 531.751 885.888C531.775 885.546 532.314 885.543 532.328 885.888C533.105 905.162 533.043 942.457 532.78 961.75C538.514 957.514 544.628 953.77 550.465 949.662C550.689 949.506 550.911 949.857 550.686 950.014C544.586 954.307 538.877 959.068 532.756 963.348C532.742 964.438 532.729 965.529 532.711 966.615C538.929 963.988 545.236 961.539 551.522 959.052C552.013 958.857 552.455 959.509 551.951 959.733C545.55 962.571 539.171 965.465 532.691 968.147C532.542 977.702 531.602 1012.18 531.215 1028.86C542.951 1023.37 554.785 1018.02 566.684 1012.84C567.136 1012.64 567.53 1013.23 567.081 1013.47C555.472 1019.62 543.446 1025.19 531.184 1030.15C530.866 1044.01 530.555 1060.44 530.361 1074.31C530.351 1075.15 528.937 1075.15 528.948 1074.31C529.155 1056.62 529.186 1036.37 529.241 1018.69C523.052 1017.28 499.669 1008.01 494.115 1005.48C493.548 1005.22 493.952 1004.3 494.561 1004.51Z" fill="#37474F" fill-opacity="0.5"/>
<g opacity="0.2">
<path d="M552.153 930.525L544.018 927.584L530.578 842.48L552.153 930.525Z" fill="#FFC727" fill-opacity="0.5"/>
<path d="M555.675 944.921L546.319 942.185L544.674 931.785C547.602 933.444 550.57 934.867 553.511 936.063L555.675 944.921Z" fill="#FFC727" fill-opacity="0.5"/>
<path d="M573.11 1016.08L557.562 1013.4L546.617 944.076C549.938 946.253 553.373 948.059 556.819 949.562L573.11 1016.08Z" fill="#FFC727" fill-opacity="0.5"/>
<path d="M587.536 1074.94H567.277L558.326 1018.21C563.925 1019.54 569.337 1020.22 574.193 1020.51L587.536 1074.94Z" fill="#FFC727" fill-opacity="0.5"/>
</g>
<path d="M1719.3 1139.16H1833.25L1819.91 1084.74C1809.15 1084.09 1795.64 1081.54 1783.51 1074.22L1818.82 1080.3L1802.53 1013.78C1797.56 1011.61 1792.63 1008.82 1788.03 1005.23L1801.38 1009.14L1799.22 1000.28C1792.36 997.461 1785.33 993.513 1779.13 987.982L1797.86 994.747L1776.29 906.695L1764.1 956.451L1775.05 953.923C1775.05 953.923 1770.59 956.854 1763.23 959.984L1745.75 1031.27L1758.43 1028.34C1758.43 1028.34 1753.23 1031.76 1744.8 1035.18L1732.69 1084.53L1757.44 1078.83C1756.8 1079.24 1746.38 1085.92 1731.41 1089.72L1729.31 1098.31L1767.34 1089.53C1767.34 1089.53 1750.45 1100.65 1728.23 1102.72L1725.22 1115.03L1737.87 1112.11C1737.87 1112.11 1732.67 1115.53 1724.25 1118.94L1719.3 1139.16Z" fill="#263238" fill-opacity="0.5"/>
<path d="M1740.27 1068.73C1746.58 1070.96 1769.92 1079.75 1774.96 1082.31C1774.96 1081.33 1774.97 1080.35 1774.97 1079.36C1769.34 1076.3 1763.69 1073.27 1758.04 1070.23C1751.98 1066.96 1745.47 1064.05 1739.82 1060.21C1739.55 1060.02 1739.7 1059.5 1740.08 1059.64C1746.31 1062.04 1752.1 1065.6 1757.91 1068.75C1763.65 1071.87 1769.32 1075.07 1774.98 1078.31C1775.01 1070.79 1775.03 1063.28 1775.09 1055.76C1765.99 1052.39 1756.85 1047.88 1748.48 1043.25C1748.19 1043.09 1748.38 1042.6 1748.72 1042.73C1757.6 1046.12 1766.83 1050.11 1775.09 1054.75C1775.12 1050.85 1774.96 1020.75 1776.01 982.637C1770.47 980.054 1764.78 977.775 1759.24 975.179C1758.88 975.009 1759.14 974.421 1759.52 974.562C1765.14 976.589 1770.54 978.996 1776.05 981.234C1776.35 970.85 1776.78 960.47 1777.46 950.106C1777.49 949.764 1778.03 949.761 1778.04 950.106C1778.82 969.38 1778.75 1006.67 1778.49 1025.96C1784.23 1021.73 1790.34 1017.98 1796.18 1013.88C1796.4 1013.72 1796.62 1014.07 1796.4 1014.23C1790.3 1018.52 1784.59 1023.28 1778.47 1027.56C1778.45 1028.65 1778.44 1029.74 1778.42 1030.83C1784.64 1028.21 1790.95 1025.76 1797.23 1023.27C1797.73 1023.07 1798.16 1023.72 1797.66 1023.95C1791.26 1026.79 1784.88 1029.68 1778.4 1032.36C1778.25 1041.92 1777.31 1076.39 1776.92 1093.08C1788.66 1087.59 1800.49 1082.23 1812.39 1077.05C1812.85 1076.86 1813.24 1077.45 1812.79 1077.69C1801.18 1083.83 1789.15 1089.41 1776.89 1094.36C1776.57 1108.23 1776.26 1124.66 1776.07 1138.52C1776.06 1139.36 1774.65 1139.37 1774.66 1138.52C1774.86 1120.84 1774.9 1100.59 1774.95 1082.91C1768.76 1081.5 1745.37 1072.23 1739.82 1069.7C1739.26 1069.44 1739.66 1068.52 1740.27 1068.73Z" fill="#37474F" fill-opacity="0.5"/>
<g opacity="0.2">
<path d="M1728.23 1102.72C1735.9 1102 1742.92 1100.2 1748.85 1098.17L1742.98 1139.16H1719.3L1724.25 1118.94C1732.68 1115.53 1737.87 1112.12 1737.87 1112.12L1725.22 1115.03L1728.23 1102.72Z" fill="#FFC727" fill-opacity="0.5"/>
<path d="M1731.41 1089.72C1739.64 1087.64 1746.5 1084.67 1751.11 1082.37L1749.5 1093.65L1729.32 1098.31L1731.41 1089.72Z" fill="#FFC727" fill-opacity="0.5"/>
<path d="M1763.23 959.984C1765.44 959.041 1767.39 958.121 1769.03 957.286L1751.42 1080.22L1732.68 1084.53L1744.8 1035.17C1753.23 1031.76 1758.44 1028.34 1758.44 1028.34L1745.75 1031.27L1763.23 959.984Z" fill="#FFC727" fill-opacity="0.5"/>
<path d="M1776.29 906.698L1769.33 955.246L1764.1 956.451L1776.29 906.698Z" fill="#FFC727" fill-opacity="0.5"/>
</g>
<path d="M1410.27 1187.5H1524.21L1510.87 1133.08C1500.11 1132.43 1486.6 1129.89 1474.47 1122.56L1509.78 1128.64L1493.49 1062.12C1488.52 1059.95 1483.59 1057.17 1478.99 1053.58L1492.34 1057.48L1490.18 1048.62C1483.32 1045.8 1476.29 1041.86 1470.09 1036.33L1488.82 1043.09L1467.25 955.039L1455.06 1004.79L1466.01 1002.27C1466.01 1002.27 1461.55 1005.2 1454.19 1008.33L1436.71 1079.61L1449.4 1076.68C1449.4 1076.68 1444.19 1080.1 1435.76 1083.52L1423.65 1132.87L1448.4 1127.17C1447.76 1127.59 1437.34 1134.26 1422.38 1138.06L1420.28 1146.65L1458.31 1137.87C1458.31 1137.87 1441.42 1148.99 1419.19 1151.06L1416.18 1163.37L1428.84 1160.46C1428.84 1160.46 1423.63 1163.87 1415.22 1167.28L1410.27 1187.5Z" fill="#263238" fill-opacity="0.5"/>
<path d="M1431.23 1117.08C1437.54 1119.3 1460.88 1128.09 1465.92 1130.66C1465.93 1129.67 1465.93 1128.69 1465.94 1127.71C1460.31 1124.64 1454.65 1121.61 1449.01 1118.57C1442.94 1115.31 1436.44 1112.4 1430.79 1108.55C1430.51 1108.36 1430.66 1107.84 1431.04 1107.99C1437.28 1110.39 1443.06 1113.95 1448.87 1117.1C1454.61 1120.21 1460.28 1123.42 1465.94 1126.65C1465.97 1119.14 1465.99 1111.62 1466.05 1104.11C1456.95 1100.73 1447.81 1096.22 1439.44 1091.6C1439.15 1091.44 1439.35 1090.94 1439.68 1091.07C1448.56 1094.46 1457.79 1098.46 1466.05 1103.1C1466.08 1099.19 1465.92 1069.09 1466.97 1030.98C1461.44 1028.4 1455.74 1026.12 1450.2 1023.52C1449.84 1023.35 1450.1 1022.77 1450.48 1022.91C1456.1 1024.93 1461.51 1027.34 1467.01 1029.58C1467.32 1019.19 1467.74 1008.81 1468.42 998.45C1468.45 998.108 1468.99 998.104 1469 998.45C1469.78 1017.72 1469.71 1055.02 1469.45 1074.31C1475.19 1070.08 1481.3 1066.33 1487.14 1062.22C1487.36 1062.06 1487.58 1062.42 1487.36 1062.57C1481.26 1066.87 1475.55 1071.63 1469.43 1075.91C1469.42 1077 1469.41 1078.09 1469.39 1079.18C1475.61 1076.55 1481.91 1074.1 1488.2 1071.61C1488.69 1071.41 1489.13 1072.07 1488.63 1072.29C1482.23 1075.13 1475.85 1078.02 1469.37 1080.71C1469.22 1090.26 1468.28 1124.74 1467.89 1141.42C1479.63 1135.93 1491.46 1130.58 1503.36 1125.4C1503.81 1125.2 1504.21 1125.79 1503.76 1126.03C1492.15 1132.17 1480.12 1137.75 1467.86 1142.71C1467.54 1156.57 1467.23 1173 1467.04 1186.86C1467.03 1187.7 1465.62 1187.71 1465.63 1186.86C1465.83 1169.18 1465.86 1148.93 1465.92 1131.25C1459.73 1129.83 1436.35 1120.57 1430.79 1118.03C1430.22 1117.78 1430.63 1116.86 1431.23 1117.08Z" fill="#37474F" fill-opacity="0.5"/>
<g opacity="0.2">
<path d="M1419.19 1151.06C1426.86 1150.35 1433.89 1148.55 1439.81 1146.52L1433.94 1187.5H1410.26L1415.22 1167.28C1423.64 1163.87 1428.84 1160.46 1428.84 1160.46L1416.18 1163.37L1419.19 1151.06Z" fill="#FFC727" fill-opacity="0.5"/>
<path d="M1422.37 1138.06C1430.61 1135.98 1437.47 1133.02 1442.07 1130.71L1440.46 1141.99L1420.29 1146.65L1422.37 1138.06Z" fill="#FFC727" fill-opacity="0.5"/>
<path d="M1454.19 1008.33C1456.4 1007.38 1458.35 1006.46 1460 1005.63L1442.38 1128.56L1423.65 1132.88L1435.76 1083.52C1444.19 1080.1 1449.4 1076.68 1449.4 1076.68L1436.71 1079.61L1454.19 1008.33Z" fill="#FFC727" fill-opacity="0.5"/>
<path d="M1467.25 955.042L1460.29 1003.59L1455.06 1004.79L1467.25 955.042Z" fill="#FFC727" fill-opacity="0.5"/>
</g>
<path d="M1703.36 1130.75H1613.8L1624.29 1087.98C1632.74 1087.47 1643.36 1085.47 1652.9 1079.71L1625.14 1084.49L1637.94 1032.21C1641.85 1030.5 1645.73 1028.31 1649.34 1025.49L1638.85 1028.56L1640.54 1021.6C1645.94 1019.38 1651.47 1016.28 1656.34 1011.93L1641.62 1017.25L1658.57 948.047L1668.15 987.154L1659.54 985.169C1659.54 985.169 1663.05 987.471 1668.83 989.932L1682.57 1045.96L1672.6 1043.66C1672.6 1043.66 1676.69 1046.34 1683.31 1049.03L1692.84 1087.82L1673.38 1083.34C1673.88 1083.67 1682.07 1088.92 1693.84 1091.9L1695.49 1098.65L1665.6 1091.75C1665.6 1091.75 1678.88 1100.49 1696.34 1102.12L1698.71 1111.79L1688.76 1109.5C1688.76 1109.5 1692.85 1112.19 1699.47 1114.86L1703.36 1130.75Z" fill="#263238" fill-opacity="0.5"/>
<path d="M1686.88 1075.4C1681.93 1077.15 1663.58 1084.06 1659.61 1086.07C1659.61 1085.3 1659.61 1084.53 1659.6 1083.76C1664.03 1081.35 1668.47 1078.96 1672.91 1076.57C1677.67 1074.01 1682.79 1071.72 1687.23 1068.7C1687.45 1068.55 1687.33 1068.14 1687.03 1068.25C1682.13 1070.14 1677.58 1072.94 1673.02 1075.42C1668.51 1077.86 1664.04 1080.38 1659.6 1082.93C1659.58 1077.02 1659.56 1071.11 1659.52 1065.2C1666.67 1062.55 1673.85 1059.01 1680.43 1055.37C1680.65 1055.25 1680.5 1054.86 1680.24 1054.96C1673.26 1057.63 1666.01 1060.76 1659.51 1064.41C1659.48 1061.34 1659.61 1037.69 1658.78 1007.73C1663.14 1005.7 1667.61 1003.91 1671.96 1001.87C1672.25 1001.74 1672.05 1001.28 1671.74 1001.39C1667.33 1002.98 1663.08 1004.87 1658.75 1006.63C1658.52 998.467 1658.18 990.312 1657.64 982.163C1657.62 981.895 1657.2 981.891 1657.19 982.163C1656.58 997.313 1656.63 1026.62 1656.83 1041.78C1652.33 1038.46 1647.52 1035.51 1642.93 1032.29C1642.76 1032.16 1642.58 1032.44 1642.76 1032.56C1647.55 1035.94 1652.04 1039.68 1656.85 1043.04C1656.86 1043.9 1656.87 1044.76 1656.88 1045.61C1652 1043.55 1647.04 1041.62 1642.1 1039.67C1641.71 1039.51 1641.37 1040.03 1641.76 1040.2C1646.8 1042.43 1651.81 1044.71 1656.9 1046.82C1657.02 1054.33 1657.75 1081.43 1658.06 1094.54C1648.83 1090.22 1639.53 1086.01 1630.18 1081.94C1629.83 1081.79 1629.52 1082.25 1629.87 1082.44C1638.99 1087.27 1648.45 1091.66 1658.08 1095.55C1658.33 1106.44 1658.58 1119.36 1658.73 1130.25C1658.74 1130.91 1659.85 1130.91 1659.84 1130.25C1659.68 1116.35 1659.65 1100.44 1659.61 1086.54C1664.48 1085.43 1682.85 1078.15 1687.22 1076.16C1687.67 1075.95 1687.36 1075.23 1686.88 1075.4Z" fill="#37474F" fill-opacity="0.5"/>
<g opacity="0.2">
<path d="M1624.29 1087.98C1627.77 1087.78 1631.61 1087.32 1635.58 1086.43L1628.22 1130.75H1613.8L1624.29 1087.98Z" fill="#FFC727" fill-opacity="0.5"/>
<path d="M1637.94 1032.21C1640.4 1031.14 1642.85 1029.87 1645.22 1028.38L1636.22 1082.58L1625.13 1084.49L1637.94 1032.21Z" fill="#FFC727" fill-opacity="0.5"/>
<path d="M1640.54 1021.6C1642.64 1020.74 1644.76 1019.74 1646.85 1018.59L1645.52 1026.61L1638.85 1028.57L1640.54 1021.6Z" fill="#FFC727" fill-opacity="0.5"/>
<path d="M1658.57 948.047L1647.42 1015.16L1641.62 1017.25L1658.57 948.047Z" fill="#FFC727" fill-opacity="0.5"/>
</g>
<path d="M1445 1196.44H1355.44L1365.93 1153.67C1374.39 1153.16 1385.01 1151.16 1394.54 1145.4L1366.78 1150.18L1379.58 1097.9C1383.49 1096.19 1387.37 1094 1390.98 1091.18L1380.49 1094.25L1382.18 1087.29C1387.58 1085.07 1393.11 1081.97 1397.98 1077.62L1383.26 1082.94L1400.21 1013.73L1409.79 1052.84L1401.18 1050.85C1401.18 1050.85 1404.69 1053.16 1410.47 1055.62L1424.21 1111.65L1414.24 1109.34C1414.24 1109.34 1418.33 1112.03 1424.96 1114.72L1434.48 1153.51L1415.03 1149.03C1415.53 1149.35 1423.71 1154.61 1435.48 1157.59L1437.13 1164.34L1407.24 1157.44C1407.24 1157.44 1420.52 1166.18 1437.99 1167.8L1440.35 1177.48L1430.41 1175.19C1430.41 1175.19 1434.5 1177.88 1441.11 1180.55L1445 1196.44Z" fill="#263238" fill-opacity="0.5"/>
<path d="M1428.52 1141.09C1423.57 1142.84 1405.22 1149.75 1401.26 1151.76C1401.25 1150.99 1401.25 1150.22 1401.25 1149.45C1405.67 1147.04 1410.12 1144.65 1414.55 1142.27C1419.32 1139.7 1424.43 1137.41 1428.87 1134.39C1429.09 1134.25 1428.97 1133.83 1428.67 1133.95C1423.77 1135.83 1419.23 1138.63 1414.66 1141.11C1410.15 1143.55 1405.69 1146.08 1401.24 1148.62C1401.22 1142.71 1401.21 1136.8 1401.16 1130.9C1408.31 1128.24 1415.5 1124.7 1422.07 1121.07C1422.3 1120.94 1422.15 1120.55 1421.88 1120.66C1414.91 1123.32 1407.65 1126.46 1401.15 1130.11C1401.13 1127.04 1401.25 1103.38 1400.43 1073.43C1404.78 1071.4 1409.26 1069.61 1413.61 1067.57C1413.9 1067.43 1413.7 1066.97 1413.39 1067.08C1408.98 1068.67 1404.73 1070.57 1400.4 1072.33C1400.16 1064.16 1399.82 1056.01 1399.29 1047.86C1399.27 1047.59 1398.85 1047.59 1398.83 1047.86C1398.22 1063.01 1398.28 1092.32 1398.48 1107.48C1393.97 1104.15 1389.17 1101.21 1384.58 1097.98C1384.4 1097.86 1384.23 1098.14 1384.41 1098.26C1389.2 1101.64 1393.69 1105.38 1398.5 1108.74C1398.51 1109.6 1398.52 1110.45 1398.53 1111.31C1393.64 1109.25 1388.68 1107.32 1383.75 1105.37C1383.36 1105.21 1383.01 1105.73 1383.41 1105.9C1388.44 1108.13 1393.45 1110.41 1398.54 1112.51C1398.66 1120.03 1399.4 1147.12 1399.7 1160.23C1390.48 1155.92 1381.18 1151.71 1371.83 1147.64C1371.47 1147.49 1371.16 1147.95 1371.51 1148.14C1380.64 1152.97 1390.09 1157.35 1399.73 1161.24C1399.98 1172.14 1400.22 1185.05 1400.37 1195.95C1400.38 1196.61 1401.49 1196.61 1401.49 1195.95C1401.32 1182.05 1401.3 1166.13 1401.26 1152.24C1406.12 1151.13 1424.5 1143.85 1428.86 1141.85C1429.32 1141.64 1429 1140.92 1428.52 1141.09Z" fill="#37474F" fill-opacity="0.5"/>
<g opacity="0.2">
<path d="M1365.93 1153.67C1369.41 1153.47 1373.25 1153 1377.23 1152.12L1369.87 1196.44H1355.44L1365.93 1153.67Z" fill="#FFC727" fill-opacity="0.5"/>
<path d="M1379.58 1097.89C1382.04 1096.82 1384.49 1095.56 1386.87 1094.07L1377.86 1148.26L1366.78 1150.17L1379.58 1097.89Z" fill="#FFC727" fill-opacity="0.5"/>
<path d="M1382.18 1087.29C1384.28 1086.43 1386.4 1085.43 1388.49 1084.28L1387.16 1092.3L1380.49 1094.26L1382.18 1087.29Z" fill="#FFC727" fill-opacity="0.5"/>
<path d="M1400.21 1013.74L1389.06 1080.84L1383.26 1082.94L1400.21 1013.74Z" fill="#FFC727" fill-opacity="0.5"/>
</g>
<path d="M722.113 1122.57H811.668L801.186 1079.8C792.73 1079.29 782.109 1077.29 772.581 1071.53L800.333 1076.31L787.532 1024.03C783.627 1022.32 779.745 1020.13 776.134 1017.31L786.63 1020.38L784.933 1013.42C779.538 1011.2 774.009 1008.1 769.139 1003.75L783.858 1009.07L766.906 939.863L757.326 978.97L765.932 976.982C765.932 976.982 762.427 979.287 756.646 981.745L742.905 1037.77L752.875 1035.47C752.875 1035.47 748.787 1038.16 742.162 1040.85L732.64 1079.64L752.094 1075.15C751.593 1075.48 743.406 1080.73 731.638 1083.71L729.99 1090.46L759.877 1083.57C759.877 1083.57 746.599 1092.3 729.132 1093.93L726.765 1103.6L736.711 1101.31C736.711 1101.31 732.623 1104 726.008 1106.67L722.113 1122.57Z" fill="#263238" fill-opacity="0.5"/>
<path d="M738.595 1067.22C743.547 1068.97 761.895 1075.88 765.859 1077.89C765.863 1077.12 765.866 1076.35 765.87 1075.57C761.446 1073.16 757.001 1070.78 752.564 1068.39C747.802 1065.83 742.687 1063.54 738.242 1060.52C738.025 1060.37 738.146 1059.96 738.446 1060.08C743.343 1061.96 747.888 1064.76 752.457 1067.24C756.967 1069.68 761.429 1072.2 765.873 1074.75C765.894 1068.84 765.911 1062.93 765.956 1057.03C758.802 1054.37 751.62 1050.83 745.047 1047.2C744.819 1047.07 744.971 1046.68 745.237 1046.78C752.215 1049.45 759.466 1052.59 765.966 1056.24C765.991 1053.16 765.863 1029.51 766.689 999.555C762.338 997.525 757.859 995.735 753.507 993.695C753.224 993.561 753.421 993.101 753.729 993.21C758.142 994.802 762.393 996.694 766.723 998.452C766.958 990.291 767.297 982.136 767.833 973.987C767.85 973.718 768.275 973.715 768.285 973.987C768.897 989.137 768.845 1018.45 768.641 1033.61C773.148 1030.28 777.952 1027.34 782.541 1024.11C782.718 1023.98 782.89 1024.26 782.714 1024.39C777.921 1027.76 773.431 1031.5 768.624 1034.86C768.614 1035.72 768.603 1036.58 768.589 1037.43C773.476 1035.37 778.436 1033.45 783.374 1031.49C783.761 1031.34 784.107 1031.85 783.709 1032.02C778.677 1034.25 773.666 1036.53 768.572 1038.64C768.455 1046.15 767.719 1073.25 767.414 1086.36C776.638 1082.04 785.939 1077.83 795.29 1073.76C795.646 1073.61 795.957 1074.07 795.605 1074.26C786.481 1079.09 777.026 1083.48 767.39 1087.37C767.141 1098.26 766.896 1111.18 766.744 1122.07C766.734 1122.73 765.624 1122.73 765.631 1122.07C765.797 1108.18 765.818 1092.26 765.863 1078.36C760.997 1077.25 742.621 1069.97 738.256 1067.98C737.8 1067.77 738.118 1067.05 738.595 1067.22Z" fill="#37474F" fill-opacity="0.5"/>
<g opacity="0.2">
<path d="M801.187 1079.8C797.707 1079.59 793.867 1079.13 789.889 1078.25L797.25 1122.57H811.676L801.187 1079.8Z" fill="#FFC727" fill-opacity="0.5"/>
<path d="M787.536 1024.02C785.075 1022.95 782.625 1021.69 780.25 1020.2L789.257 1074.39L800.34 1076.31L787.536 1024.02Z" fill="#FFC727" fill-opacity="0.5"/>
<path d="M784.936 1013.42C782.834 1012.55 780.716 1011.55 778.625 1010.4L779.952 1018.43L786.622 1020.38L784.936 1013.42Z" fill="#FFC727" fill-opacity="0.5"/>
<path d="M766.906 939.863L778.051 1006.97L783.854 1009.07L766.906 939.863Z" fill="#FFC727" fill-opacity="0.5"/>
</g>
<path d="M557.445 1089.51H647.003L636.518 1046.74C628.061 1046.23 617.441 1044.23 607.913 1038.47L635.664 1043.25L622.863 990.966C618.958 989.262 615.077 987.072 611.465 984.249L621.961 987.321L620.264 980.355C614.87 978.143 609.34 975.039 604.471 970.691L619.19 976.008L602.238 906.802L592.658 945.909L601.263 943.921C601.263 943.921 597.759 946.226 591.977 948.684L578.236 1004.71L588.207 1002.41C588.207 1002.41 584.118 1005.1 577.493 1007.78L567.972 1046.57L587.426 1042.09C586.924 1042.42 578.737 1047.67 566.97 1050.65L565.321 1057.4L595.208 1050.5C595.208 1050.5 581.931 1059.24 564.464 1060.87L562.097 1070.54L572.043 1068.25C572.043 1068.25 567.954 1070.93 561.34 1073.61L557.445 1089.51Z" fill="#263238" fill-opacity="0.5"/>
<path d="M573.924 1034.16C578.876 1035.91 597.224 1042.82 601.188 1044.83C601.192 1044.06 601.195 1043.29 601.199 1042.52C596.775 1040.11 592.331 1037.72 587.893 1035.34C583.131 1032.77 578.016 1030.48 573.572 1027.46C573.354 1027.31 573.475 1026.9 573.775 1027.02C578.673 1028.9 583.217 1031.7 587.786 1034.18C592.296 1036.62 596.758 1039.15 601.202 1041.69C601.223 1035.78 601.24 1029.87 601.282 1023.97C594.131 1021.31 586.95 1017.77 580.373 1014.14C580.145 1014.01 580.297 1013.62 580.563 1013.72C587.541 1016.39 594.791 1019.53 601.292 1023.18C601.316 1020.11 601.188 996.452 602.014 966.497C597.663 964.467 593.184 962.677 588.833 960.637C588.55 960.503 588.747 960.043 589.054 960.151C593.468 961.743 597.719 963.636 602.045 965.394C602.28 957.233 602.619 949.077 603.155 940.929C603.172 940.66 603.597 940.657 603.608 940.929C604.219 956.079 604.167 985.387 603.964 1000.55C608.47 997.222 613.274 994.278 617.864 991.052C618.04 990.928 618.213 991.206 618.036 991.33C613.243 994.706 608.754 998.444 603.946 1001.81C603.936 1002.67 603.926 1003.52 603.912 1004.38C608.798 1002.31 613.758 1000.39 618.696 998.434C619.083 998.28 619.429 998.795 619.032 998.968C614 1001.2 608.989 1003.47 603.894 1005.58C603.777 1013.09 603.041 1040.19 602.737 1053.3C611.961 1048.98 621.261 1044.78 630.613 1040.71C630.969 1040.55 631.28 1041.02 630.927 1041.2C621.803 1046.04 612.348 1050.42 602.712 1054.31C602.464 1065.2 602.218 1078.12 602.066 1089.01C602.056 1089.68 600.946 1089.68 600.953 1089.01C601.119 1075.12 601.14 1059.2 601.181 1045.3C596.315 1044.19 577.94 1036.91 573.575 1034.92C573.129 1034.71 573.447 1033.99 573.924 1034.16Z" fill="#37474F" fill-opacity="0.5"/>
<g opacity="0.2">
<path d="M636.514 1046.74C633.034 1046.54 629.195 1046.07 625.217 1045.19L632.578 1089.51H647.003L636.514 1046.74Z" fill="#FFC727" fill-opacity="0.5"/>
<path d="M622.863 990.965C620.403 989.894 617.952 988.632 615.578 987.139L624.584 1041.34L635.668 1043.25L622.863 990.965Z" fill="#FFC727" fill-opacity="0.5"/>
<path d="M620.265 980.358C618.164 979.495 616.045 978.494 613.955 977.347L615.282 985.371L621.952 987.324L620.265 980.358Z" fill="#FFC727" fill-opacity="0.5"/>
<path d="M602.234 906.805L613.38 973.913L619.183 976.014L602.234 906.805Z" fill="#FFC727" fill-opacity="0.5"/>
</g>
<path d="M379.376 1154.54H256.674L262.664 1124.69C288.373 1123.14 308.421 1107.01 308.421 1107.01L263.683 1119.64L280.196 1037.31C291.559 1032.34 298.813 1026.5 298.813 1026.5L281.36 1031.41L284.06 1017.99C299.345 1012.92 309.852 1004.68 310.484 1004.17L285.428 1011.22L301.063 933.259C307.032 929.854 310.526 927.038 310.526 927.038L301.82 929.496L318.046 848.583L341.284 964.508L321.091 955.586C327.774 962.865 335.336 968.063 342.732 971.768V971.788L364.619 1080.94L330.674 1068.83C341.854 1079.51 354.932 1084.84 365.929 1087.47L368.175 1098.62L349.903 1094.79C356.217 1099.46 362.901 1102.65 369.398 1104.81L379.376 1154.54Z" fill="#263238" fill-opacity="0.5"/>
<path d="M358.868 1055.06C351.531 1057.65 325.431 1067.42 319.559 1070.4C319.556 1069.26 319.549 1068.11 319.546 1066.97C326.102 1063.4 332.685 1059.86 339.262 1056.33C346.319 1052.52 351.009 1051.17 357.593 1046.69C357.914 1046.47 357.734 1045.86 357.292 1046.03C350.038 1048.83 346.191 1050.94 339.421 1054.61C332.737 1058.24 326.129 1061.97 319.539 1065.74C319.511 1056.99 319.48 1048.23 319.418 1039.48C330.014 1035.55 340.658 1030.3 350.404 1024.91C350.743 1024.72 350.515 1024.15 350.124 1024.3C339.784 1028.25 329.036 1032.9 319.407 1038.3C319.373 1033.75 319.356 1029.2 319.304 1024.65C319.034 1001.21 318.982 977.75 318.336 954.311C324.785 951.303 331.424 948.649 337.866 945.625C338.287 945.427 337.99 944.743 337.538 944.906C330.999 947.265 324.702 950.069 318.284 952.677C317.935 940.583 317.437 928.496 316.643 916.422C316.615 916.022 315.986 916.019 315.969 916.422C315.063 938.87 315.139 961.344 315.443 983.815C308.766 978.882 301.644 974.521 294.849 969.739C294.586 969.553 294.331 969.966 294.59 970.148C301.695 975.148 308.345 980.691 315.471 985.678C315.488 986.948 315.506 988.217 315.523 989.486C308.279 986.423 300.932 983.575 293.615 980.675C293.042 980.448 292.53 981.209 293.114 981.468C300.569 984.777 307.999 988.146 315.551 991.267C315.723 1002.4 315.927 1013.53 316.083 1024.65C316.356 1044.08 316.819 1063.51 317.268 1082.94C303.6 1076.54 289.814 1070.31 275.959 1064.28C275.43 1064.05 274.97 1064.74 275.496 1065.02C289.015 1072.18 303.023 1078.67 317.303 1084.44C317.672 1100.58 318.035 1137.65 318.26 1153.8C318.274 1154.78 319.919 1154.78 319.905 1153.8C319.663 1133.21 319.625 1091.69 319.566 1071.1C326.776 1069.45 352.917 1059.13 359.386 1056.18C360.046 1055.88 359.576 1054.81 358.868 1055.06Z" fill="#37474F" fill-opacity="0.5"/>
<g opacity="0.2">
<path d="M341.277 964.502L331.891 960.352L318.049 848.583L341.277 964.502Z" fill="#FFC727" fill-opacity="0.5"/>
<path d="M364.622 1080.94L346.008 1074.3L332.547 965.66C335.91 968.045 339.345 970.065 342.728 971.762V971.782L364.622 1080.94Z" fill="#FFC727" fill-opacity="0.5"/>
<path d="M379.375 1154.54H355.947L346.75 1080.33C353.338 1083.8 359.945 1086.03 365.928 1087.47L368.178 1098.61L349.913 1094.77C356.223 1099.45 362.907 1102.64 369.408 1104.79L379.375 1154.54Z" fill="#FFC727" fill-opacity="0.5"/>
</g>
<path d="M929.611 1204.09H806.906L812.895 1174.24C838.605 1172.69 858.653 1156.56 858.653 1156.56L813.915 1169.19L830.428 1086.86C841.791 1081.88 849.045 1076.04 849.045 1076.04L831.592 1080.96L834.292 1067.53C849.577 1062.47 860.084 1054.23 860.716 1053.71L835.66 1060.77L851.295 982.804C857.264 979.4 860.758 976.583 860.758 976.583L852.052 979.042L868.278 898.129L891.516 1014.05L871.323 1005.13C878.006 1012.41 885.568 1017.61 892.964 1021.31V1021.33L914.851 1130.49L880.906 1118.37C892.086 1129.05 905.164 1134.38 916.161 1137.01L918.407 1148.17L900.135 1144.33C906.449 1149 913.133 1152.19 919.63 1154.35L929.611 1204.09Z" fill="#263238" fill-opacity="0.5"/>
<path d="M909.1 1104.61C901.759 1107.2 875.663 1116.96 869.791 1119.95C869.788 1118.81 869.781 1117.66 869.778 1116.52C876.334 1112.95 882.917 1109.41 889.494 1105.87C896.551 1102.07 901.241 1100.72 907.825 1096.24C908.146 1096.02 907.966 1095.41 907.524 1095.58C900.27 1098.37 896.423 1100.49 889.653 1104.16C882.969 1107.78 876.361 1111.52 869.771 1115.29C869.743 1106.53 869.712 1097.78 869.65 1089.02C880.246 1085.09 890.89 1079.85 900.636 1074.46C900.975 1074.27 900.747 1073.69 900.356 1073.84C890.016 1077.79 879.268 1082.44 869.639 1087.85C869.605 1083.29 869.587 1078.75 869.532 1074.19C869.263 1050.76 869.211 1027.3 868.565 1003.86C875.013 1000.85 881.652 998.194 888.094 995.17C888.516 994.972 888.219 994.287 887.766 994.451C881.227 996.81 874.93 999.613 868.513 1002.22C868.164 990.128 867.666 978.041 866.871 965.966C866.843 965.567 866.214 965.564 866.197 965.966C865.292 988.415 865.368 1010.89 865.672 1033.36C858.995 1028.43 851.872 1024.07 845.078 1019.28C844.815 1019.1 844.559 1019.51 844.818 1019.69C851.924 1024.69 858.573 1030.24 865.7 1035.22C865.717 1036.49 865.734 1037.76 865.751 1039.03C858.508 1035.97 851.164 1033.12 843.844 1030.22C843.27 1029.99 842.759 1030.75 843.343 1031.01C850.797 1034.32 858.228 1037.69 865.779 1040.81C865.952 1051.94 866.156 1063.07 866.311 1074.19C866.584 1093.62 867.047 1113.05 867.497 1132.48C853.828 1126.09 840.042 1119.85 826.187 1113.82C825.658 1113.59 825.199 1114.28 825.724 1114.56C839.244 1121.72 853.254 1128.21 867.535 1133.98C867.904 1150.13 868.267 1187.2 868.492 1203.34C868.506 1204.32 870.151 1204.32 870.137 1203.34C869.895 1182.75 869.857 1141.23 869.798 1120.64C877.007 1118.99 903.149 1108.67 909.618 1105.72C910.278 1105.42 909.808 1104.36 909.1 1104.61Z" fill="#37474F" fill-opacity="0.5"/>
<g opacity="0.2">
<path d="M891.512 1014.05L882.126 1009.9L868.285 898.132L891.512 1014.05Z" fill="#FFC727" fill-opacity="0.5"/>
<path d="M914.858 1130.49L896.244 1123.85L882.783 1015.21C886.145 1017.59 889.581 1019.61 892.964 1021.31V1021.33L914.858 1130.49Z" fill="#FFC727" fill-opacity="0.5"/>
<path d="M929.607 1204.09H906.179L896.982 1129.88C903.57 1133.35 910.177 1135.58 916.16 1137.02L918.41 1148.16L900.145 1144.32C906.455 1148.99 913.139 1152.19 919.64 1154.34L929.607 1204.09Z" fill="#FFC727" fill-opacity="0.5"/>
</g>
<path d="M187.301 732.798L190.79 739.785L198.598 740.904L192.947 746.341L194.284 754.019L187.301 750.392L180.318 754.019L181.65 746.341L176 740.904L183.807 739.785L187.301 732.798Z" fill="#DBDBDB"/>
<path d="M1313.03 0L1316.53 6.98339L1324.33 8.10207L1318.68 13.5394L1320.02 21.2177L1313.03 17.5941L1306.05 21.2177L1307.38 13.5394L1301.73 8.10207L1309.54 6.98339L1313.03 0Z" fill="#DBDBDB"/>
<path d="M1823.7 245.157L1827.19 252.144L1835 253.263L1829.35 258.7L1830.68 266.375L1823.7 262.751L1816.72 266.375L1818.05 258.7L1812.4 253.263L1820.21 252.144L1823.7 245.157Z" fill="#DBDBDB"/>
<path d="M1652.44 573.802L1655.93 580.789L1663.74 581.908L1658.09 587.345L1659.42 595.023L1652.44 591.396L1645.45 595.023L1646.79 587.345L1641.14 581.908L1648.95 580.789L1652.44 573.802Z" fill="#DBDBDB"/>
<path d="M1803.25 724.626L1806.74 731.609L1814.55 732.732L1808.9 738.165L1810.23 745.844L1803.25 742.22L1796.26 745.844L1797.6 738.165L1791.95 732.732L1799.76 731.609L1803.25 724.626Z" fill="#DBDBDB"/>
<path d="M1461.94 251.707L1465.43 258.694L1473.24 259.812L1467.59 265.25L1468.92 272.928L1461.94 269.301L1454.95 272.928L1456.29 265.25L1450.64 259.812L1458.45 258.694L1461.94 251.707Z" fill="#DBDBDB"/>
<path d="M717.33 339.777L720.824 346.764L728.631 347.883L722.981 353.32L724.313 360.998L717.33 357.371L710.347 360.998L711.68 353.32L706.033 347.883L713.841 346.764L717.33 339.777Z" fill="#DBDBDB"/>
<path d="M1084.86 209.183L1088.36 216.17L1096.16 217.288L1090.51 222.726L1091.85 230.4L1084.86 226.777L1077.88 230.4L1079.22 222.726L1073.56 217.288L1081.37 216.17L1084.86 209.183Z" fill="#DBDBDB"/>
<path d="M612.299 816.93L615.793 823.914L623.6 825.032L617.95 830.47L619.282 838.148L612.299 834.521L605.316 838.148L606.653 830.47L601.002 825.032L608.81 823.914L612.299 816.93Z" fill="#DBDBDB"/>
<path d="M348.486 529.742L351.98 536.725L359.783 537.844L354.137 543.281L355.469 550.959L348.486 547.336L341.503 550.959L342.836 543.281L337.186 537.844L344.993 536.725L348.486 529.742Z" fill="#DBDBDB"/>
<path d="M244.893 477.118L247.05 481.433L251.876 482.128L248.382 485.488L249.207 490.234L244.893 487.993L240.575 490.234L241.4 485.488L237.91 482.128L242.736 481.433L244.893 477.118Z" fill="#DBDBDB"/>
<path d="M416.008 633.923L418.165 638.241L422.991 638.933L419.497 642.293L420.322 647.039L416.008 644.797L411.69 647.039L412.514 642.293L409.025 638.933L413.847 638.241L416.008 633.923Z" fill="#DBDBDB"/>
<path d="M1760.28 798.748L1762.43 803.067L1767.26 803.758L1763.77 807.118L1764.59 811.864L1760.28 809.623L1755.96 811.864L1756.78 807.118L1753.29 803.758L1758.12 803.067L1760.28 798.748Z" fill="#DBDBDB"/>
<path d="M574.268 663.633L576.425 667.952L581.251 668.643L577.757 672.003L578.582 676.749L574.268 674.508L569.95 676.749L570.774 672.003L567.285 668.643L572.107 667.952L574.268 663.633Z" fill="#DBDBDB"/>
<path d="M516.465 813.644L518.626 817.962L523.448 818.654L519.958 822.013L520.783 826.759L516.465 824.518L512.151 826.759L512.975 822.013L509.482 818.654L514.308 817.962L516.465 813.644Z" fill="#DBDBDB"/>
<path d="M1513 218.336L1515.16 222.651L1519.98 223.346L1516.49 226.702L1517.31 231.448L1513 229.207L1508.68 231.448L1509.51 226.702L1506.02 223.346L1510.84 222.651L1513 218.336Z" fill="#DBDBDB"/>
<path d="M1712.41 732.731L1714.57 737.046L1719.39 737.737L1715.9 741.097L1716.73 745.843L1712.41 743.602L1708.09 745.843L1708.92 741.097L1705.43 737.737L1710.25 737.046L1712.41 732.731Z" fill="#DBDBDB"/>
<path d="M637.114 771.807L639.275 776.126L644.097 776.817L640.608 780.177L641.432 784.919L637.114 782.682L632.8 784.919L633.621 780.177L630.131 776.817L634.957 776.126L637.114 771.807Z" fill="#DBDBDB"/>
<path d="M383.551 820.98L385.708 825.295L390.53 825.99L387.041 829.35L387.865 834.092L383.551 831.855L379.233 834.092L380.058 829.35L376.564 825.99L381.39 825.295L383.551 820.98Z" fill="#DBDBDB"/>
<path d="M968.461 291.525L970.622 295.84L975.445 296.532L971.955 299.891L972.78 304.637L968.461 302.396L964.148 304.637L964.971 299.891L961.479 296.532L966.305 295.84L968.461 291.525Z" fill="#DBDBDB"/>
<path d="M690.143 270.854L692.3 275.173L697.126 275.864L693.636 279.224L694.46 283.97L690.143 281.729L685.825 283.97L686.649 279.224L683.16 275.864L687.986 275.173L690.143 270.854Z" fill="#DBDBDB"/>
<path d="M507.946 410.344L510.103 414.663L514.929 415.354L511.439 418.714L512.264 423.46L507.946 421.219L503.632 423.46L504.456 418.714L500.963 415.354L505.789 414.663L507.946 410.344Z" fill="#DBDBDB"/>
<path d="M1143.09 271.041L1145.25 275.36L1150.07 276.051L1146.58 279.411L1147.4 284.157L1143.09 281.916L1138.77 284.157L1139.6 279.411L1136.11 276.051L1140.93 275.36L1143.09 271.041Z" fill="#DBDBDB"/>
<path d="M1585.01 634.73L1587.17 639.045L1592 639.737L1588.5 643.096L1589.33 647.842L1585.01 645.601L1580.7 647.842L1581.52 643.096L1578.03 639.737L1582.85 639.045L1585.01 634.73Z" fill="#DBDBDB"/>
</svg>
