<svg width="3644" height="2034" viewBox="0 0 3644 2034" fill="none" xmlns="http://www.w3.org/2000/svg">
<path d="M1919.35 1555.74C2476.45 1567.51 3036.76 1611.12 3587.23 1580.01C3606.16 1578.94 3625.11 1577.77 3644 1576.47V1399H0V1469.76C401.902 1512.42 819.432 1538.44 1240.15 1546.9C1466.32 1551.46 1693.21 1550.96 1919.35 1555.74Z" fill="#66B547"/>
<path d="M897.986 1647.05C1021.83 1650.95 1145.79 1642.29 1269.95 1639.74C1595.1 1633.07 1918.33 1668.42 2243.46 1661.64C2404.33 1658.29 2562.47 1644.65 2723.59 1643C2905.06 1641.13 3084.43 1654.48 3264.64 1661.94C3390.45 1667.15 3517.27 1669.47 3644 1668.92V1576.17C3625.11 1577.47 3606.16 1578.65 3587.23 1579.73C3036.74 1610.96 2476.45 1567.17 1919.35 1555.35C1693.21 1550.55 1466.32 1551.04 1240.15 1546.47C819.432 1537.98 401.902 1511.84 0 1469V1568.87C141.834 1570.98 282.789 1579.9 417.105 1595.42C576.753 1613.88 729.957 1641.75 897.986 1647.05Z" fill="#5FA640"/>
<path d="M3264.64 1662.35C3084.43 1654.87 2905.06 1641.47 2723.59 1643.34C2562.47 1645.01 2404.33 1658.69 2243.46 1662.05C1918.33 1668.85 1595.1 1633.39 1269.95 1640.09C1145.79 1642.63 1021.83 1651.33 897.986 1647.41C729.964 1642.09 576.757 1614.14 417.105 1595.62C282.794 1580.05 141.834 1571.11 0 1569V2034H3644V1669.36C3517.27 1669.9 3390.45 1667.58 3264.64 1662.35Z" fill="#549237"/>
<path d="M0 1150.03C0 1150.03 1422.81 1134 1835.8 1134C2248.8 1134 3644 1150.03 3644 1150.03V1461.89C3644 1461.89 3325.75 1502.12 3178.44 1502.12C3031.11 1502.12 2544.4 1508.6 2292.46 1502.12C2081.5 1496.7 1534.13 1475.11 1416.08 1470.02C1271.28 1463.78 1151.08 1448.91 918.581 1440.02C737.71 1433.1 0 1399.22 0 1399.22V1150.03Z" fill="#B0DEE5"/>
<path d="M731.74 1195.21C889.702 1188.79 1047.87 1182.37 1206.86 1180.26C1350.68 1178.34 1494.67 1179.96 1638.52 1181.57C2152.72 1187.35 2667.4 1193.14 3179.25 1210.53C3294.91 1214.46 3412.48 1219.16 3518.76 1234.91C3510.17 1244.8 3487.88 1253.26 3459.62 1257.36L3466.51 1257.07C3534.98 1271.16 3595.43 1289.58 3644 1311V1149.95C3644 1149.95 2248.8 1134 1835.8 1134C1422.81 1134 0 1149.95 0 1149.95V1228.56C36.3317 1223.83 77.698 1221.78 116.599 1220.19C321.652 1211.87 526.695 1203.54 731.74 1195.21Z" fill="#9ED4D5"/>
<path d="M2274.41 1518.34C2484.6 1526.24 3068.89 1529.92 3215.19 1524.28C3459.15 1514.86 3644 1479.03 3644 1479.03V1386.97C3642.37 1387.34 3640.76 1387.7 3639.15 1388.06C3459.15 1427.53 3233.3 1432.8 3018.6 1434.33C2487.44 1438.12 1956.43 1426.23 1426.82 1412.03C1012.2 1400.92 596.197 1388.29 191.412 1356.05C125.308 1350.79 57.1641 1344.56 1.37695 1332V1399.22C1.37695 1399.22 576.447 1433.78 857.008 1454.21C1279.23 1484.96 1848.1 1502.32 2274.41 1518.34Z" fill="#9ED4D5"/>
<path d="M3424.99 1297.27C3361.69 1283.15 3292.42 1272.67 3219 1266.08C3217.85 1267.48 3216.7 1268.89 3215.55 1270.29C3224.64 1270.8 3233.74 1271.3 3242.84 1271.8C3245.52 1271.95 3248.89 1271.74 3250.16 1270.8C3253.99 1268 3257.8 1265.2 3261.63 1262.4C3262.74 1261.59 3263.03 1260.39 3260.6 1259.76C3217.57 1248.57 3166.33 1243.94 3113.18 1241.46C3049.44 1238.5 2984.6 1237.55 2920.49 1235.82C2776.83 1231.93 2633.19 1228.05 2489.55 1224.16C2207.8 1216.55 1924.84 1205.19 1642.81 1217.33C1372.85 1228.95 1108.93 1255.15 835.586 1257.59C701.794 1258.79 567.846 1252.08 434.359 1257.37C404.933 1258.54 375.858 1260.47 347.25 1263.05C328.915 1264.7 308.179 1266.36 296.216 1271.78C276.278 1280.82 282.281 1292.87 308.677 1299.54C328.466 1304.54 361.437 1305.68 384.922 1307.48C418.749 1310.08 453.118 1311.86 487.441 1313.53C555.072 1316.81 622.912 1319.66 690.756 1322.4C832.026 1328.11 973.641 1332.83 1115.41 1336.87C1399.13 1344.95 1683.54 1350.06 1968.01 1354C2250.05 1357.92 2532.93 1362.55 2815.23 1362.99C2951.11 1363.2 3087.24 1361.02 3221.32 1353.32C3277.04 1350.12 3335.21 1346.71 3386.02 1338.01C3418.34 1332.48 3470.1 1318.59 3449.06 1304.77C3444.17 1301.56 3433.5 1299.25 3424.99 1297.27C3418.09 1295.66 3411.6 1299.45 3418.42 1301.04C3491.88 1318.16 3362.36 1337.71 3321.76 1341.64C3256.86 1347.92 3188.36 1351.12 3121.42 1353.75C2984.03 1359.13 2845.23 1359.15 2707.15 1358.1C2423.73 1355.94 2140.22 1352.28 1857.02 1348.03C1572.62 1343.77 1288.35 1338.01 1004.85 1329.21C863.164 1324.8 721.708 1319.57 580.601 1313.4C511.069 1310.36 441.111 1307.53 372.825 1302.05C346.335 1299.92 310.933 1298.49 299.671 1288.87C290.428 1280.98 304.539 1272.15 327.799 1269.58C457.452 1255.22 596.67 1259.99 730.591 1261.63C864.369 1263.28 996.812 1259.03 1128.81 1251.94C1263.52 1244.7 1396.85 1234.9 1531.38 1227.31C1670.42 1219.46 1809.67 1215.22 1950.72 1216.1C2173.62 1217.47 2396.72 1226.02 2618.82 1232.02C2730.85 1235.05 2842.91 1238.08 2954.94 1241.11C3051.78 1243.73 3170.49 1241.8 3251.4 1262.84C3251.07 1261.96 3250.73 1261.08 3250.39 1260.19C3246.56 1262.99 3242.76 1265.79 3238.93 1268.59C3241.38 1268.26 3243.83 1267.92 3246.27 1267.59C3237.18 1267.09 3228.09 1266.58 3219 1266.08C3210.9 1265.63 3207.28 1269.55 3215.55 1270.29C3287.92 1276.78 3356.01 1287.11 3418.42 1301.04C3425.43 1302.6 3431.94 1298.82 3424.99 1297.27Z" fill="#D0F2F7"/>
<path d="M3320.01 947.881C3407.66 957.002 3488.44 971.668 3574.32 982.347C3597.21 985.194 3620.47 987.739 3644 990V861.648C3644 861.648 3639.67 853.44 3618 861.648C3596.35 869.857 2907.47 893.115 2812.15 893.115C2754.5 893.115 2687.31 908.133 2622.14 921.516C2855.36 926.297 3097.88 924.765 3320.01 947.881Z" fill="#469237"/>
<path d="M3574.3 978.778C3488.41 965.943 3407.6 948.315 3319.92 937.351C3097.7 909.566 2855.13 926.936 2621.83 921.189C2579.25 931.692 2537.52 941.36 2499.86 944.608C2406.53 952.656 2292.46 965.441 2213.81 993.739C2237.42 994.322 2261.06 994.837 2284.61 995.342C2380.11 997.387 2475.62 999.433 2571.11 1001.48C2652.02 1003.21 2733.79 1005 2811.5 1013.73C2982.4 1032.94 3124.12 1084.58 3301.05 1092.79C3359.3 1095.49 3418.46 1093.26 3476.89 1095.36C3535.73 1097.48 3591.25 1103.82 3644 1113V987.977C3620.46 985.259 3597.2 982.2 3574.3 978.778Z" fill="#458637"/>
<path d="M3301.1 1087.56C3124.22 1079.72 2982.54 1030.42 2811.68 1012.09C2733.98 1003.75 2652.22 1002.04 2571.32 1000.39C2475.85 998.437 2380.37 996.484 2284.91 994.531C2261.35 994.049 2237.73 993.558 2214.12 993C2212.4 993.585 2210.71 994.165 2209.03 994.763C2135.85 1021.03 1892.48 1047.28 1729.73 1037C1792.03 1041.33 2053.26 1058.94 2160.85 1057.56C2283.45 1055.99 2387.45 1073.26 2452.45 1077.97C2517.42 1082.68 3059.05 1112.51 3054.72 1176.87C3054.38 1181.83 3049.34 1186.53 3040.32 1191H3644V1106.85C3591.24 1098.09 3535.75 1092.04 3476.91 1090.02C3418.49 1088.01 3359.35 1090.14 3301.1 1087.56Z" fill="#3D7E31"/>
<path d="M2452.97 1072.95C2387.96 1068.57 2283.95 1052.52 2161.31 1053.98C2053.7 1055.26 1792.41 1038.9 1730.1 1034.87C1717.73 1034.15 1705.81 1033.23 1694.48 1032.1C1534.07 1016.05 446.386 950.393 338.04 935.804C229.694 921.213 0 911 0 911V1178H3074.73C3083.73 1173.85 3066.43 1166.91 3062.45 1162.5C2995.84 1088.42 2517.95 1077.33 2452.97 1072.95Z" fill="#4C934D"/>
<path d="M454.451 1068.03C645.625 1060.5 839.098 1048.69 1029.18 1058.85C1139.61 1064.76 1245.21 1077.94 1352.87 1088.08C1571.29 1108.66 1800.1 1116.78 2026.53 1112C2178.19 1108.8 2331.49 1099.9 2480.89 1109.21C2570.55 1114.8 2655.36 1126.77 2741.98 1136.35C2847.17 1147.98 2955.3 1156.09 3064.21 1163C3063.81 1162.66 3063.44 1162.33 3063.14 1162.01C2996.5 1088.26 2518.53 1077.22 2453.5 1072.86C2388.49 1068.5 2284.45 1052.52 2161.8 1053.97C2054.15 1055.25 1792.81 1038.95 1730.49 1034.95C1718.12 1034.22 1706.19 1033.31 1694.86 1032.18C1664.42 1029.15 1600.6 1024.34 1516.44 1018.44C1459.18 1019.26 1401.94 1020.04 1344.75 1020.7C912.37 1025.7 471.326 1023.37 59.6689 978.775C39.6853 976.611 19.8188 974.325 0 972V1064.75C145.923 1076.91 303.422 1073.98 454.451 1068.03Z" fill="#5BA249"/>
<path d="M1343.38 1020.14C1400.52 1019.47 1457.7 1018.69 1514.89 1017.87C1155.73 992.655 425.496 947.481 337.771 935.706C229.511 921.173 0 911 0 911V971.411C19.8029 973.738 39.6448 976.023 59.608 978.189C470.849 1022.8 911.448 1025.14 1343.38 1020.14Z" fill="#5EA64C"/>
<path d="M2741.37 1135.07C2654.77 1125.06 2569.98 1112.56 2480.33 1106.72C2330.96 1097 2177.7 1106.3 2026.08 1109.64C1799.7 1114.63 1570.93 1106.14 1352.57 1084.65C1244.94 1074.06 1139.36 1060.3 1028.95 1054.12C838.919 1043.5 645.489 1055.84 454.353 1063.71C303.36 1069.92 145.894 1072.98 0 1060.28V1178H3074.73C3083.08 1174 3068.8 1167.49 3063.52 1162.91C2954.63 1155.69 2846.51 1147.22 2741.37 1135.07Z" fill="#6BB155"/>
<path d="M3644 1360.62C3611.62 1370.91 3559.31 1372.93 3520.67 1365.7C3502.13 1362.23 3487.06 1356.96 3470.48 1352.46C3433.84 1342.51 3389.91 1336.31 3345.53 1331.46C3225.55 1318.35 3099.16 1314.27 2973.9 1310.27C2802.33 1304.8 2630.78 1299.32 2459.22 1293.84C2335.59 1289.89 2211.71 1285.94 2087.59 1286.44C1954.95 1286.98 1820.69 1292.56 1690.71 1283.39C1688.55 1279.67 1702.31 1277.51 1713.07 1276.82C2064.45 1254.16 2425.97 1264.11 2782.38 1254.78C3078.19 1247.04 3347.5 1225.99 3644 1229.36V1360.62Z" fill="#397C39"/>
<path d="M1690.56 1277.77C1679.37 1278.47 1665.06 1280.63 1667.3 1284.36C1802.44 1293.55 1942.03 1287.95 2079.92 1287.42C2208.99 1286.91 2337.77 1290.87 2466.29 1294.83C2489.78 1295.55 2513.26 1296.28 2536.75 1297C2425.95 1287.64 2316.65 1276.56 2212.27 1262C2037.13 1263.63 1862.67 1267.07 1690.56 1277.77Z" fill="#469237"/>
<path d="M2935.44 1251.83C3046.02 1256.09 3156.57 1260.34 3267.14 1264.6C3394.78 1269.51 3541.34 1272.63 3644 1248.01V1228.08C3406.44 1226.79 3171.4 1241.34 2935.44 1251.83Z" fill="#469237"/>
<path d="M3438.11 1351.12C3442.54 1352.07 3446.9 1353.05 3451.14 1354.08C3469.41 1358.5 3486.04 1363.68 3506.47 1367.09C3549.09 1374.21 3608.3 1371.24 3644 1361.13V1351C3629.72 1351.22 3615.47 1351.4 3601.25 1351.51C3546.81 1351.96 3492.41 1351.79 3438.11 1351.12Z" fill="#469237"/>
<path d="M3266.02 1265.17C3155.59 1260.12 3045.14 1255.06 2934.68 1250C2880.24 1252.16 2825.77 1254.09 2771.25 1255.56C2585.41 1260.55 2398.17 1260.08 2211.74 1261.93C2310.7 1276.63 2414.36 1287.81 2519.46 1297.26C2666.34 1302.07 2813.22 1306.89 2960.08 1311.7C3083.59 1315.75 3208.21 1319.87 3326.49 1333.13C3365.66 1337.53 3404.45 1343.02 3438.05 1351.34C3486.64 1352.03 3535.27 1352.21 3583.95 1351.74C3596.65 1351.62 3631.23 1350.24 3644 1350.01V1250.32C3540.03 1275.07 3393.51 1271.01 3266.02 1265.17Z" fill="#458637"/>
<path d="M2565.99 1182.55H2558.32V1281.29H2565.99V1182.55Z" fill="#634C30"/>
<path d="M2589.12 1132.67C2594.17 1132.9 2598.57 1132.52 2601.95 1132.01C2604.82 1131.58 2605.89 1128.02 2603.75 1126.07C2589.46 1113.09 2581.1 1093.94 2576.53 1079.74C2575.74 1077.28 2577.83 1074.9 2580.38 1075.29C2582.26 1075.57 2584.08 1075.74 2585.73 1075.83C2588.76 1075.99 2590.54 1072.45 2588.56 1070.16C2575.51 1055.12 2568.84 1037.99 2565.47 1025.54C2564.56 1022.15 2559.75 1022.15 2558.83 1025.54C2555.47 1037.99 2548.79 1055.12 2535.75 1070.16C2533.76 1072.45 2535.55 1076 2538.57 1075.83C2540.23 1075.74 2542.04 1075.57 2543.93 1075.29C2546.48 1074.9 2548.56 1077.28 2547.77 1079.74C2543.2 1093.94 2534.84 1113.09 2520.56 1126.07C2518.41 1128.02 2519.49 1131.58 2522.35 1132.01C2525.73 1132.52 2530.14 1132.9 2535.19 1132.67C2537.95 1132.55 2539.71 1135.57 2538.26 1137.92C2529.64 1151.88 2517.88 1168.8 2506.17 1179.03C2504.03 1180.9 2504.98 1184.41 2507.76 1184.98C2512.02 1185.85 2518.75 1186.01 2528.63 1183.13C2529.78 1182.79 2531.02 1183.09 2531.9 1183.9C2535.77 1187.48 2547.39 1196.93 2562.16 1196.93C2576.92 1196.93 2588.54 1187.48 2592.41 1183.9C2593.29 1183.09 2594.53 1182.79 2595.68 1183.13C2605.55 1186.01 2612.28 1185.85 2616.54 1184.98C2619.32 1184.41 2620.28 1180.9 2618.14 1179.03C2606.43 1168.81 2594.67 1151.88 2586.05 1137.92C2584.6 1135.57 2586.36 1132.55 2589.12 1132.67Z" fill="#1F421E"/>
<path d="M2418.37 1190.12H2411.39V1279.97H2418.37V1190.12Z" fill="#634C30"/>
<path d="M2431.32 1206.17C2433.12 1206.2 2434.76 1206.09 2436.17 1205.94C2438.33 1205.69 2439.23 1203.07 2437.67 1201.56C2430.37 1194.49 2425.92 1184.62 2423.36 1176.95C2422.77 1175.16 2424.24 1173.37 2426.11 1173.6C2426.34 1173.63 2426.56 1173.65 2426.78 1173.68C2429.03 1173.9 2430.46 1171.27 2429.02 1169.53C2422.82 1162 2419.3 1153.7 2417.33 1147.14C2416.59 1144.7 2413.16 1144.7 2412.43 1147.14C2410.45 1153.7 2406.94 1162 2400.73 1169.53C2399.29 1171.27 2400.72 1173.9 2402.97 1173.68C2403.19 1173.65 2403.42 1173.63 2403.64 1173.6C2405.51 1173.37 2406.99 1175.16 2406.39 1176.95C2403.83 1184.62 2399.38 1194.49 2392.08 1201.56C2390.53 1203.07 2391.43 1205.69 2393.58 1205.94C2394.99 1206.09 2396.63 1206.2 2398.44 1206.17C2400.48 1206.14 2401.77 1208.34 2400.69 1210.08C2396.07 1217.46 2390.01 1226.08 2383.91 1231.71C2382.32 1233.18 2383.19 1235.88 2385.35 1236.11C2387.71 1236.36 2391.03 1236.2 2395.49 1234.93C2396.34 1234.69 2397.25 1234.91 2397.91 1235.5C2400.32 1237.68 2406.76 1242.7 2414.88 1242.7C2422.99 1242.7 2429.44 1237.68 2431.85 1235.5C2432.5 1234.91 2433.41 1234.69 2434.26 1234.93C2438.73 1236.2 2442.05 1236.36 2444.41 1236.11C2446.56 1235.88 2447.44 1233.18 2445.84 1231.71C2439.74 1226.08 2433.69 1217.46 2429.07 1210.08C2427.98 1208.34 2429.27 1206.14 2431.32 1206.17Z" fill="#ABD43C"/>
<path d="M2597.1 987.044H2591.5V1059.06H2597.1V987.044Z" fill="#634C30"/>
<path d="M2618.44 981.465C2620.5 981.486 2622.39 981.375 2624.05 981.202C2626.92 980.901 2628.16 977.365 2626.1 975.347C2616.95 966.389 2611.34 953.994 2608.06 944.276C2607.26 941.881 2609.2 939.452 2611.71 939.743C2611.78 939.751 2611.84 939.757 2611.91 939.765C2614.97 940.104 2616.91 936.562 2614.96 934.176C2607.32 924.794 2602.91 914.505 2600.38 906.277C2599.39 903.051 2594.8 903.051 2593.81 906.277C2591.28 914.505 2586.87 924.794 2579.23 934.176C2577.28 936.563 2579.23 940.104 2582.29 939.765C2582.35 939.758 2582.41 939.751 2582.48 939.743C2584.99 939.452 2586.93 941.88 2586.13 944.276C2582.86 953.994 2577.24 966.389 2568.09 975.347C2566.03 977.365 2567.27 980.901 2570.14 981.202C2571.8 981.376 2573.69 981.487 2575.75 981.465C2578.49 981.438 2580.2 984.404 2578.75 986.722C2572.92 996.016 2565.35 1006.78 2557.69 1013.93C2555.52 1015.97 2556.71 1019.63 2559.67 1019.89C2562.65 1020.14 2566.73 1019.88 2572.15 1018.36C2573.29 1018.04 2574.52 1018.33 2575.4 1019.12C2578.55 1021.94 2586.76 1028.28 2597.1 1028.28C2607.43 1028.28 2615.65 1021.94 2618.79 1019.12C2619.67 1018.33 2620.9 1018.04 2622.04 1018.36C2627.46 1019.88 2631.54 1020.14 2634.52 1019.89C2637.48 1019.63 2638.67 1015.97 2636.5 1013.93C2628.84 1006.78 2621.27 996.016 2615.44 986.722C2613.99 984.404 2615.7 981.437 2618.44 981.465Z" fill="#234F23"/>
<path d="M2515.42 992.795H2509.82V1064.81H2515.42V992.795Z" fill="#634C30"/>
<path d="M2525.93 1005.66C2527.23 1005.68 2528.42 1005.61 2529.46 1005.5C2531.25 1005.31 2532.05 1003.11 2530.76 1001.84C2525.03 996.236 2521.52 988.478 2519.47 982.399C2518.97 980.907 2520.19 979.394 2521.76 979.575C2521.8 979.58 2521.84 979.584 2521.88 979.588C2523.81 979.803 2524.99 977.565 2523.76 976.057C2519 970.202 2516.25 963.788 2514.67 958.656C2514.05 956.634 2511.18 956.634 2510.56 958.656C2508.98 963.789 2506.23 970.203 2501.48 976.057C2500.25 977.565 2501.43 979.803 2503.36 979.588C2503.4 979.584 2503.44 979.58 2503.48 979.575C2505.04 979.394 2506.26 980.907 2505.76 982.399C2503.72 988.478 2500.2 996.236 2494.48 1001.84C2493.19 1003.11 2493.98 1005.31 2495.78 1005.5C2496.82 1005.61 2498.01 1005.68 2499.31 1005.66C2501.01 1005.64 2502.04 1007.53 2501.13 1008.97C2497.49 1014.78 2492.75 1021.51 2487.97 1025.97C2486.6 1027.26 2487.42 1029.55 2489.3 1029.7C2491.16 1029.84 2493.69 1029.67 2497.04 1028.73C2497.74 1028.53 2498.49 1028.71 2499.04 1029.19C2500.99 1030.95 2506.14 1034.94 2512.62 1034.94C2519.1 1034.94 2524.25 1030.95 2526.2 1029.19C2526.74 1028.71 2527.5 1028.53 2528.2 1028.73C2531.54 1029.67 2534.08 1029.84 2535.93 1029.7C2537.81 1029.55 2538.64 1027.26 2537.26 1025.97C2532.48 1021.51 2527.75 1014.78 2524.1 1008.97C2523.2 1007.53 2524.23 1005.64 2525.93 1005.66Z" fill="#ABD43C"/>
<path d="M1036.31 1069.64H1031.66V1129.55H1036.31V1069.64Z" fill="#634C30"/>
<path d="M1045.05 1080.35C1046.14 1080.36 1047.12 1080.3 1047.99 1080.21C1049.48 1080.05 1050.15 1078.22 1049.07 1077.17C1044.31 1072.5 1041.39 1066.05 1039.68 1060.99C1039.27 1059.75 1040.28 1058.5 1041.59 1058.65C1041.62 1058.65 1041.65 1058.65 1041.69 1058.66C1043.29 1058.84 1044.27 1056.97 1043.25 1055.72C1039.29 1050.85 1037 1045.51 1035.69 1041.24C1035.18 1039.56 1032.79 1039.56 1032.27 1041.24C1030.96 1045.51 1028.67 1050.85 1024.71 1055.72C1023.69 1056.97 1024.67 1058.83 1026.28 1058.66C1026.31 1058.65 1026.35 1058.65 1026.38 1058.65C1027.68 1058.5 1028.7 1059.75 1028.28 1060.99C1026.58 1066.05 1023.66 1072.5 1018.9 1077.17C1017.82 1078.22 1018.48 1080.05 1019.98 1080.21C1020.84 1080.3 1021.83 1080.36 1022.91 1080.35C1024.33 1080.33 1025.18 1081.9 1024.43 1083.1C1021.4 1087.93 1017.46 1093.52 1013.48 1097.24C1012.34 1098.31 1013.03 1100.21 1014.59 1100.34C1016.13 1100.46 1018.24 1100.32 1021.02 1099.53C1021.61 1099.37 1022.24 1099.51 1022.69 1099.92C1024.31 1101.38 1028.59 1104.7 1033.98 1104.7C1039.37 1104.7 1043.66 1101.38 1045.28 1099.92C1045.73 1099.51 1046.36 1099.37 1046.94 1099.53C1049.73 1100.32 1051.83 1100.46 1053.38 1100.34C1054.94 1100.21 1055.63 1098.31 1054.48 1097.24C1050.51 1093.52 1046.57 1087.93 1043.54 1083.1C1042.78 1081.9 1043.64 1080.33 1045.05 1080.35Z" fill="#19381F"/>
<path d="M1063.08 1090.61H1058.43V1150.51H1063.08V1090.61Z" fill="#634C30"/>
<path d="M1071.83 1101.31C1072.91 1101.33 1073.9 1101.27 1074.76 1101.18C1076.26 1101.02 1076.92 1099.19 1075.84 1098.14C1071.08 1093.47 1068.16 1087.02 1066.46 1081.96C1066.04 1080.72 1067.06 1079.46 1068.36 1079.61C1068.39 1079.62 1068.43 1079.62 1068.46 1079.63C1070.07 1079.8 1071.04 1077.94 1070.02 1076.69C1066.07 1071.82 1063.78 1066.48 1062.47 1062.21C1061.95 1060.53 1059.56 1060.53 1059.05 1062.21C1057.74 1066.48 1055.45 1071.82 1051.49 1076.69C1050.47 1077.94 1051.45 1079.8 1053.05 1079.63C1053.09 1079.62 1053.12 1079.62 1053.15 1079.61C1054.45 1079.46 1055.47 1080.72 1055.05 1081.96C1053.35 1087.02 1050.43 1093.47 1045.67 1098.14C1044.6 1099.19 1045.25 1101.02 1046.75 1101.18C1047.62 1101.27 1048.6 1101.33 1049.68 1101.31C1051.1 1101.3 1051.96 1102.87 1051.2 1104.07C1048.17 1108.9 1044.23 1114.49 1040.26 1118.21C1039.11 1119.28 1039.8 1121.18 1041.36 1121.3C1042.9 1121.43 1045.02 1121.28 1047.8 1120.5C1048.38 1120.33 1049.01 1120.48 1049.46 1120.89C1051.08 1122.34 1055.36 1125.67 1060.76 1125.67C1066.15 1125.67 1070.43 1122.34 1072.05 1120.89C1072.5 1120.48 1073.13 1120.33 1073.72 1120.5C1076.5 1121.28 1078.61 1121.43 1080.15 1121.3C1081.71 1121.18 1082.4 1119.28 1081.26 1118.21C1077.28 1114.49 1073.34 1108.9 1070.31 1104.07C1069.56 1102.87 1070.41 1101.3 1071.83 1101.31Z" fill="#ABD43C"/>
<path d="M1202.69 1084.04H1199.06V1130.74H1202.69V1084.04Z" fill="#634C30"/>
<path d="M1209.5 1092.39C1210.34 1092.4 1211.11 1092.35 1211.79 1092.28C1212.95 1092.16 1213.47 1090.73 1212.63 1089.91C1208.92 1086.28 1206.64 1081.24 1205.32 1077.3C1204.99 1076.34 1205.78 1075.36 1206.8 1075.47C1206.82 1075.48 1206.85 1075.48 1206.88 1075.48C1208.13 1075.62 1208.89 1074.17 1208.09 1073.19C1205.01 1069.4 1203.23 1065.24 1202.2 1061.91C1201.8 1060.6 1199.94 1060.6 1199.54 1061.91C1198.52 1065.24 1196.73 1069.4 1193.65 1073.19C1192.85 1074.17 1193.61 1075.62 1194.87 1075.48C1194.89 1075.48 1194.92 1075.48 1194.94 1075.47C1195.96 1075.36 1196.75 1076.34 1196.42 1077.3C1195.1 1081.24 1192.82 1086.28 1189.11 1089.91C1188.27 1090.73 1188.79 1092.16 1189.95 1092.28C1190.63 1092.35 1191.4 1092.4 1192.24 1092.39C1193.34 1092.37 1194.01 1093.6 1193.42 1094.53C1191.06 1098.3 1187.99 1102.66 1184.89 1105.55C1184 1106.39 1184.53 1107.87 1185.75 1107.97C1186.95 1108.06 1188.6 1107.95 1190.77 1107.34C1191.22 1107.21 1191.71 1107.33 1192.06 1107.64C1193.33 1108.78 1196.67 1111.37 1200.87 1111.37C1205.07 1111.37 1208.41 1108.78 1209.67 1107.64C1210.02 1107.33 1210.51 1107.21 1210.97 1107.34C1213.14 1107.95 1214.78 1108.06 1215.98 1107.97C1217.2 1107.87 1217.74 1106.39 1216.85 1105.55C1213.75 1102.66 1210.67 1098.3 1208.31 1094.53C1207.73 1093.6 1208.4 1092.37 1209.5 1092.39Z" fill="#234F23"/>
</svg>
