<svg width="501" height="80" viewBox="0 0 501 80" fill="none" xmlns="http://www.w3.org/2000/svg">
<path d="M96.1774 61.7569C95.0196 61.7626 94.1999 61.527 93.6985 61.0503C93.257 60.5734 93.0337 59.8159 93.0286 58.7578L92.8587 23.9229C92.8537 22.8848 93.0895 22.1251 93.5662 21.6237C94.0428 21.1023 94.84 20.8389 95.9779 20.8334L110.73 20.7614C116.34 20.7341 120.478 21.8917 123.145 24.2544C125.811 26.617 127.146 30.124 127.169 34.8152C127.191 39.4665 125.891 42.9864 123.247 45.355C120.644 47.7033 116.517 48.8813 110.868 48.9089L105.158 48.9367L105.206 58.6785C105.211 59.7166 104.975 60.4763 104.498 60.9777C104.021 61.4592 103.204 61.7027 102.026 61.7085L96.1773 61.737L96.1774 61.7569ZM109.847 40.2099C111.484 40.2019 112.759 39.7565 113.633 38.8739C114.547 37.991 115 36.6712 114.992 34.8946C114.983 33.0979 114.517 31.7427 113.594 30.8688C112.712 29.9947 111.452 29.5617 109.795 29.5698L105.044 29.5929L105.096 40.253L109.847 40.2299L109.847 40.2099Z" fill="#08060B"/>
<path d="M141.497 62.4343C137.724 62.4527 134.684 61.2697 132.397 58.8653C130.129 56.4209 128.994 53.0127 128.973 48.601C128.956 45.2273 129.701 42.289 131.225 39.7463C132.77 37.2034 134.957 35.2563 137.765 33.8851C140.613 32.4738 143.883 31.7592 147.556 31.7413C150.611 31.7264 153.287 32.0527 155.626 32.7201C158.005 33.3473 160.165 34.275 162.148 35.523L162.265 59.5981C162.269 60.3567 162.132 60.8564 161.853 61.0973C161.575 61.3382 161.017 61.4607 160.178 61.4648L154.05 61.4947C153.61 61.4968 153.271 61.4386 153.031 61.32C152.79 61.1615 152.59 60.9229 152.428 60.6043L151.641 58.8114C150.489 60.0548 149.076 60.9799 147.442 61.5469C145.788 62.1139 143.833 62.4229 141.497 62.4343ZM145.969 54.2475C147.526 54.2399 148.762 53.8546 149.637 53.0918C150.511 52.3289 150.945 51.2288 150.938 49.8314L150.893 40.4489C150.132 40.0933 149.173 39.9183 147.995 39.924C145.859 39.9345 144.166 40.6814 142.896 42.1848C141.665 43.6681 141.057 45.7672 141.07 48.4422C141.089 52.3149 142.715 54.2634 145.969 54.2475Z" fill="#08060B"/>
<path d="M170.639 61.3938C169.481 61.3995 168.641 61.164 168.16 60.6872C167.678 60.2105 167.435 59.453 167.43 58.395L167.313 34.3998C167.309 33.6812 167.427 33.2015 167.665 32.9608C167.943 32.6799 168.502 32.5374 169.34 32.5334L175.528 32.5032C176.008 32.5009 176.367 32.579 176.608 32.7375C176.888 32.8559 177.049 33.0947 177.09 33.4538L177.398 35.249C178.511 34.1256 179.984 33.2401 181.777 32.5725C183.611 31.8849 185.665 31.5355 187.901 31.5246C191.155 31.5087 193.774 32.4142 195.8 34.2609C197.825 36.0477 198.836 38.7379 198.853 42.3112L198.931 58.2614C198.936 59.2995 198.7 60.0592 198.224 60.5606C197.787 61.0419 196.989 61.2853 195.812 61.291L189.983 61.3195C188.825 61.3251 187.985 61.0896 187.444 60.6132C186.962 60.1364 186.719 59.379 186.714 58.321L186.64 43.1493C186.634 41.9515 186.37 41.0944 185.849 40.5579C185.327 40.0414 184.507 39.7859 183.37 39.7915C182.172 39.7973 181.195 40.1215 180.48 40.7638C179.804 41.4059 179.469 42.2859 179.474 43.4238L179.547 58.3359C179.552 59.374 179.316 60.1337 178.84 60.6352C178.403 61.1164 177.606 61.3598 176.428 61.3656L170.639 61.3938Z" fill="#08060B"/>
<path d="M220.25 62.0504C214.64 62.0778 210.302 60.8013 207.235 58.2011C204.168 55.6009 202.633 51.8353 202.608 46.8446C202.593 43.7903 203.279 41.1119 204.685 38.7694C206.071 36.4269 208.098 34.6203 210.727 33.3299C213.416 32.0391 216.567 31.3849 220.22 31.3671C222.995 31.3536 225.312 31.6018 227.211 32.1116C229.13 32.6213 230.851 33.4114 232.333 34.5022C232.774 34.7795 232.995 35.1378 232.997 35.577C232.999 35.8964 232.841 36.3164 232.524 36.837L230.07 41.121C229.793 41.6814 229.455 41.9625 229.056 41.9644C228.816 41.9656 228.436 41.8078 227.915 41.4909C226.834 40.8174 225.814 40.3233 224.834 40.0087C223.914 39.6937 222.735 39.5398 221.338 39.5466C219.342 39.5563 217.708 40.2031 216.477 41.4868C215.285 42.7702 214.695 44.5498 214.706 46.7857C214.717 49.0814 215.344 50.8351 216.588 52.0667C217.832 53.2585 219.551 53.849 221.707 53.8385C222.985 53.8322 224.162 53.6468 225.198 53.2824C226.234 52.918 227.29 52.4138 228.385 51.7696C228.942 51.4475 229.341 51.2859 229.58 51.2847C229.94 51.283 230.26 51.5609 230.542 52.1185L233.28 56.7366C233.482 57.1349 233.583 57.4538 233.584 57.6933C233.586 58.0527 233.348 58.3932 232.87 58.7149C231.199 59.8011 229.346 60.6087 227.353 61.1574C225.379 61.7459 223.005 62.037 220.25 62.0504Z" fill="#08060B"/>
<path d="M248.857 61.9109C245.084 61.9292 242.044 60.7463 239.756 58.3419C237.488 55.8975 236.354 52.4893 236.332 48.0775C236.316 44.7038 237.06 41.7656 238.585 39.2228C240.13 36.68 242.316 34.7329 245.124 33.3617C247.972 31.9504 251.223 31.2358 254.916 31.2178C257.97 31.2029 260.647 31.5293 262.986 32.1966C265.344 32.8239 267.525 33.7516 269.507 34.9996L269.625 59.0746C269.628 59.8332 269.491 60.333 269.213 60.5739C268.934 60.8148 268.376 60.9373 267.538 60.9414L261.409 60.9713C260.97 60.9734 260.63 60.9152 260.39 60.7966C260.15 60.638 259.949 60.3995 259.788 60.0808L259 58.288C257.849 59.5313 256.436 60.4565 254.801 61.0234C253.147 61.5905 251.192 61.8995 248.857 61.9109ZM253.328 53.7241C254.886 53.7165 256.121 53.3312 256.996 52.5683C257.871 51.8055 258.305 50.7054 258.298 49.308L258.252 39.9255C257.492 39.5699 256.533 39.3949 255.355 39.4006C253.239 39.4109 251.526 40.1579 250.255 41.6613C249.025 43.1446 248.416 45.2437 248.429 47.9187C248.448 51.7915 250.075 53.74 253.328 53.7241Z" fill="#08060B"/>
<path d="M307.412 58.4513C307.693 58.7693 307.835 59.128 307.837 59.5272C307.838 59.8866 307.72 60.1866 307.482 60.4273C307.243 60.6281 306.924 60.7295 306.525 60.7314L297.202 60.7769C296.643 60.7796 296.224 60.7417 295.944 60.6632C295.704 60.5446 295.443 60.3263 295.162 60.0083L286.923 48.909L286.967 57.8123C286.972 58.8504 286.736 59.6102 286.259 60.1116C285.782 60.593 284.965 60.8365 283.787 60.8423L277.958 60.8707C276.8 60.8764 275.961 60.6409 275.479 60.1641C275.038 59.6872 274.814 58.9296 274.809 57.8716L274.639 23.0367C274.634 21.9986 274.87 21.2388 275.347 20.7374C275.824 20.2161 276.621 19.9527 277.759 19.9471L283.588 19.9187C284.746 19.9131 285.585 20.1685 286.067 20.6852C286.548 21.162 286.792 21.9194 286.797 22.9774L286.895 43.1397L294.79 32.7603C295.028 32.4397 295.286 32.2189 295.565 32.0977C295.844 31.9766 296.263 31.9147 296.822 31.912L306.145 31.8665C306.544 31.8646 306.844 31.9829 307.045 32.2215C307.285 32.4199 307.406 32.6988 307.408 33.0581C307.41 33.4574 307.272 33.8174 306.994 34.1382L296.771 45.9863L307.412 58.4513Z" fill="#08060B"/>
<path d="M326.951 61.5301C323.577 61.5466 320.56 61.0023 317.919 59.8972C315.299 58.7921 313.234 57.1053 311.686 54.8769C310.158 52.6285 309.366 49.8974 309.351 46.6435C309.326 41.553 310.744 37.6533 313.626 34.9442C316.507 32.2351 320.653 30.8774 326.063 30.851C331.353 30.8252 335.372 32.1232 338.119 34.7649C340.907 37.3665 342.302 40.993 342.325 45.6443C342.335 47.6406 341.461 48.663 339.685 48.6716L320.82 48.7636C320.828 50.4804 321.473 51.8148 322.756 52.7268C324.078 53.6387 326.076 54.0881 328.711 54.0753C330.348 54.0673 331.725 53.9208 332.801 53.6361C333.918 53.3112 335.053 52.8465 336.168 52.2422C336.647 52.0403 336.965 51.9389 337.125 51.9381C337.485 51.9363 337.785 52.1744 338.027 52.6524L340.082 56.4953C340.284 56.8935 340.385 57.1925 340.386 57.3921C340.388 57.7514 340.15 58.092 339.672 58.4137C338.04 59.4997 336.168 60.2874 334.094 60.7966C332.04 61.2657 329.646 61.517 326.951 61.5301ZM331.491 42.7426C331.483 41.2254 331.038 40.0298 330.156 39.1956C329.273 38.3615 327.954 37.9487 326.177 37.9574C324.42 37.9659 323.065 38.4117 322.151 39.2945C321.237 40.1375 320.783 41.3175 320.791 42.7947L331.491 42.7426Z" fill="#08060B"/>
<path d="M363.043 61.354C359.67 61.3705 356.474 61.0467 353.476 60.3825C350.458 59.6786 348.038 58.6922 346.175 57.4037C345.494 56.9678 345.153 56.5103 345.15 56.0312C345.149 55.7118 345.267 55.3719 345.505 55.0114L348.436 50.3057C348.753 49.8251 349.072 49.584 349.391 49.5824C349.591 49.5814 349.931 49.7195 350.411 49.9966C351.892 50.8279 353.593 51.4983 355.472 52.0082C357.351 52.5181 359.228 52.7685 361.065 52.7595C362.961 52.7503 364.337 52.4641 365.213 51.9008C366.129 51.3374 366.583 50.4368 366.577 49.1792C366.571 47.9814 366.068 47.0456 365.066 46.3518C364.105 45.6777 362.264 44.8283 359.584 43.7833C355.524 42.2859 352.342 40.5846 350.057 38.7192C347.811 36.8137 346.661 34.2041 346.645 30.9102C346.625 26.9377 348.028 23.8964 350.873 21.8064C353.717 19.6964 357.505 18.6398 362.236 18.6167C365.53 18.6007 368.326 18.8865 370.665 19.474C373.043 20.0214 375.044 20.89 376.686 22.0997C377.368 22.6155 377.709 23.0929 377.712 23.5321C377.713 23.8116 377.595 24.1316 377.357 24.4921L374.425 29.1977C374.068 29.6786 373.75 29.9197 373.471 29.921C373.271 29.922 372.931 29.7839 372.45 29.5068C370.107 28.001 367.349 27.2359 364.135 27.2515C362.418 27.2599 361.082 27.5459 360.166 28.1094C359.251 28.6728 358.796 29.5933 358.802 30.8909C358.807 31.7692 359.05 32.4867 359.532 33.0633C360.013 33.6199 360.655 34.1159 361.455 34.5512C362.296 34.9463 363.596 35.4591 365.316 36.0895L366.456 36.5032C369.436 37.6465 371.757 38.7731 373.459 39.8428C375.181 40.8725 376.505 42.1836 377.391 43.7364C378.277 45.2493 378.725 47.1835 378.736 49.4992C378.754 53.0725 377.43 55.9337 374.746 58.0629C372.121 60.2517 368.214 61.3288 363.043 61.354Z" fill="#08060B"/>
<path d="M391.586 60.3167C390.987 60.3196 390.527 60.222 390.207 60.024C389.887 59.8259 389.645 59.4278 389.483 58.8297L381.59 32.8761C381.509 32.6369 381.469 32.4575 381.468 32.3377C381.465 31.7787 381.863 31.4973 382.662 31.4934L390.607 31.4547C391.126 31.4522 391.506 31.5501 391.746 31.7486C391.986 31.9071 392.148 32.1858 392.229 32.5847L395.55 46.2233L399.588 35.1839C399.786 34.7039 399.984 34.3835 400.183 34.2228C400.421 34.022 400.82 33.9203 401.379 33.9175L405.172 33.899C405.731 33.8963 406.111 33.9943 406.311 34.1929C406.552 34.3515 406.773 34.6698 406.975 35.1479L411.061 46.1477L414.308 32.477C414.426 32.0772 414.584 31.7969 414.783 31.6363C414.982 31.4357 415.341 31.3341 415.86 31.3316L423.865 31.2925C424.663 31.2887 425.064 31.5662 425.067 32.1251C425.067 32.2449 425.028 32.4248 424.949 32.6647L417.251 58.6943C417.094 59.294 416.856 59.6944 416.538 59.8956C416.259 60.0966 415.821 60.1986 415.222 60.2015L409.333 60.2302C408.774 60.2329 408.354 60.1351 408.074 59.9369C407.793 59.6987 407.552 59.3006 407.349 58.7426L403.324 47.8623L399.404 58.7813C399.247 59.3411 399.009 59.7415 398.691 59.9826C398.413 60.1836 397.994 60.2855 397.435 60.2882L391.586 60.3167Z" fill="#08060B"/>
<path d="M440.479 60.9765C436.706 60.9949 433.666 59.8119 431.378 57.4076C429.11 54.9631 427.976 51.555 427.954 47.1432C427.938 43.7695 428.682 40.8313 430.207 38.2885C431.752 35.7457 433.938 33.7986 436.726 32.4275C439.574 31.0162 442.845 30.3015 446.518 30.2836C449.572 30.2687 452.249 30.595 454.588 31.2624C456.966 31.8896 459.127 32.8173 461.089 34.0655L461.207 58.1405C461.21 58.8991 461.073 59.3988 460.795 59.6398C460.516 59.8807 459.958 60.0032 459.12 60.0073L452.991 60.0371C452.552 60.0393 452.212 59.981 451.972 59.8624C451.732 59.7039 451.531 59.4653 451.37 59.1467L450.582 57.3538C449.431 58.5972 448.018 59.5224 446.384 60.0893C444.769 60.6562 442.814 60.9651 440.479 60.9765ZM444.971 52.7897C446.528 52.7821 447.763 52.3968 448.638 51.6339C449.513 50.871 449.947 49.7709 449.94 48.3735L449.894 38.9911C449.134 38.6354 448.175 38.4604 446.997 38.4662C444.861 38.4766 443.168 39.2235 441.897 40.7269C440.667 42.2102 440.038 44.3094 440.051 46.9844C440.07 50.8572 441.717 52.8055 444.971 52.7897Z" fill="#08060B"/>
<path d="M469.619 72.0939C468.462 72.0995 467.642 71.864 467.14 71.3873C466.699 70.9103 466.476 70.1528 466.471 69.0948L466.302 34.6192C468.093 33.3328 470.363 32.2437 473.094 31.3919C475.825 30.5402 478.658 30.1071 481.632 30.0926C493.749 30.0336 499.823 35.1345 499.873 45.4153C499.896 50.0666 498.636 53.7859 496.075 56.5733C493.513 59.3607 489.907 60.7557 485.195 60.7787C483.878 60.7851 482.58 60.6317 481.34 60.3183C480.141 60.0048 479.121 59.5706 478.319 59.0155L478.368 69.0567C478.373 70.0948 478.138 70.8546 477.661 71.356C477.184 71.8374 476.367 72.081 475.189 72.0867L469.619 72.0939ZM482.58 52.6464C484.317 52.638 485.592 51.9929 486.424 50.7112C487.296 49.3894 487.726 47.6106 487.716 45.4147C487.703 42.7996 487.175 40.9855 486.132 39.9525C485.129 38.8794 483.549 38.3481 481.433 38.3584C480.075 38.365 478.978 38.55 478.182 38.9132L478.228 48.4754C478.235 49.8328 478.619 50.889 479.381 51.604C480.143 52.299 481.223 52.653 482.58 52.6464Z" fill="#08060B"/>
<path fill-rule="evenodd" clip-rule="evenodd" d="M37.8931 79.8082C26.4944 79.8638 17.2982 77.1737 10.8462 72.2742C4.35414 67.355 0.866132 60.305 0.827202 52.32C0.789731 44.6343 4.19626 39.0679 8.0707 35.296C11.1107 32.3465 14.4553 30.4537 16.7856 29.3444C16.2387 27.73 15.5695 25.5972 14.9799 23.4041C14.1671 20.4735 13.3717 17.0237 13.3593 14.4885C13.3447 11.4941 13.9889 8.49645 15.7342 6.15225C17.5787 3.66782 20.367 2.33666 23.7407 2.32021C26.3758 2.30736 28.6164 3.27463 30.3613 4.94303C32.0461 6.55184 33.1545 8.6825 33.9438 10.8946C35.3204 14.8006 35.8633 19.7089 36.027 24.6191L39.261 24.6033C39.3768 19.6918 39.8918 14.7784 41.2102 10.8591C41.9579 8.61962 43.0654 6.47815 44.7345 4.87296C46.4831 3.18753 48.7141 2.19845 51.3292 2.1857C54.7029 2.16925 57.5041 3.47317 59.3727 5.9395C61.1408 8.26657 61.8143 11.2777 61.8288 14.2522C61.8412 16.7874 61.0794 20.2248 60.3152 23.1831C59.727 25.3819 59.0787 27.5211 58.5675 29.1407C60.9084 30.2073 64.2914 32.0873 67.34 35.007C71.251 38.741 74.7117 44.2739 74.7492 51.9596C74.7881 59.9446 71.3689 67.0083 64.9052 72.0107C58.5212 76.9527 49.3516 79.7324 37.9331 79.808L37.8931 79.8082Z" fill="#633001"/>
<path d="M23.7544 5.17503C18.8236 5.19907 16.586 8.92313 16.6111 14.0735C16.631 18.1659 19.3059 26.3178 20.3995 29.5066C20.6425 30.224 20.267 31.0044 19.5697 31.2873C15.6247 32.8637 3.99456 38.6898 4.0589 51.8851C4.12664 65.7792 16.0357 76.2218 37.8749 76.1153L37.8949 76.1152L37.9148 76.1151C59.7739 75.9886 71.5607 65.4504 71.493 51.5564C71.4286 38.361 59.7423 32.6486 55.782 31.0908C55.0819 30.8147 54.6988 30.038 54.9349 29.3182C55.9973 26.1189 58.5926 17.9413 58.5726 13.849C58.5476 8.71855 56.2537 4.99662 51.3229 5.02066C44.2161 5.05531 42.5089 15.2249 42.4224 26.1252C42.4259 26.8439 41.8299 27.4457 41.1112 27.4492L34.1243 27.4833C33.4056 27.4868 32.8238 26.8907 32.8003 26.1721C32.6674 15.2928 30.8612 5.14038 23.7544 5.17503Z" fill="#D1884F"/>
<path d="M37.9132 71.683C21.8632 71.7613 4.13384 63.1637 4.05908 51.9248C4.05918 51.9448 4.05928 51.9647 4.05937 51.9847C4.12721 65.8987 16.0561 76.3212 37.9353 76.2146C59.8144 76.1079 71.6411 65.5696 71.5733 51.6555C71.5732 51.6356 71.5731 51.6156 71.573 51.5956C71.6078 62.8348 53.9632 71.6048 37.9132 71.683Z" fill="#FEDC90"/>
<path d="M28.8761 48.3504C28.8946 52.1433 27.1276 54.1283 24.9317 54.139C22.7358 54.1497 20.9495 52.182 20.931 48.3891C20.9125 44.5962 22.6795 42.6112 24.8754 42.6005C27.0713 42.5898 28.8576 44.5574 28.8761 48.3504Z" fill="#633001"/>
<path d="M54.6481 48.2246C54.6666 52.0175 52.8995 54.0025 50.7036 54.0132C48.5077 54.0239 46.7214 52.0563 46.7029 48.2634C46.6844 44.4704 48.4515 42.4855 50.6474 42.4748C52.8433 42.4641 54.6296 44.4317 54.6481 48.2246Z" fill="#633001"/>
</svg>
