<svg width="403" height="566" viewBox="0 0 403 566" fill="none" xmlns="http://www.w3.org/2000/svg">
<path d="M401.392 77.4133C402.215 77.431 403.052 78.3712 402.998 79.5242C402.175 95.0104 400.57 110.301 398.196 125.504C398.061 126.391 397.332 127.047 396.671 127.047C393.691 127.047 390.723 127.153 387.756 127.349C388.363 128.2 388.97 129.034 389.604 129.761C390.723 131.038 391.897 132.245 393.097 133.415C395.673 134.018 397.656 135.668 398.452 140.511C400.017 149.966 396.321 156.299 391.006 160.29C391.667 161.567 392.139 163.075 392.733 164.388C393.191 165.381 393.65 166.374 394.149 167.332C394.729 167.527 395.323 167.705 395.903 167.9C396.51 168.077 397.09 168.982 397.022 169.834C394.81 201.409 392.598 232.984 390.372 264.56L388.646 289.128C388.403 292.57 388.848 297.945 387.068 300.872C386.097 302.45 384.545 303.178 382.9 303.586C383.183 304.526 383.628 305.413 384.127 306.158C384.195 306.246 384.222 306.335 384.235 306.442C384.572 306.442 384.91 306.477 385.247 306.477C386.083 306.477 386.731 307.382 386.744 308.446C387.162 329.662 385.759 350.665 382.495 371.455C382.239 373.052 380.984 373.193 380.189 372.466C380.094 372.715 379.946 372.927 379.716 373.069C370.329 378.764 359.538 377.238 349.448 377.291C337.026 377.362 324.603 377.398 312.18 377.38C287.051 377.327 261.936 377.078 236.82 376.475C237.36 376.493 237.859 376.954 237.845 377.93C237.67 412.521 234.379 447.006 234.46 481.685C234.527 508.152 240.502 541.998 227.756 565.059C227.459 565.591 227.028 565.715 226.65 565.608C226.407 565.839 226.124 566.016 225.814 565.999C214.686 565.449 203.558 564.881 192.43 564.331C191.674 564.296 190.973 563.497 191 562.451C192.322 500.027 191.405 437.409 193.306 375.038C188.127 374.808 182.947 374.559 177.768 374.293C133.458 371.969 89.1757 367.943 44.8123 370.391C44.3402 370.409 44.0704 370.036 43.9895 369.592C43.6928 369.965 43.2071 370.089 42.816 369.61C35.7346 360.971 25.6317 358.523 20.5736 349.086C14.9354 343.871 8.47444 337.538 6.57257 328.97C3.84791 316.677 3.16 302.858 2.10791 290.157C1.51441 282.991 1.04232 275.806 0.678135 268.604C0.529763 265.553 -0.96744 257.908 1.02885 255.176C1.21769 254.928 1.44696 254.732 1.67627 254.573C1.54138 254.147 1.59534 253.597 1.97301 253.384C6.26233 250.83 10.6866 248.79 15.2457 247.388C12.0624 245.65 8.67677 243.468 6.78839 240.453C3.83443 235.734 3.59165 226.669 2.59351 220.869C2.52607 220.443 2.60699 219.999 2.79583 219.645C2.75536 219.538 2.70141 219.432 2.67444 219.308C2.63397 219.166 2.62049 219.024 2.59351 218.846C2.28328 218.811 1.97303 218.563 1.86512 218.066C1.79768 217.818 1.81118 217.551 1.83816 217.303C1.46049 216.771 1.67631 215.653 2.39119 215.512C5.2912 215.015 8.31261 214.341 11.3205 213.879C9.41866 211.893 7.74609 209.764 6.6805 207.511C4.21212 202.296 4.65722 193.515 4.17163 187.59C2.51256 167.226 1.33909 146.826 2.05398 126.32C2.06747 126.089 2.10793 125.894 2.17537 125.699C1.59537 125.468 1.33907 124.227 1.98651 123.765C7.44933 119.987 13.4922 117.291 19.5754 115.801C18.0647 114.541 16.635 113.104 15.2861 111.49C13.6001 109.468 11.1722 106.789 10.2684 103.827C10.0796 103.773 9.91772 103.614 9.83679 103.295C9.62098 102.301 9.87726 101.166 10.0526 100.101C9.79633 99.658 9.86376 98.9662 10.2549 98.6646C10.5112 97.8841 11.361 97.7067 11.7117 98.4518C13.4382 98.3453 15.1647 98.2921 16.8778 98.2389C18.3885 98.1857 19.9666 97.955 21.4773 98.1502C17.7275 95.9328 13.101 92.4382 11.0507 88.2518C8.66329 83.3736 11.7926 74.2912 12.9931 69.4662C13.0605 69.2179 13.1549 69.005 13.2763 68.8454L15.1647 69.005C19.454 74.7702 23.7838 80.4821 27.9922 86.3537C32.1197 85.1652 37.1509 85.662 40.523 85.2717C48.4137 84.367 56.3179 83.4801 64.2222 82.6108C119.943 76.4731 175.637 72.7124 231.573 73.3156C286.97 73.901 342.367 75.87 397.751 77.3246C395.309 74.2203 392.868 71.1159 390.453 67.9584C389.334 66.4861 387.796 64.8009 387.189 62.7963L388.713 61.7143C389.671 64.5703 393.583 68.0294 394.77 69.5017C396.874 72.1093 398.965 74.7702 401.069 77.4133C401.177 77.4133 401.285 77.4133 401.392 77.4133ZM399.666 81.5819L315.134 79.4001C264.471 78.0874 213.755 76.1716 163.092 78.5486C138.017 79.7194 112.956 81.8303 87.9348 84.3315C75.6333 85.5555 63.3454 86.8504 51.0439 88.1809C45.2034 88.8195 38.2569 88.1631 32.6187 90.2031C30.2313 89.4936 28.8555 90.824 28.4778 94.1589L26.9671 97.8309C27.075 98.3276 30.0425 99.7289 30.4606 99.9773C33.1718 101.645 35.8964 103.33 38.6076 104.997C39.8485 105.76 39.3764 108.12 38.2434 108.598C34.7095 110.089 31.4992 112.022 28.4238 114.435C41.8988 115.517 55.3737 116.617 68.8487 117.752C70.4268 117.894 70.9394 121.087 69.2398 121.53C59.5282 124.156 49.8165 126.799 40.1183 129.442C35.5727 130.684 30.5955 131.34 26.1983 133.256C20.5736 135.686 21.855 141.469 21.5987 148.547C21.1131 161.94 20.6141 175.333 20.1285 188.726C19.6968 200.433 16.7429 225.303 30.2313 225.8C31.8769 225.853 32.0252 228.674 30.5955 229.383C27.9652 230.696 22.0303 232.151 20.3308 235.237C18.2266 239.016 20.2229 244.745 22.961 246.608C25.8476 248.559 30.7708 248.719 34.0215 249.446C38.0141 250.351 42.0202 251.114 46.0532 251.77C47.4156 251.983 47.9955 254.75 46.4039 255.194C40.7253 256.808 35.0467 258.404 29.3681 260.019C26.9806 260.693 24.3503 261.012 22.0573 262.076C18.4019 263.797 18.6717 263.442 18.348 268.551C17.4712 282.246 19.1168 297.04 19.4675 310.788C19.7777 323.542 17.4712 342.416 25.4564 351.729C31.0811 358.293 38.6616 360.847 44.0165 368.031C44.1109 368.156 44.1783 368.28 44.2188 368.422C44.3537 368.227 44.556 368.067 44.8123 368.049C100.519 362.284 156.618 369.734 212.352 371.615C214.213 371.686 216.075 371.721 217.936 371.792C217.936 371.686 217.95 371.561 217.963 371.455C218.098 370.018 219.771 369.947 219.717 371.455C219.717 371.579 219.703 371.703 219.703 371.845C244.751 372.608 269.813 372.981 294.874 373.14C309.064 373.229 323.267 373.211 337.471 373.247C350.447 373.282 366.484 376.528 378.705 369.912C379.056 369.717 379.366 369.788 379.636 369.983C382.724 350.328 384.114 330.425 383.777 310.38C376.142 310.273 368.589 309.44 361.035 307.843C359.578 307.541 359.578 304.277 361.035 303.958C366.579 302.805 372.109 301.634 377.653 300.464C382.158 299.523 383.534 300.446 385.341 292.641C386.07 289.483 385.84 285.439 386.07 282.104C387.149 266.901 388.214 251.699 389.28 236.497C390.345 221.294 391.411 206.092 392.477 190.89C392.827 185.905 395.35 174.729 392.692 171.022C391.505 169.372 386.11 168.947 384.343 168.379C381.551 167.492 378.759 166.623 375.98 165.736C374.2 165.168 374.753 161.957 376.385 161.78C382.549 161.141 389.995 159.492 393.704 152.094C395.174 149.185 396.671 143.828 395.363 140.493C393.92 136.839 390.143 137.442 387.634 137.158C376.614 135.97 365.608 134.799 354.588 133.628C352.928 133.451 352.402 130.205 354.183 129.637C365.675 125.983 377.356 123.677 389.172 123.056C393.596 122.825 394.743 123.712 396.118 117.965C396.82 115.02 397.022 111.33 397.386 108.279C398.438 99.4274 399.167 90.5224 399.666 81.5819ZM392.301 166.747C392.045 166.374 391.789 165.984 391.546 165.594C390.777 164.334 389.86 162.951 389.347 161.425C387.594 162.525 385.732 163.412 383.844 164.086C386.663 164.973 389.482 165.86 392.301 166.747ZM390.022 133.078C389.59 132.688 389.145 132.262 388.713 131.837C387.513 130.595 386.016 129.193 384.91 127.561C378.314 128.147 371.772 129.193 365.27 130.719C371.88 131.446 378.489 132.174 385.098 132.901C386.784 133.078 388.457 133.043 390.022 133.078ZM383.021 306.406C382.536 305.839 382.09 305.218 381.753 304.455C381.672 304.277 381.591 304.082 381.497 303.869C380.418 304.065 379.352 304.171 378.462 304.348L372.284 305.661C375.845 306.069 379.42 306.3 383.021 306.406ZM235.525 377.93C235.62 377.007 236.173 376.511 236.726 376.475C234.109 376.404 231.492 376.369 228.875 376.298C227.203 437.781 226.69 499.3 227.243 560.819C232.234 548.49 232.881 534.778 232.571 520.871C232.234 505.491 231.614 490.164 231.694 474.767C231.843 442.766 232.301 409.683 235.525 377.93ZM200.752 560.961L224.33 562.078C223.642 500.116 224.235 438.136 226.043 376.209C223.871 376.156 221.713 376.049 219.541 375.996C218.044 414.135 215.873 452.043 215.711 490.324C215.697 490.98 214.928 490.98 214.928 490.324C214.281 452.487 214.308 413.638 217.572 375.925C212.689 375.766 207.806 375.606 202.924 375.429C200.968 435.67 200.32 495.77 201.386 556.065C201.386 556.526 201.13 556.739 200.873 556.739C200.604 556.739 200.334 556.526 200.32 556.065C199.336 528.534 198.823 500.914 198.823 473.277C198.823 440.602 199.538 407.891 201.035 375.34C199.012 375.269 196.989 375.198 194.965 375.109C196.112 407.696 196.085 440.442 195.626 473.206C195.222 502.404 194.466 531.585 193.886 560.642L200.752 560.961ZM57.8421 120.732C46.4849 119.845 35.1276 118.958 23.7703 118.053C23.6354 118.036 23.514 118 23.3926 117.947C23.3792 117.947 23.3792 117.947 23.3657 117.947C23.2173 118.248 22.988 118.479 22.6373 118.55C16.2303 120.04 10.228 122.187 4.14467 124.989C9.3512 126.887 14.5712 128.75 19.7778 130.701C19.9801 130.79 20.1419 130.932 20.2768 131.092C20.3173 131.074 20.3443 131.038 20.3713 131.021C32.875 127.615 45.3518 124.173 57.8421 120.732ZM16.4866 260.125C23.7973 258.067 31.0945 255.992 38.3918 253.899C32.0927 252.692 25.8476 251.185 19.6294 249.357C19.508 249.482 19.3326 249.553 19.1438 249.446C18.9954 249.375 18.8471 249.287 18.6987 249.216C13.708 250.351 8.86564 252.001 4.11771 254.342C7.82703 255.211 13.1415 260.125 15.5289 262.254C15.5289 262.094 15.5289 261.952 15.5154 261.793C15.5019 261.065 15.947 260.267 16.4866 260.125ZM33.6574 106.594C30.3122 104.873 25.7936 102.408 23.1364 99.3565C23.1903 99.9064 22.9745 100.527 22.5024 100.669C20.6815 101.201 18.7392 100.829 16.8778 100.776C15.2996 100.722 13.7079 100.669 12.1298 100.563C12.1972 101.148 12.2512 101.716 12.2917 102.301C12.3052 102.319 12.2917 102.337 12.2917 102.372C14.0047 104.323 15.2861 107.304 16.8913 109.361C18.5234 111.49 20.3173 113.423 22.1113 115.304C22.2327 115.286 22.3406 115.286 22.4485 115.322C22.5564 114.949 22.7183 114.594 23.0015 114.328C26.3736 111.1 29.8806 108.581 33.6574 106.594ZM17.9298 231.778C20.4117 230.554 22.8801 229.33 25.362 228.088C22.8936 226.705 21.0996 224.31 19.8047 221.348C18.0917 219.928 16.1494 218.367 14.2475 216.664C10.9158 217.161 7.70562 217.268 4.40096 217.445C4.44142 217.747 4.6977 218.03 4.6977 218.332V218.35C4.6977 218.243 5.18329 218.421 5.2912 218.935C5.38562 219.325 5.10234 219.645 4.98095 219.911C9.1219 223.742 13.2763 227.556 17.3768 231.459C17.5252 231.601 17.6196 231.76 17.7005 231.938C17.7815 231.885 17.8489 231.831 17.9298 231.778ZM23.1903 89.1742C23.8513 88.4292 24.6201 87.8439 25.4699 87.3826C21.8145 82.5754 18.2266 77.6794 14.6387 72.8012C13.3573 77.5197 11.6577 84.0477 13.7215 87.5245C15.5289 90.5756 18.321 92.8817 20.9782 95.0281C20.7489 93.2188 21.3424 91.2497 23.1903 89.1742ZM19.3057 133.77C19.2382 133.752 19.1977 133.77 19.1303 133.752C14.2205 132.014 9.31076 130.187 4.41446 128.395C3.91538 144.768 4.54933 161.088 5.70933 177.408C6.27585 185.391 5.89817 195.945 7.89445 203.591C8.87911 207.316 11.3745 210.58 14.1801 213.507C15.3266 213.401 16.4596 213.347 17.5926 213.383C16.9182 209.214 16.7563 204.779 16.8643 200.753C17.4712 178.419 18.4829 156.086 19.3057 133.77ZM16.8778 216.186C17.4308 216.7 17.9838 217.214 18.5233 217.711C18.3615 217.126 18.2131 216.505 18.0782 215.884C17.6735 215.99 17.2824 216.097 16.8778 216.186ZM18.6447 344.261C18.1457 342.469 17.7815 340.5 17.5791 338.265C15.5154 314.3 16.0685 289.448 15.5829 265.287C15.5829 265.269 15.5694 265.269 15.5694 265.269C12.3726 263.584 9.24329 260.498 5.99258 259.22C2.53954 257.854 3.21397 258.617 2.75536 261.97C2.4856 263.939 2.94419 266.6 3.03861 268.604C3.48373 278.024 4.13119 287.408 4.99445 296.774C5.89817 306.725 6.24886 318.611 8.73073 328.19C10.3763 334.54 14.5038 339.667 18.6447 344.261ZM17.4173 246.342C16.9317 242.262 16.7294 238.271 16.8913 234.137C16.7024 234.137 16.5001 234.102 16.2843 233.907C12.5884 230.572 8.94656 227.166 5.2912 223.778C5.92515 228.532 6.51865 233.818 8.28563 237.596C10.0796 241.446 14.0722 243.929 17.4173 246.342Z" fill="#6A4623"/>
<path d="M315.134 79.4002L399.666 81.582C399.167 90.5225 398.438 99.4275 397.386 108.279C397.022 111.33 396.82 115.02 396.118 117.965C394.742 123.712 393.596 122.825 389.172 123.056C377.356 123.677 365.675 125.983 354.183 129.637C352.402 130.205 352.928 133.451 354.587 133.628C365.607 134.799 376.614 135.97 387.634 137.158C390.143 137.442 393.92 136.839 395.363 140.493C396.671 143.828 395.174 149.185 393.704 152.095C389.995 159.492 382.549 161.142 376.385 161.78C374.753 161.958 374.2 165.168 375.98 165.736C378.759 166.623 381.551 167.492 384.343 168.379C386.11 168.947 391.505 169.372 392.692 171.022C395.349 174.73 392.827 185.905 392.476 190.89C391.411 206.092 390.345 221.294 389.28 236.497C388.214 251.699 387.148 266.901 386.069 282.104C385.84 285.439 386.069 289.483 385.341 292.641C383.534 300.446 382.158 299.523 377.653 300.464C372.109 301.634 366.579 302.805 361.035 303.958C359.578 304.278 359.578 307.542 361.035 307.843C368.588 309.44 376.142 310.273 383.776 310.38C384.114 330.425 382.724 350.328 379.635 369.983C379.366 369.788 379.055 369.717 378.705 369.912C366.484 376.529 350.446 373.282 337.471 373.247C323.267 373.211 309.064 373.229 294.874 373.14C269.813 372.981 244.751 372.608 219.703 371.845C219.703 371.704 219.717 371.579 219.717 371.455C219.771 369.947 218.098 370.018 217.963 371.455C217.95 371.562 217.936 371.686 217.936 371.792C216.075 371.721 214.213 371.686 212.352 371.615C156.618 369.734 100.519 362.284 44.8121 368.049C44.5558 368.067 44.3535 368.227 44.2186 368.422C44.1782 368.28 44.1107 368.156 44.0163 368.032C38.6614 360.847 31.0809 358.293 25.4562 351.729C17.4711 342.416 19.7776 323.542 19.4674 310.788C19.1167 297.04 17.4711 282.246 18.3478 268.551C18.6716 263.442 18.4018 263.797 22.0572 262.076C24.3502 261.012 26.9804 260.693 29.3679 260.019C35.0465 258.404 40.7251 256.808 46.4038 255.194C47.9954 254.75 47.4154 251.983 46.0531 251.77C42.02 251.114 38.014 250.351 34.0214 249.446C30.7707 248.719 25.8474 248.559 22.9609 246.608C20.2227 244.745 18.2264 239.016 20.3306 235.237C22.0302 232.151 27.9651 230.696 30.5953 229.383C32.0251 228.674 31.8767 225.853 30.2311 225.8C16.7427 225.303 19.6967 200.433 20.1283 188.726C20.6139 175.333 21.113 161.94 21.5986 148.547C21.8548 141.469 20.5734 135.686 26.1981 133.256C30.5953 131.34 35.5725 130.684 40.1181 129.442C49.8163 126.799 59.528 124.156 69.2397 121.53C70.9392 121.087 70.4267 117.894 68.8485 117.752C55.3736 116.617 41.8986 115.517 28.4237 114.435C31.4991 112.022 34.7093 110.089 38.2433 108.599C39.3763 108.12 39.8484 105.76 38.6074 104.998C35.8963 103.33 33.1716 101.645 30.4605 99.9774C30.0423 99.729 27.0748 98.3277 26.9669 97.831L28.4777 94.159C28.8553 90.8241 30.2311 89.4937 32.6186 90.2032C38.2567 88.1632 45.2033 88.8196 51.0438 88.181C63.3452 86.8505 75.6332 85.5556 87.9346 84.3316C112.956 81.8304 138.017 79.7195 163.092 78.5487C213.755 76.1717 264.471 78.0875 315.134 79.4002ZM394.742 143.349C395.242 143.332 395.228 142.374 394.742 142.356C369.883 140.955 344.984 140.724 320.111 139.358C319.598 139.323 319.612 140.369 320.111 140.405C344.903 142.427 369.91 144.201 394.742 143.349ZM372.203 363.331C372.999 363.189 373.053 361.592 372.203 361.628C351.809 362.249 331.576 364.2 311.141 363.508C290.787 362.816 270.473 360.705 250.268 357.406C249.755 357.317 249.62 358.506 250.146 358.594C269.947 362.178 289.843 364.466 309.819 365.3C330.43 366.169 351.701 366.719 372.203 363.331ZM357.096 155.926C357.717 155.979 357.703 154.738 357.096 154.649C342.057 152.733 326.99 152.307 311.896 152.964C311.316 152.982 311.303 154.17 311.896 154.17C326.977 153.762 342.043 154.489 357.096 155.926ZM352.362 98.2745C353.131 98.2922 353.117 96.7667 352.362 96.6957C311.357 93.343 270.19 81.5998 229.024 87.5601C228.309 87.6665 228.295 89.1566 229.024 89.0502C270.46 83.5334 311.087 96.7312 352.362 98.2745ZM316.671 224.895C317.09 224.825 317.103 223.955 316.671 224.009C301.834 226.066 287.024 228.479 272.214 230.856C271.795 230.909 271.795 231.761 272.214 231.707C287.037 229.525 301.875 227.379 316.671 224.895ZM313.96 349.086C314.743 349.033 314.756 347.454 313.96 347.454C285.135 347.401 256.513 346.674 227.729 344.634C227.054 344.581 227.081 345.911 227.729 346C256.176 349.938 285.378 351.215 313.96 349.086ZM148.929 94.8863C149.577 94.8863 149.577 93.5736 148.929 93.5559C126.35 92.8463 103.73 92.7754 81.1365 92.6867C80.7184 92.6867 80.7184 93.5381 81.1365 93.5559C103.73 94.1945 126.336 94.8686 148.929 94.8863ZM121.548 255.885C122.101 255.815 122.114 254.697 121.548 254.715C100.708 255.726 80.0169 255.815 59.2043 254.147C58.5703 254.094 58.5838 255.371 59.2043 255.442C79.8821 257.925 100.843 258.333 121.548 255.885ZM120.172 101.538C120.806 101.467 120.833 100.19 120.172 100.208C95.178 100.51 70.3862 102.408 45.473 98.4164C44.8796 98.3277 44.893 99.5517 45.473 99.6404C70.1299 103.986 95.3803 103.72 120.172 101.538ZM114.008 267.008C114.628 266.972 114.628 265.748 114.008 265.748C83.8746 265.216 53.7415 264.773 23.6083 264.152C23.0823 264.134 23.0823 265.198 23.6083 265.234C53.5931 267.54 83.996 268.232 114.008 267.008Z" fill="#A38161"/>
<path d="M394.743 142.355C395.228 142.373 395.242 143.331 394.743 143.349C369.911 144.2 344.903 142.426 320.111 140.404C319.612 140.369 319.599 139.322 320.111 139.358C344.984 140.723 369.884 140.954 394.743 142.355Z" fill="#6A4623"/>
<path d="M390.453 67.958C392.868 71.1156 395.309 74.2199 397.75 77.3242C342.367 75.8696 286.97 73.9006 231.573 73.3152C175.636 72.712 119.943 76.4728 64.222 82.6105C56.3178 83.4797 48.4136 84.3666 40.5228 85.2713C37.1507 85.6616 32.1195 85.1648 27.9921 86.3534C23.7837 80.4817 19.4539 74.7698 15.1646 69.0046C62.7517 63.1862 109.907 52.8444 157.683 49.7401C206.565 46.5648 255.367 51.4607 304.114 55.86C331.536 58.3435 358.958 61.2704 386.407 63.1152C386.744 63.133 386.987 62.9911 387.189 62.796C387.796 64.8005 389.334 66.4857 390.453 67.958Z" fill="#6A4623"/>
<path d="M391.546 165.594C391.788 165.984 392.045 166.374 392.301 166.747C389.482 165.86 386.663 164.973 383.844 164.086C385.732 163.412 387.594 162.525 389.347 161.425C389.86 162.951 390.777 164.334 391.546 165.594Z" fill="#6A4623"/>
<path d="M388.713 131.837C389.145 132.263 389.59 132.689 390.022 133.079C388.457 133.043 386.785 133.079 385.099 132.901C378.489 132.174 371.88 131.447 365.271 130.72C371.772 129.194 378.314 128.147 384.91 127.562C386.016 129.194 387.513 130.595 388.713 131.837Z" fill="#6A4623"/>
<path d="M388.713 61.7143L387.189 62.7963C386.987 62.9914 386.744 63.1333 386.407 63.1156C358.958 61.2707 331.536 58.3438 304.114 55.8603C255.367 51.4611 206.566 46.5651 157.684 49.7404C109.908 52.8447 62.7519 63.1866 15.1647 69.005L13.2764 68.8453C13.4113 68.6679 13.5596 68.5437 13.7215 68.4551C13.3978 67.6923 13.5462 66.5215 14.315 66.3619C40.5905 60.916 67.1087 56.8715 93.546 52.9689C125.352 48.2503 157.036 45.5363 188.842 45.1105C187.412 33.9527 186.373 22.7062 185.213 11.4951C185.119 10.6259 185.416 9.59703 186.09 9.36643C189.044 4.00925 192.012 -0.0352464 197.218 0.000231606C206.579 0.0711876 216.007 1.3839 225.382 1.68546C226.056 1.72094 226.501 2.37724 226.623 3.14002C226.92 3.28193 227.149 3.58353 227.122 4.06248C226.164 18.0231 226.124 31.7176 226.218 45.6959C230.427 45.8911 234.621 46.1039 238.83 46.37C288.022 49.5985 337.349 54.0155 386.407 59.7097C386.663 59.7452 386.865 59.8871 387.054 60.0468C387.081 59.8871 387.108 59.7452 387.149 59.5855C387.486 58.468 388.74 58.8937 388.538 60.0822C388.457 60.5789 388.524 61.1289 388.713 61.7143ZM223.723 45.6072C222.981 32.3562 223.763 18.7504 225.382 5.65898C222.711 7.92957 220.081 10.5904 217.235 12.2224H217.221C218.867 13.9963 218.152 18.7149 218.085 21.7483C217.869 29.7486 217.437 37.3941 216.709 45.3411C219.042 45.4121 221.376 45.5185 223.723 45.6072ZM216.007 9.41964C217.626 7.7167 219.326 6.22663 221.052 4.77203C215.333 4.52368 209.627 4.18661 203.908 3.68992C199.066 3.26419 195.734 1.89831 191.337 5.76541C190.083 6.86523 189.031 8.17793 187.884 9.38418C193.374 9.91635 198.864 10.2179 204.367 10.2002C207.321 10.1824 212.622 8.49724 215.684 10.1115C215.711 9.86314 215.805 9.63251 216.007 9.41964ZM215.09 27.4602C215.185 25.0123 215.549 22.2982 215.32 19.8679C215.576 17.4732 214.901 15.3622 213.323 13.5528C212.568 13.5883 211.826 13.6238 211.084 13.6593C207.199 12.9143 202.735 13.8189 198.783 13.677C195.168 13.5528 191.566 13.2513 187.965 12.8965C188.801 23.6108 189.732 34.343 190.299 45.0928C191.661 45.0751 193.023 45.0928 194.385 45.0751C192.578 37.6247 191.459 28.5955 193.064 21.0032C193.226 20.2404 194.062 20.4178 194.089 21.1806C194.318 29.3938 194.062 36.9683 195.465 45.0751C201.642 45.0573 207.807 45.0928 213.998 45.2525C214.429 39.3276 214.847 33.4028 215.09 27.4602Z" fill="#6A4623"/>
<path d="M381.753 304.454C382.09 305.217 382.535 305.838 383.021 306.406C379.42 306.299 375.845 306.069 372.284 305.661L378.462 304.348C379.352 304.17 380.418 304.064 381.497 303.869C381.591 304.082 381.672 304.277 381.753 304.454Z" fill="#6A4623"/>
<path d="M372.203 361.627C373.053 361.592 372.999 363.188 372.203 363.33C351.701 366.719 330.43 366.169 309.819 365.299C289.843 364.466 269.948 362.177 250.147 358.594C249.621 358.505 249.755 357.317 250.268 357.406C270.474 360.705 290.787 362.816 311.141 363.508C331.576 364.2 351.809 362.248 372.203 361.627Z" fill="#6A4623"/>
<path d="M357.096 154.649C357.703 154.737 357.717 155.979 357.096 155.926C342.043 154.489 326.977 153.762 311.897 154.17C311.303 154.17 311.317 152.981 311.897 152.963C326.99 152.307 342.057 152.733 357.096 154.649Z" fill="#6A4623"/>
<path d="M352.362 96.6954C353.117 96.7663 353.131 98.2918 352.362 98.2741C311.087 96.7308 270.46 83.533 229.024 89.0499C228.295 89.1563 228.309 87.6662 229.024 87.5597C270.19 81.5994 311.357 93.3427 352.362 96.6954Z" fill="#6A4623"/>
<path d="M316.671 224.008C317.103 223.955 317.09 224.824 316.671 224.895C301.875 227.379 287.037 229.525 272.214 231.707C271.795 231.76 271.795 230.909 272.214 230.856C287.024 228.479 301.834 226.066 316.671 224.008Z" fill="#A38161"/>
<path d="M313.96 347.455C314.756 347.455 314.743 349.033 313.96 349.087C285.378 351.215 256.176 349.938 227.729 346C227.081 345.911 227.054 344.581 227.729 344.634C256.513 346.674 285.135 347.401 313.96 347.455Z" fill="#6A4623"/>
<path d="M236.726 376.475C236.173 376.51 235.62 377.007 235.525 377.93C232.302 409.682 231.843 442.766 231.695 474.767C231.614 490.164 232.234 505.491 232.571 520.87C232.882 534.778 232.234 548.49 227.243 560.819C226.69 499.3 227.203 437.781 228.875 376.298C231.492 376.369 234.109 376.404 236.726 376.475Z" fill="#6A4623"/>
<path d="M224.33 562.078L200.752 560.961L200.873 556.739C201.13 556.739 201.386 556.526 201.386 556.065C200.32 495.77 200.968 435.67 202.924 375.429C207.806 375.606 212.689 375.766 217.572 375.925C214.308 413.638 214.281 452.487 214.928 490.324C214.928 490.981 215.697 490.981 215.711 490.324C215.872 452.043 218.044 414.135 219.541 375.996C221.713 376.049 223.871 376.156 226.043 376.209C224.235 438.136 223.642 500.116 224.33 562.078ZM209.735 538.947C209.749 539.603 210.531 539.621 210.531 538.947C210.531 519.132 210.221 499.318 210.018 479.503C209.83 459.778 210.329 439.75 209.169 420.078C209.115 419.315 208.292 419.315 208.265 420.078C207.564 439.768 208.548 459.778 208.818 479.503C209.101 499.318 209.25 519.132 209.735 538.947Z" fill="#A38161"/>
<path d="M225.382 5.65912C223.763 18.7505 222.981 32.3563 223.723 45.6073C221.376 45.5187 219.042 45.4122 216.709 45.3413C217.437 37.3942 217.869 29.7487 218.085 21.7484C218.152 18.715 218.867 13.9964 217.221 12.2225H217.235C220.081 10.5905 222.711 7.92971 225.382 5.65912Z" fill="#6A4623"/>
<path d="M221.052 4.77222C219.325 6.22682 217.626 7.71689 216.007 9.41983C215.805 9.6327 215.71 9.86334 215.684 10.1117C212.622 8.49743 207.321 10.1826 204.367 10.2004C198.863 10.2181 193.374 9.91655 187.884 9.38438C189.03 8.17812 190.082 6.86542 191.337 5.7656C195.734 1.8985 199.066 3.26438 203.908 3.69012C209.627 4.18681 215.333 4.52388 221.052 4.77222Z" fill="#6A4623"/>
<path d="M215.319 19.8677C215.549 22.298 215.185 25.012 215.09 27.46C214.847 33.4026 214.429 39.3274 213.998 45.2522C207.806 45.0926 201.642 45.0571 195.464 45.0748C194.062 36.9681 194.318 29.3935 194.089 21.1804C194.062 20.4176 193.225 20.2402 193.064 21.003C191.458 28.5953 192.578 37.6244 194.385 45.0748C193.023 45.0926 191.661 45.0748 190.298 45.0926C189.732 34.3427 188.801 23.6106 187.965 12.8962C191.566 13.251 195.168 13.5526 198.783 13.6768C202.735 13.8187 207.199 12.914 211.084 13.6591C211.826 13.6236 212.568 13.5881 213.323 13.5526C214.901 15.362 215.576 17.4729 215.319 19.8677ZM200.698 39.1677C200.887 32.9236 201.197 26.5021 200.86 20.258C200.819 19.2646 199.754 19.2646 199.7 20.258C199.376 26.5021 199.686 32.9058 199.862 39.1677C199.889 39.8773 200.684 39.8773 200.698 39.1677Z" fill="#A38161"/>
<path d="M210.531 538.947C210.531 539.621 209.749 539.603 209.735 538.947C209.25 519.132 209.101 499.318 208.818 479.504C208.548 459.778 207.564 439.768 208.265 420.078C208.292 419.315 209.115 419.315 209.169 420.078C210.329 439.75 209.83 459.778 210.019 479.504C210.221 499.318 210.531 519.132 210.531 538.947Z" fill="#6A4623"/>
<path d="M194.965 375.109C196.989 375.198 199.012 375.269 201.035 375.34C199.538 407.891 198.823 440.602 198.823 473.277L195.626 473.206C196.085 440.442 196.112 407.696 194.965 375.109Z" fill="#A38161"/>
<path d="M200.86 20.2582C201.197 26.5023 200.887 32.9238 200.698 39.1679C200.684 39.8775 199.889 39.8775 199.862 39.1679C199.686 32.906 199.376 26.5023 199.7 20.2582C199.754 19.2648 200.819 19.2648 200.86 20.2582Z" fill="#6A4623"/>
<path d="M200.873 556.739L200.752 560.961L193.886 560.642C194.466 531.585 195.222 502.405 195.626 473.206L198.823 473.277C198.823 500.915 199.336 528.534 200.32 556.065C200.334 556.526 200.603 556.739 200.873 556.739Z" fill="#A38161"/>
<path d="M148.93 93.5555C149.577 93.5732 149.577 94.8859 148.93 94.8859C126.337 94.8682 103.73 94.1941 81.1368 93.5555C80.7187 93.5377 80.7187 92.6863 81.1368 92.6863C103.73 92.775 126.35 92.8459 148.93 93.5555Z" fill="#6A4623"/>
<path d="M121.548 254.714C122.114 254.697 122.101 255.814 121.548 255.885C100.843 258.333 79.8821 257.925 59.2043 255.442C58.5838 255.371 58.5704 254.094 59.2043 254.147C80.017 255.814 100.708 255.726 121.548 254.714Z" fill="#A38161"/>
<path d="M120.172 100.208C120.833 100.19 120.806 101.467 120.172 101.538C95.3805 103.72 70.1301 103.986 45.4733 99.6402C44.8933 99.5515 44.8798 98.3275 45.4733 98.4162C70.3864 102.407 95.1782 100.509 120.172 100.208Z" fill="#6A4623"/>
<path d="M114.008 265.748C114.628 265.748 114.628 266.972 114.008 267.008C83.9961 268.232 53.5932 267.54 23.6084 265.234C23.0824 265.198 23.0824 264.134 23.6084 264.152C53.7416 264.773 83.8747 265.216 114.008 265.748Z" fill="#A38161"/>
<path d="M23.7702 118.053C35.1274 118.958 46.4847 119.845 57.842 120.732C45.3517 124.173 32.8749 127.614 20.3711 131.02C20.3441 131.038 20.3171 131.073 20.2767 131.091C20.1418 130.932 19.9799 130.79 19.7776 130.701C14.5711 128.75 9.35107 126.887 4.14453 124.989C10.2278 122.186 16.2302 120.04 22.6372 118.55C22.9879 118.479 23.2172 118.248 23.3655 117.947C23.379 117.947 23.379 117.947 23.3925 117.947C23.5139 118 23.6353 118.035 23.7702 118.053Z" fill="#6A4623"/>
<path d="M38.3917 253.899C31.0945 255.992 23.7973 258.067 16.4865 260.125C15.947 260.267 15.5019 261.065 15.5154 261.793C15.5289 261.952 15.5289 262.094 15.5289 262.254C13.1414 260.125 7.82699 255.211 4.11768 254.342C8.8656 252.001 13.7079 250.351 18.6987 249.216C18.847 249.287 18.9954 249.375 19.1438 249.446C19.3326 249.553 19.508 249.482 19.6294 249.357C25.8475 251.185 32.0926 252.692 38.3917 253.899Z" fill="#6A4623"/>
<path d="M23.1364 99.3566C25.7937 102.408 30.3123 104.873 33.6574 106.594C29.8807 108.581 26.3737 111.1 23.0016 114.328C22.7183 114.594 22.5565 114.949 22.4486 115.322C22.3407 115.286 22.2327 115.286 22.1114 115.304C20.3174 113.424 18.5234 111.49 16.8913 109.361C15.2862 107.304 14.0048 104.323 12.2918 102.372C12.2918 102.337 12.3053 102.319 12.2918 102.301C12.2513 101.716 12.1973 101.148 12.1299 100.563C13.708 100.669 15.2997 100.722 16.8778 100.776C18.7392 100.829 20.6816 101.201 22.5025 100.669C22.9746 100.527 23.1904 99.9065 23.1364 99.3566Z" fill="#6A4623"/>
<path d="M25.3619 228.088C22.88 229.33 20.4116 230.554 17.9298 231.778C17.8488 231.831 17.7814 231.885 17.7005 231.938C17.6195 231.76 17.5251 231.601 17.3767 231.459C13.2763 227.556 9.12182 223.742 4.98087 219.911C5.10227 219.645 5.38554 219.325 5.29112 218.935C5.18321 218.421 4.69763 218.243 4.69763 218.35V218.332C4.69763 218.03 4.44134 217.747 4.40088 217.445C7.70554 217.268 10.9158 217.161 14.2474 216.665C16.1493 218.367 18.0916 219.929 19.8046 221.348C21.0995 224.31 22.8935 226.705 25.3619 228.088Z" fill="#6A4623"/>
<path d="M25.47 87.3824C24.6203 87.8436 23.8514 88.4289 23.1905 89.174C21.3426 91.2494 20.7491 93.2185 20.9784 95.0279C18.3212 92.8815 15.5291 90.5754 13.7216 87.5243C11.6579 84.0474 13.3574 77.5195 14.6388 72.8009C18.2267 77.6791 21.8147 82.5751 25.47 87.3824Z" fill="#6A4623"/>
<path d="M19.13 133.753C19.1975 133.77 19.238 133.753 19.3054 133.77C18.4826 156.086 17.471 178.419 16.864 200.753C16.7561 204.78 16.918 209.214 17.5924 213.383C16.4593 213.347 15.3263 213.401 14.1798 213.507C11.3742 210.58 8.87885 207.316 7.89419 203.591C5.89791 195.945 6.27559 185.391 5.70908 177.408C4.54907 161.088 3.91513 144.768 4.4142 128.395C9.3105 130.187 14.2202 132.014 19.13 133.753Z" fill="#6A4623"/>
<path d="M17.5791 338.265C17.7814 340.5 18.1456 342.469 18.6447 344.261C14.5037 339.666 10.3763 334.54 8.73068 328.189C6.24881 318.61 5.89812 306.725 4.9944 296.774C4.13114 287.407 3.48368 278.023 3.03856 268.604C2.94414 266.6 2.48555 263.939 2.75532 261.97C3.21392 258.617 2.53949 257.854 5.99253 259.22C9.24324 260.497 12.3726 263.584 15.5693 265.269C15.5693 265.269 15.5828 265.269 15.5828 265.287C16.0684 289.447 15.5154 314.3 17.5791 338.265Z" fill="#6A4623"/>
<path d="M16.8911 234.137C16.7292 238.27 16.9315 242.262 17.4171 246.342C14.072 243.929 10.0794 241.446 8.28545 237.596C6.51846 233.818 5.92497 228.532 5.29102 223.778C8.94638 227.166 12.5882 230.572 16.2841 233.907C16.4999 234.102 16.7022 234.137 16.8911 234.137Z" fill="#6A4623"/>
</svg>
