<svg width="428" height="113" viewBox="0 0 428 113" fill="none" xmlns="http://www.w3.org/2000/svg">
<path fill-rule="evenodd" clip-rule="evenodd" d="M138.356 79.7265C147.251 82.4979 157.454 86.1474 163.718 76.5781C166.03 73.0475 159.9 69.2936 174.888 64.9312C176.859 64.3574 182.413 68.0482 187.986 64.3961C191.054 62.3858 196.586 68.5339 186.983 71.5337C177.546 74.4814 186.641 81.4756 189.601 77.1897C192.493 73.0009 189.33 84.014 197.798 78.6415C202.506 75.655 201.829 78.676 202.365 72.116C202.458 70.98 204.694 67.5201 205.824 71.9536C206.497 74.5965 214.049 72.5109 213.764 63.5361C213.577 57.6742 225.304 56.1481 223.375 62.5902C222.524 65.4312 216.05 71.2773 224.493 69.5558C225.316 69.3881 226.722 64.5676 229.261 68.4373C231.6 72.0029 248.541 58.3765 240.936 47.7047C240.34 46.8676 243.031 34.3293 249.211 40.7678C254.697 46.4848 255.358 28.8883 257.905 28.7009C265.974 28.1075 255.892 43.3715 255.899 43.4432C261.046 42.9607 259.193 42.5392 262.701 39.2109C263.534 38.421 264.48 35.9585 265.873 38.3987C267.216 40.7481 263.26 47.3309 261.134 49.3481C253.694 56.4065 254.984 72.435 270.029 64.2623C274.927 61.6029 281.054 54.6411 284.571 59.581C287.456 63.6317 277.829 66.4148 277.358 68.1894C276.823 70.2002 282.407 70.2299 277.052 76.8552C273.652 81.061 280.715 80.9039 285.326 78.4408C285.421 78.3904 291.814 75.9783 290.763 77.6382C289.08 80.295 289.71 82.8509 285.995 87.5843C282.347 92.2323 282.049 97.5231 274.96 97.2821C270.292 97.1234 272.296 97.1982 267.603 95.5245C253.671 90.5543 253.716 96.6138 239.933 96.6138C228.9 96.6138 232.457 85.9621 216.019 95.6105C213.623 97.0161 192.646 101.552 191.139 98.5912C190.31 96.961 185.978 104.188 178.738 103.97C174.011 103.828 172.022 107.502 162.934 103.082C157.289 100.336 144.698 90.2555 139.746 86.0274C138.584 85.0342 138.413 79.744 138.356 79.7265ZM293.184 35.5847C287.639 36.674 284.23 46.79 292.377 42.2206C293.566 41.5539 297.75 34.6882 293.184 35.5847ZM250.882 0.807391C245.08 2.17534 256.396 17.0169 255.258 3.98447C255.108 2.2598 252.768 0.390691 251.331 0C250.991 0.432627 251.192 0.734667 250.882 0.807391Z" fill="#AFE1ED"/>
<path fill-rule="evenodd" clip-rule="evenodd" d="M160.526 101.737C166.835 97.8857 171.495 98.0927 175.861 93.4894C179.582 89.5665 186.906 99.2818 196.986 95.5245C203.167 93.2207 205.433 93.7755 211.843 89.0081C217.72 84.6372 217.63 81.3461 225.133 85.3586C230.994 88.4932 247.261 68.2272 251.799 75.2984C253.412 77.8108 244.922 87.7357 254.589 84.7955C258.504 83.6048 257.399 92.4325 268.605 90.5661C271.652 90.0591 276.785 92.5079 280.917 95.2517C281.74 94.4316 282.39 93.4182 283.034 92.3104C278.881 88.6583 277.825 82.7915 271.281 85.4929C268.475 86.6507 258.147 87.8684 260.331 82.5691C262.969 76.1699 256.89 76.3637 255.649 75.4316C253.784 74.0302 258.587 64.5575 251.608 64.1477C247.905 63.9301 241.969 68.3912 239.732 70.7502C225.103 86.174 219.251 67.4145 214.212 78.3655C208.347 91.1107 205.672 84.0395 200.473 87.3365C198.161 88.8032 188.67 91.8173 188.626 91.8464C183.473 95.2915 179.048 80.9347 172.383 88.9226C165.738 96.8861 159.014 91.4223 150.495 94.6662C154.038 97.3697 157.686 100.002 160.526 101.737Z" fill="url(#paint0_linear_1_30558)"/>
<path fill-rule="evenodd" clip-rule="evenodd" d="M374.109 90.7613C380.326 89.3822 380.752 78.5076 388.336 76.7166C389.976 76.3296 408.628 76.3476 403.313 81.6755C400.817 84.1763 387.163 88.2833 397.728 88.588C399.647 88.6432 401.12 85.0596 402.409 87.9622C404.5 92.6648 412.771 86.0146 419.712 88.8651C423.463 90.4051 432.642 92.3219 422.794 95.1656C420.608 95.7967 415.54 92.669 410.812 95.9448C408.627 97.4582 412.514 97.9614 414.07 97.7698C420.053 97.033 415.091 102.447 410.893 102.786C408.959 102.941 410.25 103.264 407.716 102.953C402.908 102.362 398.607 98.212 393.672 100.249C390.8 101.434 381.976 102.632 378.623 102.632C373.186 102.632 371.606 101.497 367.363 106.019C365.66 107.834 372.805 112.358 357.097 110.839C352.155 110.362 353.398 108.229 345.517 109.168C339.68 109.863 335.678 106.123 331.849 107.272C323.255 109.849 321.674 105.299 319.433 105.475C319.364 105.481 312.71 104.472 311.073 104.472C308.189 104.472 298.914 104.316 296.751 104.93C291.906 106.306 281.073 102.435 283.929 95.3184C285.39 91.6785 286.936 92.5719 290.005 91.3053C290.267 91.197 291.374 91.2624 291.51 91.2624C295.059 90.3031 297.651 91.8 300.329 90.9709C303.283 90.0557 304.576 88.7213 305.68 85.7306C306.369 83.8604 305.91 84.3987 307.017 82.3582C308.298 79.996 307.278 86.5778 307.772 86.8867C310.928 88.8651 313.808 82.9002 314.598 80.7004C315.577 77.9773 322.58 71.5064 321.453 78.4024C321.021 81.0507 318.43 81.7153 318.43 84.7416C319.061 84.8876 319.015 85.9121 322.944 85.9121C330.059 85.9121 333.195 83.5191 334.605 76.3009C334.954 74.5157 335.306 64.9682 338.102 68.2466C339.408 69.778 344.353 58.8414 345 65.5139C345.318 68.7944 350.025 65.5028 351.077 62.003C351.864 59.3855 354.72 57.8333 357.693 58.5202C357.817 59.1174 361.946 60.8919 355.883 66.3643C354.103 67.9706 344.626 73.0002 348.817 75.9373C350.584 77.1752 345.353 79.3935 344.012 80.5762C341.864 82.4686 336.258 85.29 340.305 89.758C342.994 92.7269 349.691 88.8179 352.372 87.2068C354.231 86.0894 361.234 81.2594 361.234 86.4132C361.234 88.7998 354.8 91.8197 360.02 95.2892C363.085 97.3265 368.83 93.1155 371.113 91.3048C372.563 90.1571 373 89.2776 374.109 90.7613Z" fill="#CBF2F9"/>
<path fill-rule="evenodd" clip-rule="evenodd" d="M319.435 105.475C321.675 105.299 323.256 109.849 331.851 107.272C335.679 106.123 339.681 109.864 345.519 109.168C353.4 108.229 352.157 110.362 357.098 110.839C372.806 112.358 365.661 107.834 367.364 106.019C371.608 101.497 373.187 102.632 378.625 102.632C381.977 102.632 390.802 101.433 393.673 100.249C393.818 100.189 393.962 100.135 394.106 100.085C395.465 96.8106 395.029 93.7992 389.994 91.722C383.581 89.0764 370.073 98.7152 364.413 101.74C361.609 103.238 360.464 103.366 357.892 104.429C353.611 106.197 343.763 104.671 340.531 102.074C339.313 101.094 331.382 100.471 334.483 98.6632C340.967 94.8832 334.516 92.1005 329.133 94.3157C320.571 97.8393 325.057 89.9798 322.822 89.4665C313.906 87.4181 309.055 95.4591 303.384 100.278C302.494 101.034 300.238 102.847 297.8 104.743C301.025 104.351 308.534 104.472 311.075 104.472C312.712 104.472 319.365 105.481 319.435 105.475Z" fill="url(#paint1_linear_1_30558)"/>
<path fill-rule="evenodd" clip-rule="evenodd" d="M23.9897 99.9585C25.4989 102.281 30.4234 111.017 31.681 111.41C41.9414 114.607 40.309 102.837 53.3882 107.234C64.4459 110.952 79.4345 102.15 86.8003 107.234C89.1152 108.832 95.5622 104.158 100.147 103.136C106.554 101.706 116.597 102.163 122.638 99.5429C126.393 97.9154 137.627 103.132 141.116 105.027C145.357 107.33 151.886 108.883 156.05 106.364C162.149 102.675 167.273 101.848 174.471 102.132C179.083 102.313 175.169 101.85 173.381 100.881C169.98 99.0371 176.796 95.5707 165.107 94.1348C160.276 93.5408 153.316 88.3175 151.731 83.7396C150.797 81.0387 140.225 67.8555 136.32 68.0222C128.788 68.3439 134.476 67.605 131.667 75.714C129.952 80.6634 121.77 74.2558 118.96 74.3762C113.077 74.6279 97.8633 66.4807 91.4233 76.2968C89.6206 79.0439 82.6857 83.6541 79.4997 84.0453C71.3026 85.0534 52.5421 88.4544 44.7219 87.7526C41.771 87.4877 26.4438 90.6207 25.9666 96.1127C25.8413 97.5677 24.2599 100.375 23.9897 99.9585Z" fill="url(#paint2_linear_1_30558)"/>
<path fill-rule="evenodd" clip-rule="evenodd" d="M3.25694 93.9389C-4.55051 99.4983 3.65716 103.463 7.35546 100.546C8.24194 99.8471 12.0443 101.102 13.6803 103.718C15.2272 106.193 22.1715 101.858 30.7635 107.062C34.1863 109.135 45.8439 107.501 33.0185 101.913C30.101 100.641 25.6193 91.9637 34.6906 98.0337C38.8072 100.789 39.6459 94.4347 47.0345 98.9032C55.8288 104.222 61.8531 112.261 73.1465 108.735C82.3532 105.86 59.2234 97.5847 65.5414 93.5238C66.7442 92.7504 68.1886 94.5574 69.8883 92.4346C71.0418 90.9949 82.0349 99.0158 83.8471 91.7376C84.4953 89.1349 91.6811 91.8894 93.4302 95.7788C97.2245 104.215 120.629 109.603 127.568 104.024C133.943 98.899 129.125 95.3706 124.616 97.0305C111.836 101.735 115.528 83.8643 99.593 87.1135C91.664 88.7304 90.4506 75.7707 99.6505 82.3169C100.043 82.5956 109.952 84.1435 103.128 78.1701C100.839 76.1656 111.784 75.0308 115.368 77.3006C119.502 79.9186 122.969 79.9335 127.569 86.0529C132.951 93.2117 153.002 90.4524 139.33 82.1832C133.402 78.5979 127.578 78.0528 128.324 69.3609C128.718 64.7624 112.763 57.5298 118.874 66.1033C120.796 68.7993 114.714 72.3543 106.615 63.9815C105.581 62.9124 97.7585 58.7422 100.482 65.3479C101.278 67.2801 94.3416 68.7977 90.9852 61.3348C86.3065 50.9316 84.1008 60.7371 81.1727 60.9717C75.0974 61.4601 93.8368 67.7116 83.1793 72.2837C80.1727 73.5736 69.8491 66.4647 76.8253 75.7139C79.5447 79.3193 67.2756 81.3338 62.1976 77.9683C59.4538 76.1497 59.5876 83.0399 55.6722 79.5067C55.2831 79.1553 44.176 73.1527 48.2862 80.0896C49.9084 82.8276 40.9846 82.6853 38.1208 80.6432C25.1155 71.3701 33.7117 84.3956 31.0125 85.4106C16.326 90.9344 11.9896 66.289 3.706 75.465C-0.630354 80.2685 22.0117 82.1757 11.9514 86.3284C10.6684 86.8576 4.80539 84.6095 8.15812 88.5356C9.7453 90.3935 21.3179 91.6807 12.8687 97.6977C11.6791 98.5454 4.1222 93.3226 3.25694 93.9389Z" fill="#CBF2F9"/>
<path fill-rule="evenodd" clip-rule="evenodd" d="M163.147 103.184C160.768 103.439 160.875 104.45 159.632 106.311C157.51 109.488 163.63 112.08 167.113 110.701C168.597 110.114 180.908 107.588 182.19 108.442C184.165 109.758 189.028 108.338 191.008 106.77C193.641 104.684 198.116 102.414 201.389 101.978C204.72 101.535 207.773 103.159 210.112 102.341C216.555 100.089 216.221 97.2868 225.131 97.9371C228.128 98.1553 224.8 103.384 224.797 103.469C224.658 106.698 234.302 107.482 236.42 107.482C239.106 107.482 249.283 108.39 249.877 106.493C251.556 101.126 256.757 98.7864 262.082 99.442C275.925 101.145 267.126 106.483 270.318 108.471C274.171 110.87 280.026 111.74 284.402 111.481C288.479 111.24 289.956 113 295.103 113C302.314 113 298.49 109.014 306.238 106.102C311.479 104.131 319.945 111.471 324.048 107.33C326.937 104.413 325.28 97.6552 315.798 101.1C308.084 103.903 307.67 97.2088 304.566 98.4106C294.24 102.408 285.606 96.119 295.857 95.2909C304.243 94.6141 298.54 83.4019 285.992 87.7526C280.375 89.7007 279.789 91.8055 272.783 91.1101C265.106 90.3489 271.994 80.6055 258.987 83.7682C253.437 85.1175 253.931 96.4078 244.387 92.3241C242.11 91.3495 235.105 85.7996 241.683 86.0804C246.366 86.2806 243.608 78.5857 234.675 80.4096C232.234 80.9086 229.835 80.9792 227.304 82.0244C223.492 83.5988 221.54 84.8426 218.805 88.2829C215.413 92.5486 215.527 92.0316 211.085 93.4802C207.36 94.6959 208.414 97.8872 199.214 96.7953C192.211 95.964 204.632 91.383 203.017 88.1295C202.235 86.5572 191.905 88.7367 190.395 88.2967C185.737 86.9404 184.648 92.9117 182.718 95.4719C176.932 103.147 175.077 99.7616 167.656 101.921C167.219 102.048 161.807 103.328 163.147 103.184Z" fill="#DDF6FA"/>
<path fill-rule="evenodd" clip-rule="evenodd" d="M173.603 100.993C176.764 100.788 178.873 100.574 182.72 95.4714C182.991 95.1115 183.246 94.6837 183.496 94.2187C180.201 92.8364 177.626 91.6287 175.861 93.4893C174.611 94.8079 173.336 95.732 172.006 96.4694C173.077 97.9849 171.282 99.742 173.382 100.881C173.452 100.919 173.526 100.956 173.603 100.993ZM244.389 92.3236C252.298 95.7077 253.313 88.5329 256.588 85.2078C256.039 84.7455 255.43 84.5395 254.589 84.7948C244.923 87.7351 253.412 77.8107 251.8 75.2977C249.278 71.3674 243.132 75.8816 237.164 80.1299C244.086 80.0412 245.901 86.2599 241.685 86.0794C235.106 85.7986 242.112 91.349 244.389 92.3236ZM199.216 96.7948C208.416 97.8867 207.362 94.6954 211.088 93.4798C215.529 92.0311 215.416 92.5481 218.808 88.2824C220.259 86.4569 221.49 85.2492 222.895 84.2837C217.577 82.0913 217.068 85.1234 211.844 89.0086C205.474 93.7457 203.196 93.2281 197.103 95.4815C196.891 96.1121 197.401 96.5793 199.216 96.7948Z" fill="url(#paint3_linear_1_30558)"/>
<path fill-rule="evenodd" clip-rule="evenodd" d="M104.841 71.6419C111.509 69.1693 107.444 65.9175 115.876 72.2529C115.901 72.2715 122.628 75.3827 123.061 75.0711C128.88 70.8855 125.235 73.934 128.064 68.4883L128.323 69.3599C128.325 69.3084 128.328 69.2569 128.331 69.2054C128.365 64.6021 112.831 57.6243 118.874 66.1022C120.796 68.7983 114.714 72.3533 106.615 63.9805C105.581 62.9114 97.7585 58.7412 100.482 65.3468C101.278 67.279 94.3416 68.7967 90.9852 61.3338C86.3065 50.9306 84.1008 60.736 81.1727 60.9706C75.0974 61.459 93.8368 67.7106 83.1793 72.2827C80.1727 73.5726 69.8491 66.4637 76.8253 75.7129C79.5447 79.3183 67.2756 81.3328 62.1976 77.9673C59.4538 76.1487 59.5876 83.0388 55.6722 79.5056C55.2831 79.1542 44.176 73.1516 48.2862 80.0885C49.9084 82.8265 40.9846 82.6842 38.1208 80.6421C25.1155 71.3691 33.7117 84.3946 31.0125 85.4096C16.326 90.9334 11.9896 66.288 3.706 75.4639C-0.630354 80.2674 22.0117 82.1747 11.9514 86.3274C10.6684 86.8566 4.80539 84.6085 8.15812 88.5345C9.7453 90.3925 21.3179 91.6797 12.8687 97.6967C11.6797 98.5434 4.12273 93.3205 3.25694 93.9368C-4.55051 99.4962 3.65716 103.46 7.35546 100.544C8.24194 99.845 12.0443 101.1 13.6803 103.716C14.4925 105.015 16.7899 104.438 20.0328 104.349C17.3123 99.9421 14.8296 96.041 21.7951 94.1024C27.0609 92.6373 19.8173 85.0651 30.5469 88.4173C31.6394 88.7586 31.246 90.3754 32.7371 90.385C33.3757 90.3892 34.3593 90.0989 35.9529 89.2878C36.264 89.1296 36.5979 88.9518 36.9578 88.7517C40.3355 86.8757 39.0848 83.9222 44.7063 86.1336C46.1109 86.6862 46.8466 87.2834 47.2485 87.8455C48.5394 89.6525 46.371 91.0942 51.8343 89.507C54.6673 88.6832 57.3283 99.1215 63.2036 91.7902C64.7722 89.833 64.0035 87.9076 63.314 86.3582C62.3086 84.0984 61.4726 82.637 68.3054 83.0388C69.6304 83.1163 70.3602 84.28 71.1544 85.2291C72.2617 86.5525 73.4938 87.4602 76.6379 84.4275C77.562 83.5357 78.6518 82.3031 79.9523 80.6406C81.9382 78.1016 84.6353 80.9447 85.3318 76.6853C86.4916 69.5897 99.49 77.1153 94.4461 67.5699C93.6047 65.979 104.214 71.8739 104.841 71.6419Z" fill="#DDF6FA"/>
<path fill-rule="evenodd" clip-rule="evenodd" d="M180.884 83.8525C185.585 88.553 195.443 79.1854 202.401 82.3142C206.477 84.1471 210.74 73.9074 211.793 70.973C213.012 67.5735 215.252 69.794 215.108 64.1221C215.039 61.4042 219.822 59.3653 217.448 65.0107C214.406 72.2497 227.873 76.5754 232.745 70.361C235.727 66.5576 238.507 68.7987 240.922 60.4021C237.503 66.4174 230.683 70.6051 229.261 68.4372C226.722 64.5675 225.316 69.3874 224.493 69.5557C216.05 71.2772 222.525 65.4311 223.375 62.5901C225.305 56.148 213.577 57.6741 213.763 63.536C214.049 72.5113 206.497 74.5965 205.824 71.9534C204.695 67.52 202.458 70.9794 202.365 72.1159C201.828 78.6759 202.506 75.6549 197.798 78.6414C189.33 84.0139 192.493 73.0003 189.601 77.1896C186.642 81.4755 177.545 74.4813 186.983 71.5336C196.586 68.5338 191.053 62.3863 187.986 64.396C182.413 68.0481 176.859 64.3567 174.888 64.9311C173.375 65.3717 172.078 65.8054 170.965 66.2332C172.87 67.9361 173.393 70.5637 170.967 73.7051C166.558 79.4148 173.343 76.9533 175.926 78.807C182.093 83.2341 178.429 81.3969 180.884 83.8525ZM285.333 81.6453C286.643 82.1857 287.793 81.5222 289.097 81.9654C289.644 80.3437 289.898 79.0044 290.763 77.6386C291.814 75.9782 285.421 78.3908 285.326 78.4412C283.501 79.4158 281.292 80.0295 279.499 80.1547C281.907 80.7286 284.216 81.184 285.333 81.6453ZM254.262 50.6029C250.71 50.2674 253.039 43.2663 248.52 42.9117C243.545 42.522 241.626 43.6893 241.06 45.5908C241.789 42.0422 244.476 35.8341 249.211 40.7682C254.697 46.4852 255.358 28.8888 257.905 28.7014C265.974 28.1079 255.892 43.3719 255.899 43.4436C261.046 42.9611 259.193 42.5396 262.701 39.2113C263.534 38.4214 264.48 35.9589 265.873 38.3991C267.216 40.7486 263.26 47.3314 261.134 49.3486C253.694 56.407 254.984 72.4354 270.029 64.2628C274.927 61.6033 281.054 54.6415 284.571 59.5814C287.456 63.6321 277.829 66.4153 277.357 68.1899C276.823 70.2007 282.407 70.2304 277.052 76.8557C276.161 77.9577 275.988 78.7597 276.302 79.2996C273.201 78.3383 270.828 77.0526 271.956 75.1294C274.445 70.8897 270.469 70.8047 269.701 72.2533C267.223 76.9342 264.122 76.0854 264.265 73.0369C264.411 69.9151 259.576 65.6955 256.851 64.5616C251.232 62.2233 256.323 50.7977 254.262 50.6029Z" fill="#CBF2F9"/>
<path fill-rule="evenodd" clip-rule="evenodd" d="M182.433 103.437C183.443 101.438 185.226 97.7497 186.954 95.5293C188.372 93.708 189.752 92.8751 190.64 94.7728C190.876 95.2766 190.89 95.8117 190.916 96.3526C190.966 97.4281 191.059 98.5263 193.015 99.4553C193.298 99.5891 193.619 99.7196 193.984 99.846C194.084 100.33 203.691 100.386 206.252 98.6994C206.647 98.4388 207.029 98.1962 207.4 97.9706C213.97 93.9644 216.809 95.0765 226.144 87.7499C234.374 81.2908 237.577 94.2065 240.495 94.8015C241.94 95.0961 244.811 95.5521 247.769 95.8207C251.266 96.1386 254.884 96.1955 256.402 95.413C257.34 94.93 258.016 94.2335 258.631 93.57C260.124 91.9594 261.262 90.5453 264.934 92.8523C268.175 94.8886 270.27 97.781 275.969 95.6901C276.625 95.4496 278.323 95.12 280.312 94.8562C280.668 94.809 281.034 94.7638 281.405 94.7219C282.365 94.6125 283.36 94.5239 284.314 94.4708C288.121 94.2584 291.276 94.6157 289.011 96.5315C286.099 98.9935 286.595 104.471 294.362 104.471C295.705 104.471 296.996 104.434 298.24 104.4C300.416 104.341 302.455 104.29 304.407 104.464C306.429 104.643 308.357 105.063 310.247 105.961C315.022 106.868 320.648 110.377 323.851 107.517C323.918 107.458 323.984 107.395 324.048 107.329C326.938 104.412 325.28 97.6547 315.798 101.1C308.972 103.58 307.863 98.6219 305.546 98.2822C305.245 98.2381 304.924 98.2721 304.567 98.4101C294.241 102.408 285.607 96.1185 295.858 95.2904C299.186 95.0218 300.295 93.0938 299.638 91.1377C298.639 88.1651 293.561 85.1276 285.993 87.7521C285.934 87.7722 285.876 87.7929 285.818 87.8131C283.646 88.5812 282.237 89.3695 280.89 89.9959C278.852 90.944 276.957 91.5236 272.783 91.1095C272.778 91.1111 272.773 91.1096 272.769 91.108C272.004 91.031 271.384 90.8643 270.874 90.6297C268.961 89.7496 268.612 87.914 268.005 86.2801C267.203 84.1228 265.951 82.3174 260.057 83.5272C259.716 83.5967 259.36 83.6774 258.987 83.7677C258.036 83.9986 257.263 84.5215 256.587 85.2078C253.312 88.5329 252.297 95.7077 244.388 92.3236C242.11 91.349 235.105 85.7991 241.684 86.0799C245.899 86.2604 244.084 80.0417 237.163 80.1304C236.396 80.1405 235.566 80.2275 234.676 80.4096C232.234 80.9086 229.835 80.9792 227.304 82.0244C225.515 82.7633 224.136 83.4296 222.893 84.2837C221.488 85.2498 220.257 86.4569 218.805 88.2824C215.413 92.5481 215.528 92.0311 211.086 93.4798C207.36 94.6954 208.414 97.8867 199.214 96.7948C197.399 96.5793 196.889 96.1121 197.101 95.4815C197.707 93.6788 204.214 90.5389 203.017 88.1289C202.775 87.6422 201.617 87.5148 200.089 87.5583C196.683 87.6555 191.438 88.6003 190.395 88.2967C187.499 87.4532 185.982 89.4417 184.786 91.6818C184.328 92.5385 183.918 93.433 183.494 94.2192C183.244 94.6842 182.989 95.112 182.717 95.4719C178.871 100.574 176.762 100.788 173.6 100.993C172.006 101.096 170.144 101.197 167.656 101.922C167.3 102.025 163.679 102.884 163.031 103.131C162.879 103.188 162.89 103.212 163.144 103.185C162.27 103.278 161.732 103.474 161.339 103.777C160.662 104.298 160.416 105.134 159.629 106.312C157.507 109.489 163.628 112.081 167.11 110.703C167.844 110.412 171.215 109.649 174.596 109.054C175.997 108.807 177.4 108.59 178.616 108.446C179.418 107.464 180.276 106.081 181.665 104.806C181.785 104.697 182.055 104.186 182.433 103.437Z" fill="white"/>
<path fill-rule="evenodd" clip-rule="evenodd" d="M413.134 97.8064C413.977 98.8187 414.605 99.9271 414.99 101.115C417.203 99.4705 418.014 97.2846 414.071 97.7698C413.811 97.8017 413.486 97.8144 413.134 97.8064ZM331.481 105.139C331.767 103.47 334.493 102.244 337.815 101.176C342.215 99.762 347.662 98.6271 349.873 97.1137C349.873 91.1381 343.832 95.8243 342.602 93.3496C340.141 88.3996 339.089 90.9751 334.49 90.7602C331.633 90.6264 327.456 93.0263 324.532 94.9882C322.546 96.3206 321.139 97.4507 321.114 97.4486C321.362 96.2373 322.448 94.9713 323.72 93.9361C324.899 92.9764 326.239 92.2152 327.219 91.8787C338.69 87.9367 333.793 86.1515 337.385 81.674C348.258 68.1267 337.153 65.3552 335.465 75.6835C334.716 80.2678 333.706 81.6171 332.167 82.5243C333.304 81.0449 334.078 79.0145 334.607 76.3014C334.956 74.5162 335.309 64.9687 338.104 68.2471C339.41 69.7786 344.355 58.8419 345.003 65.5144C345.32 68.795 350.027 65.5033 351.079 62.0035C351.866 59.386 354.722 57.8338 357.696 58.5207C357.819 59.1179 361.948 60.8924 355.886 66.3648C354.105 67.9711 344.629 73.0007 348.82 75.9378C350.586 77.1757 345.356 79.394 344.014 80.5767C341.866 82.4691 336.26 85.2905 340.307 89.7585C342.997 92.7274 349.693 88.8184 352.374 87.2073C354.234 86.0899 361.236 81.2599 361.236 86.4137C361.236 88.8003 354.803 91.8202 360.022 95.2897C363.087 97.327 368.832 93.116 371.115 91.3053C372.564 90.1566 373 89.277 374.11 90.7607C380.327 89.3816 380.752 78.507 388.337 76.716C389.977 76.329 408.629 76.3471 403.313 81.675C400.818 84.1757 387.164 88.2828 397.728 88.5875C399.647 88.6427 401.12 85.0591 402.41 87.9616C404.501 92.6643 412.772 86.014 419.713 88.8646C423.464 90.4045 432.643 92.3213 422.795 95.165C420.642 95.7866 415.692 92.7614 411.026 95.8009C410.149 95.1289 409.155 94.5222 408.059 93.9882C401.723 90.9035 383.962 90.9136 391.806 85.1312C394.693 83.0031 389.665 76.4761 379.634 90.2617C376.584 94.4537 357.376 98.7991 353.552 98.4503C350.561 98.178 344.867 99.9924 340.01 101.8C335.491 103.482 331.696 105.158 331.481 105.139ZM316.098 81.0911C318.355 77.7501 313.02 91.1296 321.114 86.6324C322.272 85.9885 323.005 86.9828 326.01 85.7263C325.08 85.8531 324.062 85.9121 322.947 85.9121C319.017 85.9121 319.064 84.8881 318.432 84.7416C318.432 81.7153 321.023 81.0507 321.455 78.4024C322.582 71.5064 315.579 77.9767 314.6 80.7004C314.339 81.4303 313.846 82.5742 313.19 83.7054C313.904 83.672 314.838 82.9559 316.098 81.0911Z" fill="#DDF6FA"/>
<defs>
<linearGradient id="paint0_linear_1_30558" x1="216.725" y1="87.1104" x2="216.903" y2="115.446" gradientUnits="userSpaceOnUse">
<stop stop-color="#48A1BB"/>
<stop offset="1" stop-color="#6DC4D3"/>
</linearGradient>
<linearGradient id="paint1_linear_1_30558" x1="346.675" y1="98.567" x2="343.248" y2="121.389" gradientUnits="userSpaceOnUse">
<stop stop-color="#2992B6"/>
<stop offset="1" stop-color="#70CACD"/>
</linearGradient>
<linearGradient id="paint2_linear_1_30558" x1="101.001" y1="102.597" x2="113.051" y2="130.166" gradientUnits="userSpaceOnUse">
<stop stop-color="#137DA3"/>
<stop offset="1" stop-color="#56BBC8"/>
</linearGradient>
<linearGradient id="paint3_linear_1_30558" x1="214.427" y1="92.7094" x2="215.477" y2="107.821" gradientUnits="userSpaceOnUse">
<stop stop-color="#106F8F"/>
<stop offset="1" stop-color="#63C3CF"/>
</linearGradient>
</defs>
</svg>
