<svg width="331" height="90" viewBox="0 0 331 90" fill="none" xmlns="http://www.w3.org/2000/svg">
<path fill-rule="evenodd" clip-rule="evenodd" d="M32.7388 72.9444C33.9758 72.9857 40.7087 70.0974 36.9168 66.5002C36.0521 65.6805 33.3863 61.4585 33.9863 60.0172C35.5379 56.2881 37.5053 58.5472 39.6886 60.1424C40.2128 60.5261 43.6162 69.2777 43.6162 61.6138C43.6162 59.4023 47.0512 65.5751 50.151 59.8143C51.5908 57.139 56.564 54.74 56.7592 60.8455C56.8316 63.1266 53.9184 65.8091 59.7285 64.2211C64.6686 62.8709 59.5161 68.6144 62.0077 70.4413C63.7411 71.7123 65.284 76.2399 61.7444 77.8303C55.012 80.8553 54.1064 78.356 48.1999 77.9426C46.9548 77.8557 36.2914 75.2025 35.4065 74.2049C34.4803 73.1627 34.4741 73.0672 33.3561 72.6039C33.3561 72.4264 32.5609 72.9305 32.7388 72.9444Z" fill="url(#paint0_linear_1_30616)"/>
<path fill-rule="evenodd" clip-rule="evenodd" d="M248.906 57.361C253.356 52.6271 248.161 56.607 253.329 53.7115C259.231 50.4045 253.727 38.5008 262.065 38.5008C262.065 41.2778 258.224 49.4597 264.18 46.9091C270.127 44.3623 265.703 30.176 280.194 31.2494C283.378 31.4854 275.245 41.6183 274.755 43.0332C272.727 48.8908 272.546 57.8243 279.788 50.181C281.121 48.7738 284.14 47.5657 286.237 47.5657C290.249 53.431 280.594 53.2185 292.582 57.0094C296.534 58.2593 302.154 67.0929 291.347 69.2934C284.698 70.6474 280.096 70.0177 272.666 71.7625C264.066 73.7817 258.605 77.5664 247.838 78.4096C238.264 79.1592 217.415 83.4442 208.611 81.6816C200.549 80.0672 162.37 84.2307 158.128 82.389C151.344 79.4441 154.173 84.3521 150.47 76.3208C150.54 76.3204 149.733 75.4388 149.667 75.3625C154.509 69.0052 160.001 77.2839 165.577 64.4852C168.079 58.7437 168.786 65.3922 175.048 65.3922C175.697 63.5116 176.395 66.5879 177.136 60.5576C177.301 59.2176 183.259 55.8046 185.743 52.7019C191.183 45.9081 183.153 61.7279 188.721 57.0358C190.696 55.3715 195.867 43.3685 198.234 50.2587C198.373 50.6602 195.175 63.4579 204.329 58.0367C208.003 55.8611 206.481 49.3537 211.987 53.5307C212.972 54.278 224.295 47.3604 219.868 54.8425C218.247 57.5816 210.732 60.8555 211.658 63.5265C216.84 64.6013 214.505 63.2612 214.326 67.8085C214.141 72.4882 224.441 67.3121 224.824 67.584C232.103 72.7635 232.083 52.7326 238.8 53.3057C242.798 53.6467 231.668 65.6675 246.43 58.9691C248.107 58.2085 250.161 56.7393 250.281 54.817L248.906 57.361ZM200.729 0.353696C195.254 4.65446 204.934 9.96576 202.166 16.6689C199.939 22.0628 208.947 25.2009 205.689 11.8867C205.577 11.432 209.598 2.00884 201.511 0.0251274C201.099 -0.0760726 200.994 0.14554 200.729 0.353696Z" fill="#AFE1ED"/>
<path fill-rule="evenodd" clip-rule="evenodd" d="M263.878 70.9803C265.369 65.6498 276.125 66.4944 279.55 62.8613C280.741 61.598 287.525 56.3653 287.294 61.7649C287.231 63.2277 295.905 64.7654 297.377 60.2541C298.133 57.937 301.017 51.606 303.951 54.7768C304.942 55.8478 311.178 52.2386 313.619 51.794C315.399 51.4698 321.166 49.8362 320.693 53.3701C320.188 57.149 308.366 56.901 305.837 60.0905C304.229 62.1188 306.904 65.9976 312.259 62.7237C312.246 62.7208 315.3 60.6752 314.84 61.9164C313.972 64.2598 319.129 62.4162 321.16 62.5207C322.853 62.608 330.651 62.4507 330.651 64.6354C330.651 66.6503 332.131 67.2954 327.78 68.4124C323.609 69.4839 315.579 64.9851 315.669 70.8681C315.7 72.8964 324.245 72.0278 316.035 74.4163C312.301 75.5026 302.152 71.14 295.451 74.4034C289.875 77.118 288.177 74.5981 281.854 75.3741C277.364 75.9252 275.194 81.0437 267.541 80.8001C266.241 80.7584 261.29 81.2341 260.1 80.6874C260.05 80.6648 254.887 80.5603 253.781 80.3334C251.312 79.8264 242.184 79.5948 248.48 75.8658C251.646 73.9914 260.172 71.5295 263.878 70.9803Z" fill="#55A4BF"/>
<path fill-rule="evenodd" clip-rule="evenodd" d="M220.972 82.5363C218.534 81.8591 219.49 76.5252 227.607 77.7152C230.523 78.142 236.337 76.471 238.096 73.964C240.54 70.4791 240.611 68.5343 244.2 65.9189C249.047 62.3846 252.299 61.2354 258.288 61.2354C263.25 61.2354 261.142 64.7198 268.75 59.915C274.679 56.1711 282.492 61.469 280.595 65.1505C280.088 66.1328 281.076 67.4456 277.789 69.5962C276.322 70.5564 273.824 69.7449 272.752 67.7703C272.038 66.4561 268.767 67.1429 269.014 70.1487C269.274 73.3103 257.827 76.0701 254.713 79.7176C254.133 80.3982 246.226 79.826 243.621 80.8356C242.128 81.4145 233.561 81.3382 231.233 82.1953C230.364 82.5152 226.021 82.1699 220.972 82.5363Z" fill="#CBF2F9"/>
<path fill-rule="evenodd" clip-rule="evenodd" d="M270.629 72.2864C270.317 71.5046 269.699 71.0053 268.932 70.7309C267.086 70.0715 264.372 70.7142 262.958 71.849C260.411 73.8931 258.705 73.3847 257.886 72.3641C257.358 71.707 257.198 70.8364 257.42 70.2993C259.397 65.5083 253.021 63.6062 247.915 68.3866C243.72 72.3152 242.936 75.9641 241.265 79.1602C240.885 79.8902 240.457 80.5958 239.933 81.2764C241.659 81.1646 243.089 81.0414 243.621 80.8351C245.348 80.1665 249.401 80.1914 252.11 80.0869C252.783 80.1727 253.374 80.249 253.783 80.333C254.295 80.438 255.68 80.5171 257.023 80.5737C261.891 79.0946 270.594 77.4049 270.84 73.8729C270.883 73.249 270.803 72.7233 270.629 72.2864Z" fill="url(#paint1_linear_1_30616)"/>
<path fill-rule="evenodd" clip-rule="evenodd" d="M10.9068 74.9832C14.6032 74.1616 14.8526 75.8211 18.2704 76.1789C25.6177 76.9487 23.3846 72.7338 29.5271 77.3487C31.0105 78.4634 34.8806 76.3737 37.6466 77.5123C39.0298 78.0821 41.2505 77.6408 43.9915 79.4763C47.334 81.7142 56.6861 83.3066 60.4583 81.6687C63.0089 80.5622 68.5917 81.8241 66.6262 81.9584L66.6521 81.6298C67.6171 81.6298 64.4492 80.0667 63.7816 80.1195C60.2717 80.3967 54.0395 74.6672 53.4698 75.2336C50.7844 77.9037 50.1901 74.5598 48.7743 73.0705C47.2659 71.4849 47.1565 72.7894 47.5047 73.282C50.7575 77.8777 45.4721 74.5971 44.4447 75.0211C42.1828 75.9554 41.7162 72.1703 40.1022 73.2082C36.5881 75.4672 39.5195 69.718 35.2552 66.6215C32.2216 64.4182 32.318 68.9131 30.446 65.7534C28.457 62.3956 28.446 65.0891 28.2407 65.6153C26.4436 70.223 22.8982 64.5687 24.1616 60.2152C24.8891 57.7082 21.9889 54.4334 19.9706 54.1207C16.1164 53.5236 16.6953 55.6555 17.4023 58.1999C18.9423 63.741 15.7811 59.5313 14.6958 59.1577C10.6492 57.7649 20.6392 64.5577 13.4348 64.5577C9.4444 64.5577 9.49476 54.4133 4.35754 52.7221C-0.164322 51.2329 4.07984 58.0493 1.97958 57.621C-2.83198 56.6411 2.48798 60.7687 3.69279 61.6138C5.9024 63.1635 9.26214 67.5832 4.84915 65.9563C-1.01997 63.7928 0.719619 66.9088 3.28655 68.0455C9.51395 70.8038 5.9849 72.7563 10.9068 74.9832Z" fill="#CBF2F9"/>
<path fill-rule="evenodd" clip-rule="evenodd" d="M95.8082 77.5511C85.3716 76.7636 86.6311 76.1271 75.8411 79.2389C72.0061 80.3449 68.278 82.638 64.2472 83.896C63.5863 84.1022 63.9292 84.0471 63.1767 84.0471C61.3973 84.1085 56.8294 80.3037 59.8529 76.9598C63.0818 73.3885 58.9038 72.2402 66.2367 68.4862C68.0569 67.5548 73.0934 64.7769 72.0382 62.4181C70.4482 58.8646 67.5667 57.2061 67.2684 53.3403C67.0103 49.9906 67.7317 49.925 70.0267 51.9681C70.2319 52.1509 72.4272 57.1356 74.1658 54.2468C75.0708 52.7437 72.3058 50.5393 75.8406 50.6597C78.4977 50.7504 76.8167 44.7925 75.15 42.9038C72.4224 39.8126 78.5419 42.6534 79.3409 42.6534C86.246 42.6534 80.2445 33.3348 80.2469 33.2864C80.4052 29.5818 87.186 22.0484 89.4364 28.1113C91.235 32.955 79.869 35.1877 89.1213 43.0069C91.9727 45.4161 92.4844 38.7555 92.4844 44.0645C92.4844 48.2247 92.3118 49.9696 96.7142 51.6784C97.86 52.1235 101.228 49.8703 101.095 54.4756C100.931 60.1735 108.273 66.7462 108.938 59.1198C109.226 55.8238 111.588 57.9116 112.162 59.7241C112.936 62.1682 120.546 65.4229 121.943 61.386C122.165 60.7447 123.579 56.3059 123.605 56.2886C125.615 54.9442 125.86 56.2301 129.044 53.3667C130.769 51.8147 130.504 55.1547 127.921 57.9634C126.884 59.0919 127.63 61.5769 131.322 60.2162C132.546 59.7653 134.029 62.8791 133.463 64.822C131.966 69.9659 143.265 70.4666 146.416 70.6014C149.48 70.7328 152.305 65.9961 153.642 67.0018C157.194 65.9347 156.443 66.7107 155.481 70.4503C155.134 71.7966 153.34 75.5343 157.596 73.6614C158.144 73.4201 158.718 77.1516 161.562 75.3232C163.532 74.0575 167.802 84.5454 176.04 74.8312C177.879 72.6623 177.452 66.847 179.954 66.1683C180.264 66.0844 180.379 66.2585 180.408 66.6733C181.689 69.3237 179.105 69.5242 181.314 73.0566C182.864 75.5357 188.339 72.5779 189.471 68.1836C190.709 63.3821 191.273 62.479 195.954 61.5236C199.312 60.8382 196.328 66.0575 195.463 66.9232C193.443 68.9434 194.937 70.6302 198.083 69.3535C201.073 68.1395 196.085 76.0129 203.974 72.7549C204.896 72.3745 219.26 70.9463 218.201 73.0182C217.504 74.3828 218.017 74.518 216.034 75.9794C212.207 78.8005 214.617 78.2514 216.336 82.1214C217.245 84.167 208.423 82.5358 207.574 83.1013C206.406 83.8792 197.126 84.7224 195.212 84.4869C191.236 83.9982 186.363 83.9344 182.358 84.2102C181 84.3037 176.361 83.9972 175.383 84.7627C174.488 85.4629 164.781 86.9166 162.922 86.9166C160.086 86.9166 154.813 87.3781 152.459 86.3512C151.791 86.0596 143.108 83.5924 142.41 83.5924C135.844 83.5924 123.82 84.0044 118.277 82.2332C112.233 80.3013 105.92 78.6633 99.5838 78.318C98.4399 78.2571 96.4072 77.5511 95.8082 77.5511ZM86.8215 10.702C85.0407 12.7586 81.3395 12.2531 81.1438 13.7989C80.8105 16.4253 91.283 15.9165 88.3693 11.0795C88.1328 10.6877 87.0988 10.3816 86.8215 10.702ZM119.452 32.8337C111.605 37.0207 129.39 42.0995 121.218 33.4855C121.093 33.3536 119.823 32.6356 119.452 32.8337ZM147.816 44.9191C147.116 45.9686 145 47.3398 143.945 49.1494C142.46 51.6977 140.77 53.7087 143.528 56.2003C144.424 57.0099 146.494 56.1902 146.494 53.947C146.494 51.3907 147.315 51.5955 149.59 50.0761C151.458 48.829 153.876 46.5786 151.252 44.6174C150.36 43.9503 148.79 44.2002 147.922 44.7949L147.816 44.9191Z" fill="#CBF2F9"/>
<path fill-rule="evenodd" clip-rule="evenodd" d="M93.0891 82.6874C90.5749 82.0894 74.9033 81.5465 73.1349 82.9383C72.7388 83.2496 65.4984 85.075 64.2471 83.8961C66.4936 81.4251 61.012 74.6864 72.6683 74.9828C76.8697 75.0898 78.7431 69.86 77.1143 66.0696C75.6611 62.6873 81.7211 62.67 80.4381 58.3261C79.4913 55.1208 84.3437 48.2123 89.1226 54.9289C89.1466 54.963 93.4329 64.9017 95.304 61.222C95.8373 60.1716 97.7515 61.7846 98.2776 63.0604C100.323 68.0197 103.617 74.6917 109.556 75.4226C116.362 76.2605 115.824 69.2441 119.264 70.26C124.022 71.6648 121.892 71.8437 124.715 74.3392C126.16 75.6159 133.65 72.577 141.092 77.2615C144.001 79.0927 147.937 81.0169 150.294 83.4942C152.275 85.5772 157.692 85.8625 160.166 84.8409C162.291 83.9632 170.166 84.2971 171.043 83.9345C173.269 83.0156 177.656 81.2645 179.969 80.887C182.551 80.4654 186.364 79.8169 189.02 79.8169C193.726 78.3805 194.173 76.6322 200.377 76.3291C208.107 75.9517 203.76 80.8011 207.149 81.8198C209.51 82.5292 205.811 87.6789 202.906 88.1129C200.325 88.4985 197.456 88.8453 194.761 88.7302C191.968 88.6108 193.211 90.5806 188.429 87.4223C184.272 84.6769 178.439 86.7273 174.241 87.2064C171.435 87.5268 166.267 88.2832 163.64 89.1441C160.527 90.1647 151.06 87.8218 147.174 87.9748C145.274 88.0496 142.063 85.8597 138.07 85.8597C134.793 85.8597 130.531 88.1748 125.873 87.9748C122.299 87.8218 118.685 88.4842 115.159 87.9619C112.256 87.5321 111.497 87.7537 108.236 86.805C104.698 85.7753 104.701 87.1024 100.92 84.2491C99.2316 82.9767 95.0397 82.5335 93.0891 82.6874Z" fill="url(#paint2_linear_1_30616)"/>
<path fill-rule="evenodd" clip-rule="evenodd" d="M73.1348 82.9381C74.9027 81.5463 90.5748 82.0887 93.089 82.6873C95.0401 82.5333 99.232 82.9765 100.919 84.2494C104.7 87.1022 104.697 85.7756 108.235 86.8053C111.496 87.754 112.255 87.5324 115.158 87.9621C118.685 88.4845 122.298 87.8221 125.872 87.9751C130.53 88.1746 134.792 85.8599 138.069 85.8599C141.591 85.8599 144.503 87.5631 146.445 87.9147C144.925 86.1022 142.415 84.0451 140.676 83.4432C139.406 83.0034 135.065 80.9367 134.785 80.8748C126.855 79.1156 127.467 82.3209 125.254 83.1156C119.486 85.1852 120.756 76.7409 113.332 78.0047C112.164 78.2033 109.035 81.3405 108.334 82.235C107.113 83.7928 100.728 80.742 99.7878 79.188C97.4003 75.2393 95.8703 75.7275 92.3336 75.5879C88.2688 75.4277 90.4549 73.1275 86.8817 71.6085C84.2735 70.4996 83.2107 72.6992 83.2692 74.6426C83.2822 75.0685 83.5493 78.0599 83.5325 78.1175C82.4054 81.9467 79.7133 80.3649 77.4553 79.857C72.1353 78.6604 71.3569 78.6652 66.7765 81.7175C66.0595 82.1952 65.1904 83.589 64.3506 83.9794C65.8528 84.9856 72.7483 83.2422 73.1348 82.9381Z" fill="url(#paint3_linear_1_30616)"/>
<path fill-rule="evenodd" clip-rule="evenodd" d="M165.267 65.1763C165.872 64.961 166.887 65.3327 169.235 66.8234C170.562 67.6656 172.688 66.8416 174.522 65.3749C168.744 65.019 168.008 58.9072 165.577 64.4842C165.474 64.7221 165.37 64.9523 165.267 65.1763ZM202.166 16.6689C201.439 18.4301 201.91 19.951 202.76 20.7371C203.527 18.8656 203.721 16.868 202.695 14.4838C202.687 14.4632 202.678 14.4426 202.669 14.4224C202.637 15.1534 202.483 15.902 202.166 16.6689ZM200.729 0.353696C197.522 2.87266 199.514 5.73839 201.16 9.02715C201.316 8.10388 201.958 7.84252 201.789 5.8684C201.627 3.97629 202.903 2.54218 204.603 1.54648C203.855 0.885566 202.848 0.353668 201.51 0.0251274C201.099 -0.0760726 200.994 0.14554 200.729 0.353696ZM280.194 31.249C265.703 30.1756 270.128 44.3618 264.18 46.9086C263.187 47.334 262.467 47.4606 261.955 47.3637C262.905 49.8606 265.464 55.0765 268.364 46.8817C271.728 37.3742 279.72 36.3967 272.568 46.4328C272.334 46.7618 271.586 53.1839 273.699 53.0026C273.874 53.8468 277.238 54.6794 279.439 53.5028C282.568 51.8314 284.465 52.2338 286.316 53.6544C286.232 52.3595 288.594 51.0117 286.236 47.5647C284.14 47.5647 281.121 48.7728 279.787 50.18C272.546 57.8233 272.727 48.8899 274.754 43.0323C275.245 41.6179 283.378 31.4845 280.194 31.249ZM249.482 56.7384C250.65 55.4516 250.889 55.017 250.898 54.8894C251.088 54.8587 251.683 54.6338 253.329 53.7115C259.231 50.4045 253.727 38.5008 262.065 38.5008C262.065 40.2097 260.611 43.9647 260.88 46.0069C255.296 44.3642 261.21 56.2885 253.982 56.0247C247.94 55.8041 239.013 67.8373 238.948 60.7106C239.772 61.3226 241.862 61.043 246.431 58.9691C247.257 58.595 248.174 58.0487 248.906 57.3619C249.115 57.1643 249.309 56.9571 249.482 56.7384ZM238.8 53.3048C233.461 52.8496 232.379 65.4147 228.502 67.985C230.439 68.4987 231.56 69.2781 232.884 68.9644C232.967 68.1558 235.931 68.9653 235.931 62.2132C235.931 58.6137 237.876 57.0247 238.647 58.4674C239.172 56.2895 240.708 53.4674 238.8 53.3048ZM201.893 60.7802C204.12 63.9581 214.301 47.9839 208.66 61.4622C207.498 64.2397 211.738 63.6204 210.827 68.0838C210.502 69.6781 212.562 69.9582 214.917 69.3279C214.52 69.0191 214.298 68.5313 214.326 67.8076C214.505 63.2603 216.841 64.6004 211.659 63.5255C210.733 60.8545 218.248 57.5806 219.869 54.8415C224.295 47.3594 212.972 54.277 211.987 53.5297C206.481 49.3527 208.004 55.8602 204.33 58.0358C202.849 58.9125 201.692 59.3125 200.791 59.3657C201.121 59.7341 201.485 60.1979 201.893 60.7802ZM177.696 61.4109C180.474 54.748 183.508 60.9154 185.37 60.8583C192.968 60.6262 188.767 52.7604 196.704 58.0612C197.352 58.4943 197.809 58.1456 198.412 58.0574C197.107 55.594 198.322 50.509 198.235 50.2582C195.868 43.3675 190.697 55.371 188.722 57.0353C183.154 61.7274 191.184 45.9076 185.744 52.7015C183.26 55.8041 177.302 59.2171 177.137 60.5571C176.997 61.6962 176.859 62.5106 176.722 63.0943C177.128 62.5399 177.462 61.9696 177.696 61.4109Z" fill="#CBF2F9"/>
<path fill-rule="evenodd" clip-rule="evenodd" d="M253.881 73.6019C252.233 74.9952 250.891 76.5976 250.779 78.0917C253.204 75.4969 255.701 74.0062 258.145 72.6417C258.556 72.4125 258.965 72.187 259.373 71.9602C262.512 70.2124 265.53 68.4023 268.156 64.4057C269.444 62.4469 275.171 60.9783 279.466 62.9471C279.958 63.173 280.431 63.444 280.877 63.7639C280.839 63.2253 280.643 62.6805 280.321 62.1567C278.58 59.3342 273.147 57.137 268.75 59.914C261.141 64.7189 263.248 61.2344 258.287 61.2344C252.298 61.2344 249.046 62.3836 244.199 65.9179C240.611 68.5333 240.54 70.4786 238.095 73.9631C236.336 76.4705 230.522 78.1415 227.606 77.7142C220.891 76.73 219.077 80.2106 220.032 81.8255C220.231 82.1626 220.551 82.4183 220.972 82.5354C222.743 82.4073 224.426 82.366 225.903 82.3531C226.096 81.8672 226.28 81.4787 226.466 81.167C227.757 78.9972 229.118 80.52 233.945 78.4849C243.03 74.6547 241.384 66.397 254.111 64.7586C258.944 64.1366 255.222 65.7932 261.535 63.9563C265.938 62.6752 265.871 66.9342 258.893 70.3276C258.442 70.5468 257.915 70.8302 257.348 71.1645C256.244 71.8173 254.993 72.6618 253.881 73.6019ZM143.946 49.1499C142.461 51.6981 140.771 53.7091 143.529 56.2008C143.973 56.6022 144.706 56.6032 145.332 56.2286C143.762 53.4857 143.688 49.9317 148.94 48.4707C150.19 48.1225 151.381 47.2256 152.365 46.1302C152.254 45.6213 151.912 45.1105 151.253 44.618C150.361 43.9508 148.791 44.2007 147.923 44.7954L147.816 44.9201C147.116 45.9691 145.001 47.3398 143.946 49.1499ZM118.652 33.3238C120.108 34.7219 121.271 36.3589 121.991 38.181C123.643 38.1239 124.408 36.8476 121.218 33.4855C121.093 33.3536 119.823 32.6356 119.452 32.8337C119.148 32.9962 118.882 33.1598 118.652 33.3238ZM83.8305 12.3179C85.3216 12.9097 87.1279 12.986 88.8737 12.4752C88.8372 12.0579 88.6785 11.5932 88.3696 11.0795C88.1331 10.6877 87.0995 10.3816 86.8219 10.702C86.041 11.6032 84.8919 12.0123 83.8305 12.3179ZM14.697 59.1596C15.7823 59.5332 18.943 63.7423 17.4035 58.2017C16.6965 55.6574 16.1171 53.5259 19.9718 54.1226C21.9901 54.4348 24.8903 57.7101 24.1628 60.2171C22.8994 64.5706 26.4443 70.2249 28.2419 65.6172C28.4472 65.091 28.4582 62.3975 30.4472 65.7553C32.3192 68.915 32.2228 64.4201 35.2564 66.6234C36.6406 67.6283 37.266 68.9126 37.6003 70.1122C38.2962 72.6081 37.7293 74.7357 40.103 73.2096C41.7174 72.1717 42.1836 75.9564 44.4454 75.0225C45.4728 74.5981 50.7582 77.8787 47.5054 73.2835C47.1572 72.7909 47.2666 71.4863 48.775 73.0719C50.1908 74.5607 50.7851 77.9046 53.4705 75.235C53.8201 74.8873 56.3007 76.9094 58.9765 78.4604C59.1247 77.9597 59.4063 77.4557 59.8533 76.9607C62.2533 74.306 60.5602 72.9904 62.5463 70.9477C63.2317 70.2422 64.355 69.4508 66.237 68.4872C68.0572 67.5558 73.0937 64.7779 72.0385 62.4191C70.4486 58.8656 67.567 57.2071 67.2687 53.3413C67.0106 49.9916 67.732 49.9259 70.027 51.9691C70.2322 52.1518 72.4275 57.1366 74.1661 54.2478C75.0711 52.7447 72.3061 50.5403 75.8409 50.6607C78.498 50.7514 76.817 44.7935 75.1503 42.9048C72.4227 39.8136 78.5422 42.6544 79.3412 42.6544C86.2463 42.6544 80.2448 33.3358 80.2472 33.2874C80.4055 29.5828 87.1864 22.0494 89.4367 28.1123C91.2353 32.956 79.8693 35.1886 89.1216 43.0079C91.973 45.417 92.4847 38.7565 92.4847 44.0654C92.4847 48.2256 92.3121 49.9705 96.7145 51.6794C97.8603 52.1245 101.228 49.8712 101.095 54.4765C100.931 60.1744 108.273 66.7472 108.939 59.1207C109.226 55.8247 111.589 57.9125 112.163 59.725C112.937 62.1692 120.546 65.4239 121.944 61.3869C122.166 60.7456 123.58 56.3068 123.605 56.2895C125.616 54.9451 125.861 56.231 129.044 53.3677C130.77 51.8156 130.505 55.1557 127.922 57.9643C126.884 59.0929 127.63 61.5778 131.323 60.2171C132.547 59.7663 134.029 62.88 133.464 64.8229C131.967 69.9669 143.265 70.4676 146.417 70.6024C149.48 70.7338 152.305 65.9971 153.643 67.0028C157.194 65.9357 156.443 66.7117 155.481 70.4513C155.352 70.9539 155.021 71.7904 154.878 72.5429C154.638 73.8067 154.929 74.836 157.596 73.6624C158.144 73.4211 158.718 77.1526 161.563 75.3242C162.827 74.5118 165.04 78.5449 168.644 78.9641C167.586 78.9358 166.38 78.8552 165.005 78.7113C161.114 78.3036 160.134 81.283 155.483 78.4604C154.302 77.7439 153.175 75.1324 151.702 73.4762C150.607 72.2436 149.32 71.5405 147.679 72.5386C144.575 74.4264 145.096 71.0647 143.173 71.8139C135.847 74.6648 140.893 72.2024 136.828 70.752C136.306 70.5659 126.7 73.8801 128.04 64.2344C128.481 61.0545 123.968 61.4488 123.43 62.7231C121.844 66.481 115.127 67.2896 114.09 64.1827C113.02 60.9788 109.234 62.0675 109.713 63.5524C111.498 69.0887 104.039 68.0211 103.566 64.1827C102.422 54.8876 97.3476 60.5409 96.6176 56.9567C95.3831 50.8904 93.3553 51.713 92.8449 50.1796C88.9303 48.8765 89.4142 46.1604 88.7101 44.9225C85.9892 40.1421 86.8089 45.5791 86.595 46.2779C85.9226 48.4717 85.358 50.3739 84.889 52.0948C82.7638 59.8977 82.606 63.9798 83.2698 74.6418C78.7522 67.3726 81.0396 58.4157 82.876 52.7346C83.8247 49.7983 84.6535 47.7374 84.3595 47.2357C81.9575 43.134 79.7475 53.8626 78.7916 54.936C78.2299 55.5662 69.9497 55.4061 72.369 58.5447C75.3843 62.4565 73.5819 71.2978 68.8466 71.7093C66.601 71.9045 64.9631 72.6643 63.8192 73.7549C62.6643 74.8557 62.0139 76.2935 61.7516 77.8274C61.6446 78.4542 61.6024 79.0965 61.6168 79.7387C61.6293 80.2701 61.6801 80.8006 61.7655 81.3214C61.9166 82.2409 62.1751 83.1301 62.5166 83.9382C61.6653 83.6658 60.5765 82.9113 59.8063 81.9056C59.6983 81.9382 59.588 81.9679 59.4744 81.9967C59.4144 81.9037 59.3501 81.8216 59.2816 81.7583C58.1343 80.6993 57.2456 79.9008 56.4863 79.2989C53.9237 77.2662 52.8441 77.4767 48.2747 77.4767C47.2042 77.4767 46.2819 77.4456 45.4853 77.389C42.8876 77.2038 41.6253 76.7463 40.9126 76.2067C39.5101 75.1463 40.231 73.7684 37.0957 73.5228C35.7667 73.4187 34.9254 73.0273 34.3576 72.4993C32.3686 70.6484 33.7413 67.1208 29.2395 68.4124C18.5123 71.4906 23.4798 64.0527 22.4198 62.0675C19.5143 56.6286 20.3824 65.8052 17.7838 66.0215C10.0446 66.6647 16.2576 69.4355 11.5161 69.3189C6.4801 69.1952 8.62256 71.7664 11.2974 74.9041C11.1713 74.9281 11.0413 74.9545 10.9065 74.9847C5.98464 72.7573 9.5137 70.8052 3.28774 68.0484C0.720807 66.9117 -1.01878 63.7951 4.85034 65.9592C9.26333 67.586 5.90311 63.1668 3.69398 61.6166C2.48917 60.7715 -2.83127 56.644 1.98077 57.6238C4.08103 58.0516 -0.162654 51.2358 4.35873 52.725C9.49595 54.4166 9.44559 64.5606 13.436 64.5606C20.6404 64.5596 10.6504 57.7668 14.697 59.1596ZM178.222 75.3612C178.117 75.0183 177.288 74.6738 176.988 74.7309C175.616 74.9894 178.175 78.8897 169.756 78.9737C171.536 78.8001 173.616 77.6912 176.041 74.8321C177.88 72.6633 177.453 66.8479 179.956 66.1692C180.265 66.0853 180.381 66.2594 180.409 66.6743C181.69 69.3246 179.106 69.5251 181.315 73.0575C182.865 75.5367 188.34 72.5789 189.473 68.1846C190.71 63.3831 191.274 62.48 195.956 61.5246C199.313 60.8392 196.329 66.0584 195.464 66.9241C193.444 68.9443 194.938 70.6311 198.084 69.3544C201.074 68.1405 196.087 76.0139 203.975 72.7559C204.897 72.3755 219.261 70.9472 218.202 73.0192C217.505 74.3837 218.018 74.5189 216.036 75.9803C212.231 78.7847 214.59 78.2586 216.307 82.0543C216.317 82.0768 216.328 82.0993 216.338 82.1224C216.788 83.1363 214.848 83.2471 212.673 83.1694C212.574 82.8039 212.479 82.4399 212.391 82.0759C212.241 81.4495 212.113 80.8245 212.036 80.1957C211.035 72.0614 203.464 78.1948 200.96 74.4547C199.216 71.8484 194.334 72.2206 193.527 73.4705C191.352 76.8427 188.738 73.8935 187.338 74.1266C186.608 74.2484 179.025 80.2658 178.222 75.3612ZM58.8787 78.8993L58.9765 78.4595C58.9329 78.6068 58.9007 78.7535 58.8787 78.8993Z" fill="#DDF6FA"/>
<path fill-rule="evenodd" clip-rule="evenodd" d="M48.0758 64.4838C50.0696 61.9428 51.0663 65.5645 53.333 65.6666C56.7872 65.8225 52.6682 68.1717 58.5733 67.963C60.4376 67.8968 59.3292 69.7679 61.6347 72.3487C61.7935 71.9046 62.0597 71.448 62.546 70.9472C62.3729 70.7472 62.1916 70.576 62.0079 70.4417C59.5162 68.6148 64.6688 62.8714 59.7287 64.2215C53.9186 65.8095 56.8318 63.127 56.7594 60.8459C56.5642 54.7404 51.5905 57.1389 50.1512 59.8147C47.0514 65.5755 43.6163 59.4027 43.6163 61.6143C43.6163 69.2776 40.2129 60.526 39.6887 60.1428C37.506 58.5476 35.5386 56.2886 33.9865 60.0176C33.3865 61.4589 36.0522 65.681 36.917 66.5007C38.3304 67.8412 38.2815 69.0839 37.6 70.1127C38.2959 72.6087 37.729 74.7362 40.1026 73.21C40.176 73.163 40.247 73.1257 40.3156 73.0979C40.5118 70.4417 39.5386 70.6388 39.5386 66.2978C42.954 63.9567 41.5616 72.7861 48.0758 64.4838Z" fill="#72C4CD"/>
<defs>
<linearGradient id="paint0_linear_1_30616" x1="48.297" y1="67.64" x2="48.2977" y2="79.9627" gradientUnits="userSpaceOnUse">
<stop stop-color="#2992B6"/>
<stop offset="1" stop-color="#70CACD"/>
</linearGradient>
<linearGradient id="paint1_linear_1_30616" x1="255.327" y1="76.9037" x2="257.178" y2="85.2644" gradientUnits="userSpaceOnUse">
<stop stop-color="#2284A7"/>
<stop offset="1" stop-color="#63C3CF"/>
</linearGradient>
<linearGradient id="paint2_linear_1_30616" x1="136.073" y1="69.8754" x2="136.074" y2="90.5044" gradientUnits="userSpaceOnUse">
<stop stop-color="#2992B6"/>
<stop offset="1" stop-color="#70CACD"/>
</linearGradient>
<linearGradient id="paint3_linear_1_30616" x1="105.406" y1="85.6629" x2="105.018" y2="99.5792" gradientUnits="userSpaceOnUse">
<stop stop-color="#006D91"/>
<stop offset="1" stop-color="#56BBC8"/>
</linearGradient>
</defs>
</svg>
