<svg width="384" height="393" viewBox="0 0 384 393" fill="none" xmlns="http://www.w3.org/2000/svg">
<path d="M211.755 54.0743C208.705 58.1289 203.888 57.7126 199.595 56.1883C200.119 56.0725 200.651 55.9975 201.193 55.9615C201.906 55.9134 201.94 54.8298 201.207 54.8368C200.004 54.8461 198.81 55.0065 197.664 55.384C197.65 55.3899 197.633 55.3938 197.617 55.3997C196.931 55.097 196.271 54.7804 195.646 54.4621C195.064 54.1649 194.538 53.8377 194.015 53.5105C194.816 53.3186 195.614 53.1204 196.417 52.9571C196.74 52.8918 196.684 52.3358 196.345 52.3682C195.157 52.4858 193.962 52.5564 192.768 52.6475C192.431 52.3962 192.076 52.1528 191.771 51.8897C191.872 51.5112 191.897 51.14 191.867 50.7803C192.959 50.4675 194.016 50.0093 195.031 49.5077C195.212 49.4181 195.089 49.1369 194.901 49.1855C193.809 49.4616 192.717 49.6233 191.603 49.748C191.38 49.2654 191.032 48.8527 190.599 48.5328C190.736 48.5162 190.871 48.4975 190.998 48.4746C192.445 48.2092 193.856 47.8228 195.251 47.3587C195.675 47.2171 195.514 46.5617 195.071 46.6786C193.076 47.2066 191.067 47.5445 189.007 47.6817C188.809 47.6955 188.625 47.7177 188.439 47.7398C188.18 47.2486 187.962 46.7498 187.78 46.2452C190.101 45.7745 192.408 45.3423 194.79 45.1725C196.058 46.6625 197.653 47.8832 199.58 48.6916C203.802 50.462 208.535 49.9382 212.168 47.1159C213.357 46.1918 214.51 44.955 215.416 43.5599C215.29 47.2106 213.684 51.5101 211.755 54.0743Z" fill="#FF7B30"/>
<path d="M204.063 43.8735C202.399 43.8504 200.648 43.6648 198.956 43.8108C198.837 43.7195 198.709 43.6464 198.592 43.5489C198.422 43.408 198.289 43.2409 198.132 43.0899C198.543 43.0277 198.963 42.9351 199.405 42.8651C201.053 42.6063 202.673 42.2635 204.335 42.0885C204.6 42.0613 204.617 41.6838 204.34 41.666C202.751 41.5662 201.132 41.4253 199.54 41.5051C198.723 41.5458 197.794 41.5361 197.033 41.8469C196.893 41.6553 196.754 41.4596 196.63 41.258C197.296 41.2684 198.064 41.0271 198.554 40.921C200.478 40.5105 202.437 40.4292 204.369 40.0291C204.746 39.9522 204.657 39.3835 204.287 39.3727C202.498 39.3214 200.745 39.1073 198.961 39.3562C198.329 39.4441 197.699 39.5444 197.069 39.6405C196.863 39.6726 195.817 39.839 196.157 39.8065C196.083 39.8158 196.009 39.821 195.944 39.8488C195.766 39.3769 195.636 38.8812 195.544 38.3677C196.256 38.2787 196.962 38.1264 197.526 38.0702C199.914 37.831 202.248 37.4441 204.563 36.81C204.827 36.7378 204.785 36.3269 204.504 36.3254C202.607 36.3197 200.746 36.4104 198.852 36.5436C197.979 36.604 197.107 36.6787 196.234 36.7391C195.95 36.76 195.668 36.7768 195.384 36.7957C195.399 36.2916 195.468 35.8229 195.584 35.3814C198.099 35.203 200.607 34.8367 203.093 34.4313C205.838 36.7322 209.297 38.2501 213.018 38.6811C212.284 40.8766 211.525 42.8983 209.215 44.4206C206.699 46.0791 203.654 46.1671 201.021 45.0394C202.067 44.7995 203.106 44.5085 204.117 44.2886C204.348 44.2364 204.3 43.8765 204.063 43.8735Z" fill="#FF7B30"/>
<path d="M187.304 40.4656C188.881 40.2487 190.489 39.8098 191.941 39.4382C192.102 40.1466 192.322 40.8313 192.583 41.494C190.77 41.8161 188.944 42.0604 187.11 42.2372C187.126 41.6433 187.191 41.0521 187.304 40.4656Z" fill="#FF7B30"/>
<path d="M196.447 33.3349C197.054 33.261 197.662 33.1299 198.263 33.0456C199.247 32.9091 200.229 32.748 201.211 32.593C201.593 33.0266 201.994 33.44 202.42 33.8353C200.311 33.829 198.194 33.8593 196.089 34.0143C196.198 33.787 196.317 33.5599 196.447 33.3349Z" fill="#FF7B30"/>
<path d="M200.684 31.9699C199.833 31.9632 198.982 31.9504 198.13 31.96C197.859 31.9627 197.587 31.9552 197.316 31.9517C197.426 31.7857 197.537 31.6116 197.649 31.4395C198.376 31.2486 199.077 31.0105 199.747 30.6678C200.042 31.1166 200.351 31.5513 200.684 31.9699Z" fill="#FF7B30"/>
<path d="M199.253 29.861C199.053 29.8503 198.853 29.8417 198.653 29.8453C198.749 29.6893 198.859 29.5212 198.951 29.3672C199.039 29.5398 199.157 29.6924 199.253 29.861Z" fill="#FF7B30"/>
<path d="M191.654 37.7675C191.676 37.9699 191.727 38.1625 191.757 38.3609C190.613 38.5995 189.467 38.8279 188.311 38.9929C188.109 39.023 187.902 39.0388 187.696 39.0607C187.973 38.2496 188.327 37.4538 188.802 36.6902C189.345 36.5133 189.884 36.3385 190.415 36.1859C191.13 35.9786 190.846 34.8726 190.121 35.0635C190.074 35.0751 190.024 35.0867 189.977 35.0984C190.647 34.3188 191.446 33.592 192.347 32.9154C191.755 34.3574 191.453 35.9358 191.654 37.7675Z" fill="#FF7B30"/>
<path d="M193.053 42.5434C193.417 43.2769 193.846 43.9683 194.338 44.6155C192.02 44.6148 189.688 44.6628 187.386 44.9337C187.297 44.5467 187.212 44.1598 187.166 43.7713C189.154 43.4964 191.105 43.0781 193.053 42.5434Z" fill="#FF7B30"/>
<path d="M189.851 49.8756C189.582 49.5415 189.306 49.2052 189.078 48.8594C189.463 49.0929 189.804 49.4443 190.039 49.8658C189.976 49.8691 189.913 49.8703 189.851 49.8756Z" fill="#FF7B30"/>
<path d="M206.49 31.2203C206.639 31.2079 206.788 31.1935 206.939 31.1831C208.135 31.0982 209.328 31.0133 210.521 30.9284C211.216 30.8801 211.243 29.8841 210.535 29.8384C209.344 29.7621 208.15 29.6877 206.959 29.6114C206.231 29.5654 205.522 29.4666 204.832 29.5742C204.71 29.4318 204.593 29.2874 204.476 29.141C206.311 28.8988 208.106 28.7052 209.978 28.7207C210.465 28.7249 210.593 27.9875 210.105 27.8588C207.997 27.3074 205.658 27.2104 203.534 27.7673C203.342 27.4444 203.159 27.1174 202.996 26.7765C203.861 26.7691 204.751 26.6109 205.582 26.5153C207.092 26.3405 208.603 26.1657 210.114 25.9909C210.55 25.9413 210.591 25.2885 210.123 25.2887C208.506 25.2886 206.889 25.2906 205.272 25.2905C204.362 25.2912 203.438 25.2346 202.554 25.3847C202.535 25.1047 202.518 24.8207 202.501 24.5368C204.191 24.599 205.931 24.2577 207.597 24.0746C210.06 23.8037 212.527 23.5839 214.998 23.3947C215.554 23.3528 215.583 22.512 215.009 22.515C212.367 22.5345 209.727 22.5929 207.085 22.7105C205.531 22.7786 203.945 22.7728 202.44 23.1212C202.428 22.7413 202.431 22.3616 202.436 21.982C206.902 22.0018 211.549 21.0726 215.958 20.5733C216.441 20.5181 216.473 19.7652 215.968 19.7996C211.567 20.1031 206.86 20.0414 202.483 20.8393C202.533 20.1356 202.623 19.4426 202.773 18.7626C203.725 18.5624 204.673 18.2723 205.609 18.0963C207.614 17.7175 209.616 17.3325 211.644 17.0928C211.775 17.0782 211.787 16.8885 211.647 16.8826C209.196 16.776 205.907 16.6057 203.202 17.288C203.388 16.7942 203.602 16.309 203.877 15.845C206.254 11.8104 211.399 9.81778 215.91 10.8672C216.473 11.0805 217.033 11.3142 217.6 11.5684C217.886 11.6966 218.394 11.897 218.985 12.1454C224.844 15.8332 229.066 25.5248 224.052 30.7897C219.142 35.9476 211.422 35.272 206.49 31.2203Z" fill="#FF7B30"/>
<path d="M291.843 377.825C260.657 381.145 229.318 383.416 197.969 384.405C136.051 386.358 73.9655 383.345 12.5694 375.04C18.7956 315.979 8.52413 255.958 8.49518 196.731C8.46992 145.263 12.1438 93.9671 18.7638 42.9799C22.3713 42.8072 26.0031 42.8124 29.5901 42.6557C30.401 42.6211 30.3739 41.5347 29.6057 41.4249C26.0618 40.9206 22.5639 40.8211 19.0451 40.7602C19.3161 38.7078 19.5647 36.6531 19.8438 34.6008C22.8789 33.8512 25.8497 33.3356 29.1392 33.4549C29.584 33.4708 29.7137 32.7456 29.2575 32.6623C26.357 32.1314 23.2645 31.7799 20.2355 31.8905C20.5861 29.3553 20.9673 26.8225 21.3322 24.2874C28.4206 22.9829 35.5659 22.0282 42.7863 22.23C43.1108 22.2382 43.1003 21.7747 42.7925 21.7381C35.7662 20.8834 28.8246 20.432 21.7911 21.1064C21.8446 20.7457 21.8941 20.385 21.9477 20.0243C40.7544 17.1229 59.3822 17.3815 78.3132 16.9131C78.7094 16.9038 78.6917 16.3687 78.3208 16.315C59.8843 13.6927 40.9768 14.8739 22.4826 16.3196C22.6588 15.1439 22.8125 13.9637 22.9928 12.7881C23.0262 12.566 22.9981 12.3676 22.9659 12.1712C68.5446 13.1982 114.282 9.91956 159.847 9.09268C174.525 8.8276 189.207 8.76671 203.886 8.86912C201.237 10.4381 199.203 13.0133 198.112 16.319C197.029 19.6044 196.958 22.6903 197.577 25.4849C196.774 26.5036 195.939 27.4811 195.153 28.4633C188.361 28.6304 182.818 34.452 182.085 41.241C181.231 49.1738 186.436 55.2154 193.096 58.699C199.111 61.8457 207.565 64.4089 213.463 59.6289C219.028 55.1182 221.758 45.2575 219.046 38.7453C218.992 38.616 218.901 38.5393 218.829 38.4343C220.321 38.147 221.813 37.7168 223.273 37.0432C234.863 31.7045 231.853 15.8077 222.931 9.10241C250.283 9.58802 277.624 10.6921 304.921 12.4591C316.806 13.2283 328.685 14.0935 340.554 15.0504C346.487 15.5298 352.418 16.0276 358.35 16.5193C365.284 17.0951 370.418 16.0129 373.328 20.7943C364.502 20.021 355.649 18.9431 346.811 18.5085C337.507 18.0496 328.376 19.7304 319.073 19.2368C318.533 19.2074 318.426 20.0207 318.935 20.168C327.307 22.5954 336.188 20.2806 344.841 20.5822C354.622 20.9226 364.379 21.6955 374.136 22.4358C374.484 23.2915 374.791 24.261 375.048 25.4014C375.109 25.6778 375.159 25.9622 375.219 26.2386C363.255 25.7439 351.225 24.0827 339.265 25.2622C338.732 25.3146 338.702 26.0655 339.255 26.1052C351.429 27.0027 363.603 26.3588 375.674 28.4717C375.912 29.718 376.13 30.9743 376.327 32.2425C371.438 31.8518 366.556 31.7777 361.683 32.3468C361.182 32.4057 361.136 33.136 361.673 33.1551C366.675 33.3267 371.661 33.5879 376.623 34.2919C376.825 35.7542 377.005 37.2263 377.161 38.7105C377.035 38.7007 376.908 38.691 376.786 38.6772C376.317 38.6263 375.936 38.5949 375.481 38.7484C375.11 38.8723 374.824 39.1504 374.442 39.2293C374.124 39.2946 374.082 39.7453 374.345 39.9038C374.682 40.1061 374.881 40.4863 375.196 40.721C375.583 41.0076 375.951 41.098 376.411 41.2059C376.749 41.2837 377.089 41.3717 377.431 41.4475C378.771 56.8353 377.956 73.1022 377.678 87.8222C376.858 131.043 369.975 174.284 355.648 215.135C340.474 258.399 316.868 306.866 274.789 329.498C273.485 330.2 273.396 331.905 274.3 332.942C282.168 341.941 292.666 345.279 302.787 350.989C306.16 352.891 309.442 355.089 312.117 357.912C313.957 359.85 320.92 369.368 318.812 372.859C315.365 378.57 298.076 377.163 291.843 377.825Z" fill="#DE63A5"/>
<path d="M367.603 207.751C362.389 236.889 357.657 266.197 351.142 295.082C347.681 310.421 343.471 325.903 337.625 340.631C336.964 340.144 336.24 339.735 335.555 339.518C335.185 339.401 334.865 339.83 335.05 340.157C335.48 340.914 336.203 341.666 336.975 342.278C336.569 343.277 336.14 344.268 335.717 345.259C334.77 344.249 333.529 343.451 332.534 343.144C332.323 343.081 332.194 343.383 332.381 343.496C333.507 344.18 334.405 345.185 334.861 346.432C334.922 346.603 334.96 346.781 335.001 346.957C334.492 348.122 333.955 349.273 333.422 350.428C332.324 348.799 330.854 347.525 329.099 346.643C328.959 346.572 328.84 346.764 328.972 346.854C330.704 348.021 332.014 349.563 332.83 351.49C332.848 351.533 332.858 351.58 332.876 351.625C332.03 353.417 331.16 355.197 330.254 356.955C330.075 355.816 329.73 354.695 329.322 353.699C328.385 351.411 326.834 350.067 325.029 348.461C324.979 348.416 324.909 348.484 324.953 348.534C327.88 351.762 328.087 355.927 328.64 359.958C327.685 361.718 326.701 363.459 325.677 365.18C324.664 353.64 315.443 345.061 304.74 340.632C304.683 340.609 304.649 340.696 304.698 340.728C309.847 344.047 316.05 346.882 319.505 352.201C323.099 357.736 322.256 363.711 322.818 369.784C322.482 370.3 322.155 370.823 321.814 371.335C320.306 350.782 292.714 344.624 279.429 331.927C326.306 305.401 351.513 247.263 366.106 197.992C373.059 174.515 377.474 150.74 379.893 126.795C378.296 154.055 372.402 180.923 367.603 207.751Z" fill="#DE63A5"/>
<path d="M382.172 80.5059C382.181 58.9759 380.847 37.3738 378.45 15.7868C378.302 14.4497 377.554 13.6338 376.191 13.4695C316.336 6.29615 255.911 3.513 195.646 3.42672C139.159 3.34548 81.6614 4.4845 25.349 10.0034C22.9589 9.64029 20.6197 9.45547 18.1756 9.32445C17.5798 9.2924 17.1403 9.81763 17.1027 10.3704C17.0829 10.6417 17.0754 10.9152 17.0597 11.1885C16.9965 11.3408 16.9906 11.4857 17.0356 11.6353C16.7286 16.8537 16.703 22.0858 16.3919 27.3001C15.0505 31.8194 13.8362 36.4648 12.8006 41.1737C12.5864 41.4834 12.51 41.8764 12.5562 42.2567C9.85182 54.9229 8.51052 67.9656 9.7363 79.9752C5.67048 117.259 3.60863 154.767 3.49465 192.258C3.40223 222.413 4.7541 252.496 6.84713 282.572C9.03888 314.039 11.1386 345.522 7.78963 376.986C7.64814 378.324 8.92573 379.163 10.0589 379.314C113.237 392.955 217.495 393.244 320.477 377.727C321.172 377.622 321.55 376.961 321.675 376.334C329.944 369.007 334.588 358.379 338.447 348.222C343.943 333.75 348.959 319.076 352.602 304.021C360.032 273.324 364.109 241.659 369.603 210.566C374.663 181.934 381.142 153.006 382.192 123.87C382.705 109.441 382.662 94.9621 382.172 80.5059ZM211.755 54.0754C208.704 58.13 203.887 57.7137 199.595 56.1894C200.119 56.0735 200.651 55.9986 201.192 55.9626C201.905 55.9145 201.939 54.8308 201.206 54.8379C200.004 54.8471 198.81 55.0076 197.664 55.385C197.649 55.3909 197.633 55.3948 197.616 55.4007C196.93 55.0981 196.271 54.7814 195.646 54.4632C195.064 54.1659 194.537 53.8387 194.015 53.5116C194.815 53.3196 195.614 53.1215 196.416 52.9581C196.74 52.8928 196.684 52.3368 196.344 52.3692C195.157 52.4869 193.961 52.5575 192.768 52.6485C192.43 52.3972 192.076 52.1539 191.771 51.8907C191.872 51.5123 191.897 51.141 191.867 50.7813C192.959 50.4685 194.016 50.0103 195.031 49.5087C195.212 49.4192 195.089 49.1379 194.9 49.1866C193.809 49.4626 192.716 49.6243 191.602 49.749C191.38 49.2665 191.032 48.8537 190.599 48.5339C190.736 48.5172 190.871 48.4985 190.998 48.4756C192.444 48.2102 193.856 47.8239 195.25 47.3597C195.675 47.2181 195.513 46.5628 195.071 46.6797C193.076 47.2076 191.067 47.5456 189.007 47.6828C188.809 47.6966 188.625 47.7188 188.439 47.7409C188.18 47.2497 187.961 46.7508 187.78 46.2463C190.101 45.7755 192.407 45.3434 194.79 45.1735C196.057 46.6636 197.652 47.8842 199.58 48.6926C203.802 50.4631 208.534 49.9392 212.167 47.1169C213.357 46.1929 214.51 44.956 215.416 43.5609C215.29 47.2116 213.684 51.5112 211.755 54.0754ZM204.063 43.8743C202.399 43.8511 200.648 43.6656 198.956 43.8116C198.836 43.7202 198.709 43.6471 198.591 43.5497C198.422 43.4087 198.289 43.2417 198.132 43.0907C198.543 43.0285 198.963 42.9358 199.404 42.8659C201.053 42.6071 202.672 42.2642 204.334 42.0893C204.6 42.0621 204.617 41.6846 204.34 41.6668C202.751 41.567 201.131 41.4261 199.54 41.5059C198.723 41.5466 197.794 41.5369 197.033 41.8477C196.892 41.6561 196.754 41.4604 196.63 41.2587C197.295 41.2692 198.064 41.0279 198.553 40.9218C200.478 40.5113 202.436 40.43 204.369 40.0299C204.745 39.953 204.657 39.3843 204.287 39.3735C202.497 39.3222 200.744 39.1081 198.961 39.357C198.329 39.4449 197.699 39.5451 197.069 39.6413C196.862 39.6734 195.817 39.8398 196.156 39.8073C196.083 39.8166 196.009 39.8218 195.944 39.8495C195.766 39.3777 195.635 38.882 195.544 38.3684C196.255 38.2795 196.962 38.1271 197.526 38.071C199.913 37.8318 202.248 37.4449 204.563 36.8108C204.827 36.7386 204.785 36.3277 204.503 36.3262C202.607 36.3205 200.746 36.4112 198.852 36.5444C197.979 36.6048 197.107 36.6795 196.234 36.7399C195.95 36.7608 195.668 36.7776 195.384 36.7965C195.399 36.2924 195.468 35.8237 195.584 35.3822C198.099 35.2038 200.607 34.8375 203.092 34.4321C205.838 36.733 209.297 38.2509 213.017 38.6818C212.283 40.8774 211.525 42.8991 209.215 44.4214C206.699 46.0799 203.654 46.1679 201.02 45.0402C202.067 44.8003 203.105 44.5093 204.117 44.2894C204.348 44.2372 204.3 43.8773 204.063 43.8743ZM187.304 40.4668C188.881 40.25 190.489 39.811 191.941 39.4395C192.102 40.1479 192.322 40.8326 192.583 41.4953C190.77 41.8173 188.944 42.0616 187.11 42.2384C187.126 41.6445 187.19 41.0533 187.304 40.4668ZM196.447 33.3352C197.054 33.2613 197.662 33.1302 198.263 33.0459C199.247 32.9093 200.229 32.7483 201.211 32.5933C201.593 33.0269 201.994 33.4403 202.42 33.8356C200.311 33.8293 198.194 33.8596 196.089 34.0146C196.198 33.7873 196.317 33.5602 196.447 33.3352ZM200.684 31.9701C199.833 31.9634 198.981 31.9505 198.13 31.9602C197.858 31.9628 197.587 31.9553 197.316 31.9519C197.426 31.7859 197.536 31.6117 197.649 31.4396C198.376 31.2487 199.077 31.0106 199.747 30.668C200.041 31.1167 200.35 31.5514 200.684 31.9701ZM199.253 29.8614C199.053 29.8507 198.853 29.842 198.653 29.8456C198.749 29.6896 198.859 29.5216 198.951 29.3676C199.039 29.5402 199.157 29.6928 199.253 29.8614ZM191.654 37.7679C191.676 37.9703 191.727 38.1628 191.757 38.3613C190.613 38.5999 189.466 38.8283 188.311 38.9933C188.108 39.0234 187.902 39.0392 187.696 39.061C187.973 38.25 188.326 37.4542 188.801 36.6906C189.345 36.5137 189.884 36.3388 190.415 36.1863C191.13 35.979 190.846 34.873 190.12 35.0638C190.073 35.0755 190.024 35.0871 189.977 35.0988C190.646 34.3192 191.446 33.5923 192.346 32.9158C191.755 34.3578 191.453 35.9361 191.654 37.7679ZM193.053 42.5445C193.418 43.2779 193.846 43.9693 194.338 44.6166C192.021 44.6158 189.688 44.6638 187.386 44.9347C187.297 44.5477 187.212 44.1608 187.166 43.7723C189.154 43.4974 191.105 43.0791 193.053 42.5445ZM189.851 49.8759C189.582 49.5417 189.306 49.2055 189.078 48.8596C189.463 49.0931 189.803 49.4445 190.039 49.866C189.976 49.8693 189.912 49.8705 189.851 49.8759ZM206.489 31.2209C206.638 31.2085 206.788 31.1941 206.939 31.1838C208.134 31.0989 209.328 31.014 210.521 30.9291C211.216 30.8807 211.243 29.8848 210.535 29.8391C209.343 29.7627 208.15 29.6884 206.959 29.612C206.231 29.5661 205.521 29.4672 204.832 29.5749C204.709 29.4325 204.593 29.2881 204.476 29.1416C206.31 28.8995 208.105 28.7058 209.977 28.7214C210.465 28.7256 210.593 27.9881 210.105 27.8595C207.997 27.3081 205.658 27.211 203.534 27.768C203.342 27.445 203.158 27.1181 202.995 26.7771C203.861 26.7697 204.751 26.6116 205.581 26.5159C207.092 26.3412 208.603 26.1664 210.114 25.9916C210.549 25.942 210.59 25.2892 210.123 25.2894C208.506 25.2893 206.889 25.2913 205.272 25.2912C204.362 25.2919 203.438 25.2352 202.554 25.3853C202.535 25.1054 202.518 24.8214 202.501 24.5374C204.191 24.5997 205.93 24.2583 207.597 24.0753C210.06 23.8044 212.527 23.5846 214.998 23.3954C215.553 23.3534 215.582 22.5127 215.009 22.5156C212.367 22.5352 209.726 22.5936 207.085 22.7112C205.531 22.7793 203.944 22.7735 202.439 23.1218C202.428 22.742 202.431 22.3623 202.436 21.9826C206.902 22.0025 211.548 21.0733 215.958 20.5739C216.441 20.5188 216.473 19.7659 215.968 19.8003C211.567 20.1038 206.86 20.0421 202.483 20.84C202.532 20.1363 202.623 19.4433 202.772 18.7633C203.724 18.5631 204.673 18.2729 205.608 18.097C207.614 17.7182 209.615 17.3332 211.644 17.0935C211.774 17.0788 211.787 16.8891 211.646 16.8833C209.196 16.7767 205.907 16.6063 203.201 17.2886C203.387 16.7949 203.602 16.3097 203.877 15.8457C206.254 11.8111 211.399 9.81844 215.91 10.8678C216.473 11.0812 217.033 11.3149 217.599 11.5691C217.886 11.6972 218.394 11.8976 218.984 12.146C224.844 15.8338 229.065 25.5255 224.052 30.7903C219.142 35.9483 211.421 35.2726 206.489 31.2209ZM291.843 377.826C260.657 381.146 229.317 383.417 197.969 384.406C136.051 386.358 73.9652 383.346 12.5691 375.04C18.7953 315.98 8.52382 255.959 8.49487 196.731C8.46961 145.264 12.1435 93.9678 18.7634 42.9806C22.371 42.8079 26.0028 42.8131 29.5898 42.6564C30.4007 42.6218 30.3736 41.5354 29.6054 41.4256C26.0615 40.9213 22.5636 40.8218 19.0448 40.7609C19.3158 38.7085 19.5644 36.6538 19.8435 34.6015C22.8786 33.8519 25.8494 33.3363 29.1389 33.4556C29.5837 33.4715 29.7134 32.7463 29.2572 32.663C26.3567 32.1321 23.2641 31.7806 20.2351 31.8912C20.5858 29.356 20.967 26.8232 21.3319 24.2881C28.4203 22.9836 35.5656 22.0289 42.786 22.2307C43.1105 22.2389 43.1 21.7754 42.7922 21.7388C35.7659 20.8841 28.8242 20.4327 21.7908 21.1071C21.8443 20.7464 21.8938 20.3857 21.9474 20.025C40.7541 17.1236 59.3819 17.3822 78.3129 16.9138C78.7091 16.9046 78.6914 16.3694 78.3205 16.3157C59.8839 13.6934 40.9765 14.8746 22.4823 16.3203C22.6584 15.1446 22.8122 13.9645 22.9925 12.7888C23.0259 12.5667 22.9978 12.3683 22.9656 12.1719C68.5443 13.1989 114.282 9.92026 159.847 9.09339C174.525 8.8283 189.206 8.76742 203.886 8.86983C201.237 10.4388 199.203 13.014 198.112 16.3197C197.029 19.6051 196.957 22.691 197.577 25.4856C196.774 26.5043 195.939 27.4818 195.153 28.4641C188.361 28.6311 182.817 34.4527 182.084 41.2417C181.23 49.1745 186.435 55.2161 193.095 58.6997C199.111 61.8465 207.565 64.4096 213.462 59.6296C219.028 55.1189 221.758 45.2582 219.045 38.746C218.992 38.6167 218.901 38.54 218.829 38.435C220.321 38.1477 221.812 37.7175 223.272 37.0439C234.863 31.7052 231.853 15.8084 222.931 9.10311C250.283 9.58873 277.624 10.6928 304.921 12.4598C316.805 13.229 328.684 14.0942 340.554 15.0511C346.487 15.5305 352.417 16.0283 358.35 16.52C365.284 17.0959 370.418 16.0136 373.328 20.795C364.502 20.0217 355.649 18.9438 346.81 18.5092C337.507 18.0503 328.376 19.7311 319.073 19.2375C318.532 19.2082 318.426 20.0214 318.935 20.1687C327.307 22.5961 336.188 20.2813 344.841 20.5829C354.621 20.9233 364.378 21.6962 374.136 22.4365C374.484 23.2922 374.79 24.2617 375.047 25.4021C375.109 25.6785 375.159 25.9629 375.218 26.2393C363.255 25.7446 351.225 24.0834 339.265 25.2629C338.731 25.3153 338.701 26.0662 339.254 26.1059C351.429 27.0034 363.603 26.3595 375.674 28.4724C375.911 29.7187 376.13 30.975 376.326 32.2432C371.438 31.8525 366.555 31.7784 361.683 32.3475C361.182 32.4064 361.136 33.1367 361.673 33.1558C366.674 33.3274 371.661 33.5886 376.623 34.2926C376.825 35.7549 377.004 37.227 377.161 38.7112C377.035 38.7014 376.908 38.6917 376.786 38.6779C376.317 38.627 375.935 38.5956 375.48 38.7491C375.109 38.873 374.824 39.1511 374.441 39.23C374.124 39.2953 374.082 39.746 374.345 39.9045C374.681 40.1068 374.881 40.487 375.196 40.7217C375.582 41.0083 375.951 41.0987 376.411 41.2066C376.749 41.2844 377.088 41.3724 377.43 41.4482C378.771 56.836 377.956 73.1029 377.678 87.8229C376.858 131.044 369.975 174.285 355.648 215.136C340.474 258.4 316.868 306.867 274.788 329.498C273.485 330.201 273.396 331.906 274.299 332.942C282.168 341.941 292.666 345.28 302.787 350.99C306.16 352.892 309.441 355.09 312.117 357.912C313.956 359.851 320.92 369.369 318.811 372.86C315.364 378.571 298.076 377.164 291.843 377.826ZM367.603 207.752C362.389 236.89 357.657 266.198 351.141 295.083C347.68 310.422 343.47 325.904 337.624 340.631C336.963 340.145 336.239 339.736 335.554 339.519C335.184 339.402 334.864 339.831 335.05 340.158C335.479 340.915 336.203 341.667 336.975 342.279C336.568 343.278 336.139 344.269 335.716 345.26C334.769 344.25 333.528 343.452 332.534 343.145C332.322 343.081 332.194 343.384 332.38 343.497C333.507 344.181 334.404 345.186 334.86 346.433C334.921 346.603 334.96 346.781 335.001 346.958C334.492 348.123 333.955 349.274 333.421 350.429C332.323 348.8 330.853 347.526 329.098 346.644C328.958 346.573 328.84 346.765 328.971 346.855C330.704 348.022 332.013 349.563 332.83 351.491C332.848 351.534 332.858 351.581 332.875 351.626C332.03 353.418 331.16 355.198 330.254 356.956C330.074 355.817 329.729 354.696 329.321 353.7C328.385 351.412 326.834 350.067 325.029 348.462C324.978 348.417 324.908 348.485 324.952 348.535C327.88 351.763 328.086 355.928 328.64 359.959C327.684 361.719 326.701 363.46 325.676 365.181C324.663 353.641 315.442 345.062 304.739 340.633C304.682 340.61 304.649 340.697 304.697 340.728C309.847 344.048 316.05 346.883 319.504 352.202C323.099 357.737 322.255 363.712 322.817 369.785C322.482 370.301 322.155 370.824 321.813 371.336C320.306 350.783 292.713 344.625 279.428 331.928C326.306 305.402 351.513 247.264 366.106 197.993C373.059 174.516 377.474 150.741 379.893 126.795C378.295 154.056 372.402 180.924 367.603 207.752Z" fill="#8A1A56"/>
<path d="M305.906 20.9755C307.776 21.2789 309.81 21.8947 311.59 20.9332C312.108 20.654 312.118 19.8599 311.607 19.5676C309.852 18.5614 307.803 19.1254 305.926 19.3813C305.136 19.4897 305.119 20.8471 305.906 20.9755Z" fill="#8A1A56"/>
<path d="M328.958 26.6904C329.827 26.8913 330.688 27.0492 331.561 26.8255C332.249 26.6484 332.262 25.6299 331.579 25.4354C330.712 25.1897 329.845 25.3257 328.973 25.5045C328.385 25.6236 328.373 26.5564 328.958 26.6904Z" fill="#8A1A56"/>
<path d="M351.545 33.1175C352.108 33.1063 352.67 33.0971 353.234 33.0858C353.867 33.0734 353.881 32.1284 353.246 32.102C352.683 32.0765 352.122 32.053 351.559 32.0275C350.859 31.9962 350.842 33.1311 351.545 33.1175Z" fill="#8A1A56"/>
<path d="M368.759 40.0504C368.843 40.0964 368.926 40.1403 369.007 40.1862C369.285 40.4347 369.763 40.5796 370.103 40.343C370.192 40.2809 370.28 40.2187 370.369 40.1565C370.812 39.8457 370.819 39.2946 370.384 38.9726C370.297 38.9082 370.21 38.8438 370.123 38.7795C369.787 38.5302 369.312 38.663 369.023 38.9064C368.939 38.9502 368.854 38.992 368.772 39.0359C368.272 39.2133 368.264 39.8583 368.759 40.0504Z" fill="#8A1A56"/>
<path d="M94.2905 17.2109C92.8126 16.7165 90.5365 16.0506 89.4307 17.5984C89.279 17.8108 89.2743 18.1823 89.4206 18.3965C90.4868 19.9698 92.7811 19.3619 94.269 18.9071C95.1072 18.6503 95.122 17.4889 94.2905 17.2109Z" fill="#8A1A56"/>
<path d="M56.3132 19.7949C55.1193 19.9227 53.9343 19.9955 52.7767 20.3156C52.0822 20.5089 52.1628 21.7124 52.9376 21.6304C54.1438 21.5007 55.2711 21.1557 56.4388 20.8316C56.9879 20.6793 56.9244 19.7292 56.3132 19.7949Z" fill="#8A1A56"/>
<path d="M39.8404 33.1569C37.9917 32.9232 35.8471 32.3591 34.0114 32.8645C33.2739 33.0675 33.2583 34.135 33.9925 34.3567C35.8147 34.9085 37.975 34.397 39.827 34.2122C40.5057 34.1432 40.5171 33.2431 39.8404 33.1569Z" fill="#8A1A56"/>
<path d="M212.244 12.3816C210.043 12.419 208.076 12.6309 206.101 13.6838C205.643 13.927 205.957 14.5823 206.43 14.4923C208.433 14.1073 210.337 13.421 212.317 12.9704C212.642 12.897 212.581 12.3777 212.244 12.3816Z" fill="#8A1A56"/>
</svg>
