<svg width="426" height="446" viewBox="0 0 426 446" fill="none" xmlns="http://www.w3.org/2000/svg">
<path d="M418.095 108.403C418.142 154.972 411.796 200.927 405.752 246.919C408.245 200.979 408.542 155.197 414.067 109.505C415.408 109.135 416.751 108.769 418.095 108.403Z" fill="#7139E9"/>
<path d="M177.003 16.4209C178.341 10.8454 178.839 9.69661 184.253 9.36524C189.408 9.04855 198.569 9.3764 201.855 13.2865C202.405 13.9406 203.729 13.9697 204.306 13.3404C208.677 8.57554 221.742 14.6736 227.291 15.0728C235.364 15.6519 241.436 12.7221 248.216 18.474C248.781 18.9532 249.671 19.0808 250.248 18.5187C250.867 17.9148 251.486 17.3108 252.104 16.7089C248.369 33.1459 244.872 49.631 241.686 66.1738C231.261 64.5607 218.9 65.3894 209.764 67.9074C209.144 68.0772 209.278 68.8791 209.889 68.9455C216.371 69.6425 222.841 69.3608 229.34 69.8135C233.121 70.0781 236.957 70.6476 240.785 71.0334C239.945 75.4887 239.1 79.9417 238.302 84.404C236.37 95.2208 234.538 106.05 232.96 116.919C232.715 118.608 232.144 129.277 231.385 129.66C231.737 129.482 226.304 128.572 226.507 128.586C224.915 128.476 223.179 129.106 221.609 128.884C218.61 128.462 216.097 125.494 213.625 124.781C212.638 124.497 211.484 124.347 210.457 124.057C210.434 124.051 203.377 123.653 202.559 123.718C200.065 123.183 196.023 122.329 196.087 122.335C194.696 122.237 193.285 122.19 191.885 122.134C190.699 122.088 189.897 123.338 188.769 123.236C188.062 123.171 187.046 121.692 186.188 121.538C181.514 120.71 177.998 123.268 175.105 119.197C174.908 118.922 174.505 118.658 174.132 118.795C170.588 120.084 169.758 120.855 167.322 118.16C167.116 117.931 166.651 117.848 166.38 118.023C160.352 121.936 164.75 114.115 165.491 110.583C166.364 106.411 167.172 102.227 167.932 98.0346C169.561 89.0414 170.934 80.0059 172.071 70.9428C175.531 70.5542 179.119 70.034 182.303 68.8668C182.627 68.7476 182.76 68.2021 182.319 68.1231C179.082 67.5302 175.809 67.2504 172.554 66.759C174.065 53.3425 174.73 40.0113 174.954 26.6073C175.513 23.2158 176.186 19.8249 177.003 16.4209Z" fill="#E07878"/>
<path d="M116.434 66.6599C98.4287 66.6838 80.4322 66.5122 62.4564 65.9905C80.4522 66.0887 98.445 66.3296 116.434 66.6599Z" fill="#7139E9"/>
<path d="M31.0634 328.648C36.2337 299.604 41.2464 270.526 45.0305 241.28C52.5156 183.447 55.1892 124.239 42.4583 66.8619C84.6738 71.0554 127.018 71.7074 169.396 71.5429C167.063 88.6222 163.987 105.604 160.227 122.356C159.969 123.512 161.352 124.45 162.336 123.587C163.774 121.056 165.716 120.663 168.164 122.404C168.299 122.796 168.82 123.126 169.241 122.85C172.944 120.84 175.309 121.4 176.331 124.53C176.687 125.09 177.4 125.159 177.912 124.761C181.364 125.187 184.816 125.614 188.269 126.038C188.732 126.658 189.65 126.772 190.125 126.079C191.361 124.27 212.282 128.36 214.388 129.193C218.77 130.926 228.171 129.877 231.125 132.818C231.946 133.635 233.141 132.995 233.286 132.02C236.294 111.71 239.739 91.4577 243.589 71.2771C245.32 71.3966 247.043 71.4589 248.756 71.4049C249.237 71.389 249.622 71.2222 249.927 70.9823C296.306 70.8894 342.643 71.9064 388.809 77.6379C383.092 118.008 380.866 158.628 381.709 199.369C382.624 243.578 381.147 286.243 373.293 329.927C371.479 340.01 369.484 350.062 367.4 360.094C365.921 367.216 365.108 386.689 358.472 390.925C355.236 392.989 346.511 391.942 342.404 392.253C337.047 392.661 331.685 393.026 326.325 393.369C314.834 394.104 303.333 394.714 291.829 395.205C246.56 397.136 201.224 397.184 155.941 395.404C107.34 393.493 58.8716 389.338 10.66 383.149C24.7605 368.522 27.6554 347.796 31.0634 328.648Z" fill="#7139E9"/>
<path d="M362.949 395.52C364.036 395.428 365.268 394.882 365.522 393.738C377.173 341.537 388.34 289.172 388.047 235.533C387.904 209.255 386.241 183.026 387.033 156.741C387.74 133.273 389.692 109.873 392.712 86.5865C397.226 87.2809 402.326 87.8842 406.248 89.6275C411.944 92.1598 412.138 92.3761 411.203 98.3925C409.436 109.765 408.13 121.215 407.114 132.672C405.016 156.352 404.209 180.117 403.041 203.852C401.905 226.885 400.75 249.935 398.803 272.919C396.773 296.904 392.461 320.586 390.082 344.519C389.03 355.092 388.612 365.637 388.8 376.255C388.893 381.465 389.05 386.672 388.884 391.882C388.73 396.745 389.527 408.765 385.891 412.222C382.506 415.439 374.521 413.172 370.181 413.022C365.35 412.852 360.515 412.905 355.687 413.09C345.063 413.499 334.484 414.634 323.959 416.028C300.685 419.114 277.534 423.623 254.034 424.951C243.017 425.574 231.928 425.514 220.962 424.225C208.36 422.743 196.293 419.702 183.523 419.756C157.371 419.867 131.221 424.157 105.087 425.291C78.0838 426.462 51.0694 425.599 24.8011 419.214C32.5938 411.51 38.0143 402.615 41.2871 392.241C148.167 403.81 255.745 404.645 362.949 395.52Z" fill="#7139E9"/>
<path d="M396.55 419.395C390.273 428.737 368.258 426.907 357.982 427.7C346.378 428.597 334.764 429.318 323.139 429.91C277.415 432.237 231.643 432.82 185.861 433.395C161.136 433.705 136.412 433.787 111.685 433.873C98.9557 433.917 86.2264 433.961 73.495 434.005C67.5038 434.026 61.5125 434.049 55.5223 434.121C47.9505 434.214 45.3647 432.904 43.2347 427.215C65.7568 430.768 88.6343 431.102 111.59 429.833C144.243 428.028 176.722 421.788 209.26 427.236C269.063 437.248 326.883 411.647 386.628 418.553C387.595 418.664 388.485 417.879 388.773 417.07C397.179 393.327 391.623 367.029 394.824 342.43C395.496 337.27 396.21 332.125 396.933 326.984C396.22 336.737 395.678 346.506 395.407 356.302C395.13 366.352 395.168 376.403 395.546 386.451C395.739 391.577 396.031 396.699 396.237 401.826C396.399 405.924 398.713 416.18 396.55 419.395Z" fill="#7139E9"/>
<path d="M422.579 105.624C422.528 104.321 421.263 103.086 419.801 103.515C418.082 104.021 416.36 104.521 414.639 105.021C415.284 99.9974 415.975 94.9742 416.763 89.9533C416.893 89.1348 416.086 88.2447 415.299 88.0378C407.924 86.0861 400.615 84.7453 393.078 83.8377C393.444 81.0882 393.817 78.3367 394.214 75.5898C394.416 74.1859 392.945 73.2548 391.71 73.0971C342.915 66.8553 293.858 65.428 244.725 65.4602C248.157 47.8385 251.883 30.2681 255.92 12.7677C256.209 11.5144 254.619 10.3443 253.55 11.3847C253.434 11.6022 253.304 11.791 253.175 11.9838L253.167 11.9795C253.165 11.9876 253.162 11.9978 253.16 12.0059C251.773 14.095 249.756 14.7456 247.095 13.9249C245.97 12.932 244.81 11.9791 243.615 11.0642C240.201 10.6284 243.498 11.4041 235.207 12.0187C226.266 12.6801 218.614 8.60469 210.071 8.13147C207.639 7.99646 205.045 8.91162 203.092 8.88498C204.071 8.66396 200.119 6.39827 199.873 6.29911C196.911 6.55191 193.944 6.60084 190.974 6.44176C186.672 6.21059 182.45 5.5491 178.311 4.45733C177.31 4.23151 176.173 4.68548 175.889 5.69832C175.581 6.79621 175.325 7.89935 175.049 9.00202C175.048 8.92252 175.048 8.845 175.047 8.76551C175.044 8.24774 174.206 8.22523 174.201 8.74689C174.184 10.1895 174.116 11.6331 174.084 13.0754C171.196 26.3903 170.439 39.8906 171.257 53.5723C171.271 53.8111 171.374 53.9927 171.505 54.1423C171.101 58.0243 170.68 61.9079 170.193 65.7819C127.201 63.422 84.0014 63.2993 40.988 63.772C39.382 62.956 36.8024 64.1833 37.2317 66.4551C47.6698 121.562 46.8587 177.218 40.2755 232.659C36.9406 260.749 32.2977 288.678 27.3949 316.55C23.4139 339.183 21.9488 367.078 2.46609 383.126C0.387267 384.839 2.13784 387.545 4.39494 387.843C15.2645 389.277 26.1439 390.558 37.0291 391.765C33.5415 402.372 27.6931 411.173 19.0507 418.797C17.8571 419.851 18.3668 421.868 19.9366 422.29C26.7174 424.114 33.5427 425.571 40.4001 426.736C41.2293 429.794 42.0607 432.851 42.9071 435.904C43.0618 436.46 43.6126 436.9 44.2244 436.905C138.667 437.568 233.362 437.747 327.701 433.342C339.309 432.8 350.928 432.277 362.526 431.587C371.777 431.036 385.466 432.209 394.088 428.728C398.203 427.066 398.893 425.149 399.603 421.097C401.516 410.188 399.186 397.524 398.807 386.52C397.29 342.667 403.029 299.038 409.156 255.679C416.171 206.08 424.562 155.843 422.579 105.624ZM418.095 108.403C418.143 154.972 411.796 200.927 405.752 246.919C408.245 200.979 408.542 155.197 414.068 109.505C415.409 109.135 416.752 108.769 418.095 108.403ZM177.004 16.421C178.341 10.8456 178.839 9.69679 184.253 9.36542C189.408 9.04873 198.569 9.37658 201.855 13.2867C202.405 13.9408 203.729 13.9699 204.306 13.3406C208.677 8.57572 221.742 14.6738 227.291 15.073C235.364 15.6521 241.436 12.7222 248.216 18.4742C248.781 18.9534 249.671 19.081 250.248 18.5189C250.867 17.9149 251.486 17.311 252.104 16.7091C248.369 33.1461 244.872 49.6312 241.686 66.174C231.261 64.5608 218.9 65.3896 209.764 67.9076C209.144 68.0774 209.278 68.8793 209.889 68.9457C216.371 69.6426 222.841 69.361 229.34 69.8137C233.121 70.0783 236.958 70.6478 240.785 71.0336C239.945 75.4889 239.1 79.9419 238.302 84.4042C236.37 95.221 234.538 106.05 232.96 116.919C232.715 118.608 232.144 129.277 231.385 129.66C231.738 129.482 226.304 128.572 226.507 128.587C224.915 128.476 223.179 129.106 221.609 128.884C218.61 128.462 216.097 125.494 213.625 124.781C212.638 124.497 211.484 124.347 210.457 124.057C210.434 124.051 203.377 123.653 202.559 123.719C200.065 123.183 196.023 122.33 196.087 122.335C194.696 122.237 193.285 122.19 191.885 122.135C190.699 122.088 189.897 123.338 188.769 123.236C188.062 123.172 187.047 121.692 186.188 121.539C181.514 120.71 177.998 123.268 175.105 119.198C174.908 118.922 174.505 118.659 174.132 118.795C170.588 120.085 169.758 120.855 167.323 118.16C167.116 117.931 166.651 117.848 166.38 118.023C160.352 121.936 164.75 114.115 165.491 110.583C166.364 106.412 167.172 102.227 167.932 98.0348C169.561 89.0416 170.935 80.0061 172.071 70.943C175.531 70.5544 179.119 70.0341 182.303 68.867C182.627 68.7477 182.761 68.2023 182.319 68.1233C179.082 67.5304 175.809 67.2506 172.554 66.7591C174.065 53.3426 174.73 40.0115 174.955 26.6074C175.513 23.216 176.186 19.8251 177.004 16.421ZM116.434 66.6602C98.4289 66.6841 80.4325 66.5125 62.4567 65.9908C80.4525 66.089 98.4453 66.3298 116.434 66.6602ZM31.0635 328.647C36.2338 299.603 41.2465 270.525 45.0306 241.279C52.5157 183.447 55.1893 124.238 42.4584 66.8615C84.6739 71.055 127.018 71.707 169.396 71.5425C167.063 88.6218 163.987 105.603 160.227 122.356C159.969 123.512 161.352 124.449 162.336 123.586C163.774 121.056 165.716 120.662 168.164 122.404C168.299 122.796 168.82 123.125 169.241 122.849C172.944 120.84 175.309 121.399 176.331 124.53C176.687 125.09 177.4 125.159 177.912 124.76C181.364 125.187 184.817 125.613 188.269 126.038C188.733 126.657 189.65 126.771 190.125 126.078C191.361 124.269 212.282 128.359 214.388 129.192C218.77 130.925 228.171 129.877 231.125 132.817C231.946 133.634 233.141 132.994 233.286 132.019C236.294 111.71 239.739 91.4573 243.589 71.2767C245.32 71.3962 247.043 71.4585 248.756 71.4044C249.237 71.3885 249.622 71.2218 249.927 70.9819C296.306 70.889 342.644 71.9059 388.809 77.6375C383.092 118.008 380.866 158.628 381.71 199.369C382.624 243.578 381.147 286.242 373.293 329.926C371.479 340.01 369.484 350.061 367.4 360.094C365.921 367.215 365.108 386.688 358.472 390.924C355.236 392.989 346.511 391.941 342.405 392.252C337.047 392.66 331.685 393.025 326.325 393.368C314.834 394.104 303.333 394.713 291.829 395.204C246.56 397.135 201.224 397.184 155.941 395.403C107.34 393.493 58.8717 389.337 10.6601 383.149C24.7606 368.521 27.6555 347.796 31.0635 328.647ZM362.949 395.519C364.036 395.427 365.268 394.881 365.522 393.737C377.173 341.535 388.34 289.17 388.047 235.532C387.904 209.253 386.241 183.024 387.033 156.74C387.74 133.272 389.692 109.872 392.712 86.5852C397.226 87.2796 402.326 87.883 406.248 89.6263C411.944 92.1586 412.138 92.3748 411.203 98.3912C409.436 109.764 408.13 121.214 407.114 132.67C405.016 156.35 404.209 180.116 403.041 203.851C401.905 226.883 400.75 249.934 398.802 272.918C396.773 296.903 392.461 320.585 390.082 344.518C389.03 355.091 388.612 365.635 388.8 376.254C388.893 381.464 389.05 386.671 388.884 391.88C388.73 396.744 389.527 408.764 385.891 412.22C382.506 415.438 374.521 413.171 370.181 413.02C365.35 412.851 360.515 412.904 355.687 413.089C345.063 413.497 334.484 414.632 323.958 416.027C300.685 419.113 277.534 423.622 254.034 424.949C243.017 425.573 231.928 425.513 220.962 424.224C208.36 422.742 196.293 419.701 183.523 419.754C157.371 419.866 131.221 424.156 105.087 425.289C78.0838 426.46 51.0693 425.597 24.8011 419.213C32.5938 411.509 38.0143 402.614 41.2871 392.24C148.167 403.809 255.745 404.644 362.949 395.519ZM396.55 419.395C390.273 428.736 368.259 426.907 357.982 427.7C346.379 428.596 334.764 429.317 323.14 429.909C277.415 432.236 231.644 432.819 185.862 433.394C161.136 433.704 136.412 433.786 111.685 433.872C98.956 433.916 86.2267 433.961 73.4954 434.005C67.5041 434.026 61.5129 434.049 55.5227 434.121C47.9509 434.213 45.3651 432.903 43.2351 427.215C65.7571 430.767 88.6346 431.101 111.59 429.833C144.243 428.028 176.722 421.788 209.26 427.236C269.064 437.248 326.883 411.646 386.629 418.553C387.595 418.664 388.486 417.878 388.773 417.069C397.179 393.327 391.624 367.028 394.824 342.429C395.496 337.269 396.21 332.124 396.933 326.984C396.22 336.737 395.678 346.506 395.407 356.301C395.13 366.351 395.168 376.402 395.546 386.451C395.739 391.577 396.031 396.699 396.237 401.825C396.4 405.923 398.714 416.179 396.55 419.395Z" fill="#4B2698"/>
<path d="M202.226 68.3028C203.181 68.3564 204.015 68.497 204.896 68.1251C205.298 67.9566 205.312 67.3109 204.918 67.1249C204.054 66.7146 203.215 66.8163 202.259 66.8299C201.261 66.8426 201.23 68.2463 202.226 68.3028Z" fill="#4B2698"/>
<path d="M188.886 68.9085C189.407 68.8385 189.95 68.4692 190.428 68.4288C191.187 68.366 191.208 67.4025 190.453 67.3064C189.973 67.2449 189.453 66.8543 188.933 66.7613C188.255 66.6384 187.677 66.7867 187.1 67.1287C186.571 67.4411 186.556 68.1256 187.071 68.4609C187.634 68.828 188.199 69.0014 188.886 68.9085Z" fill="#4B2698"/>
</svg>
