<svg width="421" height="443" viewBox="0 0 421 443" fill="none" xmlns="http://www.w3.org/2000/svg">
<path d="M351.562 37.0242C373.056 52.4395 387.558 73.5592 396.922 97.1318C392.901 92.6479 387.608 89.8751 380.501 89.1538C374.073 88.4987 367.46 88.4243 360.797 88.6471C360.655 87.9126 360.407 87.1758 360.25 86.5315C360.113 85.9733 359.284 85.9526 359.122 86.5067C358.927 87.18 358.626 87.9487 358.455 88.713C357.194 88.7684 355.933 88.8532 354.669 88.9282C354.641 88.6316 354.604 88.3275 354.572 88.0112C354.431 86.6237 354.165 85.2456 354.088 83.8522C354.058 83.3232 353.32 83.3069 353.267 83.8341C353.129 85.2228 352.803 86.5879 352.601 87.9679C352.546 88.3483 352.489 88.709 352.447 89.0652C351.737 89.1131 351.027 89.144 350.316 89.1969C350.136 85.9666 349.654 82.627 348.838 79.5711C348.734 79.1848 348.058 79.0966 347.985 79.5524C347.474 82.7479 347.313 86.1614 347.474 89.4401C346.65 89.51 345.829 89.5801 345.006 89.6549C345.122 88.1776 344.936 86.613 344.836 85.2337C344.63 82.3869 344.128 79.5434 343.693 76.7283C343.607 76.1687 342.671 76.2728 342.697 76.8409C342.837 79.8476 342.638 82.7834 342.425 85.78C342.326 87.1549 342.051 88.5577 342.038 89.9223C341.072 90.016 340.111 90.1196 339.148 90.2183C339.831 82.9247 338.798 75.63 336.725 68.5742C336.657 68.3403 336.31 68.428 336.356 68.6663C337.847 76.1814 337.388 83.2378 335.867 90.5546C334.595 90.6905 333.335 90.8267 332.07 90.9652C333.804 78.3722 332.178 63.3205 324.792 53.4132C324.649 53.2217 324.324 53.42 324.391 53.6343C326.266 59.7783 328.806 65.5211 329.79 71.9194C330.816 78.5755 330.096 84.9438 328.6 91.3438C327.644 91.45 326.695 91.549 325.744 91.6528C330.711 71.0836 321.922 49.5539 306.34 35.247C285.471 16.086 255.861 11.394 228.77 8.33266C226.067 8.02616 223.357 7.75866 220.651 7.479C265.793 10.1008 314.057 10.1275 351.562 37.0242Z" fill="#3792D4"/>
<path d="M191.083 64.7796C187.384 69.6024 181.618 69.05 176.496 67.1763C177.125 67.0433 177.763 66.9595 178.412 66.9224C179.264 66.8727 179.32 65.5751 178.442 65.5753C177.001 65.573 175.569 65.7519 174.192 66.1937C174.174 66.2007 174.155 66.2051 174.135 66.212C173.316 65.8442 172.53 65.4552 171.785 65.067C171.091 64.7044 170.464 64.3066 169.841 63.9064C170.803 63.6854 171.762 63.457 172.725 63.2703C173.113 63.1932 173.052 62.529 172.645 62.5641C171.221 62.6917 169.788 62.763 168.358 62.8587C167.956 62.5539 167.534 62.2585 167.17 61.9398C167.295 61.4876 167.329 61.0432 167.297 60.6144C168.608 60.2519 169.88 59.7148 171.101 59.1253C171.319 59.02 171.175 58.6817 170.948 58.7379C169.638 59.0564 168.327 59.2379 166.991 59.3748C166.73 58.7918 166.318 58.2961 165.803 57.908C165.967 57.8896 166.129 57.8687 166.281 57.8427C168.015 57.5409 169.712 57.0939 171.388 56.5535C171.898 56.3886 171.712 55.6018 171.181 55.7368C168.785 56.347 166.374 56.7295 163.906 56.8708C163.668 56.8852 163.447 56.9096 163.224 56.9341C162.919 56.3428 162.663 55.7428 162.452 55.1364C165.237 54.5984 168.005 54.1065 170.861 53.9296C172.362 55.7286 174.26 57.2086 176.559 58.1984C181.597 60.3663 187.272 59.7915 191.655 56.4513C193.09 55.3577 194.485 53.889 195.586 52.2279C195.394 56.5971 193.425 61.7295 191.083 64.7796Z" fill="#D23069"/>
<path d="M181.986 52.4741C179.993 52.4279 177.897 52.1861 175.869 52.3421C175.727 52.2313 175.575 52.1424 175.435 52.0243C175.234 51.8511 175.077 51.652 174.887 51.4693C175.381 51.3994 175.884 51.2931 176.414 51.2167C178.392 50.9251 180.336 50.5324 182.331 50.3415C182.65 50.3118 182.674 49.8598 182.342 49.8354C180.44 49.6982 178.502 49.5113 176.595 49.5892C175.615 49.6313 174.503 49.6068 173.587 49.9731C173.419 49.7419 173.258 49.506 173.111 49.2631C173.908 49.283 174.832 49.0025 175.419 48.8833C177.729 48.4107 180.076 48.3351 182.395 47.8773C182.847 47.7894 182.747 47.1073 182.307 47.0903C180.164 47.0089 178.066 46.7328 175.927 47.0111C175.169 47.1094 174.413 47.2224 173.658 47.3305C173.41 47.3667 172.161 47.5545 172.56 47.5192C172.472 47.5295 172.384 47.5348 172.307 47.5674C172.099 47.0003 171.949 46.405 171.845 45.7888C172.698 45.6902 173.546 45.5156 174.22 45.4546C177.083 45.1947 179.883 44.7573 182.663 44.0234C182.981 43.9399 182.935 43.4473 182.598 43.4423C180.326 43.4144 178.096 43.5023 175.828 43.6407C174.782 43.7058 173.736 43.7831 172.69 43.8482C172.349 43.87 172.011 43.887 171.671 43.9064C171.692 43.3027 171.782 42.7421 171.926 42.2145C174.941 42.0289 177.949 41.6181 180.928 41.1602C184.191 43.947 188.318 45.8037 192.77 46.3615C191.866 48.9833 190.935 51.3966 188.151 53.1944C185.119 55.1505 181.47 55.2244 178.328 53.8442C179.584 53.5685 180.832 53.2315 182.046 52.9793C182.323 52.9145 182.267 52.4803 181.986 52.4741Z" fill="#D23069"/>
<path d="M161.949 48.2055C163.84 47.9634 165.771 47.4555 167.515 47.0267C167.699 47.8771 167.955 48.6996 168.26 49.4964C166.085 49.8619 163.895 50.1342 161.697 50.3256C161.72 49.6143 161.804 48.9068 161.949 48.2055Z" fill="#D23069"/>
<path d="M172.977 39.7645C173.706 39.6826 174.436 39.5323 175.157 39.4381C176.337 39.283 177.515 39.1035 178.693 38.9288C179.146 39.4525 179.622 39.9522 180.127 40.4305C177.601 40.3994 175.064 40.412 172.541 40.5743C172.677 40.3033 172.822 40.0325 172.977 39.7645Z" fill="#D23069"/>
<path d="M178.068 38.1767C177.049 38.1592 176.029 38.1344 175.009 38.134C174.684 38.1341 174.359 38.1246 174.036 38.115C174.17 37.9174 174.304 37.7099 174.441 37.505C175.314 37.2845 176.157 37.0071 176.963 36.6041C177.308 37.1474 177.673 37.6715 178.068 38.1767Z" fill="#D23069"/>
<path d="M176.378 35.6348C176.138 35.6222 175.899 35.6071 175.659 35.6116C175.776 35.4258 175.91 35.2258 176.021 35.0424C176.127 35.2477 176.265 35.4318 176.378 35.6348Z" fill="#D23069"/>
<path d="M167.187 45.0211C167.211 45.2638 167.27 45.495 167.304 45.733C165.93 46.0061 164.557 46.267 163.169 46.4517C162.928 46.4831 162.678 46.5021 162.431 46.526C162.773 45.5576 163.204 44.6082 163.782 43.6988C164.435 43.493 165.082 43.2895 165.72 43.1103C166.579 42.8699 166.251 41.5419 165.38 41.7625C165.324 41.7759 165.265 41.7892 165.208 41.8027C166.019 40.8763 166.987 40.0146 168.071 39.2142C167.345 40.9373 166.966 42.8246 167.187 45.0211Z" fill="#D23069"/>
<path d="M168.81 50.7591C169.238 51.6418 169.743 52.4748 170.326 53.2556C167.55 53.2288 164.756 53.2603 161.995 53.5592C161.893 53.0946 161.795 52.6301 161.745 52.1643C164.129 51.8572 166.47 51.3779 168.81 50.7591Z" fill="#D23069"/>
<path d="M164.892 59.5044C164.573 59.1011 164.247 58.6977 163.975 58.2783C164.434 58.5624 164.838 58.9871 165.115 59.4946C165.042 59.4979 164.966 59.4987 164.892 59.5044Z" fill="#D23069"/>
<path d="M185.031 37.3438C185.209 37.3306 185.388 37.315 185.57 37.3043C187.002 37.216 188.433 37.1276 189.863 37.0392C190.696 36.989 190.739 35.7963 189.892 35.7336C188.466 35.6289 187.037 35.5265 185.611 35.4218C184.739 35.3586 183.891 35.2323 183.064 35.3535C182.918 35.1815 182.78 35.0073 182.645 34.8306C184.845 34.5635 186.995 34.3491 189.239 34.3886C189.824 34.3991 189.985 33.5171 189.401 33.3575C186.882 32.6711 184.082 32.5288 181.532 33.1747C181.305 32.7857 181.089 32.392 180.897 31.9793C181.935 31.9801 183.002 31.8006 183.998 31.6953C185.81 31.5027 187.622 31.3102 189.433 31.1177C189.956 31.0631 190.012 30.2792 189.452 30.2767C187.515 30.2585 185.578 30.2404 183.641 30.2247C182.551 30.2154 181.442 30.1348 180.384 30.3072C180.364 29.9716 180.347 29.6313 180.33 29.291C182.354 29.3844 184.441 28.9948 186.439 28.7942C189.393 28.4971 192.351 28.2613 195.315 28.0623C195.979 28.0182 196.025 27.0115 195.338 27.0086C192.173 27.0026 189.009 27.0431 185.844 27.1545C183.981 27.2212 182.081 27.194 180.275 27.5946C180.265 27.1394 180.273 26.6847 180.283 26.2299C185.633 26.3036 191.206 25.2398 196.497 24.6933C197.075 24.6326 197.122 23.7311 196.517 23.7667C191.242 24.0812 185.604 23.9523 180.352 24.8617C180.419 24.0193 180.536 23.1902 180.722 22.3773C181.865 22.1481 183.005 21.8112 184.127 21.6108C186.533 21.177 188.935 20.7406 191.367 20.4761C191.524 20.46 191.541 20.2329 191.373 20.2243C188.439 20.0693 184.501 19.8285 181.253 20.6156C181.481 20.0263 181.743 19.4475 182.078 18.8947C184.089 15.5512 187.704 13.4269 191.53 12.8628C193.255 12.9472 194.98 13.0365 196.709 13.1333C197.328 13.3792 197.943 13.6423 198.566 13.925C198.907 14.0817 199.513 14.3299 200.218 14.6316C207.196 19.1145 212.145 30.7708 206.081 37.0215C200.134 43.1476 190.893 42.2522 185.031 37.3438Z" fill="#D23069"/>
<path d="M54.6704 381.291C52.662 379.074 50.7721 376.812 48.9462 374.529C50.0145 374.447 51.0899 374.263 52.0305 374.2C52.518 374.167 52.5352 373.497 52.0472 373.442C50.7271 373.296 49.165 372.922 47.7073 372.919C47.1103 372.148 46.5034 371.381 45.9261 370.603C48.2039 371.247 50.5106 371.349 52.8628 370.723C53.2368 370.624 53.1528 370.106 52.7891 370.069C50.1897 369.813 47.5509 369.352 45.1503 368.286C44.6223 368.052 44.1299 367.753 43.6502 367.431C42.7157 366.1 41.7739 364.773 40.8937 363.42C45.2489 365.361 50.215 366.328 54.2326 366.492C54.3426 366.497 54.3607 366.341 54.2612 366.307C50.3278 364.981 46.4612 363.289 42.8062 361.317C40.8651 360.272 39.1029 358.876 37.3067 357.579C36.2766 355.815 35.3081 354.03 34.3618 352.236C42.8156 358.554 55.7252 360.129 65.7609 360.139C66.2183 360.14 66.2103 359.503 65.7762 359.445C58.0357 358.397 49.44 357.305 42.436 353.573C34.801 349.503 31.9198 343.266 27.9989 336.148C27.7637 335.719 27.2858 335.54 26.8231 335.559C26.3629 334.351 25.9101 333.142 25.4795 331.922C26.0935 332.699 26.6703 333.496 27.3363 334.242C42.9643 351.794 67.7642 355.688 90.3706 357.447C81.1864 372.66 83.7429 391.995 93.7077 407.13C95.6534 410.084 97.8354 412.741 100.194 415.159C83.3257 406.96 67.9359 395.931 54.6704 381.291Z" fill="#3792D4"/>
<path d="M405.901 235.317C399.64 298.881 384.363 361.165 383.482 425.243C323.968 426.126 264.458 427.287 204.947 428.41C177.504 428.927 146.837 432.212 121.369 419.863C99.4642 409.24 81.7275 377.688 101.287 356.593C103.715 353.973 102.175 349.803 98.5557 349.564C70.3206 347.713 35.9517 343.829 24.7243 313.144C19.7336 299.503 19.664 284.427 18.9983 270.098C18.2187 253.272 17.5958 236.44 17.1271 219.603C15.6001 164.579 15.3958 109.468 16.3205 54.4096C16.7472 46.2371 17.2425 38.0661 17.5642 29.8889C17.786 24.2509 16.6831 21.6827 21.2201 18.4731C24.865 15.8944 30.6815 16.4577 34.996 16.0218C43.7011 15.1419 52.4178 14.4041 61.1403 13.7301C96.0796 11.0325 131.11 10.1788 166.132 11.536C170.738 11.7156 175.397 11.8889 180.079 12.0775C178.092 13.8952 176.528 16.2848 175.558 19.14C174.224 23.0634 174.104 26.7591 174.815 30.1135C173.842 31.3249 172.83 32.4865 171.878 33.6543C163.74 33.7787 157.035 40.6904 156.081 48.8146C154.969 58.3075 161.137 65.6026 169.076 69.8498C176.249 73.6863 186.345 76.8508 193.462 71.1907C200.179 65.8496 203.559 54.0683 200.383 46.2373C200.32 46.0793 200.212 45.9889 200.127 45.8623C201.917 45.5348 203.709 45.036 205.466 44.2454C217.966 38.6279 216.506 22.6968 208.427 13.5986C228.046 15.0403 247.642 17.5552 266.099 22.7969C296.876 31.5333 329.954 59.5091 316.347 94.9826C315.457 97.3063 317.642 100.612 320.25 100.347C337.872 98.555 355.659 97.1264 373.384 97.1615C385.591 97.1854 392.723 101.894 396.666 113.343C399.221 120.761 401.12 128.466 402.745 136.139C409.647 168.727 409.151 202.326 405.901 235.317Z" fill="#3792D4"/>
<path d="M192.135 14.8436C189.5 14.8639 187.142 15.0958 184.761 16.3349C184.21 16.6212 184.579 17.4096 185.146 17.3047C187.55 16.8659 189.838 16.065 192.215 15.5473C192.608 15.463 192.541 14.8403 192.135 14.8436Z" fill="#D23069"/>
<path d="M416.09 176.602C416.115 176.456 416.174 176.337 416.173 176.171C415.699 125.11 401.682 71.579 360.324 38.2525C340.424 22.2167 316.459 14.9289 291.489 11.3051C260.709 6.83676 228.666 5.74548 197.595 5.08164C197.387 5.07707 197.283 5.224 197.272 5.3803C135.866 0.68601 73.8256 2.48163 12.9388 11.4205C11.4616 11.6375 10.1313 13.3988 10.1945 14.8653C11.1014 36.3514 8.73262 57.7531 9.66175 79.2323C7.51583 136.651 7.61983 194.088 9.81384 251.586C10.3645 266.027 9.85288 282.616 12.244 298.235C17.6882 362.983 72.8634 421.223 136.162 433.737C144.245 435.571 152.594 436.515 160.711 436.909C197.089 438.67 234.012 436.087 270.412 435.367C309.156 434.602 347.899 433.791 386.642 432.862C388.607 432.815 390.44 431.319 390.432 429.235C390.127 354.464 413.041 281.994 415.979 207.465C416.375 197.433 416.484 187.055 416.09 176.602ZM351.562 37.0251C373.056 52.4405 387.559 73.5603 396.922 97.1328C392.902 92.649 387.608 89.8761 380.502 89.1548C374.073 88.4998 367.461 88.4252 360.798 88.648C360.655 87.9135 360.407 87.1768 360.25 86.5325C360.113 85.9742 359.284 85.9535 359.123 86.5077C358.927 87.1809 358.627 87.9497 358.456 88.7139C357.195 88.7694 355.933 88.8542 354.669 88.9291C354.642 88.6325 354.604 88.3284 354.572 88.0122C354.431 86.6246 354.166 85.2466 354.089 83.8531C354.059 83.3241 353.321 83.3079 353.267 83.835C353.129 85.2238 352.803 86.5888 352.602 87.9688C352.547 88.3492 352.49 88.7099 352.448 89.0661C351.738 89.1141 351.027 89.1449 350.317 89.1978C350.136 85.9675 349.654 82.6279 348.839 79.5721C348.734 79.1858 348.059 79.0975 347.985 79.5533C347.475 82.7488 347.314 86.1623 347.474 89.441C346.651 89.511 345.83 89.581 345.006 89.6558C345.122 88.1786 344.936 86.6139 344.837 85.2346C344.631 82.3879 344.128 79.5443 343.694 76.7292C343.608 76.1696 342.671 76.2737 342.698 76.8418C342.837 79.8486 342.638 82.7843 342.425 85.7809C342.327 87.1558 342.051 88.5586 342.038 89.9232C341.073 90.0169 340.112 90.1205 339.148 90.2192C339.832 82.9256 338.799 75.6309 336.726 68.5751C336.657 68.3412 336.311 68.4289 336.357 68.6672C337.847 76.1823 337.389 83.2387 335.868 90.5555C334.596 90.6914 333.335 90.8275 332.07 90.9661C333.805 78.3731 332.179 63.3213 324.792 53.414C324.65 53.2225 324.325 53.4209 324.391 53.6351C326.267 59.7791 328.807 65.5219 329.791 71.9203C330.816 78.5764 330.097 84.9446 328.601 91.3447C327.644 91.4509 326.696 91.5499 325.744 91.6537C330.712 71.0845 321.923 49.5547 306.341 35.2478C285.472 16.0867 255.861 11.3946 228.771 8.33323C226.067 8.02672 223.358 7.75922 220.652 7.47955C265.794 10.1015 314.057 10.1283 351.562 37.0251ZM191.084 64.7798C187.385 69.6027 181.619 69.0502 176.497 67.1764C177.126 67.0435 177.764 66.9597 178.413 66.9226C179.265 66.8729 179.321 65.5753 178.443 65.5755C177.002 65.5732 175.57 65.7521 174.192 66.1939C174.175 66.2008 174.156 66.2053 174.136 66.2122C173.317 65.8444 172.531 65.4553 171.786 65.0672C171.092 64.7046 170.465 64.3067 169.842 63.9066C170.804 63.6856 171.763 63.4572 172.726 63.2704C173.114 63.1934 173.053 62.5292 172.646 62.5642C171.222 62.6919 169.789 62.7631 168.359 62.8588C167.957 62.554 167.535 62.2586 167.171 61.94C167.296 61.4877 167.33 61.0433 167.298 60.6146C168.609 60.2521 169.881 59.715 171.102 59.1255C171.32 59.0202 171.175 58.6819 170.949 58.738C169.638 59.0565 168.328 59.2381 166.992 59.375C166.731 58.792 166.319 58.2962 165.804 57.9082C165.968 57.8898 166.13 57.8689 166.282 57.8429C168.016 57.541 169.713 57.094 171.389 56.5536C171.899 56.3887 171.713 55.6019 171.181 55.737C168.786 56.3472 166.375 56.7296 163.907 56.871C163.669 56.8853 163.448 56.9098 163.225 56.9342C162.92 56.3429 162.664 55.7429 162.453 55.1366C165.238 54.5986 168.006 54.1066 170.862 53.9297C172.363 55.7288 174.26 57.2087 176.56 58.1986C181.597 60.3665 187.273 59.7917 191.656 56.4515C193.091 55.3579 194.486 53.8892 195.587 52.2281C195.395 56.5974 193.426 61.7298 191.084 64.7798ZM181.986 52.4744C179.994 52.4282 177.898 52.1864 175.869 52.3424C175.727 52.2316 175.575 52.1426 175.436 52.0246C175.234 51.8514 175.077 51.6523 174.888 51.4696C175.381 51.3997 175.885 51.2934 176.415 51.217C178.393 50.9254 180.336 50.5327 182.332 50.3418C182.65 50.3121 182.675 49.8601 182.343 49.8357C180.44 49.6985 178.502 49.5116 176.595 49.5895C175.616 49.6315 174.503 49.607 173.588 49.9734C173.419 49.7422 173.258 49.5062 173.112 49.2633C173.909 49.2833 174.832 49.0028 175.42 48.8836C177.729 48.4109 180.077 48.3354 182.396 47.8776C182.848 47.7897 182.748 47.1076 182.308 47.0906C180.164 47.0092 178.067 46.7331 175.928 47.0114C175.17 47.1097 174.414 47.2227 173.658 47.3308C173.41 47.3669 172.161 47.5547 172.561 47.5195C172.473 47.5298 172.384 47.5351 172.308 47.5677C172.1 47.0005 171.949 46.4053 171.845 45.7891C172.699 45.6904 173.547 45.5159 174.221 45.4549C177.083 45.1949 179.884 44.7575 182.664 44.0237C182.981 43.9402 182.936 43.4476 182.598 43.4426C180.327 43.4146 178.096 43.5026 175.828 43.641C174.782 43.7061 173.736 43.7834 172.69 43.8484C172.35 43.8703 172.012 43.8873 171.672 43.9067C171.692 43.303 171.783 42.7424 171.927 42.2148C174.942 42.0292 177.949 41.6184 180.929 41.1605C184.192 43.9473 188.319 45.804 192.771 46.3618C191.867 48.9836 190.935 51.3969 188.152 53.1947C185.119 55.1508 181.471 55.2247 178.329 53.8445C179.585 53.5688 180.832 53.2318 182.046 52.9796C182.324 52.9148 182.267 52.4806 181.986 52.4744ZM161.95 48.2057C163.841 47.9636 165.772 47.4558 167.516 47.0269C167.7 47.8773 167.956 48.6999 168.261 49.4966C166.086 49.8622 163.896 50.1345 161.698 50.3258C161.721 49.6145 161.805 48.907 161.95 48.2057ZM172.978 39.765C173.707 39.6832 174.436 39.5329 175.158 39.4387C176.338 39.2836 177.516 39.1041 178.694 38.9295C179.147 39.4531 179.622 39.9528 180.128 40.4311C177.602 40.4 175.065 40.4126 172.542 40.5748C172.678 40.3039 172.823 40.0331 172.978 39.765ZM178.069 38.177C177.05 38.1595 176.03 38.1347 175.01 38.1342C174.685 38.1344 174.36 38.1248 174.037 38.1153C174.171 37.9177 174.305 37.7102 174.442 37.5053C175.315 37.2848 176.158 37.0074 176.964 36.6044C177.309 37.1477 177.674 37.6718 178.069 38.177ZM176.379 35.6352C176.139 35.6226 175.9 35.6075 175.66 35.612C175.777 35.4262 175.911 35.2261 176.022 35.0427C176.128 35.248 176.266 35.4321 176.379 35.6352ZM167.188 45.0213C167.212 45.264 167.271 45.4952 167.304 45.7332C165.931 46.0063 164.558 46.2672 163.17 46.4519C162.929 46.4833 162.679 46.5023 162.432 46.5262C162.773 45.5578 163.205 44.6084 163.783 43.699C164.436 43.4932 165.083 43.2897 165.721 43.1105C166.58 42.8701 166.252 41.5421 165.381 41.7627C165.325 41.7761 165.266 41.7894 165.209 41.8029C166.02 40.8765 166.988 40.0149 168.072 39.2144C167.346 40.9375 166.967 42.8248 167.188 45.0213ZM168.811 50.7586C169.239 51.6412 169.744 52.4743 170.326 53.2551C167.551 53.2283 164.757 53.2598 161.996 53.5586C161.893 53.0941 161.796 52.6296 161.745 52.1637C164.129 51.8566 166.471 51.3773 168.811 50.7586ZM164.893 59.505C164.574 59.1017 164.248 58.6983 163.976 58.2789C164.434 58.563 164.838 58.9877 165.116 59.4952C165.042 59.4985 164.967 59.4993 164.893 59.505ZM185.032 37.3445C185.211 37.3313 185.389 37.3157 185.571 37.305C187.004 37.2166 188.434 37.1282 189.864 37.0398C190.697 36.9897 190.74 35.797 189.893 35.7343C188.467 35.6296 187.038 35.5272 185.612 35.4224C184.74 35.3592 183.892 35.2329 183.065 35.3541C182.919 35.1822 182.781 35.0079 182.646 34.8313C184.846 34.5641 186.996 34.3497 189.24 34.3893C189.825 34.3997 189.986 33.5178 189.402 33.3582C186.883 32.6717 184.083 32.5294 181.533 33.1753C181.306 32.7863 181.09 32.3927 180.899 31.98C181.936 31.9808 183.004 31.8012 183.999 31.6959C185.811 31.5034 187.623 31.3109 189.434 31.1183C189.957 31.0638 190.013 30.2799 189.453 30.2773C187.516 30.2592 185.579 30.2411 183.642 30.2254C182.552 30.2161 181.443 30.1354 180.385 30.3078C180.365 29.9723 180.348 29.632 180.331 29.2916C182.355 29.385 184.442 28.9955 186.44 28.7948C189.394 28.4978 192.352 28.262 195.316 28.063C195.98 28.0189 196.026 27.0122 195.339 27.0093C192.174 27.0033 189.01 27.0438 185.845 27.1552C183.982 27.2218 182.082 27.1947 180.276 27.5952C180.266 27.1401 180.274 26.6853 180.284 26.2306C185.634 26.3042 191.207 25.2405 196.498 24.694C197.077 24.6333 197.123 23.7318 196.518 23.7674C191.243 24.0818 185.605 23.953 180.353 24.8623C180.421 24.02 180.537 23.1908 180.723 22.378C181.866 22.1487 183.006 21.8118 184.128 21.6115C186.534 21.1776 188.936 20.7413 191.368 20.4768C191.525 20.4607 191.543 20.2336 191.374 20.225C188.44 20.07 184.502 19.8292 181.254 20.6163C181.482 20.0269 181.744 19.4481 182.079 18.8953C184.09 15.5519 187.705 13.4275 191.531 12.8635C193.256 12.9479 194.981 13.0372 196.711 13.134C197.329 13.3799 197.944 13.643 198.567 13.9257C198.908 14.0824 199.514 14.3306 200.219 14.6323C207.197 19.1152 212.146 30.7716 206.082 37.0223C200.135 43.1483 190.894 42.2529 185.032 37.3445ZM54.6702 381.29C52.6619 379.074 50.772 376.812 48.9461 374.529C50.0144 374.447 51.0898 374.263 52.0304 374.2C52.5179 374.167 52.5351 373.497 52.0471 373.442C50.727 373.296 49.1649 372.921 47.7072 372.919C47.1102 372.147 46.5033 371.381 45.9261 370.602C48.2038 371.247 50.5106 371.349 52.8627 370.723C53.2367 370.624 53.1527 370.106 52.789 370.068C50.1897 369.813 47.5508 369.351 45.1502 368.286C44.6222 368.052 44.1298 367.752 43.6501 367.431C42.7157 366.1 41.7738 364.773 40.8936 363.42C45.2488 365.36 50.215 366.328 54.2326 366.492C54.3425 366.497 54.3606 366.341 54.2611 366.307C50.3277 364.98 46.4612 363.288 42.8062 361.317C40.865 360.272 39.1028 358.875 37.3066 357.579C36.2765 355.814 35.308 354.03 34.3617 352.235C42.8156 358.553 55.7252 360.129 65.7609 360.139C66.2183 360.14 66.2102 359.503 65.7761 359.445C58.0356 358.397 49.4399 357.305 42.4359 353.572C34.801 349.503 31.9198 343.266 27.9989 336.148C27.7637 335.719 27.2858 335.54 26.8231 335.559C26.3629 334.35 25.9101 333.142 25.4795 331.922C26.0935 332.698 26.6703 333.496 27.3363 334.242C42.9643 351.794 67.7642 355.688 90.3706 357.447C81.1863 372.66 83.7427 391.995 93.7075 407.13C95.6532 410.084 97.8352 412.741 100.194 415.159C83.3255 406.96 67.9358 395.93 54.6702 381.29ZM405.505 235.579C399.245 299.143 383.967 361.427 383.086 425.505C323.572 426.387 264.062 427.549 204.551 428.671C177.108 429.188 146.441 432.474 120.973 420.124C99.0683 409.501 81.3317 377.949 100.892 356.854C103.319 354.234 101.78 350.064 98.1599 349.825C69.9249 347.974 35.556 344.09 24.3287 313.405C19.338 299.764 19.2685 284.687 18.6028 270.359C17.8232 253.533 17.2004 236.7 16.7317 219.864C15.2049 164.839 15.0008 109.729 15.9256 54.6704C16.3524 46.4979 16.8477 38.3269 17.1694 30.1497C17.3912 24.5117 16.2883 21.9435 20.8253 18.7339C24.4703 16.1553 30.2867 16.7186 34.6013 16.2827C43.3064 15.4028 52.023 14.665 60.7456 13.991C95.6849 11.2935 130.716 10.4399 165.737 11.7972C170.344 11.9768 175.002 12.1502 179.684 12.3388C177.697 14.1565 176.133 16.5461 175.163 19.4012C173.829 23.3246 173.709 27.0204 174.42 30.3748C173.447 31.5862 172.436 32.7478 171.483 33.9156C163.345 34.0399 156.64 40.9516 155.686 49.0758C154.574 58.5687 160.742 65.8638 168.681 70.111C175.854 73.9475 185.95 77.1121 193.068 71.4521C199.784 66.111 203.165 54.3296 199.988 46.4986C199.926 46.3407 199.818 46.2502 199.732 46.1236C201.523 45.7961 203.314 45.2973 205.071 44.5068C217.571 38.8893 216.111 22.9582 208.032 13.86C227.651 15.3017 247.247 17.8167 265.704 23.0584C296.481 31.7949 329.559 59.7708 315.952 95.2443C315.062 97.568 317.247 100.874 319.855 100.609C337.477 98.8168 355.264 97.3882 372.989 97.4234C385.196 97.4473 392.328 102.156 396.271 113.605C398.826 121.023 400.725 128.728 402.35 136.4C409.252 168.989 408.755 202.588 405.505 235.579Z" fill="#070E69"/>
</svg>
