<svg width="410" height="396" viewBox="0 0 410 396" fill="none" xmlns="http://www.w3.org/2000/svg">
<path d="M240.15 30.9375C234.386 37.0238 225.068 36.479 219.003 31.9651C219.183 31.9463 219.362 31.9252 219.544 31.9087C220.978 31.775 222.416 31.6414 223.851 31.5077C224.686 31.4287 224.688 30.2842 223.834 30.2529C222.397 30.201 220.957 30.1491 219.52 30.0995C218.642 30.0685 217.784 29.9762 216.957 30.1208C216.805 29.9606 216.66 29.798 216.516 29.6307C218.718 29.299 220.874 29.0196 223.129 28.981C223.717 28.9711 223.849 28.1187 223.257 27.9853C220.701 27.4143 217.881 27.3733 215.339 28.0783C215.099 27.7124 214.868 27.3416 214.661 26.9518C215.703 26.9172 216.771 26.7084 217.768 26.5733C219.582 26.3266 221.397 26.0799 223.212 25.8355C223.735 25.7653 223.764 25.0104 223.201 25.0248C221.253 25.0734 219.306 25.1245 217.358 25.1731C216.262 25.2014 215.144 25.1641 214.087 25.3634C214.056 25.0418 214.027 24.7156 213.998 24.3893C216.035 24.41 218.12 23.9647 220.121 23.7038C223.081 23.3178 226.045 22.9903 229.016 22.6981C229.681 22.6331 229.694 21.6648 229.003 21.6854C225.821 21.7877 222.642 21.9345 219.464 22.1495C217.594 22.2771 215.683 22.3158 213.881 22.7621C213.856 22.3253 213.848 21.8883 213.842 21.4513C219.223 21.3394 224.788 20.1276 230.088 19.4222C230.667 19.3442 230.683 18.4769 230.076 18.5317C224.784 19.0137 219.112 19.0847 213.864 20.1349C213.903 19.3236 213.991 18.5232 214.151 17.7362C215.291 17.4771 216.425 17.1146 217.546 16.8839C219.951 16.3851 222.35 15.8841 224.786 15.5471C224.943 15.5263 224.95 15.3076 224.783 15.305C221.828 15.2563 217.861 15.1595 214.623 16.0263C214.832 15.4525 215.076 14.8876 215.393 14.3453C218.134 9.63069 224.272 7.1824 229.737 8.25399C230.421 8.48252 231.103 8.7346 231.793 9.01006C232.142 9.14892 232.759 9.36418 233.479 9.63221C240.653 13.7041 246.03 24.7299 240.15 30.9375Z" fill="#6F9E6E"/>
<path d="M226.036 58.1096C222.484 62.8676 216.67 62.5338 211.453 60.9091C212.081 60.76 212.72 60.6576 213.371 60.5999C214.226 60.523 214.237 59.2749 213.354 59.3051C211.906 59.352 210.472 59.5726 209.103 60.0439C209.086 60.0512 209.066 60.0561 209.047 60.0634C208.211 59.7382 207.407 59.3914 206.645 59.044C205.935 58.7195 205.291 58.3588 204.651 57.9981C205.61 57.7531 206.566 57.501 207.528 57.2888C207.915 57.2039 207.831 56.5656 207.423 56.6132C205.996 56.7844 204.558 56.9017 203.124 57.0424C202.712 56.7634 202.275 56.4941 201.9 56.2004C202.01 55.7619 202.029 55.334 201.982 54.9233C203.288 54.5304 204.548 53.9712 205.755 53.3634C205.97 53.2548 205.816 52.9348 205.588 52.9941C204.281 53.3471 202.971 53.5662 201.632 53.7409C201.35 53.1899 200.918 52.7277 200.387 52.3726C200.552 52.3494 200.714 52.3239 200.866 52.2937C202.6 51.9446 204.289 51.4574 205.954 50.8812C206.461 50.7054 206.247 49.9562 205.718 50.1041C203.33 50.7718 200.921 51.2212 198.444 51.4413C198.206 51.4631 197.985 51.4942 197.761 51.5252C197.434 50.9678 197.156 50.4003 196.923 49.8252C199.704 49.2135 202.469 48.6465 205.334 48.3792C206.905 50.0558 208.864 51.4124 211.209 52.2846C216.348 54.1947 222.033 53.4491 226.324 50.0916C227.729 48.9924 229.08 47.5343 230.129 45.9015C230.085 50.1042 228.283 55.0981 226.036 58.1096Z" fill="#6F9E6E"/>
<path d="M216.464 46.6014C214.46 46.6249 212.345 46.4642 210.311 46.6809C210.164 46.5793 210.008 46.4992 209.864 46.3906C209.656 46.2311 209.491 46.0452 209.294 45.8762C209.788 45.7923 210.29 45.673 210.82 45.5815C212.799 45.234 214.739 44.7906 216.735 44.5391C217.055 44.4998 217.064 44.0649 216.729 44.0528C214.812 43.9859 212.857 43.8725 210.943 44.0124C209.96 44.0838 208.841 44.1005 207.933 44.4836C207.756 44.2673 207.586 44.0464 207.43 43.8181C208.232 43.81 209.151 43.5091 209.737 43.3723C212.042 42.8395 214.399 42.6869 216.714 42.1681C217.166 42.0683 217.044 41.4164 216.599 41.4151C214.442 41.4101 212.324 41.2166 210.183 41.5568C209.424 41.6771 208.669 41.8114 207.913 41.941C207.665 41.9842 206.411 42.2071 206.818 42.1596C206.73 42.1725 206.642 42.1807 206.563 42.2146C206.335 41.677 206.163 41.1105 206.035 40.5222C206.889 40.3984 207.735 40.2019 208.413 40.1203C211.282 39.773 214.082 39.2573 216.851 38.4577C217.167 38.3667 217.105 37.8951 216.765 37.9019C214.481 37.9549 212.242 38.113 209.967 38.3233C208.918 38.4215 207.869 38.5315 206.819 38.6297C206.478 38.6623 206.139 38.6901 205.797 38.7203C205.8 38.1398 205.869 37.5984 205.995 37.0868C209.02 36.8057 212.029 36.3084 215.011 35.767C218.387 38.3321 222.6 39.9745 227.094 40.3583C226.276 42.9071 225.423 45.2566 222.686 47.0781C219.706 49.0602 216.041 49.2555 212.835 48.0372C214.088 47.7296 215.33 47.3635 216.542 47.0799C216.819 47.0105 216.75 46.5977 216.464 46.6014Z" fill="#6F9E6E"/>
<path d="M196.175 43.186C198.068 42.8889 199.992 42.3351 201.73 41.8638C201.945 42.6742 202.23 43.4555 202.565 44.2103C200.391 44.6355 198.198 44.9717 195.993 45.2306C195.996 44.5466 196.054 43.8644 196.175 43.186Z" fill="#6F9E6E"/>
<path d="M206.973 34.7035C207.702 34.6 208.431 34.4309 209.152 34.3158C210.333 34.129 211.511 33.9139 212.689 33.706C213.163 34.1934 213.658 34.6571 214.183 35.0992C211.643 35.1555 209.093 35.2543 206.563 35.4961C206.687 35.2313 206.824 34.9663 206.973 34.7035Z" fill="#6F9E6E"/>
<path d="M212.035 33.0041C211.01 33.0221 209.984 33.0331 208.959 33.0698C208.632 33.0811 208.305 33.0829 207.98 33.0848C208.108 32.8904 208.236 32.6867 208.366 32.4852C209.236 32.2436 210.073 31.9485 210.87 31.5339C211.233 32.0416 211.618 32.5301 212.035 33.0041Z" fill="#6F9E6E"/>
<path d="M210.246 30.6211C210.005 30.6172 209.764 30.6109 209.523 30.6235C209.634 30.4411 209.761 30.2443 209.867 30.0643C209.981 30.2579 210.128 30.43 210.246 30.6211Z" fill="#6F9E6E"/>
<path d="M201.334 39.9466C201.366 40.1788 201.433 40.3988 201.475 40.6262C200.104 40.9354 198.733 41.2329 197.344 41.4577C197.103 41.496 196.853 41.5227 196.604 41.5541C196.915 40.6124 197.316 39.6859 197.865 38.7928C198.514 38.5729 199.158 38.3554 199.793 38.1615C200.648 37.9013 200.273 36.6371 199.405 36.8787C199.349 36.8935 199.29 36.9084 199.233 36.9232C200.016 36.0059 200.957 35.1452 202.021 34.3395C201.349 36.0215 201.036 37.847 201.334 39.9466Z" fill="#6F9E6E"/>
<path d="M203.163 45.4013C203.624 46.2344 204.16 47.0171 204.772 47.7472C201.981 47.8162 199.174 47.9417 196.409 48.3229C196.29 47.8802 196.176 47.4375 196.109 46.9919C198.495 46.6179 200.83 46.0777 203.163 45.4013Z" fill="#6F9E6E"/>
<path d="M199.524 53.9345C199.19 53.5557 198.848 53.1818 198.562 52.7883C199.033 53.0455 199.454 53.4396 199.75 53.9175C199.677 53.9255 199.601 53.9288 199.524 53.9345Z" fill="#6F9E6E"/>
<path d="M400.155 349.211C399.627 356.53 399.649 359.594 394.489 361.743C394.273 361.193 394.025 360.656 393.731 360.154C393.444 359.667 392.661 360.015 392.806 360.54C392.966 361.118 393.032 361.691 393.074 362.264C392.359 362.501 391.562 362.732 390.682 362.958C390.62 362.721 390.565 362.487 390.533 362.25C390.391 361.18 390.33 360.069 390.319 358.993C390.313 358.546 389.665 358.496 389.528 358.9C389.113 360.125 388.96 361.213 389.092 362.499C389.118 362.752 389.143 363.02 389.176 363.287C388.222 363.504 387.258 363.7 386.286 363.877C386.211 363.227 386.045 362.566 385.941 361.945C385.656 360.219 385.194 358.53 384.93 356.797C384.887 356.522 384.457 356.507 384.465 356.803C384.516 358.642 384.368 360.473 384.396 362.31C384.407 362.952 384.366 363.601 384.423 364.216C383.103 364.428 381.774 364.622 380.438 364.796C380.615 361.671 380.018 358.527 379.867 355.41C379.853 355.098 379.366 355.104 379.358 355.417C379.288 358.593 378.744 361.805 379.034 364.981C377.73 365.144 376.428 365.302 375.131 365.459C375.222 365.425 375.323 365.412 375.385 365.32C376.568 363.598 376.004 361.255 375.944 359.277C375.872 356.944 375.546 354.718 375.184 352.413C375.13 352.066 374.493 352.074 374.449 352.422C374.147 354.736 373.878 356.97 373.866 359.304C373.857 361.283 373.354 363.64 374.581 365.33C374.659 365.437 374.777 365.464 374.888 365.488C373.049 365.712 371.221 365.945 369.427 366.215C368.076 366.418 366.729 366.616 365.378 366.819C366.636 362.472 366.234 356.679 365.411 352.417C365.224 351.442 363.77 351.787 363.707 352.66C363.518 355.309 363.734 357.999 363.678 360.66C363.632 362.816 363.482 364.928 363.827 367.053C362.128 367.308 360.429 367.56 358.73 367.815C358.971 366.665 358.918 365.432 358.915 364.273C358.91 362.325 358.745 360.428 358.393 358.512C358.28 357.896 357.266 358.071 357.271 358.672C357.293 360.543 357.327 362.425 357.223 364.295C357.153 365.546 356.865 366.833 356.938 368.082C355.391 368.314 353.842 368.545 352.295 368.774C352.313 366.17 351.981 363.495 351.842 360.957C351.794 360.097 350.469 360.114 350.445 360.975C350.369 363.61 350.092 366.394 350.208 369.086C348.21 369.382 346.209 369.671 344.21 369.962C344.194 369.681 344.168 369.397 344.152 369.115C344.06 367.654 343.803 366.219 343.675 364.764C343.606 363.984 342.453 363.997 342.404 364.78C342.315 366.241 342.092 367.682 342.04 369.142C342.025 369.523 342.005 369.906 342.015 370.28C340.208 370.543 338.401 370.804 336.591 371.064C336.606 370.864 336.621 370.662 336.64 370.467C336.787 369.081 336.843 367.721 336.855 366.33C336.861 365.684 335.866 365.584 335.687 366.195C335.294 367.539 334.954 368.867 334.694 370.24C334.623 370.613 334.541 370.992 334.475 371.369C332.074 371.715 329.67 372.073 327.269 372.414C327.428 371.408 327.456 370.341 327.57 369.43C327.663 368.681 326.358 368.541 326.195 369.269C325.958 370.334 325.543 371.524 325.41 372.671C283.627 378.581 241.738 383.7 199.584 386.614C147.467 390.215 94.9669 390.299 42.9588 385.396C86.7265 380.781 130.642 377.751 174.681 376.594C199.52 375.942 224.45 375.918 249.104 372.575C275.273 369.027 300.805 362.246 325.703 353.853C348.728 346.092 371.516 337.344 393.509 327.196C400.882 323.794 401.425 322.849 401.562 330.178C401.677 336.451 400.605 342.954 400.155 349.211Z" fill="#D07D4E"/>
<path d="M212.938 370.586C147.843 373.42 83.2147 375.508 18.4536 382.704C16.6106 382.472 14.7699 382.227 12.9293 381.983C15.4596 321.372 17.5864 260.74 19.627 200.111C21.0809 156.896 25.6955 111.957 23.4585 68.0889C24.1237 52.7452 24.7668 37.4019 25.3533 22.0592C86.1321 22.6818 146.911 23.114 207.692 23.5462C207.787 24.2594 207.922 24.951 208.098 25.6327C207.161 26.8293 206.185 27.9794 205.268 29.1334C197.091 29.5305 190.588 36.3971 189.911 44.232C189.122 53.3868 195.573 60.1825 203.701 63.9906C211.044 67.4305 221.304 70.1251 228.261 64.4465C234.829 59.0878 237.82 47.6578 234.356 40.2454C234.288 40.0982 234.174 40.0127 234.086 39.894C235.874 39.5184 237.658 38.976 239.397 38.1591C245.776 35.1578 248.29 29.6399 248.114 23.8442C286.191 24.1231 324.269 24.4138 362.347 24.7867C379.989 24.9584 397.674 24.4738 399.113 45.9571C399.984 58.9613 399.533 72.1964 399.6 85.225C399.731 110.154 399.674 135.083 399.504 160.012C399.143 213.213 396.476 266.477 396.927 319.666C396.932 320.439 397.295 320.949 397.786 321.26C337.236 343.998 279.051 367.708 212.938 370.586Z" fill="#D07D4E"/>
<path d="M225.37 10.1125C222.722 10.2219 220.359 10.5251 218.009 11.7964C217.465 12.0902 217.863 12.8347 218.43 12.7146C220.831 12.2089 223.103 11.364 225.474 10.7858C225.864 10.6938 225.775 10.0979 225.37 10.1125Z" fill="#855133"/>
<path d="M405.193 184.719C405.722 139.784 406.276 94.7068 405.049 49.7822C404.741 38.5264 403.095 27.248 391.216 22.0853C384.794 19.2917 377.283 19.3864 370.376 19.2876C357.772 19.1073 345.165 19.0562 332.561 18.9159C304.05 18.598 275.537 18.2096 247.025 17.8282C244.956 11.7115 240.208 6.14876 234.085 3.86121C228.618 1.81667 222.331 2.43851 217.335 5.27394C213.113 6.92192 209.94 10.4059 208.463 15.0737C208.222 15.8406 208.089 16.5826 207.939 17.3272C200.858 17.233 193.778 17.1365 186.695 17.0541C131.773 16.4241 76.8484 15.8151 21.9255 15.3096C19.9574 15.2904 18.515 16.9331 18.4495 18.7178C18.3951 20.2226 18.3506 21.7272 18.2962 23.2321C18.162 22.5475 16.9268 22.7162 17.0097 23.4178C17.3761 26.4566 17.6836 29.5032 17.9788 32.5523C15.0245 118.236 13.4098 204.028 10.7658 289.736C9.47981 320.432 8.2603 351.132 7.14165 381.833C5.50833 382.787 5.14907 385.252 6.98418 386.018C6.97859 386.157 6.97305 386.298 6.96746 386.437C6.91875 387.808 8.39243 389.349 9.89546 389.163C13.2994 388.741 16.7087 388.358 20.1153 387.954C147.173 404.189 276.318 384.649 401.919 365.412C402.874 365.266 403.412 364.246 403.46 363.427C404.289 349.165 404.872 334.892 405.534 320.622C405.578 319.667 404.408 318.78 403.441 319.14C402.656 319.432 401.875 319.729 401.089 320.024C401.126 319.887 401.191 319.771 401.204 319.616C404.672 274.814 404.666 229.624 405.193 184.719ZM240.15 30.9371C234.386 37.0233 225.068 36.4786 219.003 31.9647C219.182 31.9459 219.362 31.9248 219.544 31.9083C220.978 31.7746 222.416 31.641 223.85 31.5073C224.686 31.4283 224.688 30.2838 223.834 30.2525C222.397 30.2005 220.957 30.1487 219.52 30.0991C218.642 30.0681 217.784 29.9758 216.957 30.1204C216.805 29.9602 216.66 29.7976 216.516 29.6302C218.718 29.2986 220.874 29.0192 223.129 28.9806C223.717 28.9707 223.849 28.1183 223.256 27.9849C220.701 27.4139 217.881 27.3729 215.339 28.0779C215.098 27.712 214.867 27.3412 214.661 26.9514C215.703 26.9168 216.77 26.708 217.767 26.5729C219.582 26.3262 221.397 26.0795 223.211 25.8351C223.734 25.7649 223.764 25.01 223.201 25.0244C221.253 25.073 219.306 25.1241 217.358 25.1727C216.262 25.201 215.144 25.1637 214.087 25.363C214.055 25.0414 214.027 24.7152 213.998 24.3889C216.035 24.4096 218.12 23.9643 220.121 23.7034C223.081 23.3174 226.045 22.9899 229.016 22.6977C229.681 22.6327 229.693 21.6644 229.002 21.685C225.821 21.7873 222.642 21.9341 219.464 22.1491C217.594 22.2767 215.683 22.3154 213.881 22.7617C213.856 22.3249 213.847 21.8879 213.842 21.4509C219.222 21.339 224.788 20.1272 230.088 19.4218C230.667 19.3438 230.683 18.4765 230.076 18.5313C224.784 19.0133 219.112 19.0843 213.864 20.1345C213.903 19.3231 213.991 18.5228 214.15 17.7358C215.291 17.4767 216.425 17.1142 217.546 16.8835C219.951 16.3847 222.35 15.8837 224.786 15.5467C224.943 15.5259 224.95 15.3072 224.783 15.3046C221.828 15.2558 217.861 15.1591 214.623 16.0259C214.832 15.4521 215.075 14.8872 215.393 14.3449C218.134 9.63028 224.272 7.18199 229.737 8.25358C230.421 8.48211 231.103 8.73419 231.793 9.00965C232.142 9.14851 232.759 9.36377 233.479 9.6318C240.653 13.7037 246.03 24.7295 240.15 30.9371ZM226.037 58.1091C222.485 62.8671 216.67 62.5334 211.454 60.9086C212.082 60.7595 212.72 60.6572 213.371 60.5994C214.226 60.5225 214.237 59.2744 213.354 59.3046C211.906 59.3515 210.472 59.5722 209.103 60.0435C209.086 60.0507 209.067 60.0557 209.047 60.063C208.211 59.7377 207.407 59.3909 206.645 59.0436C205.935 58.719 205.291 58.3584 204.652 57.9976C205.61 57.7526 206.566 57.5005 207.528 57.2883C207.915 57.2034 207.831 56.5652 207.423 56.6127C205.996 56.7839 204.559 56.9012 203.124 57.042C202.712 56.7629 202.276 56.4936 201.9 56.2C202.01 55.7614 202.029 55.3335 201.982 54.9228C203.288 54.5299 204.548 53.9707 205.755 53.3629C205.97 53.2543 205.816 52.9343 205.588 52.9937C204.282 53.3466 202.971 53.5657 201.632 53.7405C201.35 53.1895 200.918 52.7273 200.387 52.3722C200.552 52.3489 200.714 52.3234 200.866 52.2933C202.601 51.9442 204.289 51.4569 205.954 50.8807C206.461 50.705 206.247 49.9557 205.718 50.1036C203.331 50.7713 200.921 51.2208 198.444 51.4408C198.206 51.4627 197.985 51.4937 197.762 51.5248C197.435 50.9673 197.157 50.3999 196.923 49.8247C199.704 49.213 202.469 48.6461 205.334 48.3787C206.906 50.0553 208.864 51.412 211.21 52.2842C216.348 54.1943 222.033 53.4486 226.324 50.0911C227.729 48.9919 229.081 47.5338 230.129 45.901C230.085 50.1037 228.283 55.0977 226.037 58.1091ZM216.464 46.6016C214.46 46.6251 212.345 46.4644 210.311 46.6811C210.164 46.5795 210.008 46.4993 209.864 46.3908C209.655 46.2313 209.491 46.0454 209.294 45.8764C209.788 45.7925 210.29 45.6732 210.82 45.5817C212.799 45.2342 214.739 44.7907 216.735 44.5393C217.054 44.5 217.064 44.0651 216.729 44.053C214.812 43.9861 212.857 43.8727 210.943 44.0126C209.96 44.084 208.841 44.1007 207.933 44.4838C207.756 44.2675 207.586 44.0466 207.43 43.8182C208.232 43.8102 209.15 43.5093 209.737 43.3725C212.042 42.8397 214.399 42.6871 216.714 42.1683C217.166 42.0685 217.044 41.4166 216.599 41.4153C214.442 41.4103 212.324 41.2168 210.183 41.557C209.424 41.6773 208.669 41.8116 207.913 41.9412C207.665 41.9844 206.411 42.2073 206.818 42.1598C206.73 42.1726 206.641 42.1809 206.563 42.2148C206.335 41.6772 206.163 41.1107 206.035 40.5224C206.889 40.3986 207.735 40.2021 208.413 40.1205C211.282 39.7732 214.082 39.2575 216.851 38.4579C217.167 38.3669 217.104 37.8953 216.765 37.9021C214.481 37.9551 212.242 38.1132 209.967 38.3235C208.917 38.4217 207.869 38.5317 206.819 38.6299C206.478 38.6625 206.139 38.6903 205.797 38.7205C205.8 38.14 205.869 37.5986 205.995 37.087C209.02 36.8059 212.029 36.3086 215.011 35.7672C218.387 38.3323 222.6 39.9747 227.094 40.3585C226.276 42.9073 225.423 45.2568 222.686 47.0783C219.706 49.0604 216.041 49.2557 212.835 48.0374C214.088 47.7298 215.33 47.3637 216.542 47.0801C216.819 47.0107 216.75 46.5979 216.464 46.6016ZM196.175 43.1857C198.068 42.8887 199.992 42.3349 201.73 41.8636C201.945 42.674 202.23 43.4552 202.565 44.21C200.391 44.6353 198.198 44.9715 195.993 45.2303C195.996 44.5464 196.054 43.8642 196.175 43.1857ZM206.973 34.7029C207.702 34.5995 208.431 34.4304 209.152 34.3153C210.333 34.1285 211.511 33.9134 212.689 33.7055C213.163 34.1929 213.658 34.6565 214.183 35.0987C211.643 35.155 209.093 35.2537 206.562 35.4956C206.687 35.2308 206.824 34.9657 206.973 34.7029ZM212.035 33.0041C211.01 33.0221 209.984 33.0331 208.959 33.0698C208.632 33.0811 208.305 33.0829 207.98 33.0848C208.108 32.8904 208.236 32.6867 208.366 32.4852C209.236 32.2437 210.074 31.9485 210.87 31.534C211.233 32.0416 211.619 32.5301 212.035 33.0041ZM210.246 30.6207C210.005 30.6167 209.764 30.6105 209.523 30.623C209.633 30.4406 209.761 30.2438 209.867 30.0638C209.98 30.2574 210.128 30.4295 210.246 30.6207ZM201.334 39.9463C201.366 40.1785 201.433 40.3985 201.475 40.6259C200.104 40.9351 198.733 41.2326 197.344 41.4574C197.103 41.4957 196.853 41.5224 196.604 41.5538C196.915 40.6121 197.316 39.6856 197.865 38.7924C198.514 38.5725 199.158 38.3551 199.793 38.1612C200.648 37.901 200.273 36.6368 199.405 36.8784C199.349 36.8932 199.29 36.9081 199.233 36.9229C200.016 36.0056 200.957 35.1449 202.021 34.3392C201.349 36.0212 201.036 37.8467 201.334 39.9463ZM203.163 45.4009C203.624 46.234 204.16 47.0168 204.773 47.7468C201.981 47.8158 199.174 47.9413 196.409 48.3225C196.29 47.8798 196.176 47.4371 196.109 46.9915C198.495 46.6175 200.83 46.0774 203.163 45.4009ZM199.524 53.9345C199.19 53.5558 198.848 53.1819 198.563 52.7884C199.033 53.0455 199.454 53.4396 199.75 53.9176C199.677 53.9256 199.601 53.9289 199.524 53.9345ZM400.155 349.211C399.627 356.53 399.649 359.594 394.489 361.743C394.273 361.193 394.025 360.656 393.731 360.154C393.444 359.667 392.661 360.015 392.806 360.54C392.966 361.119 393.032 361.691 393.074 362.264C392.359 362.501 391.563 362.732 390.682 362.958C390.62 362.721 390.566 362.487 390.533 362.25C390.391 361.18 390.33 360.069 390.319 358.993C390.313 358.546 389.665 358.496 389.528 358.9C389.113 360.125 388.96 361.213 389.092 362.499C389.118 362.752 389.143 363.02 389.176 363.287C388.222 363.504 387.258 363.7 386.286 363.877C386.211 363.227 386.045 362.566 385.941 361.945C385.656 360.219 385.194 358.53 384.93 356.797C384.887 356.523 384.457 356.507 384.466 356.803C384.516 358.642 384.368 360.473 384.396 362.31C384.407 362.952 384.366 363.601 384.424 364.216C383.103 364.428 381.775 364.622 380.439 364.796C380.615 361.671 380.018 358.527 379.867 355.41C379.853 355.098 379.366 355.104 379.358 355.417C379.289 358.593 378.745 361.805 379.034 364.981C377.73 365.144 376.428 365.302 375.132 365.459C375.222 365.425 375.323 365.412 375.386 365.32C376.569 363.598 376.005 361.255 375.945 359.277C375.873 356.944 375.546 354.718 375.184 352.413C375.131 352.066 374.494 352.074 374.449 352.422C374.147 354.736 373.878 356.97 373.866 359.304C373.857 361.283 373.354 363.64 374.581 365.33C374.659 365.437 374.777 365.464 374.888 365.488C373.049 365.712 371.222 365.945 369.427 366.215C368.077 366.418 366.729 366.616 365.379 366.819C366.636 362.472 366.234 356.679 365.411 352.417C365.224 351.442 363.77 351.787 363.707 352.66C363.518 355.309 363.735 357.999 363.678 360.66C363.632 362.816 363.482 364.928 363.827 367.053C362.128 367.308 360.429 367.56 358.73 367.815C358.971 366.665 358.918 365.432 358.916 364.273C358.91 362.325 358.745 360.428 358.393 358.512C358.28 357.896 357.266 358.071 357.271 358.672C357.293 360.543 357.327 362.425 357.223 364.295C357.154 365.546 356.865 366.833 356.938 368.082C355.391 368.314 353.842 368.545 352.295 368.774C352.313 366.17 351.981 363.495 351.842 360.957C351.794 360.097 350.469 360.114 350.445 360.975C350.369 363.61 350.092 366.394 350.208 369.086C348.21 369.382 346.209 369.671 344.21 369.962C344.194 369.681 344.169 369.397 344.153 369.115C344.06 367.654 343.803 366.219 343.676 364.764C343.607 363.984 342.453 363.997 342.404 364.78C342.315 366.241 342.092 367.682 342.04 369.142C342.025 369.523 342.005 369.906 342.015 370.28C340.208 370.543 338.401 370.804 336.592 371.064C336.606 370.864 336.621 370.662 336.64 370.467C336.787 369.081 336.844 367.721 336.855 366.33C336.861 365.684 335.866 365.584 335.687 366.195C335.294 367.539 334.954 368.867 334.694 370.24C334.623 370.613 334.542 370.992 334.475 371.369C332.074 371.715 329.67 372.073 327.269 372.414C327.428 371.408 327.456 370.341 327.57 369.43C327.663 368.681 326.358 368.541 326.195 369.269C325.958 370.334 325.543 371.524 325.41 372.671C283.627 378.581 241.738 383.7 199.584 386.614C147.467 390.215 94.9671 390.299 42.9589 385.396C86.7266 380.781 130.643 377.751 174.681 376.594C199.52 375.942 224.45 375.918 249.104 372.575C275.273 369.027 300.805 362.246 325.703 353.853C348.728 346.092 371.516 337.344 393.509 327.196C400.882 323.794 401.425 322.849 401.562 330.178C401.677 336.451 400.605 342.954 400.155 349.211ZM212.938 370.587C147.843 373.421 83.2147 375.508 18.4535 382.704C16.6105 382.472 14.7699 382.228 12.9292 381.984C15.4596 321.372 17.5863 260.74 19.6269 200.112C21.0808 156.896 25.6955 111.957 23.4585 68.0894C24.1237 52.7457 24.7667 37.4024 25.3532 22.0598C86.132 22.6823 146.911 23.1145 207.692 23.5467C207.787 24.2599 207.922 24.9515 208.098 25.6332C207.161 26.8298 206.185 27.9799 205.268 29.1339C197.091 29.531 190.587 36.3976 189.911 44.2325C189.122 53.3873 195.573 60.1831 203.701 63.9911C211.044 67.431 221.304 70.1257 228.261 64.447C234.828 59.0883 237.82 47.6583 234.356 40.2459C234.288 40.0987 234.174 40.0132 234.086 39.8945C235.874 39.5189 237.658 38.9765 239.397 38.1596C245.776 35.1583 248.29 29.6404 248.114 23.8447C286.191 24.1237 324.269 24.4143 362.347 24.7873C379.989 24.9589 397.674 24.4743 399.113 45.9576C399.984 58.9618 399.533 72.1969 399.6 85.2255C399.73 110.155 399.674 135.084 399.504 160.012C399.143 213.214 396.476 266.478 396.927 319.666C396.932 320.439 397.295 320.949 397.786 321.26C337.236 343.998 279.051 367.709 212.938 370.587Z" fill="#855133"/>
<path d="M370.397 345.905C370.361 345.386 369.571 345.394 369.551 345.916C369.404 349.399 369.586 352.806 369.631 356.282C369.67 359.294 368.905 362.383 369.735 365.296C369.866 365.757 370.597 365.748 370.716 365.283C371.466 362.364 370.614 359.268 370.588 356.269C370.558 352.799 370.634 349.378 370.397 345.905Z" fill="#855133"/>
</svg>
