<svg width="442" height="401" viewBox="0 0 442 401" fill="none" xmlns="http://www.w3.org/2000/svg">
<path d="M396.118 43.0527C392.784 40.8453 389.428 38.6625 386.052 36.4975C389.75 35.9732 393.448 35.4466 397.127 34.8746C396.772 37.5998 396.447 40.3251 396.118 43.0527Z" fill="#47890F"/>
<path d="M59.4256 42.743C56.8364 44.1431 54.2421 45.534 51.6579 46.9431C50.2179 47.7277 48.7449 48.5166 47.2745 49.3054C47.1473 46.5966 47.0278 43.8856 46.8574 41.1809C51.0363 41.7437 55.2336 42.2366 59.4256 42.743Z" fill="#47890F"/>
<path d="M23.5009 105.03C22.0493 104.156 15.8796 87.6342 16.0719 84.637C16.1214 83.8747 15.3398 83.2883 14.5409 83.2524C14.1239 82.4501 13.7094 81.6478 13.2924 80.8456C13.6645 80.0296 12.7461 79.1126 11.8428 79.1231C10.6412 79.3094 9.43969 79.4935 8.24065 79.6799C8.70638 79.5055 8.90326 79.0129 8.94469 78.6071C8.99987 78.0728 9.05512 77.5384 9.1103 77.0041C9.11848 76.9365 9.09353 76.88 9.08391 76.8167C20.3589 71.2873 31.1239 64.2258 41.7482 57.3078C41.9391 58.4534 42.1352 59.5923 42.2857 60.7128C42.8515 64.9755 43.6485 69.2063 44.913 73.3552C45.1476 74.1243 46.3468 73.9312 46.4164 73.1871C46.8596 68.3958 46.6759 63.624 46.3225 58.8328C46.2153 57.39 46.174 55.9456 46.0743 54.5142C49.2805 52.4468 52.479 50.4065 55.6817 48.4654C58.5478 46.7292 61.4539 45.0452 64.3526 43.3544C64.7024 43.3956 65.0496 43.4437 65.4019 43.485C65.5733 43.3104 65.7877 43.1564 65.9819 42.9933C71.7218 43.1696 77.8445 42.4579 83.1484 41.6761C83.5701 41.6142 83.5214 41.0632 83.1543 40.9654C79.947 40.1038 76.3467 39.2119 72.6938 38.5474C82.9717 32.7141 93.3675 27.0352 103.731 21.3312C103.812 21.3341 103.875 21.3776 103.964 21.3535C107.44 20.4392 110.843 19.3278 114.25 18.2166C114.2 19.0511 114.92 19.9777 115.938 19.8937C116.238 19.8691 124.563 18.5506 124.585 20.0807C124.6 21.0849 125.639 21.7909 126.732 21.5608C127.832 22.3348 128.932 23.1067 130.029 23.8807C128.763 25.0639 129.993 26.9674 131.782 26.6076C132.51 27.5298 133.238 28.452 133.966 29.3719C132.838 30.5517 133.622 32.07 135.282 32.2621C135.523 32.2934 135.766 32.3067 136.009 32.3358C135.998 32.8456 136.143 33.3569 136.502 33.8112C136.73 34.0974 137.118 34.2021 137.454 34.056C137.247 35.4623 137.101 36.8759 137.043 38.3556C136.997 39.5241 138.335 40.3837 139.568 40.0961C141.965 39.5406 144.03 38.9779 146.096 38.1624C147.629 38.1571 147.289 38.7387 144.932 39.9534C143.991 40.5322 143.05 41.1089 142.109 41.6855C131.761 40.4081 119.841 41.4146 110.92 43.0215C110.638 43.0711 110.658 43.4413 110.916 43.5089C117.625 45.2435 124.603 46.3486 131.541 47.0741C131.911 47.1133 132.289 47.1593 132.661 47.2008C131.603 47.7945 130.566 48.4199 129.5 49.0045C122.247 52.972 114.786 56.6174 107.322 60.2605C93.0843 67.2095 78.691 74.0105 65.4537 82.4232C61.2479 85.096 53.1372 92.3937 44.8488 98.1736C44.9382 95.356 44.9971 92.5518 44.7288 89.7244C44.6542 88.934 43.4357 88.714 43.1423 89.5194C41.8052 93.1841 41.0739 96.9305 40.2003 100.696C40.1698 100.7 40.1418 100.709 40.1113 100.716C40.1129 100.838 40.1118 100.959 40.1134 101.079C40.1108 101.086 40.1107 101.095 40.1081 101.101C40.0924 101.167 40.074 101.237 40.0582 101.302C33.6021 105.195 27.4869 107.43 23.5009 105.03Z" fill="#FFB251"/>
<path d="M393.337 376.997C295.826 376.292 198.319 379.386 101.168 386.735C90.2362 387.563 79.3095 388.442 68.3873 389.374C62.0174 389.917 55.6543 390.541 49.282 391.059C48.0202 391.161 44.1698 391.975 42.8517 391.538C36.5568 389.45 34.9957 383.742 33.8955 379.064C31.7268 369.851 34.0052 357.922 34.6086 348.517C35.3112 337.55 36.3942 326.606 37.4619 315.662C41.727 271.971 44.8206 228.203 46.4738 184.364C47.5412 156.061 48.509 127.536 48.5047 99.0478C61.2916 90.7893 73.2582 81.1024 86.7477 74.0818C102.637 65.813 120.57 58.7458 136.076 49.253C197.095 52.3258 258.74 50.5592 319.485 44.6512C320.083 45.1029 320.688 45.5478 321.291 45.9929C323.638 48.0455 325.988 50.0936 328.305 52.173C328.864 52.6764 329.57 52.556 330.022 52.1896C348.882 65.0617 369.587 76.067 390.288 86.6934C390.091 88.6549 390.209 90.5965 390.775 92.4785C382.021 187.207 382.247 282.105 393.337 376.997Z" fill="#47890F"/>
<path d="M429.141 82.558C428.452 82.7238 427.887 83.3284 427.904 83.9784C428.214 87.0295 426.869 88.2075 423.871 87.5169C422.572 87.5716 422.002 88.6364 422.479 89.6377C424.174 93.2058 424.621 93.205 420.301 93.3451C419.068 93.3845 418.527 94.4156 418.981 95.3581C422.721 103.138 415.806 96.6834 411.373 94.2818C406.279 91.5226 401.208 88.7297 396.126 85.9504C396.167 85.2941 396.211 84.6356 396.282 83.9796C396.788 79.2497 396.54 74.3218 397.672 69.6648C397.822 69.0455 396.875 68.8187 396.622 69.3966C394.806 73.5289 392.214 78.3069 390.946 83.123C379.581 76.9698 368.097 70.9985 356.878 64.63C344.467 57.5859 332.493 50.1505 321.205 41.9762C325.464 41.3866 329.774 41.1765 333.987 40.3473C334.539 40.239 334.525 39.501 333.995 39.3725C329.081 38.1809 323.823 38.2771 318.776 38.1291C317.878 38.1036 316.962 38.0756 316.039 38.0566C309.598 32.4341 303.063 26.9011 296.434 21.444C296.031 21.0593 295.623 20.679 295.223 20.2898C299.985 19.9594 304.088 17.4346 309.937 17.9909C311.004 18.0923 311.85 16.9846 311.558 16.1315C311.682 16.489 318.923 13.3495 320.138 12.4774C320.58 12.1606 320.781 11.4515 320.597 10.9807C321.628 13.6022 325.053 12.9989 327.388 13.2101C328.321 13.2946 329.381 12.3962 329.282 11.5538C329.146 10.4808 329.036 9.40579 328.913 8.33068C343.413 16.5181 357.959 24.566 372.223 33.0539C371.562 33.1883 370.904 33.3295 370.263 33.4821C366.722 34.3327 363.289 33.801 359.712 34.3828C358.475 34.5846 358.744 36.3628 359.993 36.3325C363.639 36.2432 366.835 35.0874 370.52 35.2692C372.265 35.3559 374.048 35.3594 375.81 35.2206C378.261 36.7009 380.733 38.1498 383.164 39.6661C387.303 42.2458 391.419 44.8524 395.518 47.4837C395.371 48.2857 395.283 49.1041 395.221 49.9385C395.052 52.2048 395.185 54.5415 396.248 56.6308C396.52 57.1678 397.598 57.2016 397.872 56.6443C398.775 54.8015 399.065 52.8452 399.394 50.8645C399.437 50.6121 399.489 50.3531 399.54 50.0963C403.03 52.3614 406.515 54.6288 409.961 56.9456C415.247 60.4983 420.468 64.125 425.677 67.7673C431.065 71.5466 441.384 79.5864 429.141 82.558Z" fill="#FFB251"/>
<path d="M440.813 76.6592C437.879 67.9609 421.623 60.4697 414.06 55.2147C410.183 52.5198 406.268 49.8494 402.33 47.1946C403.054 41.846 403.789 36.4998 404.592 31.1609C404.922 28.9636 402.148 27.8484 400.192 28.1277C392.638 29.2045 385.09 30.1931 377.544 31.1346C361.375 21.0875 344.725 11.6343 327.527 3.30036C325.859 2.49221 324.293 3.7835 324.542 5.30643C326.461 9.39308 324.557 10.4491 318.827 8.4744C317.64 8.16893 316.162 9.23076 316.652 10.3766C316.545 10.1275 309.5 13.1987 308.301 14.0101C307.857 14.311 307.712 14.9868 307.863 15.4393C307.239 13.5635 284.868 14.1131 290.124 16.305C288.465 15.612 286.329 17.4943 287.973 18.7445C292.238 21.9909 296.438 25.3022 300.601 28.6471C303.974 31.8658 307.462 34.9793 311.072 37.9743C256.545 42.3342 202.072 43.6415 147.366 42.5776C146.989 42.4932 146.586 42.4402 146.204 42.3626C148.111 40.9094 149.975 39.4153 151.749 37.837C152.197 37.4391 152.007 36.7246 151.384 36.5727C150.574 36.3742 149.812 36.2301 149.064 36.1111C148.96 35.7988 148.666 35.5347 148.232 35.5243C145.698 35.4626 143.504 35.7038 141.181 36.12C141.304 34.5551 141.525 32.9999 141.964 31.4624C142.242 30.2733 141.411 29.3119 140.062 29.2037C139.469 29.1491 138.873 29.1283 138.279 29.085C139.114 26.3188 137.283 23.8215 134.207 23.2972C134.728 20.4381 131.747 18.3418 127.994 18.3806C127.994 18.0669 127.994 17.7555 127.994 17.4419C127.993 16.6746 127.221 15.8175 126.282 15.8932C123.764 16.0979 121.248 16.3139 118.732 16.5322C118.75 16.4962 118.768 16.4603 118.783 16.4244C119.737 15.1957 117.963 14.0302 116.698 14.5387C112.233 16.3406 107.696 18.0134 103.348 20.0306C103.16 20.1193 103.057 20.256 103.003 20.4022C91.5458 25.8512 80.3018 31.6088 69.1606 37.5319C60.7722 36.1128 52.4183 34.5248 44.133 32.6102C42.0667 32.1327 39.9575 33.4623 39.9388 35.4005C39.8868 41.3594 39.8778 47.3187 39.8791 53.2758C27.0935 60.1511 13.9895 67.4975 3.62969 76.4711C3.64228 76.4825 3.65491 76.494 3.6675 76.5053C2.79278 77.3533 3.43648 78.6583 4.58766 78.7356C4.32179 79.284 4.39499 79.9367 5.1075 80.2901C7.15162 81.2955 9.73533 81.4794 8.5521 84.0375C8.15167 84.9029 9.12409 85.73 10.0142 85.7735C10.5233 87.1046 11.0348 88.4379 11.5438 89.769C11.1262 90.571 11.4071 91.5708 12.4679 91.8323C18.7949 93.408 20.1572 105.943 21.5632 110.458C21.8029 111.228 22.8527 111.911 23.7712 111.598C29.2109 109.737 34.3329 107.32 39.2724 104.59C38.826 106.716 38.5949 108.874 39.2629 110.919C39.4114 111.372 39.7486 111.706 40.1577 111.935C40.2516 133.61 40.1881 155.287 39.4471 176.981C37.838 224.054 34.5021 271.033 29.9413 317.944C27.8107 339.863 24.1589 363.167 26.9065 385.159C28.8191 400.461 43.7345 398.014 57.422 396.779C110.187 392.012 163.096 388.473 216.073 386.158C276.363 383.525 336.723 382.533 397.087 383.114C398.792 383.13 400.739 381.736 400.547 380.09C389.259 284.039 387.59 186.584 397.255 90.258C406.029 94.7424 414.763 99.1948 423.306 103.727C424.675 104.453 425.828 103.089 425.309 101.974C423.522 98.128 421.338 96.0068 426.466 95.896C427.359 95.8764 428.373 95.0364 427.975 94.1666C426.415 90.7577 425.457 90.3006 429.667 90.1776C430.535 90.1532 431.321 89.5527 431.31 88.7403C431.213 81.846 443.764 85.4095 440.813 76.6592ZM396.118 43.052C392.785 40.8445 389.429 38.6617 386.052 36.4968C389.75 35.9724 393.449 35.4458 397.127 34.8739C396.772 37.599 396.448 40.3244 396.118 43.052ZM59.4258 42.7426C56.8365 44.1426 54.2423 45.5335 51.658 46.9426C50.218 47.7272 48.7451 48.5161 47.2746 49.3049C47.1475 46.5961 47.0279 43.8851 46.8575 41.1804C51.0365 41.7432 55.2337 42.2361 59.4258 42.7426ZM23.501 105.03C22.0494 104.156 15.8797 87.6342 16.072 84.637C16.1215 83.8747 15.3399 83.2883 14.541 83.2524C14.124 82.4501 13.7095 81.6478 13.2925 80.8456C13.6646 80.0296 12.7462 79.1126 11.8429 79.1231C10.6414 79.3094 9.4398 79.4935 8.24076 79.6799C8.70649 79.5055 8.90337 79.0129 8.9448 78.6071C8.99998 78.0728 9.05523 77.5384 9.11041 77.0041C9.11859 76.9365 9.09364 76.88 9.08402 76.8167C20.359 71.2873 31.124 64.2258 41.7484 57.3078C41.9393 58.4534 42.1353 59.5923 42.2858 60.7128C42.8516 64.9755 43.6486 69.2063 44.9131 73.3552C45.1477 74.1243 46.3469 73.9312 46.4165 73.1871C46.8597 68.3958 46.676 63.624 46.3226 58.8328C46.2154 57.39 46.1741 55.9456 46.0744 54.5142C49.2806 52.4468 52.4791 50.4065 55.6818 48.4654C58.5479 46.7292 61.454 45.0452 64.3527 43.3544C64.7025 43.3956 65.0497 43.4437 65.402 43.485C65.5734 43.3104 65.7878 43.1564 65.982 42.9933C71.7219 43.1696 77.8446 42.4579 83.1485 41.6761C83.5702 41.6142 83.5215 41.0632 83.1544 40.9654C79.9471 40.1038 76.3468 39.2119 72.6939 38.5474C82.9718 32.7141 93.3676 27.0352 103.731 21.3312C103.812 21.3341 103.875 21.3776 103.964 21.3535C107.44 20.4392 110.844 19.3278 114.25 18.2166C114.2 19.0511 114.92 19.9777 115.938 19.8937C116.238 19.8691 124.563 18.5506 124.586 20.0807C124.6 21.0849 125.639 21.7909 126.732 21.5608C127.832 22.3348 128.932 23.1067 130.029 23.8807C128.763 25.0639 129.993 26.9674 131.782 26.6076C132.51 27.5298 133.238 28.452 133.966 29.3719C132.838 30.5517 133.622 32.07 135.282 32.2621C135.523 32.2934 135.766 32.3067 136.009 32.3358C135.998 32.8456 136.143 33.3569 136.502 33.8112C136.731 34.0974 137.118 34.2021 137.454 34.056C137.247 35.4623 137.101 36.8759 137.043 38.3556C136.998 39.5241 138.335 40.3837 139.568 40.0961C141.965 39.5406 144.03 38.9779 146.097 38.1624C147.629 38.1571 147.289 38.7387 144.932 39.9534C143.991 40.5322 143.05 41.1089 142.109 41.6855C131.761 40.4081 119.841 41.4146 110.921 43.0215C110.639 43.0711 110.658 43.4413 110.916 43.5089C117.625 45.2435 124.603 46.3486 131.541 47.0741C131.911 47.1133 132.289 47.1593 132.661 47.2008C131.604 47.7945 130.566 48.4199 129.5 49.0045C122.247 52.972 114.786 56.6174 107.322 60.2605C93.0845 67.2095 78.6911 74.0105 65.4538 82.4232C61.248 85.096 53.1373 92.3937 44.8489 98.1736C44.9383 95.356 44.9972 92.5518 44.7289 89.7244C44.6543 88.934 43.4358 88.714 43.1424 89.5194C41.8053 93.1841 41.074 96.9305 40.2004 100.696C40.1699 100.7 40.1419 100.709 40.1115 100.716C40.113 100.838 40.1119 100.959 40.1135 101.079C40.1109 101.086 40.1108 101.095 40.1082 101.101C40.0925 101.167 40.0741 101.237 40.0583 101.302C33.6022 105.195 27.487 107.43 23.501 105.03ZM393.337 376.997C295.826 376.293 198.32 379.386 101.168 386.736C90.2367 387.563 79.3099 388.443 68.3878 389.374C62.0178 389.917 55.6547 390.541 49.2824 391.059C48.0206 391.161 44.1703 391.975 42.8521 391.538C36.5573 389.45 34.9962 383.742 33.8959 379.064C31.7272 369.851 34.0057 357.922 34.609 348.517C35.3116 337.55 36.3946 326.606 37.4623 315.662C41.7275 271.971 44.8211 228.203 46.4742 184.364C47.5416 156.061 48.5094 127.536 48.5051 99.0479C61.292 90.7895 73.2586 81.1025 86.7481 74.0819C102.638 65.8131 120.57 58.7459 136.077 49.2532C197.095 52.3259 258.74 50.5593 319.486 44.6513C320.083 45.1031 320.688 45.548 321.291 45.993C323.639 48.0456 325.989 50.0938 328.305 52.1732C328.864 52.6765 329.571 52.5561 330.023 52.1898C348.883 65.0618 369.588 76.0672 390.288 86.6935C390.091 88.655 390.21 90.5966 390.775 92.4787C382.021 187.207 382.247 282.106 393.337 376.997ZM429.142 82.5576C428.453 82.7234 427.887 83.328 427.904 83.978C428.214 87.0291 426.87 88.2071 423.872 87.5165C422.572 87.5711 422.003 88.636 422.479 89.6373C424.174 93.2054 424.621 93.2046 420.302 93.3447C419.068 93.3841 418.527 94.4152 418.981 95.3577C422.722 103.138 415.806 96.683 411.374 94.2814C406.279 91.5222 401.208 88.7293 396.127 85.95C396.168 85.2937 396.211 84.6352 396.283 83.9792C396.789 79.2493 396.54 74.3214 397.673 69.6644C397.822 69.0451 396.875 68.8184 396.622 69.3962C394.807 73.5285 392.215 78.3065 390.947 83.1226C379.581 76.9694 368.097 70.9981 356.878 64.6296C344.467 57.5855 332.493 50.1501 321.205 41.9758C325.465 41.3862 329.774 41.1761 333.988 40.3469C334.539 40.2386 334.525 39.5006 333.996 39.3721C329.081 38.1805 323.824 38.2767 318.776 38.1287C317.878 38.1032 316.963 38.0752 316.039 38.0562C309.599 32.4337 303.064 26.9007 296.434 21.4436C296.031 21.0589 295.623 20.6786 295.223 20.2895C299.986 19.959 304.089 17.4342 309.937 17.9905C311.004 18.0919 311.851 16.9842 311.559 16.1311C311.682 16.4887 318.924 13.3492 320.139 12.477C320.58 12.1602 320.782 11.4511 320.598 10.9803C321.629 13.6018 325.054 12.9985 327.389 13.2097C328.322 13.2942 329.382 12.3959 329.282 11.5534C329.147 10.4804 329.036 9.4054 328.913 8.33029C343.413 16.5177 357.96 24.5656 372.223 33.0535C371.563 33.1879 370.904 33.3291 370.264 33.4818C366.723 34.3324 363.289 33.8006 359.712 34.3824C358.475 34.5842 358.744 36.3624 359.993 36.3321C363.639 36.2428 366.835 35.087 370.52 35.2688C372.265 35.3555 374.049 35.359 375.811 35.2202C378.262 36.7005 380.733 38.1494 383.164 39.6657C387.303 42.2454 391.42 44.852 395.518 47.4833C395.372 48.2854 395.284 49.1037 395.221 49.9381C395.052 52.2044 395.185 54.5411 396.249 56.6304C396.521 57.1674 397.599 57.2012 397.872 56.6439C398.776 54.8011 399.066 52.8448 399.394 50.8641C399.437 50.6117 399.49 50.3527 399.54 50.0959C403.03 52.361 406.515 54.6285 409.961 56.9452C415.247 60.4979 420.468 64.1246 425.677 67.7669C431.065 71.5462 441.385 79.586 429.142 82.5576Z" fill="#0B592B"/>
<path d="M345.905 37.5289C344.701 37.6317 343.669 37.6456 342.628 38.2733C341.909 38.7074 342.092 39.8619 343.09 39.8341C344.371 39.7974 345.202 39.3215 346.27 38.764C346.859 38.4552 346.674 37.4631 345.905 37.5289Z" fill="#642C00"/>
<path d="M397.958 63.6872C397.97 64.3372 398.047 64.8816 398.209 65.5125C398.361 66.1072 399.397 66.1158 399.559 65.5237C399.731 64.8911 399.817 64.3503 399.84 63.7028C399.875 62.6268 397.939 62.6084 397.958 63.6872Z" fill="#642C00"/>
<path d="M44.8842 78.9939C44.8084 78.3456 44.6815 77.74 44.4939 77.1111C44.257 76.3149 42.9327 76.3016 42.6826 77.0961C42.4845 77.724 42.3476 78.3274 42.2611 78.9721C42.0635 80.4687 45.062 80.4959 44.8842 78.9939Z" fill="#642C00"/>
<path d="M89.0166 42.0177C90.5692 42.6466 92.3996 41.8946 93.7333 41.073C94.4805 40.6121 94.1682 39.7228 93.3039 39.6209C91.8947 39.4557 89.7636 39.4515 88.8109 40.5199C88.4344 40.9455 88.3188 41.7344 89.0166 42.0177Z" fill="#642C00"/>
<path d="M103.533 43.5597C104.317 43.6407 104.82 43.8367 105.618 43.726C106.41 43.6153 106.422 42.424 105.629 42.3023C104.808 42.1737 104.35 42.3639 103.543 42.4339C102.73 42.5038 102.72 43.4762 103.533 43.5597Z" fill="#642C00"/>
</svg>
